<?xml version="1.0" encoding="UTF-8" standalone="no"?>
<!DOCTYPE svg PUBLIC "-//W3C//DTD SVG 1.1//EN"
 "http://www.w3.org/Graphics/SVG/1.1/DTD/svg11.dtd">
<!-- Generated by graphviz version 7.0.5 (20221223.1930)
 -->
<!-- Title: modbusUnpackTCP Pages: 1 -->
<svg width="479pt" height="64pt"
 viewBox="0.00 0.00 479.00 64.00" xmlns="http://www.w3.org/2000/svg" xmlns:xlink="http://www.w3.org/1999/xlink">
<g id="graph0" class="graph" transform="scale(1 1) rotate(0) translate(4 60)">
<title>modbusUnpackTCP</title>
<!-- Node1 -->
<g id="node1" class="node">
<title>Node1</title>
<g id="a_node1"><a xlink:title="Unpacks data from a Modbus TCP frame.">
<polygon fill="#999999" stroke="#666666" points="471,-37 367,-37 367,-18 471,-18 471,-37"/>
<text text-anchor="middle" x="419" y="-25" font-family="Helvetica,sans-Serif" font-size="10.00">modbusUnpackTCP</text>
</a>
</g>
</g>
<!-- Node2 -->
<g id="node2" class="node">
<title>Node2</title>
<g id="a_node2"><a xlink:href="slave_8impl_8h.html#a5ad3fe86aa14f8982d7c459c68cd8b3e" target="_top" xlink:title="Parses provided Modbus TCP request frame and generates a Modbus TCP response.">
<polygon fill="white" stroke="#666666" points="327,-56 195,-56 195,-37 327,-37 327,-56"/>
<text text-anchor="middle" x="261" y="-44" font-family="Helvetica,sans-Serif" font-size="10.00">modbusParseRequestTCP</text>
</a>
</g>
</g>
<!-- Node1&#45;&gt;Node2 -->
<g id="edge1" class="edge">
<title>Node1&#45;&gt;Node2</title>
<path fill="none" stroke="#63b8ff" d="M355.75,-35.08C346.43,-36.22 336.8,-37.39 327.42,-38.53"/>
<polygon fill="#63b8ff" stroke="#63b8ff" points="355.91,-38.59 365.42,-33.9 355.07,-31.64 355.91,-38.59"/>
</g>
<!-- Node4 -->
<g id="node4" class="node">
<title>Node4</title>
<g id="a_node4"><a xlink:href="master_8impl_8h.html#a53ea67c733b1e627e1cdcb0003270a1b" target="_top" xlink:title="Parses a Modbus TCP slave response.">
<polygon fill="white" stroke="#666666" points="331,-19 191,-19 191,0 331,0 331,-19"/>
<text text-anchor="middle" x="261" y="-7" font-family="Helvetica,sans-Serif" font-size="10.00">modbusParseResponseTCP</text>
</a>
</g>
</g>
<!-- Node1&#45;&gt;Node4 -->
<g id="edge3" class="edge">
<title>Node1&#45;&gt;Node4</title>
<path fill="none" stroke="#63b8ff" d="M355.48,-20.29C347.54,-19.37 339.37,-18.43 331.33,-17.5"/>
<polygon fill="#63b8ff" stroke="#63b8ff" points="355.08,-23.76 365.42,-21.43 355.88,-16.81 355.08,-23.76"/>
</g>
<!-- Node3 -->
<g id="node3" class="node">
<title>Node3</title>
<g id="a_node3"><a xlink:href="classllm_1_1Slave.html#a05169339916c3727c780c75157b399b9" target="_top" xlink:title=" ">
<polygon fill="white" stroke="#666666" points="149,-56 6,-56 6,-37 149,-37 149,-56"/>
<text text-anchor="middle" x="77.5" y="-44" font-family="Helvetica,sans-Serif" font-size="10.00">llm::Slave::parseRequestTCP</text>
</a>
</g>
</g>
<!-- Node2&#45;&gt;Node3 -->
<g id="edge2" class="edge">
<title>Node2&#45;&gt;Node3</title>
<path fill="none" stroke="#63b8ff" d="M183.52,-46.5C172.19,-46.5 160.54,-46.5 149.33,-46.5"/>
<polygon fill="#63b8ff" stroke="#63b8ff" points="183.22,-50 193.22,-46.5 183.22,-43 183.22,-50"/>
</g>
<!-- Node5 -->
<g id="node5" class="node">
<title>Node5</title>
<g id="a_node5"><a xlink:href="classllm_1_1Master.html#ad1f614f5d44a61a8507ae34968fa7903" target="_top" xlink:title=" ">
<polygon fill="white" stroke="#666666" points="155,-19 0,-19 0,0 155,0 155,-19"/>
<text text-anchor="middle" x="77.5" y="-7" font-family="Helvetica,sans-Serif" font-size="10.00">llm::Master::parseResponseTCP</text>
</a>
</g>
</g>
<!-- Node4&#45;&gt;Node5 -->
<g id="edge4" class="edge">
<title>Node4&#45;&gt;Node5</title>
<path fill="none" stroke="#63b8ff" d="M179.15,-9.5C171.26,-9.5 163.27,-9.5 155.42,-9.5"/>
<polygon fill="#63b8ff" stroke="#63b8ff" points="179.09,-13 189.09,-9.5 179.09,-6 179.09,-13"/>
</g>
</g>
</svg>
