<?xml version="1.0" encoding="UTF-8" standalone="no"?>
<!DOCTYPE svg PUBLIC "-//W3C//DTD SVG 1.1//EN"
 "http://www.w3.org/Graphics/SVG/1.1/DTD/svg11.dtd">
<!-- Generated by graphviz version 7.0.5 (20221223.1930)
 -->
<!-- Title: modbusRBE Pages: 1 -->
<svg width="644pt" height="304pt"
 viewBox="0.00 0.00 644.00 304.00" xmlns="http://www.w3.org/2000/svg" xmlns:xlink="http://www.w3.org/1999/xlink">
<g id="graph0" class="graph" transform="scale(1 1) rotate(0) translate(4 300)">
<title>modbusRBE</title>
<!-- Node1 -->
<g id="node1" class="node">
<title>Node1</title>
<g id="a_node1"><a xlink:title="Safely reads a big&#45;endian 16&#45;bit word from provided pointer.">
<polygon fill="#999999" stroke="#666666" points="636,-166 565,-166 565,-147 636,-147 636,-166"/>
<text text-anchor="middle" x="600.5" y="-154" font-family="Helvetica,sans-Serif" font-size="10.00">modbusRBE</text>
</a>
</g>
</g>
<!-- Node2 -->
<g id="node2" class="node">
<title>Node2</title>
<g id="a_node2"><a xlink:href="slave__func_8impl_8h.html#aaff57f2a5c6a8e6c77d36c5dc7e48cfa" target="_top" xlink:title="Handles requests 01, 02, 03 and 04 (Read Multiple XX) and generates response.">
<polygon fill="white" stroke="#666666" points="525.5,-296 370.5,-296 370.5,-277 525.5,-277 525.5,-296"/>
<text text-anchor="middle" x="448" y="-284" font-family="Helvetica,sans-Serif" font-size="10.00">modbusParseRequest01020304</text>
</a>
</g>
</g>
<!-- Node1&#45;&gt;Node2 -->
<g id="edge1" class="edge">
<title>Node1&#45;&gt;Node2</title>
<path fill="none" stroke="#63b8ff" d="M592.25,-177.1C582.16,-202.65 561.4,-245.61 529,-268.5 524.47,-271.7 519.46,-274.35 514.22,-276.53"/>
<polygon fill="#63b8ff" stroke="#63b8ff" points="595.49,-178.44 595.71,-167.84 588.93,-175.98 595.49,-178.44"/>
</g>
<!-- Node3 -->
<g id="node3" class="node">
<title>Node3</title>
<g id="a_node3"><a xlink:href="slave__func_8impl_8h.html#a236881fe30a95d4cc9b031a9e24ae2a8" target="_top" xlink:title="Handles requests 05 and 06 (Write Single XX) and generates response.">
<polygon fill="white" stroke="#666666" points="515,-259 381,-259 381,-240 515,-240 515,-259"/>
<text text-anchor="middle" x="448" y="-247" font-family="Helvetica,sans-Serif" font-size="10.00">modbusParseRequest0506</text>
</a>
</g>
</g>
<!-- Node1&#45;&gt;Node3 -->
<g id="edge2" class="edge">
<title>Node1&#45;&gt;Node3</title>
<path fill="none" stroke="#63b8ff" d="M586.79,-175.46C574.18,-192.75 553.26,-217.65 529,-231.5 523.31,-234.75 517.09,-237.41 510.7,-239.59"/>
<polygon fill="#63b8ff" stroke="#63b8ff" points="589.47,-177.73 592.35,-167.54 583.74,-173.71 589.47,-177.73"/>
</g>
<!-- Node4 -->
<g id="node4" class="node">
<title>Node4</title>
<g id="a_node4"><a xlink:href="slave__func_8impl_8h.html#a0cb2a7bf59d4014088e1ce1c61523071" target="_top" xlink:title="Handles requests 15 and 16 (Write Multiple XX) and generates response.">
<polygon fill="white" stroke="#666666" points="515,-222 381,-222 381,-203 515,-203 515,-222"/>
<text text-anchor="middle" x="448" y="-210" font-family="Helvetica,sans-Serif" font-size="10.00">modbusParseRequest1516</text>
</a>
</g>
</g>
<!-- Node1&#45;&gt;Node4 -->
<g id="edge3" class="edge">
<title>Node1&#45;&gt;Node4</title>
<path fill="none" stroke="#63b8ff" d="M574.42,-172.19C561.3,-179.84 544.72,-188.62 529,-194.5 520.6,-197.64 511.49,-200.33 502.53,-202.59"/>
<polygon fill="#63b8ff" stroke="#63b8ff" points="576.04,-175.3 582.82,-167.16 572.45,-169.29 576.04,-175.3"/>
</g>
<!-- Node5 -->
<g id="node5" class="node">
<title>Node5</title>
<g id="a_node5"><a xlink:href="slave__func_8impl_8h.html#a814f041d9acfa578998b8ce8fe53815c" target="_top" xlink:title="Handles request 22 (Mask Write Register) and generates response.">
<polygon fill="white" stroke="#666666" points="509.5,-185 386.5,-185 386.5,-166 509.5,-166 509.5,-185"/>
<text text-anchor="middle" x="448" y="-173" font-family="Helvetica,sans-Serif" font-size="10.00">modbusParseRequest22</text>
</a>
</g>
</g>
<!-- Node1&#45;&gt;Node5 -->
<g id="edge4" class="edge">
<title>Node1&#45;&gt;Node5</title>
<path fill="none" stroke="#63b8ff" d="M553.48,-162.31C539.75,-164.04 524.49,-165.97 509.97,-167.8"/>
<polygon fill="#63b8ff" stroke="#63b8ff" points="553.61,-165.82 563.09,-161.1 552.73,-158.88 553.61,-165.82"/>
</g>
<!-- Node6 -->
<g id="node6" class="node">
<title>Node6</title>
<g id="a_node6"><a xlink:href="master__func_8impl_8h.html#adafbaa72d4df36b3577ce5494b460a2b" target="_top" xlink:title="Parses response to requests 01, 02, 03 and 04.">
<polygon fill="white" stroke="#666666" points="529,-148 367,-148 367,-129 529,-129 529,-148"/>
<text text-anchor="middle" x="448" y="-136" font-family="Helvetica,sans-Serif" font-size="10.00">modbusParseResponse01020304</text>
</a>
</g>
</g>
<!-- Node1&#45;&gt;Node6 -->
<g id="edge5" class="edge">
<title>Node1&#45;&gt;Node6</title>
<path fill="none" stroke="#63b8ff" d="M553.36,-150.98C545.68,-150.06 537.53,-149.09 529.29,-148.1"/>
<polygon fill="#63b8ff" stroke="#63b8ff" points="552.75,-154.43 563.09,-152.15 553.58,-147.48 552.75,-154.43"/>
</g>
<!-- Node7 -->
<g id="node7" class="node">
<title>Node7</title>
<g id="a_node7"><a xlink:href="master__func_8impl_8h.html#a1a105f7339569601abe367a3254d38dc" target="_top" xlink:title="Parses response to requests 05 and 06.">
<polygon fill="white" stroke="#666666" points="518.5,-111 377.5,-111 377.5,-92 518.5,-92 518.5,-111"/>
<text text-anchor="middle" x="448" y="-99" font-family="Helvetica,sans-Serif" font-size="10.00">modbusParseResponse0506</text>
</a>
</g>
</g>
<!-- Node1&#45;&gt;Node7 -->
<g id="edge6" class="edge">
<title>Node1&#45;&gt;Node7</title>
<path fill="none" stroke="#63b8ff" d="M572.87,-140.99C559.95,-133.97 544.01,-126.03 529,-120.5 519.49,-117 509.1,-113.98 499.05,-111.44"/>
<polygon fill="#63b8ff" stroke="#63b8ff" points="571.16,-144.04 581.6,-145.86 574.57,-137.93 571.16,-144.04"/>
</g>
<!-- Node8 -->
<g id="node8" class="node">
<title>Node8</title>
<g id="a_node8"><a xlink:href="master__func_8impl_8h.html#a0c53ade25c249f6aeed8c877b98f8016" target="_top" xlink:title="Parses response to requests 15 and 16 (write mutliple regsiters/coils)">
<polygon fill="white" stroke="#666666" points="518.5,-74 377.5,-74 377.5,-55 518.5,-55 518.5,-74"/>
<text text-anchor="middle" x="448" y="-62" font-family="Helvetica,sans-Serif" font-size="10.00">modbusParseResponse1516</text>
</a>
</g>
</g>
<!-- Node1&#45;&gt;Node8 -->
<g id="edge7" class="edge">
<title>Node1&#45;&gt;Node8</title>
<path fill="none" stroke="#63b8ff" d="M586.44,-137.85C573.7,-121.08 552.8,-97.06 529,-83.5 522.55,-79.82 515.42,-76.86 508.15,-74.46"/>
<polygon fill="#63b8ff" stroke="#63b8ff" points="583.33,-139.53 592.06,-145.53 588.98,-135.39 583.33,-139.53"/>
</g>
<!-- Node9 -->
<g id="node9" class="node">
<title>Node9</title>
<g id="a_node9"><a xlink:href="base_8h.html#a616e5bdb5ebcd57b1604421f6ca22bc9" target="_top" xlink:title="Unpacks data from a Modbus TCP frame.">
<polygon fill="white" stroke="#666666" points="500,-37 396,-37 396,-18 500,-18 500,-37"/>
<text text-anchor="middle" x="448" y="-25" font-family="Helvetica,sans-Serif" font-size="10.00">modbusUnpackTCP</text>
</a>
</g>
</g>
<!-- Node1&#45;&gt;Node9 -->
<g id="edge8" class="edge">
<title>Node1&#45;&gt;Node9</title>
<path fill="none" stroke="#63b8ff" d="M592.11,-136.32C581.87,-111.29 560.94,-69.16 529,-46.5 520.5,-40.47 510.34,-36.33 500.16,-33.5"/>
<polygon fill="#63b8ff" stroke="#63b8ff" points="588.74,-137.31 595.62,-145.37 595.26,-134.78 588.74,-137.31"/>
</g>
<!-- Node10 -->
<g id="node10" class="node">
<title>Node10</title>
<g id="a_node10"><a xlink:href="slave_8impl_8h.html#a5ad3fe86aa14f8982d7c459c68cd8b3e" target="_top" xlink:title="Parses provided Modbus TCP request frame and generates a Modbus TCP response.">
<polygon fill="white" stroke="#666666" points="327,-56 195,-56 195,-37 327,-37 327,-56"/>
<text text-anchor="middle" x="261" y="-44" font-family="Helvetica,sans-Serif" font-size="10.00">modbusParseRequestTCP</text>
</a>
</g>
</g>
<!-- Node9&#45;&gt;Node10 -->
<g id="edge9" class="edge">
<title>Node9&#45;&gt;Node10</title>
<path fill="none" stroke="#63b8ff" d="M384.75,-33.89C366.32,-35.79 346.08,-37.86 327.46,-39.78"/>
<polygon fill="#63b8ff" stroke="#63b8ff" points="384.86,-37.4 394.45,-32.9 384.15,-30.44 384.86,-37.4"/>
</g>
<!-- Node12 -->
<g id="node12" class="node">
<title>Node12</title>
<g id="a_node12"><a xlink:href="master_8impl_8h.html#a53ea67c733b1e627e1cdcb0003270a1b" target="_top" xlink:title="Parses a Modbus TCP slave response.">
<polygon fill="white" stroke="#666666" points="331,-19 191,-19 191,0 331,0 331,-19"/>
<text text-anchor="middle" x="261" y="-7" font-family="Helvetica,sans-Serif" font-size="10.00">modbusParseResponseTCP</text>
</a>
</g>
</g>
<!-- Node9&#45;&gt;Node12 -->
<g id="edge11" class="edge">
<title>Node9&#45;&gt;Node12</title>
<path fill="none" stroke="#63b8ff" d="M384.89,-21.46C367.66,-19.78 348.84,-17.95 331.23,-16.24"/>
<polygon fill="#63b8ff" stroke="#63b8ff" points="384.16,-24.9 394.45,-22.39 384.84,-17.94 384.16,-24.9"/>
</g>
<!-- Node11 -->
<g id="node11" class="node">
<title>Node11</title>
<g id="a_node11"><a xlink:href="classllm_1_1Slave.html#a05169339916c3727c780c75157b399b9" target="_top" xlink:title=" ">
<polygon fill="white" stroke="#666666" points="149,-56 6,-56 6,-37 149,-37 149,-56"/>
<text text-anchor="middle" x="77.5" y="-44" font-family="Helvetica,sans-Serif" font-size="10.00">llm::Slave::parseRequestTCP</text>
</a>
</g>
</g>
<!-- Node10&#45;&gt;Node11 -->
<g id="edge10" class="edge">
<title>Node10&#45;&gt;Node11</title>
<path fill="none" stroke="#63b8ff" d="M183.52,-46.5C172.19,-46.5 160.54,-46.5 149.33,-46.5"/>
<polygon fill="#63b8ff" stroke="#63b8ff" points="183.22,-50 193.22,-46.5 183.22,-43 183.22,-50"/>
</g>
<!-- Node13 -->
<g id="node13" class="node">
<title>Node13</title>
<g id="a_node13"><a xlink:href="classllm_1_1Master.html#ad1f614f5d44a61a8507ae34968fa7903" target="_top" xlink:title=" ">
<polygon fill="white" stroke="#666666" points="155,-19 0,-19 0,0 155,0 155,-19"/>
<text text-anchor="middle" x="77.5" y="-7" font-family="Helvetica,sans-Serif" font-size="10.00">llm::Master::parseResponseTCP</text>
</a>
</g>
</g>
<!-- Node12&#45;&gt;Node13 -->
<g id="edge12" class="edge">
<title>Node12&#45;&gt;Node13</title>
<path fill="none" stroke="#63b8ff" d="M179.15,-9.5C171.26,-9.5 163.27,-9.5 155.42,-9.5"/>
<polygon fill="#63b8ff" stroke="#63b8ff" points="179.09,-13 189.09,-9.5 179.09,-6 179.09,-13"/>
</g>
</g>
</svg>
