<?xml version="1.0" encoding="UTF-8" standalone="no"?>
<!DOCTYPE svg PUBLIC "-//W3C//DTD SVG 1.1//EN"
 "http://www.w3.org/Graphics/SVG/1.1/DTD/svg11.dtd">
<!-- Generated by graphviz version 7.0.5 (20221223.1930)
 -->
<!-- Title: modbusMaskRead Pages: 1 -->
<svg width="304pt" height="101pt"
 viewBox="0.00 0.00 304.00 101.00" xmlns="http://www.w3.org/2000/svg" xmlns:xlink="http://www.w3.org/1999/xlink">
<g id="graph0" class="graph" transform="scale(1 1) rotate(0) translate(4 97)">
<title>modbusMaskRead</title>
<!-- Node1 -->
<g id="node1" class="node">
<title>Node1</title>
<g id="a_node1"><a xlink:title="Reads n&#45;th bit from an array.">
<polygon fill="#999999" stroke="#666666" points="296,-56 198,-56 198,-37 296,-37 296,-56"/>
<text text-anchor="middle" x="247" y="-44" font-family="Helvetica,sans-Serif" font-size="10.00">modbusMaskRead</text>
</a>
</g>
</g>
<!-- Node2 -->
<g id="node2" class="node">
<title>Node2</title>
<g id="a_node2"><a xlink:href="master__func_8impl_8h.html#ae9842e659ccd8942905e685923de8916" target="_top" xlink:title="Write multiple coils.">
<polygon fill="white" stroke="#666666" points="140.5,-93 21.5,-93 21.5,-74 140.5,-74 140.5,-93"/>
<text text-anchor="middle" x="81" y="-81" font-family="Helvetica,sans-Serif" font-size="10.00">modbusBuildRequest15</text>
</a>
</g>
</g>
<!-- Node1&#45;&gt;Node2 -->
<g id="edge1" class="edge">
<title>Node1&#45;&gt;Node2</title>
<path fill="none" stroke="#63b8ff" d="M190.86,-58.98C181.24,-61.16 171.33,-63.4 162,-65.5 150.47,-68.1 138.01,-70.91 126.43,-73.51"/>
<polygon fill="#63b8ff" stroke="#63b8ff" points="191.51,-62.42 200.49,-56.8 189.97,-55.59 191.51,-62.42"/>
</g>
<!-- Node3 -->
<g id="node3" class="node">
<title>Node3</title>
<g id="a_node3"><a xlink:href="slave__func_8impl_8h.html#a0cb2a7bf59d4014088e1ce1c61523071" target="_top" xlink:title="Handles requests 15 and 16 (Write Multiple XX) and generates response.">
<polygon fill="white" stroke="#666666" points="148,-56 14,-56 14,-37 148,-37 148,-56"/>
<text text-anchor="middle" x="81" y="-44" font-family="Helvetica,sans-Serif" font-size="10.00">modbusParseRequest1516</text>
</a>
</g>
</g>
<!-- Node1&#45;&gt;Node3 -->
<g id="edge2" class="edge">
<title>Node1&#45;&gt;Node3</title>
<path fill="none" stroke="#63b8ff" d="M186.5,-46.5C174.06,-46.5 160.87,-46.5 148.2,-46.5"/>
<polygon fill="#63b8ff" stroke="#63b8ff" points="186.17,-50 196.17,-46.5 186.17,-43 186.17,-50"/>
</g>
<!-- Node4 -->
<g id="node4" class="node">
<title>Node4</title>
<g id="a_node4"><a xlink:href="master__func_8impl_8h.html#adafbaa72d4df36b3577ce5494b460a2b" target="_top" xlink:title="Parses response to requests 01, 02, 03 and 04.">
<polygon fill="white" stroke="#666666" points="162,-19 0,-19 0,0 162,0 162,-19"/>
<text text-anchor="middle" x="81" y="-7" font-family="Helvetica,sans-Serif" font-size="10.00">modbusParseResponse01020304</text>
</a>
</g>
</g>
<!-- Node1&#45;&gt;Node4 -->
<g id="edge3" class="edge">
<title>Node1&#45;&gt;Node4</title>
<path fill="none" stroke="#63b8ff" d="M190.96,-34.08C169.84,-29.32 146.03,-23.95 126.07,-19.44"/>
<polygon fill="#63b8ff" stroke="#63b8ff" points="190.05,-37.46 200.57,-36.25 191.59,-30.64 190.05,-37.46"/>
</g>
</g>
</svg>
