<?xml version="1.0" encoding="UTF-8" standalone="no"?>
<!DOCTYPE svg PUBLIC "-//W3C//DTD SVG 1.1//EN"
 "http://www.w3.org/Graphics/SVG/1.1/DTD/svg11.dtd">
<!-- Generated by graphviz version 7.0.5 (20221223.1930)
 -->
<!-- Title: modbusCRC Pages: 1 -->
<svg width="588pt" height="138pt"
 viewBox="0.00 0.00 588.00 138.00" xmlns="http://www.w3.org/2000/svg" xmlns:xlink="http://www.w3.org/1999/xlink">
<g id="graph0" class="graph" transform="scale(1 1) rotate(0) translate(4 134)">
<title>modbusCRC</title>
<!-- Node1 -->
<g id="node1" class="node">
<title>Node1</title>
<g id="a_node1"><a xlink:title="Calculates 16&#45;bit Modbus CRC of provided data.">
<polygon fill="#999999" stroke="#666666" points="580,-74 509,-74 509,-55 580,-55 580,-74"/>
<text text-anchor="middle" x="544.5" y="-62" font-family="Helvetica,sans-Serif" font-size="10.00">modbusCRC</text>
</a>
</g>
</g>
<!-- Node2 -->
<g id="node2" class="node">
<title>Node2</title>
<g id="a_node2"><a xlink:href="base_8h.html#af2cafe9debf86bea7042b4c40bb288cd" target="_top" xlink:title="Sets up address and CRC in a Modbus RTU frame.">
<polygon fill="white" stroke="#666666" points="467.5,-93 373.5,-93 373.5,-74 467.5,-74 467.5,-93"/>
<text text-anchor="middle" x="420.5" y="-81" font-family="Helvetica,sans-Serif" font-size="10.00">modbusPackRTU</text>
</a>
</g>
</g>
<!-- Node1&#45;&gt;Node2 -->
<g id="edge1" class="edge">
<title>Node1&#45;&gt;Node2</title>
<path fill="none" stroke="#63b8ff" d="M497.47,-71.67C487.78,-73.18 477.55,-74.77 467.84,-76.28"/>
<polygon fill="#63b8ff" stroke="#63b8ff" points="497.7,-75.17 507.04,-70.18 496.62,-68.26 497.7,-75.17"/>
</g>
<!-- Node8 -->
<g id="node8" class="node">
<title>Node8</title>
<g id="a_node8"><a xlink:href="base_8h.html#a4dba88e9baf690b8dafa0fad81eb7d07" target="_top" xlink:title="Unpacks data from a Modbus RTU frame and optionally checks CRC.">
<polygon fill="white" stroke="#666666" points="473,-56 368,-56 368,-37 473,-37 473,-56"/>
<text text-anchor="middle" x="420.5" y="-44" font-family="Helvetica,sans-Serif" font-size="10.00">modbusUnpackRTU</text>
</a>
</g>
</g>
<!-- Node1&#45;&gt;Node8 -->
<g id="edge7" class="edge">
<title>Node1&#45;&gt;Node8</title>
<path fill="none" stroke="#63b8ff" d="M497.35,-57.69C489.49,-56.53 481.28,-55.32 473.29,-54.14"/>
<polygon fill="#63b8ff" stroke="#63b8ff" points="496.64,-61.12 507.04,-59.12 497.66,-54.2 496.64,-61.12"/>
</g>
<!-- Node3 -->
<g id="node3" class="node">
<title>Node3</title>
<g id="a_node3"><a xlink:href="slave_8impl_8h.html#a1da09df8858b91c61fe02c25783c2946" target="_top" xlink:title="Builds a Modbus RTU exception.">
<polygon fill="white" stroke="#666666" points="329.5,-130 194.5,-130 194.5,-111 329.5,-111 329.5,-130"/>
<text text-anchor="middle" x="262" y="-118" font-family="Helvetica,sans-Serif" font-size="10.00">modbusBuildExceptionRTU</text>
</a>
</g>
</g>
<!-- Node2&#45;&gt;Node3 -->
<g id="edge2" class="edge">
<title>Node2&#45;&gt;Node3</title>
<path fill="none" stroke="#63b8ff" d="M366.42,-96.05C346.4,-100.78 323.93,-106.1 305.05,-110.56"/>
<polygon fill="#63b8ff" stroke="#63b8ff" points="367.16,-99.47 376.09,-93.76 365.55,-92.66 367.16,-99.47"/>
</g>
<!-- Node5 -->
<g id="node5" class="node">
<title>Node5</title>
<g id="a_node5"><a xlink:href="master_8impl_8h.html#a4623d6d41d5e4a148e399fe19051183c" target="_top" xlink:title="Finalizes a Modbus RTU request.">
<polygon fill="white" stroke="#666666" points="324,-93 200,-93 200,-74 324,-74 324,-93"/>
<text text-anchor="middle" x="262" y="-81" font-family="Helvetica,sans-Serif" font-size="10.00">modbusEndRequestRTU</text>
</a>
</g>
</g>
<!-- Node2&#45;&gt;Node5 -->
<g id="edge4" class="edge">
<title>Node2&#45;&gt;Node5</title>
<path fill="none" stroke="#63b8ff" d="M361.95,-83.5C349.73,-83.5 336.8,-83.5 324.45,-83.5"/>
<polygon fill="#63b8ff" stroke="#63b8ff" points="361.88,-87 371.88,-83.5 361.88,-80 361.88,-87"/>
</g>
<!-- Node6 -->
<g id="node6" class="node">
<title>Node6</title>
<g id="a_node6"><a xlink:href="slave_8impl_8h.html#a6a1e63faa64b7ca4b91d1ce7988be850" target="_top" xlink:title="Parses provided Modbus RTU request frame and generates a Modbus RTU response.">
<polygon fill="white" stroke="#666666" points="328.5,-56 195.5,-56 195.5,-37 328.5,-37 328.5,-56"/>
<text text-anchor="middle" x="262" y="-44" font-family="Helvetica,sans-Serif" font-size="10.00">modbusParseRequestRTU</text>
</a>
</g>
</g>
<!-- Node2&#45;&gt;Node6 -->
<g id="edge5" class="edge">
<title>Node2&#45;&gt;Node6</title>
<path fill="none" stroke="#63b8ff" d="M366.42,-70.95C346.4,-66.22 323.93,-60.9 305.05,-56.44"/>
<polygon fill="#63b8ff" stroke="#63b8ff" points="365.55,-74.34 376.09,-73.24 367.16,-67.53 365.55,-74.34"/>
</g>
<!-- Node4 -->
<g id="node4" class="node">
<title>Node4</title>
<g id="a_node4"><a xlink:href="classllm_1_1Slave.html#a10e79600053c725e639225264d966e63" target="_top" xlink:title=" ">
<polygon fill="white" stroke="#666666" points="151,-130 5,-130 5,-111 151,-111 151,-130"/>
<text text-anchor="middle" x="78" y="-118" font-family="Helvetica,sans-Serif" font-size="10.00">llm::Slave::buildExceptionRTU</text>
</a>
</g>
</g>
<!-- Node3&#45;&gt;Node4 -->
<g id="edge3" class="edge">
<title>Node3&#45;&gt;Node4</title>
<path fill="none" stroke="#63b8ff" d="M182.8,-120.5C172.36,-120.5 161.69,-120.5 151.36,-120.5"/>
<polygon fill="#63b8ff" stroke="#63b8ff" points="182.49,-124 192.49,-120.5 182.49,-117 182.49,-124"/>
</g>
<!-- Node7 -->
<g id="node7" class="node">
<title>Node7</title>
<g id="a_node7"><a xlink:href="classllm_1_1Slave.html#a001591b9a38b69cf29adc853872a09fe" target="_top" xlink:title=" ">
<polygon fill="white" stroke="#666666" points="149.5,-56 6.5,-56 6.5,-37 149.5,-37 149.5,-56"/>
<text text-anchor="middle" x="78" y="-44" font-family="Helvetica,sans-Serif" font-size="10.00">llm::Slave::parseRequestRTU</text>
</a>
</g>
</g>
<!-- Node6&#45;&gt;Node7 -->
<g id="edge6" class="edge">
<title>Node6&#45;&gt;Node7</title>
<path fill="none" stroke="#63b8ff" d="M183.55,-46.5C172.4,-46.5 160.97,-46.5 149.96,-46.5"/>
<polygon fill="#63b8ff" stroke="#63b8ff" points="183.52,-50 193.52,-46.5 183.52,-43 183.52,-50"/>
</g>
<!-- Node8&#45;&gt;Node6 -->
<g id="edge8" class="edge">
<title>Node8&#45;&gt;Node6</title>
<path fill="none" stroke="#63b8ff" d="M356.49,-46.5C347.39,-46.5 338.01,-46.5 328.86,-46.5"/>
<polygon fill="#63b8ff" stroke="#63b8ff" points="356.31,-50 366.31,-46.5 356.31,-43 356.31,-50"/>
</g>
<!-- Node9 -->
<g id="node9" class="node">
<title>Node9</title>
<g id="a_node9"><a xlink:href="master_8impl_8h.html#a151b85c221ae43804856eb92737498e5" target="_top" xlink:title="Parses a Modbus RTU slave response.">
<polygon fill="white" stroke="#666666" points="332,-19 192,-19 192,0 332,0 332,-19"/>
<text text-anchor="middle" x="262" y="-7" font-family="Helvetica,sans-Serif" font-size="10.00">modbusParseResponseRTU</text>
</a>
</g>
</g>
<!-- Node8&#45;&gt;Node9 -->
<g id="edge9" class="edge">
<title>Node8&#45;&gt;Node9</title>
<path fill="none" stroke="#63b8ff" d="M366.42,-33.95C346.4,-29.22 323.93,-23.9 305.05,-19.44"/>
<polygon fill="#63b8ff" stroke="#63b8ff" points="365.55,-37.34 376.09,-36.24 367.16,-30.53 365.55,-37.34"/>
</g>
<!-- Node10 -->
<g id="node10" class="node">
<title>Node10</title>
<g id="a_node10"><a xlink:href="classllm_1_1Master.html#ab052e172e96808744ee43a8eff80b679" target="_top" xlink:title=" ">
<polygon fill="white" stroke="#666666" points="156,-19 0,-19 0,0 156,0 156,-19"/>
<text text-anchor="middle" x="78" y="-7" font-family="Helvetica,sans-Serif" font-size="10.00">llm::Master::parseResponseRTU</text>
</a>
</g>
</g>
<!-- Node9&#45;&gt;Node10 -->
<g id="edge10" class="edge">
<title>Node9&#45;&gt;Node10</title>
<path fill="none" stroke="#63b8ff" d="M180.17,-9.5C172.25,-9.5 164.22,-9.5 156.34,-9.5"/>
<polygon fill="#63b8ff" stroke="#63b8ff" points="180.16,-13 190.16,-9.5 180.16,-6 180.16,-13"/>
</g>
</g>
</svg>
