<?xml version="1.0" encoding="UTF-8" standalone="no"?>
<!DOCTYPE svg PUBLIC "-//W3C//DTD SVG 1.1//EN"
 "http://www.w3.org/Graphics/SVG/1.1/DTD/svg11.dtd">
<!-- Generated by graphviz version 7.0.5 (20221223.1930)
 -->
<!-- Title: modbusBufferInit Pages: 1 -->
<svg width="363pt" height="64pt"
 viewBox="0.00 0.00 363.00 64.00" xmlns="http://www.w3.org/2000/svg" xmlns:xlink="http://www.w3.org/1999/xlink">
<g id="graph0" class="graph" transform="scale(1 1) rotate(0) translate(4 60)">
<title>modbusBufferInit</title>
<!-- Node1 -->
<g id="node1" class="node">
<title>Node1</title>
<g id="a_node1"><a xlink:title="Initializes a buffer for use.">
<polygon fill="#999999" stroke="#666666" points="355,-37 265,-37 265,-18 355,-18 355,-37"/>
<text text-anchor="middle" x="310" y="-25" font-family="Helvetica,sans-Serif" font-size="10.00">modbusBufferInit</text>
</a>
</g>
</g>
<!-- Node2 -->
<g id="node2" class="node">
<title>Node2</title>
<g id="a_node2"><a xlink:href="master_8impl_8h.html#af3c4b8930f540697662dfdb0788f38ef" target="_top" xlink:title="Initializes a ModbusMaster struct.">
<polygon fill="white" stroke="#666666" points="229,-56 134,-56 134,-37 229,-37 229,-56"/>
<text text-anchor="middle" x="181.5" y="-44" font-family="Helvetica,sans-Serif" font-size="10.00">modbusMasterInit</text>
</a>
</g>
</g>
<!-- Node1&#45;&gt;Node2 -->
<g id="edge1" class="edge">
<title>Node1&#45;&gt;Node2</title>
<path fill="none" stroke="#63b8ff" d="M253.44,-35.85C245.31,-37.07 237.01,-38.31 229.08,-39.5"/>
<polygon fill="#63b8ff" stroke="#63b8ff" points="253.89,-39.32 263.26,-34.37 252.85,-32.39 253.89,-39.32"/>
</g>
<!-- Node4 -->
<g id="node4" class="node">
<title>Node4</title>
<g id="a_node4"><a xlink:href="slave_8impl_8h.html#a2c30507da9547125c17f62e0e18d9194" target="_top" xlink:title="Initializes slave device.">
<polygon fill="white" stroke="#666666" points="226,-19 137,-19 137,0 226,0 226,-19"/>
<text text-anchor="middle" x="181.5" y="-7" font-family="Helvetica,sans-Serif" font-size="10.00">modbusSlaveInit</text>
</a>
</g>
</g>
<!-- Node1&#45;&gt;Node4 -->
<g id="edge3" class="edge">
<title>Node1&#45;&gt;Node4</title>
<path fill="none" stroke="#63b8ff" d="M253.66,-19.63C244.43,-18.31 234.97,-16.97 226.08,-15.7"/>
<polygon fill="#63b8ff" stroke="#63b8ff" points="252.86,-23.05 263.26,-20.99 253.85,-16.12 252.86,-23.05"/>
</g>
<!-- Node3 -->
<g id="node3" class="node">
<title>Node3</title>
<g id="a_node3"><a xlink:href="classllm_1_1Master.html#ac2e598f20d2c576e74590d461cf75f97" target="_top" xlink:title=" ">
<polygon fill="white" stroke="#666666" points="98,-56 0,-56 0,-37 98,-37 98,-56"/>
<text text-anchor="middle" x="49" y="-44" font-family="Helvetica,sans-Serif" font-size="10.00">llm::Master::Master</text>
</a>
</g>
</g>
<!-- Node2&#45;&gt;Node3 -->
<g id="edge2" class="edge">
<title>Node2&#45;&gt;Node3</title>
<path fill="none" stroke="#63b8ff" d="M122.44,-46.5C114.34,-46.5 106.08,-46.5 98.18,-46.5"/>
<polygon fill="#63b8ff" stroke="#63b8ff" points="122.24,-50 132.24,-46.5 122.24,-43 122.24,-50"/>
</g>
<!-- Node5 -->
<g id="node5" class="node">
<title>Node5</title>
<g id="a_node5"><a xlink:href="classllm_1_1Slave.html#a6824a1d0fcfd26d8bedaa934f0abcf39" target="_top" xlink:title=" ">
<polygon fill="white" stroke="#666666" points="93,-19 5,-19 5,0 93,0 93,-19"/>
<text text-anchor="middle" x="49" y="-7" font-family="Helvetica,sans-Serif" font-size="10.00">llm::Slave::Slave</text>
</a>
</g>
</g>
<!-- Node4&#45;&gt;Node5 -->
<g id="edge4" class="edge">
<title>Node4&#45;&gt;Node5</title>
<path fill="none" stroke="#63b8ff" d="M125.33,-9.5C114.69,-9.5 103.69,-9.5 93.48,-9.5"/>
<polygon fill="#63b8ff" stroke="#63b8ff" points="125.17,-13 135.17,-9.5 125.17,-6 125.17,-13"/>
</g>
</g>
</svg>
