<?xml version="1.0" encoding="UTF-8" standalone="no"?>
<!DOCTYPE svg PUBLIC "-//W3C//DTD SVG 1.1//EN"
 "http://www.w3.org/Graphics/SVG/1.1/DTD/svg11.dtd">
<!-- Generated by graphviz version 7.0.5 (20221223.1930)
 -->
<!-- Title: modbusUnpackRTU Pages: 1 -->
<svg width="220pt" height="64pt"
 viewBox="0.00 0.00 220.00 64.00" xmlns="http://www.w3.org/2000/svg" xmlns:xlink="http://www.w3.org/1999/xlink">
<g id="graph0" class="graph" transform="scale(1 1) rotate(0) translate(4 60)">
<title>modbusUnpackRTU</title>
<!-- Node1 -->
<g id="node1" class="node">
<title>Node1</title>
<g id="a_node1"><a xlink:title="Unpacks data from a Modbus RTU frame and optionally checks CRC.">
<polygon fill="#999999" stroke="#666666" points="105,-37 0,-37 0,-18 105,-18 105,-37"/>
<text text-anchor="middle" x="52.5" y="-25" font-family="Helvetica,sans-Serif" font-size="10.00">modbusUnpackRTU</text>
</a>
</g>
</g>
<!-- Node2 -->
<g id="node2" class="node">
<title>Node2</title>
<g id="a_node2"><a xlink:href="base_8impl_8h.html#a11346a546b84663cd92cb30f4ffd1393" target="_top" xlink:title="Calculates 16&#45;bit Modbus CRC of provided data.">
<polygon fill="white" stroke="#666666" points="212,-56 141,-56 141,-37 212,-37 212,-56"/>
<text text-anchor="middle" x="176.5" y="-44" font-family="Helvetica,sans-Serif" font-size="10.00">modbusCRC</text>
</a>
</g>
</g>
<!-- Node1&#45;&gt;Node2 -->
<g id="edge1" class="edge">
<title>Node1&#45;&gt;Node2</title>
<path fill="none" stroke="#63b8ff" d="M105.24,-35.56C113.27,-36.81 121.52,-38.09 129.41,-39.32"/>
<polygon fill="#63b8ff" stroke="#63b8ff" points="128.74,-42.76 139.16,-40.84 129.81,-35.84 128.74,-42.76"/>
</g>
<!-- Node3 -->
<g id="node3" class="node">
<title>Node3</title>
<g id="a_node3"><a xlink:href="base_8h.html#a0fc3f293c746d39a93e4c1158f792404" target="_top" xlink:title="Safely reads a little&#45;endian 16&#45;bit word from provided pointer.">
<polygon fill="white" stroke="#666666" points="211.5,-19 141.5,-19 141.5,0 211.5,0 211.5,-19"/>
<text text-anchor="middle" x="176.5" y="-7" font-family="Helvetica,sans-Serif" font-size="10.00">modbusRLE</text>
</a>
</g>
</g>
<!-- Node1&#45;&gt;Node3 -->
<g id="edge2" class="edge">
<title>Node1&#45;&gt;Node3</title>
<path fill="none" stroke="#63b8ff" d="M105.24,-19.87C113.35,-18.67 121.69,-17.44 129.67,-16.26"/>
<polygon fill="#63b8ff" stroke="#63b8ff" points="130.13,-19.73 139.51,-14.81 129.11,-12.81 130.13,-19.73"/>
</g>
</g>
</svg>
