<?xml version="1.0" encoding="UTF-8" standalone="no"?>
<!DOCTYPE svg PUBLIC "-//W3C//DTD SVG 1.1//EN"
 "http://www.w3.org/Graphics/SVG/1.1/DTD/svg11.dtd">
<!-- Generated by graphviz version 7.0.5 (20221223.1930)
 -->
<!-- Title: modbusBitsToBytes Pages: 1 -->
<svg width="310pt" height="175pt"
 viewBox="0.00 0.00 310.00 175.00" xmlns="http://www.w3.org/2000/svg" xmlns:xlink="http://www.w3.org/1999/xlink">
<g id="graph0" class="graph" transform="scale(1 1) rotate(0) translate(4 171)">
<title>modbusBitsToBytes</title>
<!-- Node1 -->
<g id="node1" class="node">
<title>Node1</title>
<g id="a_node1"><a xlink:title="Returns number of bytes necessary to hold given number of bits.">
<polygon fill="#999999" stroke="#666666" points="302,-93 198,-93 198,-74 302,-74 302,-93"/>
<text text-anchor="middle" x="250" y="-81" font-family="Helvetica,sans-Serif" font-size="10.00">modbusBitsToBytes</text>
</a>
</g>
</g>
<!-- Node2 -->
<g id="node2" class="node">
<title>Node2</title>
<g id="a_node2"><a xlink:href="master__func_8impl_8h.html#ae9842e659ccd8942905e685923de8916" target="_top" xlink:title="Write multiple coils.">
<polygon fill="white" stroke="#666666" points="140.5,-167 21.5,-167 21.5,-148 140.5,-148 140.5,-167"/>
<text text-anchor="middle" x="81" y="-155" font-family="Helvetica,sans-Serif" font-size="10.00">modbusBuildRequest15</text>
</a>
</g>
</g>
<!-- Node1&#45;&gt;Node2 -->
<g id="edge1" class="edge">
<title>Node1&#45;&gt;Node2</title>
<path fill="none" stroke="#63b8ff" d="M227.82,-100.16C210.9,-112.71 186.1,-129.41 162,-139.5 154.38,-142.69 146.11,-145.36 137.87,-147.58"/>
<polygon fill="#63b8ff" stroke="#63b8ff" points="229.76,-103.09 235.61,-94.25 225.53,-97.51 229.76,-103.09"/>
</g>
<!-- Node3 -->
<g id="node3" class="node">
<title>Node3</title>
<g id="a_node3"><a xlink:href="slave__func_8impl_8h.html#aaff57f2a5c6a8e6c77d36c5dc7e48cfa" target="_top" xlink:title="Handles requests 01, 02, 03 and 04 (Read Multiple XX) and generates response.">
<polygon fill="white" stroke="#666666" points="158.5,-130 3.5,-130 3.5,-111 158.5,-111 158.5,-130"/>
<text text-anchor="middle" x="81" y="-118" font-family="Helvetica,sans-Serif" font-size="10.00">modbusParseRequest01020304</text>
</a>
</g>
</g>
<!-- Node1&#45;&gt;Node3 -->
<g id="edge2" class="edge">
<title>Node1&#45;&gt;Node3</title>
<path fill="none" stroke="#63b8ff" d="M193.25,-95.85C171.67,-100.63 147.3,-106.03 126.88,-110.56"/>
<polygon fill="#63b8ff" stroke="#63b8ff" points="193.76,-99.32 202.77,-93.74 192.25,-92.49 193.76,-99.32"/>
</g>
<!-- Node4 -->
<g id="node4" class="node">
<title>Node4</title>
<g id="a_node4"><a xlink:href="slave__func_8impl_8h.html#a0cb2a7bf59d4014088e1ce1c61523071" target="_top" xlink:title="Handles requests 15 and 16 (Write Multiple XX) and generates response.">
<polygon fill="white" stroke="#666666" points="148,-93 14,-93 14,-74 148,-74 148,-93"/>
<text text-anchor="middle" x="81" y="-81" font-family="Helvetica,sans-Serif" font-size="10.00">modbusParseRequest1516</text>
</a>
</g>
</g>
<!-- Node1&#45;&gt;Node4 -->
<g id="edge3" class="edge">
<title>Node1&#45;&gt;Node4</title>
<path fill="none" stroke="#63b8ff" d="M186.36,-83.5C173.96,-83.5 160.91,-83.5 148.39,-83.5"/>
<polygon fill="#63b8ff" stroke="#63b8ff" points="186.02,-87 196.02,-83.5 186.02,-80 186.02,-87"/>
</g>
<!-- Node5 -->
<g id="node5" class="node">
<title>Node5</title>
<g id="a_node5"><a xlink:href="master__func_8impl_8h.html#adafbaa72d4df36b3577ce5494b460a2b" target="_top" xlink:title="Parses response to requests 01, 02, 03 and 04.">
<polygon fill="white" stroke="#666666" points="162,-56 0,-56 0,-37 162,-37 162,-56"/>
<text text-anchor="middle" x="81" y="-44" font-family="Helvetica,sans-Serif" font-size="10.00">modbusParseResponse01020304</text>
</a>
</g>
</g>
<!-- Node1&#45;&gt;Node5 -->
<g id="edge4" class="edge">
<title>Node1&#45;&gt;Node5</title>
<path fill="none" stroke="#63b8ff" d="M193.25,-71.15C171.67,-66.37 147.3,-60.97 126.88,-56.44"/>
<polygon fill="#63b8ff" stroke="#63b8ff" points="192.25,-74.51 202.77,-73.26 193.76,-67.68 192.25,-74.51"/>
</g>
<!-- Node6 -->
<g id="node6" class="node">
<title>Node6</title>
<g id="a_node6"><a xlink:href="master__func_8impl_8h.html#a0c53ade25c249f6aeed8c877b98f8016" target="_top" xlink:title="Parses response to requests 15 and 16 (write mutliple regsiters/coils)">
<polygon fill="white" stroke="#666666" points="151.5,-19 10.5,-19 10.5,0 151.5,0 151.5,-19"/>
<text text-anchor="middle" x="81" y="-7" font-family="Helvetica,sans-Serif" font-size="10.00">modbusParseResponse1516</text>
</a>
</g>
</g>
<!-- Node1&#45;&gt;Node6 -->
<g id="edge5" class="edge">
<title>Node1&#45;&gt;Node6</title>
<path fill="none" stroke="#63b8ff" d="M227.45,-67.02C210.49,-54.78 185.82,-38.53 162,-28.5 153.45,-24.9 144.08,-21.9 134.87,-19.44"/>
<polygon fill="#63b8ff" stroke="#63b8ff" points="225.14,-69.66 235.26,-72.79 229.3,-64.03 225.14,-69.66"/>
</g>
</g>
</svg>
