<?xml version="1.0" encoding="UTF-8" standalone="no"?>
<!DOCTYPE svg PUBLIC "-//W3C//DTD SVG 1.1//EN"
 "http://www.w3.org/Graphics/SVG/1.1/DTD/svg11.dtd">
<!-- Generated by graphviz version 7.0.5 (20221223.1930)
 -->
<!-- Title: modbusGetErrorCode Pages: 1 -->
<svg width="650pt" height="559pt"
 viewBox="0.00 0.00 650.00 559.00" xmlns="http://www.w3.org/2000/svg" xmlns:xlink="http://www.w3.org/1999/xlink">
<g id="graph0" class="graph" transform="scale(1 1) rotate(0) translate(4 555)">
<title>modbusGetErrorCode</title>
<!-- Node1 -->
<g id="node1" class="node">
<title>Node1</title>
<g id="a_node1"><a xlink:title="Returns ModbusError contained in ModbusErrorInfo.">
<polygon fill="#999999" stroke="#666666" points="642,-399 532,-399 532,-380 642,-380 642,-399"/>
<text text-anchor="middle" x="587" y="-387" font-family="Helvetica,sans-Serif" font-size="10.00">modbusGetErrorCode</text>
</a>
</g>
</g>
<!-- Node2 -->
<g id="node2" class="node">
<title>Node2</title>
<g id="a_node2"><a xlink:href="base_8h.html#a84765449265aa5a31877b749f04cb568" target="_top" xlink:title="Returns general error from ModbusErrorInfo.">
<polygon fill="white" stroke="#666666" points="491,-381 370,-381 370,-362 491,-362 491,-381"/>
<text text-anchor="middle" x="430.5" y="-369" font-family="Helvetica,sans-Serif" font-size="10.00">modbusGetGeneralError</text>
</a>
</g>
</g>
<!-- Node1&#45;&gt;Node2 -->
<g id="edge1" class="edge">
<title>Node1&#45;&gt;Node2</title>
<path fill="none" stroke="#63b8ff" d="M520.35,-381.85C510.69,-380.73 500.79,-379.57 491.26,-378.46"/>
<polygon fill="#63b8ff" stroke="#63b8ff" points="519.69,-385.3 530.03,-382.98 520.5,-378.34 519.69,-385.3"/>
</g>
<!-- Node15 -->
<g id="node15" class="node">
<title>Node15</title>
<g id="a_node15"><a xlink:href="base_8h.html#a5c6f792a259423b2df55d8d49e91fd06" target="_top" xlink:title="Returns request error from ModbusErrorInfo.">
<polygon fill="white" stroke="#666666" points="492,-455 369,-455 369,-436 492,-436 492,-455"/>
<text text-anchor="middle" x="430.5" y="-443" font-family="Helvetica,sans-Serif" font-size="10.00">modbusGetRequestError</text>
</a>
</g>
</g>
<!-- Node1&#45;&gt;Node15 -->
<g id="edge14" class="edge">
<title>Node1&#45;&gt;Node15</title>
<path fill="none" stroke="#63b8ff" d="M553.23,-403.93C536.3,-411.14 515.22,-419.74 496,-426.5 486.97,-429.68 477.11,-432.77 467.87,-435.5"/>
<polygon fill="#63b8ff" stroke="#63b8ff" points="554.49,-407.2 562.3,-400.03 551.73,-400.77 554.49,-407.2"/>
</g>
<!-- Node16 -->
<g id="node16" class="node">
<title>Node16</title>
<g id="a_node16"><a xlink:href="base_8h.html#acbf9b7e6b679be88ce4e10ffb617d3e9" target="_top" xlink:title="Returns response error from ModbusErrorInfo.">
<polygon fill="white" stroke="#666666" points="496,-418 365,-418 365,-399 496,-399 496,-418"/>
<text text-anchor="middle" x="430.5" y="-406" font-family="Helvetica,sans-Serif" font-size="10.00">modbusGetResponseError</text>
</a>
</g>
</g>
<!-- Node1&#45;&gt;Node16 -->
<g id="edge16" class="edge">
<title>Node1&#45;&gt;Node16</title>
<path fill="none" stroke="#63b8ff" d="M520.13,-397.6C512.25,-398.57 504.2,-399.56 496.33,-400.53"/>
<polygon fill="#63b8ff" stroke="#63b8ff" points="520.53,-401.08 530.03,-396.38 519.67,-394.13 520.53,-401.08"/>
</g>
<!-- Node17 -->
<g id="node17" class="node">
<title>Node17</title>
<g id="a_node17"><a xlink:href="base_8h.html#a64880e7075f445881485396f3aa869c5" target="_top" xlink:title="Checks if ModbusErrorInfo contains an error.">
<polygon fill="white" stroke="#666666" points="466.5,-285 394.5,-285 394.5,-266 466.5,-266 466.5,-285"/>
<text text-anchor="middle" x="430.5" y="-273" font-family="Helvetica,sans-Serif" font-size="10.00">modbusIsOk</text>
</a>
</g>
</g>
<!-- Node1&#45;&gt;Node17 -->
<g id="edge18" class="edge">
<title>Node1&#45;&gt;Node17</title>
<path fill="none" stroke="#63b8ff" d="M563.36,-372.79C530.75,-348.73 471.56,-305.06 445.02,-285.48"/>
<polygon fill="#63b8ff" stroke="#63b8ff" points="561.22,-375.56 571.34,-378.68 565.37,-369.93 561.22,-375.56"/>
</g>
<!-- Node3 -->
<g id="node3" class="node">
<title>Node3</title>
<g id="a_node3"><a xlink:href="namespacellm.html#a57bd253b3362a63c62c8c5b5b0391252" target="_top" xlink:title="Throws an exception based on ModbusErrorInfo.">
<polygon fill="white" stroke="#666666" points="308.5,-437 213.5,-437 213.5,-418 308.5,-418 308.5,-437"/>
<text text-anchor="middle" x="261" y="-425" font-family="Helvetica,sans-Serif" font-size="10.00">llm::throwErrorInfo</text>
</a>
</g>
</g>
<!-- Node2&#45;&gt;Node3 -->
<g id="edge2" class="edge">
<title>Node2&#45;&gt;Node3</title>
<path fill="none" stroke="#63b8ff" d="M380.64,-384.58C375.34,-386.17 370.04,-387.82 365,-389.5 348.71,-394.92 345.08,-397.49 329,-403.5 316.38,-408.21 302.36,-413.26 290.42,-417.51"/>
<polygon fill="#63b8ff" stroke="#63b8ff" points="381.37,-388.02 390,-381.87 379.42,-381.29 381.37,-388.02"/>
</g>
<!-- Node4 -->
<g id="node4" class="node">
<title>Node4</title>
<g id="a_node4"><a xlink:href="classllm_1_1Slave.html#ac915e0947f733a784a9069f5ff5b9737" target="_top" xlink:title=" ">
<polygon fill="white" stroke="#666666" points="151.5,-546 5.5,-546 5.5,-527 151.5,-527 151.5,-546"/>
<text text-anchor="middle" x="78.5" y="-534" font-family="Helvetica,sans-Serif" font-size="10.00">llm::Slave::buildExceptionPDU</text>
</a>
</g>
</g>
<!-- Node3&#45;&gt;Node4 -->
<g id="edge3" class="edge">
<title>Node3&#45;&gt;Node4</title>
<path fill="none" stroke="#63b8ff" d="M241.35,-444.88C214.37,-469.88 166.62,-513.54 157,-518.5 150.74,-521.73 143.9,-524.38 136.95,-526.57"/>
<polygon fill="#63b8ff" stroke="#63b8ff" points="243.56,-447.6 248.51,-438.23 238.8,-442.47 243.56,-447.6"/>
</g>
<!-- Node5 -->
<g id="node5" class="node">
<title>Node5</title>
<g id="a_node5"><a xlink:href="classllm_1_1Slave.html#a10e79600053c725e639225264d966e63" target="_top" xlink:title=" ">
<polygon fill="white" stroke="#666666" points="151.5,-285 5.5,-285 5.5,-266 151.5,-266 151.5,-285"/>
<text text-anchor="middle" x="78.5" y="-273" font-family="Helvetica,sans-Serif" font-size="10.00">llm::Slave::buildExceptionRTU</text>
</a>
</g>
</g>
<!-- Node3&#45;&gt;Node5 -->
<g id="edge4" class="edge">
<title>Node3&#45;&gt;Node5</title>
<path fill="none" stroke="#63b8ff" d="M250.27,-407.74C234.75,-378.33 201.52,-323.42 157,-294.5 151.31,-290.8 144.96,-287.82 138.4,-285.42"/>
<polygon fill="#63b8ff" stroke="#63b8ff" points="246.98,-408.99 254.65,-416.3 253.22,-405.81 246.98,-408.99"/>
</g>
<!-- Node6 -->
<g id="node6" class="node">
<title>Node6</title>
<g id="a_node6"><a xlink:href="classllm_1_1Slave.html#a844c37870a4e98bffc091ddfafb8f959" target="_top" xlink:title=" ">
<polygon fill="white" stroke="#666666" points="151,-209 6,-209 6,-190 151,-190 151,-209"/>
<text text-anchor="middle" x="78.5" y="-197" font-family="Helvetica,sans-Serif" font-size="10.00">llm::Slave::buildExceptionTCP</text>
</a>
</g>
</g>
<!-- Node3&#45;&gt;Node6 -->
<g id="edge5" class="edge">
<title>Node3&#45;&gt;Node6</title>
<path fill="none" stroke="#63b8ff" d="M251.09,-407.34C235.48,-373.52 200.66,-304.37 157,-256.5 139.11,-236.88 113.54,-219.64 96.74,-209.4"/>
<polygon fill="#63b8ff" stroke="#63b8ff" points="247.86,-408.69 255.17,-416.36 254.24,-405.8 247.86,-408.69"/>
</g>
<!-- Node7 -->
<g id="node7" class="node">
<title>Node7</title>
<g id="a_node7"><a xlink:href="classllm_1_1Master.html#ac2e598f20d2c576e74590d461cf75f97" target="_top" xlink:title=" ">
<polygon fill="white" stroke="#666666" points="127.5,-435 29.5,-435 29.5,-416 127.5,-416 127.5,-435"/>
<text text-anchor="middle" x="78.5" y="-423" font-family="Helvetica,sans-Serif" font-size="10.00">llm::Master::Master</text>
</a>
</g>
</g>
<!-- Node3&#45;&gt;Node7 -->
<g id="edge6" class="edge">
<title>Node3&#45;&gt;Node7</title>
<path fill="none" stroke="#63b8ff" d="M201.64,-426.85C177.78,-426.59 150.5,-426.29 127.79,-426.04"/>
<polygon fill="#63b8ff" stroke="#63b8ff" points="201.5,-430.35 211.53,-426.96 201.57,-423.35 201.5,-430.35"/>
</g>
<!-- Node8 -->
<g id="node8" class="node">
<title>Node8</title>
<g id="a_node8"><a xlink:href="classllm_1_1Slave.html#af8cc9d8d58bf7f632f3f3cf7e6b9c84b" target="_top" xlink:title=" ">
<polygon fill="white" stroke="#666666" points="150.5,-398 6.5,-398 6.5,-379 150.5,-379 150.5,-398"/>
<text text-anchor="middle" x="78.5" y="-386" font-family="Helvetica,sans-Serif" font-size="10.00">llm::Slave::parseRequestPDU</text>
</a>
</g>
</g>
<!-- Node3&#45;&gt;Node8 -->
<g id="edge7" class="edge">
<title>Node3&#45;&gt;Node8</title>
<path fill="none" stroke="#63b8ff" d="M202.87,-415.16C178,-409.78 149.24,-403.57 125.74,-398.49"/>
<polygon fill="#63b8ff" stroke="#63b8ff" points="201.99,-418.55 212.51,-417.24 203.47,-411.71 201.99,-418.55"/>
</g>
<!-- Node9 -->
<g id="node9" class="node">
<title>Node9</title>
<g id="a_node9"><a xlink:href="classllm_1_1Slave.html#a001591b9a38b69cf29adc853872a09fe" target="_top" xlink:title=" ">
<polygon fill="white" stroke="#666666" points="150,-133 7,-133 7,-114 150,-114 150,-133"/>
<text text-anchor="middle" x="78.5" y="-121" font-family="Helvetica,sans-Serif" font-size="10.00">llm::Slave::parseRequestRTU</text>
</a>
</g>
</g>
<!-- Node3&#45;&gt;Node9 -->
<g id="edge8" class="edge">
<title>Node3&#45;&gt;Node9</title>
<path fill="none" stroke="#63b8ff" d="M252.14,-406.89C230.72,-351.01 171.94,-199.52 157,-180.5 140.9,-160.01 115.65,-143.33 98.37,-133.42"/>
<polygon fill="#63b8ff" stroke="#63b8ff" points="248.83,-408.05 255.68,-416.14 255.37,-405.55 248.83,-408.05"/>
</g>
<!-- Node10 -->
<g id="node10" class="node">
<title>Node10</title>
<g id="a_node10"><a xlink:href="classllm_1_1Slave.html#a05169339916c3727c780c75157b399b9" target="_top" xlink:title=" ">
<polygon fill="white" stroke="#666666" points="150,-57 7,-57 7,-38 150,-38 150,-57"/>
<text text-anchor="middle" x="78.5" y="-45" font-family="Helvetica,sans-Serif" font-size="10.00">llm::Slave::parseRequestTCP</text>
</a>
</g>
</g>
<!-- Node3&#45;&gt;Node10 -->
<g id="edge9" class="edge">
<title>Node3&#45;&gt;Node10</title>
<path fill="none" stroke="#63b8ff" d="M251.13,-407.42C237.35,-375.64 210.53,-311.62 193,-255.5 172.43,-189.65 195.12,-162.01 157,-104.5 142.88,-83.2 117.96,-67 100.19,-57.41"/>
<polygon fill="#63b8ff" stroke="#63b8ff" points="247.76,-408.44 254.98,-416.2 254.18,-405.64 247.76,-408.44"/>
</g>
<!-- Node11 -->
<g id="node11" class="node">
<title>Node11</title>
<g id="a_node11"><a xlink:href="classllm_1_1Master.html#a39b0210172c76ef4dc9e43668daef7c9" target="_top" xlink:title=" ">
<polygon fill="white" stroke="#666666" points="157,-361 0,-361 0,-342 157,-342 157,-361"/>
<text text-anchor="middle" x="78.5" y="-349" font-family="Helvetica,sans-Serif" font-size="10.00">llm::Master::parseResponsePDU</text>
</a>
</g>
</g>
<!-- Node3&#45;&gt;Node11 -->
<g id="edge10" class="edge">
<title>Node3&#45;&gt;Node11</title>
<path fill="none" stroke="#63b8ff" d="M236.01,-411.38C215.73,-398.41 185.51,-380.57 157,-369.5 148.89,-366.35 140.08,-363.66 131.4,-361.39"/>
<polygon fill="#63b8ff" stroke="#63b8ff" points="234.09,-414.31 244.38,-416.83 237.91,-408.44 234.09,-414.31"/>
</g>
<!-- Node12 -->
<g id="node12" class="node">
<title>Node12</title>
<g id="a_node12"><a xlink:href="classllm_1_1Master.html#ab052e172e96808744ee43a8eff80b679" target="_top" xlink:title=" ">
<polygon fill="white" stroke="#666666" points="156.5,-323 0.5,-323 0.5,-304 156.5,-304 156.5,-323"/>
<text text-anchor="middle" x="78.5" y="-311" font-family="Helvetica,sans-Serif" font-size="10.00">llm::Master::parseResponseRTU</text>
</a>
</g>
</g>
<!-- Node3&#45;&gt;Node12 -->
<g id="edge11" class="edge">
<title>Node3&#45;&gt;Node12</title>
<path fill="none" stroke="#63b8ff" d="M245.23,-409.11C226.85,-387.48 193.41,-352.05 157,-332.5 150.16,-328.83 142.61,-325.86 134.98,-323.45"/>
<polygon fill="#63b8ff" stroke="#63b8ff" points="242.32,-411.08 251.4,-416.55 247.71,-406.61 242.32,-411.08"/>
</g>
<!-- Node13 -->
<g id="node13" class="node">
<title>Node13</title>
<g id="a_node13"><a xlink:href="classllm_1_1Master.html#ad1f614f5d44a61a8507ae34968fa7903" target="_top" xlink:title=" ">
<polygon fill="white" stroke="#666666" points="156,-509 1,-509 1,-490 156,-490 156,-509"/>
<text text-anchor="middle" x="78.5" y="-497" font-family="Helvetica,sans-Serif" font-size="10.00">llm::Master::parseResponseTCP</text>
</a>
</g>
</g>
<!-- Node3&#45;&gt;Node13 -->
<g id="edge12" class="edge">
<title>Node3&#45;&gt;Node13</title>
<path fill="none" stroke="#63b8ff" d="M214.28,-441.43C206.96,-444.35 199.63,-447.71 193,-451.5 174.92,-461.84 175.65,-472.23 157,-481.5 150.57,-484.7 143.55,-487.34 136.45,-489.52"/>
<polygon fill="#63b8ff" stroke="#63b8ff" points="215.32,-444.78 223.47,-438.01 212.88,-438.22 215.32,-444.78"/>
</g>
<!-- Node14 -->
<g id="node14" class="node">
<title>Node14</title>
<g id="a_node14"><a xlink:href="classllm_1_1Slave.html#a6824a1d0fcfd26d8bedaa934f0abcf39" target="_top" xlink:title=" ">
<polygon fill="white" stroke="#666666" points="122.5,-472 34.5,-472 34.5,-453 122.5,-453 122.5,-472"/>
<text text-anchor="middle" x="78.5" y="-460" font-family="Helvetica,sans-Serif" font-size="10.00">llm::Slave::Slave</text>
</a>
</g>
</g>
<!-- Node3&#45;&gt;Node14 -->
<g id="edge13" class="edge">
<title>Node3&#45;&gt;Node14</title>
<path fill="none" stroke="#63b8ff" d="M201.93,-438.76C176.23,-443.74 146.53,-449.5 122.81,-454.1"/>
<polygon fill="#63b8ff" stroke="#63b8ff" points="202.41,-442.23 211.56,-436.89 201.08,-435.36 202.41,-442.23"/>
</g>
<!-- Node15&#45;&gt;Node3 -->
<g id="edge15" class="edge">
<title>Node15&#45;&gt;Node3</title>
<path fill="none" stroke="#63b8ff" d="M357.35,-437.75C340.97,-435.99 323.99,-434.16 308.98,-432.55"/>
<polygon fill="#63b8ff" stroke="#63b8ff" points="356.73,-441.2 367.05,-438.79 357.48,-434.24 356.73,-441.2"/>
</g>
<!-- Node16&#45;&gt;Node3 -->
<g id="edge17" class="edge">
<title>Node16&#45;&gt;Node3</title>
<path fill="none" stroke="#63b8ff" d="M353.72,-417.1C338.46,-418.83 322.85,-420.6 308.93,-422.18"/>
<polygon fill="#63b8ff" stroke="#63b8ff" points="353.69,-420.62 363.24,-416.02 352.91,-413.67 353.69,-420.62"/>
</g>
<!-- Node17&#45;&gt;Node4 -->
<g id="edge19" class="edge">
<title>Node17&#45;&gt;Node4</title>
<path fill="none" stroke="#63b8ff" d="M410.94,-293.13C396.51,-307.78 377,-329.82 365,-352.5 337.56,-404.35 371.54,-439.1 329,-479.5 303.79,-503.44 216.16,-519.41 151.85,-528.21"/>
<polygon fill="#63b8ff" stroke="#63b8ff" points="413.02,-295.99 417.67,-286.48 408.1,-291.02 413.02,-295.99"/>
</g>
<!-- Node17&#45;&gt;Node5 -->
<g id="edge20" class="edge">
<title>Node17&#45;&gt;Node5</title>
<path fill="none" stroke="#63b8ff" d="M382.78,-275.5C323.62,-275.5 221.07,-275.5 151.77,-275.5"/>
<polygon fill="#63b8ff" stroke="#63b8ff" points="382.5,-279 392.5,-275.5 382.5,-272 382.5,-279"/>
</g>
<!-- Node17&#45;&gt;Node6 -->
<g id="edge21" class="edge">
<title>Node17&#45;&gt;Node6</title>
<path fill="none" stroke="#63b8ff" d="M407.16,-258.98C387.62,-245.51 357.92,-227.32 329,-218.5 271.03,-200.82 202.16,-196.77 151.47,-196.74"/>
<polygon fill="#63b8ff" stroke="#63b8ff" points="404.98,-261.73 415.16,-264.65 409.02,-256.01 404.98,-261.73"/>
</g>
<!-- Node17&#45;&gt;Node8 -->
<g id="edge32" class="edge">
<title>Node17&#45;&gt;Node8</title>
<path fill="none" stroke="#63b8ff" d="M408.43,-292.25C388.93,-306.92 358.57,-327.67 329,-339.5 271.41,-362.53 201.89,-375.04 150.87,-381.64"/>
<polygon fill="#63b8ff" stroke="#63b8ff" points="410.33,-295.21 416.13,-286.34 406.07,-289.66 410.33,-295.21"/>
</g>
<!-- Node17&#45;&gt;Node9 -->
<g id="edge33" class="edge">
<title>Node17&#45;&gt;Node9</title>
<path fill="none" stroke="#63b8ff" d="M420.91,-255.25C406.75,-224.73 375.4,-167.84 329,-142.5 274.38,-112.67 202.77,-110.28 150.28,-113.95"/>
<polygon fill="#63b8ff" stroke="#63b8ff" points="417.6,-256.44 424.87,-264.15 424,-253.59 417.6,-256.44"/>
</g>
<!-- Node17&#45;&gt;Node10 -->
<g id="edge34" class="edge">
<title>Node17&#45;&gt;Node10</title>
<path fill="none" stroke="#63b8ff" d="M426.39,-254.5C418.72,-210.97 394.52,-111.26 329,-66.5 270.17,-26.31 184.32,-29.82 130.22,-37.53"/>
<polygon fill="#63b8ff" stroke="#63b8ff" points="422.94,-255.05 427.99,-264.36 429.85,-253.93 422.94,-255.05"/>
</g>
<!-- Node17&#45;&gt;Node11 -->
<g id="edge35" class="edge">
<title>Node17&#45;&gt;Node11</title>
<path fill="none" stroke="#63b8ff" d="M395.29,-289.53C376.08,-296.96 351.51,-305.72 329,-311.5 272.28,-326.07 206.86,-336.32 157.25,-342.8"/>
<polygon fill="#63b8ff" stroke="#63b8ff" points="396.5,-292.82 404.52,-285.9 393.93,-286.31 396.5,-292.82"/>
</g>
<!-- Node17&#45;&gt;Node12 -->
<g id="edge36" class="edge">
<title>Node17&#45;&gt;Node12</title>
<path fill="none" stroke="#63b8ff" d="M382.89,-282.41C365.95,-284.82 346.63,-287.43 329,-289.5 271.41,-296.28 206.18,-302.5 156.86,-306.91"/>
<polygon fill="#63b8ff" stroke="#63b8ff" points="383.3,-285.89 392.7,-281.01 382.31,-278.96 383.3,-285.89"/>
</g>
<!-- Node17&#45;&gt;Node13 -->
<g id="edge37" class="edge">
<title>Node17&#45;&gt;Node13</title>
<path fill="none" stroke="#63b8ff" d="M411.56,-293.35C397.44,-308.17 378.03,-330.34 365,-352.5 342.33,-391.06 363.01,-417.43 329,-446.5 303.33,-468.44 219.71,-483.05 156.28,-491.27"/>
<polygon fill="#63b8ff" stroke="#63b8ff" points="414.04,-295.82 418.51,-286.22 409.02,-290.94 414.04,-295.82"/>
</g>
<!-- Node18 -->
<g id="node18" class="node">
<title>Node18</title>
<g id="a_node18"><a xlink:href="slave_8impl_8h.html#a384f75966903cc0c249eb68a6a20180e" target="_top" xlink:title="Builds an exception PDU.">
<polygon fill="white" stroke="#666666" points="329,-551 193,-551 193,-532 329,-532 329,-551"/>
<text text-anchor="middle" x="261" y="-539" font-family="Helvetica,sans-Serif" font-size="10.00">modbusBuildExceptionPDU</text>
</a>
</g>
</g>
<!-- Node17&#45;&gt;Node18 -->
<g id="edge22" class="edge">
<title>Node17&#45;&gt;Node18</title>
<path fill="none" stroke="#63b8ff" d="M410.56,-292.94C395.91,-307.48 376.3,-329.47 365,-352.5 331.94,-419.89 378.54,-461.11 329,-517.5 323.62,-523.63 316.56,-528.19 309.04,-531.59"/>
<polygon fill="#63b8ff" stroke="#63b8ff" points="412.63,-295.79 417.41,-286.34 407.78,-290.75 412.63,-295.79"/>
</g>
<!-- Node19 -->
<g id="node19" class="node">
<title>Node19</title>
<g id="a_node19"><a xlink:href="slave_8impl_8h.html#a1da09df8858b91c61fe02c25783c2946" target="_top" xlink:title="Builds a Modbus RTU exception.">
<polygon fill="white" stroke="#666666" points="328.5,-247 193.5,-247 193.5,-228 328.5,-228 328.5,-247"/>
<text text-anchor="middle" x="261" y="-235" font-family="Helvetica,sans-Serif" font-size="10.00">modbusBuildExceptionRTU</text>
</a>
</g>
</g>
<!-- Node17&#45;&gt;Node19 -->
<g id="edge24" class="edge">
<title>Node17&#45;&gt;Node19</title>
<path fill="none" stroke="#63b8ff" d="M383.36,-265.03C359.23,-259.56 329.84,-252.89 306.03,-247.49"/>
<polygon fill="#63b8ff" stroke="#63b8ff" points="382.38,-268.4 392.91,-267.2 383.93,-261.57 382.38,-268.4"/>
</g>
<!-- Node20 -->
<g id="node20" class="node">
<title>Node20</title>
<g id="a_node20"><a xlink:href="slave_8impl_8h.html#a778e65356f7da66831f18ec53b975383" target="_top" xlink:title="Builds a Modbus TCP exception.">
<polygon fill="white" stroke="#666666" points="328,-171 194,-171 194,-152 328,-152 328,-171"/>
<text text-anchor="middle" x="261" y="-159" font-family="Helvetica,sans-Serif" font-size="10.00">modbusBuildExceptionTCP</text>
</a>
</g>
</g>
<!-- Node17&#45;&gt;Node20 -->
<g id="edge26" class="edge">
<title>Node17&#45;&gt;Node20</title>
<path fill="none" stroke="#63b8ff" d="M413.52,-257.51C394.94,-237.52 362.5,-205.45 329,-185.5 319.34,-179.75 308.08,-175.05 297.58,-171.39"/>
<polygon fill="#63b8ff" stroke="#63b8ff" points="410.7,-259.6 420.02,-264.63 415.87,-254.89 410.7,-259.6"/>
</g>
<!-- Node21 -->
<g id="node21" class="node">
<title>Node21</title>
<g id="a_node21"><a xlink:href="slave_8impl_8h.html#a6a1e63faa64b7ca4b91d1ce7988be850" target="_top" xlink:title="Parses provided Modbus RTU request frame and generates a Modbus RTU response.">
<polygon fill="white" stroke="#666666" points="327.5,-95 194.5,-95 194.5,-76 327.5,-76 327.5,-95"/>
<text text-anchor="middle" x="261" y="-83" font-family="Helvetica,sans-Serif" font-size="10.00">modbusParseRequestRTU</text>
</a>
</g>
</g>
<!-- Node17&#45;&gt;Node21 -->
<g id="edge28" class="edge">
<title>Node17&#45;&gt;Node21</title>
<path fill="none" stroke="#63b8ff" d="M422.34,-254.99C409.2,-220.21 378,-149.55 329,-109.5 321.63,-103.48 312.64,-98.91 303.66,-95.46"/>
<polygon fill="#63b8ff" stroke="#63b8ff" points="419.01,-256.06 425.72,-264.26 425.59,-253.67 419.01,-256.06"/>
</g>
<!-- Node22 -->
<g id="node22" class="node">
<title>Node22</title>
<g id="a_node22"><a xlink:href="slave_8impl_8h.html#a5ad3fe86aa14f8982d7c459c68cd8b3e" target="_top" xlink:title="Parses provided Modbus TCP request frame and generates a Modbus TCP response.">
<polygon fill="white" stroke="#666666" points="327,-19 195,-19 195,0 327,0 327,-19"/>
<text text-anchor="middle" x="261" y="-7" font-family="Helvetica,sans-Serif" font-size="10.00">modbusParseRequestTCP</text>
</a>
</g>
</g>
<!-- Node17&#45;&gt;Node22 -->
<g id="edge30" class="edge">
<title>Node17&#45;&gt;Node22</title>
<path fill="none" stroke="#63b8ff" d="M426.56,-254.32C419,-207.82 394.67,-95.99 329,-33.5 322.56,-27.37 314.44,-22.79 306.09,-19.37"/>
<polygon fill="#63b8ff" stroke="#63b8ff" points="423.08,-254.74 428.04,-264.11 430,-253.7 423.08,-254.74"/>
</g>
<!-- Node18&#45;&gt;Node4 -->
<g id="edge23" class="edge">
<title>Node18&#45;&gt;Node4</title>
<path fill="none" stroke="#63b8ff" d="M181.16,-539.32C171.37,-539.04 161.4,-538.77 151.72,-538.5"/>
<polygon fill="#63b8ff" stroke="#63b8ff" points="180.93,-542.81 191.02,-539.59 181.12,-535.81 180.93,-542.81"/>
</g>
<!-- Node19&#45;&gt;Node5 -->
<g id="edge25" class="edge">
<title>Node19&#45;&gt;Node5</title>
<path fill="none" stroke="#63b8ff" d="M201.41,-249.83C177.3,-254.91 149.73,-260.71 126.92,-265.52"/>
<polygon fill="#63b8ff" stroke="#63b8ff" points="202.03,-253.28 211.09,-247.8 200.59,-246.43 202.03,-253.28"/>
</g>
<!-- Node20&#45;&gt;Node6 -->
<g id="edge27" class="edge">
<title>Node20&#45;&gt;Node6</title>
<path fill="none" stroke="#63b8ff" d="M201.41,-173.83C177.3,-178.91 149.73,-184.71 126.92,-189.52"/>
<polygon fill="#63b8ff" stroke="#63b8ff" points="202.03,-177.28 211.09,-171.8 200.59,-170.43 202.03,-177.28"/>
</g>
<!-- Node21&#45;&gt;Node9 -->
<g id="edge29" class="edge">
<title>Node21&#45;&gt;Node9</title>
<path fill="none" stroke="#63b8ff" d="M201.41,-97.83C177.3,-102.91 149.73,-108.71 126.92,-113.52"/>
<polygon fill="#63b8ff" stroke="#63b8ff" points="202.03,-101.28 211.09,-95.8 200.59,-94.43 202.03,-101.28"/>
</g>
<!-- Node22&#45;&gt;Node10 -->
<g id="edge31" class="edge">
<title>Node22&#45;&gt;Node10</title>
<path fill="none" stroke="#63b8ff" d="M201.41,-21.83C177.3,-26.91 149.73,-32.71 126.92,-37.52"/>
<polygon fill="#63b8ff" stroke="#63b8ff" points="202.03,-25.28 211.09,-19.8 200.59,-18.43 202.03,-25.28"/>
</g>
</g>
</svg>
