<?xml version="1.0" encoding="UTF-8" standalone="no"?>
<!DOCTYPE svg PUBLIC "-//W3C//DTD SVG 1.1//EN"
 "http://www.w3.org/Graphics/SVG/1.1/DTD/svg11.dtd">
<!-- Generated by graphviz version 7.0.5 (20221223.1930)
 -->
<!-- Title: modbusPackRTU Pages: 1 -->
<svg width="210pt" height="64pt"
 viewBox="0.00 0.00 210.00 64.00" xmlns="http://www.w3.org/2000/svg" xmlns:xlink="http://www.w3.org/1999/xlink">
<g id="graph0" class="graph" transform="scale(1 1) rotate(0) translate(4 60)">
<title>modbusPackRTU</title>
<!-- Node1 -->
<g id="node1" class="node">
<title>Node1</title>
<g id="a_node1"><a xlink:title="Sets up address and CRC in a Modbus RTU frame.">
<polygon fill="#999999" stroke="#666666" points="94,-37 0,-37 0,-18 94,-18 94,-37"/>
<text text-anchor="middle" x="47" y="-25" font-family="Helvetica,sans-Serif" font-size="10.00">modbusPackRTU</text>
</a>
</g>
</g>
<!-- Node2 -->
<g id="node2" class="node">
<title>Node2</title>
<g id="a_node2"><a xlink:href="base_8impl_8h.html#a11346a546b84663cd92cb30f4ffd1393" target="_top" xlink:title="Calculates 16&#45;bit Modbus CRC of provided data.">
<polygon fill="white" stroke="#666666" points="201.5,-56 130.5,-56 130.5,-37 201.5,-37 201.5,-56"/>
<text text-anchor="middle" x="166" y="-44" font-family="Helvetica,sans-Serif" font-size="10.00">modbusCRC</text>
</a>
</g>
</g>
<!-- Node1&#45;&gt;Node2 -->
<g id="edge1" class="edge">
<title>Node1&#45;&gt;Node2</title>
<path fill="none" stroke="#63b8ff" d="M94.24,-35.01C102.4,-36.33 110.9,-37.71 119.05,-39.04"/>
<polygon fill="#63b8ff" stroke="#63b8ff" points="118.36,-42.47 128.79,-40.62 119.48,-35.56 118.36,-42.47"/>
</g>
<!-- Node3 -->
<g id="node3" class="node">
<title>Node3</title>
<g id="a_node3"><a xlink:href="base_8h.html#af718da7da634f311c2ae8db6be3d9027" target="_top" xlink:title="Safely writes a little&#45;endian 16&#45;bit word to provided pointer.">
<polygon fill="white" stroke="#666666" points="202,-19 130,-19 130,0 202,0 202,-19"/>
<text text-anchor="middle" x="166" y="-7" font-family="Helvetica,sans-Serif" font-size="10.00">modbusWLE</text>
</a>
</g>
</g>
<!-- Node1&#45;&gt;Node3 -->
<g id="edge2" class="edge">
<title>Node1&#45;&gt;Node3</title>
<path fill="none" stroke="#63b8ff" d="M94.24,-20.39C102.14,-19.17 110.35,-17.91 118.26,-16.69"/>
<polygon fill="#63b8ff" stroke="#63b8ff" points="118.71,-20.16 128.06,-15.18 117.65,-13.24 118.71,-20.16"/>
</g>
</g>
</svg>
