<?xml version="1.0" encoding="UTF-8" standalone="no"?>
<!DOCTYPE svg PUBLIC "-//W3C//DTD SVG 1.1//EN"
 "http://www.w3.org/Graphics/SVG/1.1/DTD/svg11.dtd">
<!-- Generated by graphviz version 7.0.5 (20221223.1930)
 -->
<!-- Title: modbusBufferModeRTU Pages: 1 -->
<svg width="477pt" height="64pt"
 viewBox="0.00 0.00 477.00 64.00" xmlns="http://www.w3.org/2000/svg" xmlns:xlink="http://www.w3.org/1999/xlink">
<g id="graph0" class="graph" transform="scale(1 1) rotate(0) translate(4 60)">
<title>modbusBufferModeRTU</title>
<!-- Node1 -->
<g id="node1" class="node">
<title>Node1</title>
<g id="a_node1"><a xlink:title="Prepares buffer to store a Modbus RTU message.">
<polygon fill="#999999" stroke="#666666" points="469,-37 348,-37 348,-18 469,-18 469,-37"/>
<text text-anchor="middle" x="408.5" y="-25" font-family="Helvetica,sans-Serif" font-size="10.00">modbusBufferModeRTU</text>
</a>
</g>
</g>
<!-- Node2 -->
<g id="node2" class="node">
<title>Node2</title>
<g id="a_node2"><a xlink:href="master_8impl_8h.html#ade3cfa7c2201895b2f768cca5d424ee5" target="_top" xlink:title="Begins a RTU request.">
<polygon fill="white" stroke="#666666" points="311.5,-56 179.5,-56 179.5,-37 311.5,-37 311.5,-56"/>
<text text-anchor="middle" x="245.5" y="-44" font-family="Helvetica,sans-Serif" font-size="10.00">modbusBeginRequestRTU</text>
</a>
</g>
</g>
<!-- Node1&#45;&gt;Node2 -->
<g id="edge1" class="edge">
<title>Node1&#45;&gt;Node2</title>
<path fill="none" stroke="#63b8ff" d="M336.23,-35.91C328.14,-36.87 319.92,-37.84 311.91,-38.78"/>
<polygon fill="#63b8ff" stroke="#63b8ff" points="336.53,-39.4 346.05,-34.75 335.71,-32.45 336.53,-39.4"/>
</g>
<!-- Node3 -->
<g id="node3" class="node">
<title>Node3</title>
<g id="a_node3"><a xlink:href="slave_8impl_8h.html#a6a1e63faa64b7ca4b91d1ce7988be850" target="_top" xlink:title="Parses provided Modbus RTU request frame and generates a Modbus RTU response.">
<polygon fill="white" stroke="#666666" points="312,-19 179,-19 179,0 312,0 312,-19"/>
<text text-anchor="middle" x="245.5" y="-7" font-family="Helvetica,sans-Serif" font-size="10.00">modbusParseRequestRTU</text>
</a>
</g>
</g>
<!-- Node1&#45;&gt;Node3 -->
<g id="edge2" class="edge">
<title>Node1&#45;&gt;Node3</title>
<path fill="none" stroke="#63b8ff" d="M336.13,-19.52C328.25,-18.64 320.26,-17.75 312.45,-16.87"/>
<polygon fill="#63b8ff" stroke="#63b8ff" points="335.72,-23 346.05,-20.63 336.5,-16.04 335.72,-23"/>
</g>
<!-- Node4 -->
<g id="node4" class="node">
<title>Node4</title>
<g id="a_node4"><a xlink:href="classllm_1_1Slave.html#a001591b9a38b69cf29adc853872a09fe" target="_top" xlink:title=" ">
<polygon fill="white" stroke="#666666" points="143,-19 0,-19 0,0 143,0 143,-19"/>
<text text-anchor="middle" x="71.5" y="-7" font-family="Helvetica,sans-Serif" font-size="10.00">llm::Slave::parseRequestRTU</text>
</a>
</g>
</g>
<!-- Node3&#45;&gt;Node4 -->
<g id="edge3" class="edge">
<title>Node3&#45;&gt;Node4</title>
<path fill="none" stroke="#63b8ff" d="M167.63,-9.5C159.52,-9.5 151.31,-9.5 143.28,-9.5"/>
<polygon fill="#63b8ff" stroke="#63b8ff" points="167.47,-13 177.47,-9.5 167.47,-6 167.47,-13"/>
</g>
</g>
</svg>
