<?xml version="1.0" encoding="UTF-8" standalone="no"?>
<!DOCTYPE svg PUBLIC "-//W3C//DTD SVG 1.1//EN"
 "http://www.w3.org/Graphics/SVG/1.1/DTD/svg11.dtd">
<!-- Generated by graphviz version 7.0.5 (20221223.1930)
 -->
<!-- Title: modbusBufferModePDU Pages: 1 -->
<svg width="480pt" height="64pt"
 viewBox="0.00 0.00 480.00 64.00" xmlns="http://www.w3.org/2000/svg" xmlns:xlink="http://www.w3.org/1999/xlink">
<g id="graph0" class="graph" transform="scale(1 1) rotate(0) translate(4 60)">
<title>modbusBufferModePDU</title>
<!-- Node1 -->
<g id="node1" class="node">
<title>Node1</title>
<g id="a_node1"><a xlink:title="Prepares buffer to only store a Modbus PDU.">
<polygon fill="#999999" stroke="#666666" points="472,-37 350,-37 350,-18 472,-18 472,-37"/>
<text text-anchor="middle" x="411" y="-25" font-family="Helvetica,sans-Serif" font-size="10.00">modbusBufferModePDU</text>
</a>
</g>
</g>
<!-- Node2 -->
<g id="node2" class="node">
<title>Node2</title>
<g id="a_node2"><a xlink:href="master_8impl_8h.html#ad71d034901cd8e22b4d74da7f86cdda9" target="_top" xlink:title="Begins a PDU&#45;only request.">
<polygon fill="white" stroke="#666666" points="313.5,-56 180.5,-56 180.5,-37 313.5,-37 313.5,-56"/>
<text text-anchor="middle" x="247" y="-44" font-family="Helvetica,sans-Serif" font-size="10.00">modbusBeginRequestPDU</text>
</a>
</g>
</g>
<!-- Node1&#45;&gt;Node2 -->
<g id="edge1" class="edge">
<title>Node1&#45;&gt;Node2</title>
<path fill="none" stroke="#63b8ff" d="M338.28,-35.91C330.14,-36.87 321.87,-37.84 313.81,-38.78"/>
<polygon fill="#63b8ff" stroke="#63b8ff" points="338.65,-39.39 348.17,-34.75 337.83,-32.44 338.65,-39.39"/>
</g>
<!-- Node3 -->
<g id="node3" class="node">
<title>Node3</title>
<g id="a_node3"><a xlink:href="slave_8impl_8h.html#ab5c5f3146a46cf8d221aca22e9c8a052" target="_top" xlink:title="Parses provided PDU and generates PDU for the response frame.">
<polygon fill="white" stroke="#666666" points="314,-19 180,-19 180,0 314,0 314,-19"/>
<text text-anchor="middle" x="247" y="-7" font-family="Helvetica,sans-Serif" font-size="10.00">modbusParseRequestPDU</text>
</a>
</g>
</g>
<!-- Node1&#45;&gt;Node3 -->
<g id="edge2" class="edge">
<title>Node1&#45;&gt;Node3</title>
<path fill="none" stroke="#63b8ff" d="M338.46,-19.55C330.45,-18.66 322.31,-17.76 314.36,-16.87"/>
<polygon fill="#63b8ff" stroke="#63b8ff" points="337.85,-23 348.17,-20.63 338.62,-16.05 337.85,-23"/>
</g>
<!-- Node4 -->
<g id="node4" class="node">
<title>Node4</title>
<g id="a_node4"><a xlink:href="classllm_1_1Slave.html#af8cc9d8d58bf7f632f3f3cf7e6b9c84b" target="_top" xlink:title=" ">
<polygon fill="white" stroke="#666666" points="144,-19 0,-19 0,0 144,0 144,-19"/>
<text text-anchor="middle" x="72" y="-7" font-family="Helvetica,sans-Serif" font-size="10.00">llm::Slave::parseRequestPDU</text>
</a>
</g>
</g>
<!-- Node3&#45;&gt;Node4 -->
<g id="edge3" class="edge">
<title>Node3&#45;&gt;Node4</title>
<path fill="none" stroke="#63b8ff" d="M168.13,-9.5C160.22,-9.5 152.22,-9.5 144.39,-9.5"/>
<polygon fill="#63b8ff" stroke="#63b8ff" points="168.09,-13 178.09,-9.5 168.09,-6 168.09,-13"/>
</g>
</g>
</svg>
