<?xml version="1.0" encoding="UTF-8" standalone="no"?>
<!DOCTYPE svg PUBLIC "-//W3C//DTD SVG 1.1//EN"
 "http://www.w3.org/Graphics/SVG/1.1/DTD/svg11.dtd">
<!-- Generated by graphviz version 7.0.5 (20221223.1930)
 -->
<!-- Title: modbusPackTCP Pages: 1 -->
<svg width="452pt" height="101pt"
 viewBox="0.00 0.00 452.00 101.00" xmlns="http://www.w3.org/2000/svg" xmlns:xlink="http://www.w3.org/1999/xlink">
<g id="graph0" class="graph" transform="scale(1 1) rotate(0) translate(4 97)">
<title>modbusPackTCP</title>
<!-- Node1 -->
<g id="node1" class="node">
<title>Node1</title>
<g id="a_node1"><a xlink:title="Sets up the MBAP header in a Modbus TCP frame.">
<polygon fill="#999999" stroke="#666666" points="444,-56 351,-56 351,-37 444,-37 444,-56"/>
<text text-anchor="middle" x="397.5" y="-44" font-family="Helvetica,sans-Serif" font-size="10.00">modbusPackTCP</text>
</a>
</g>
</g>
<!-- Node2 -->
<g id="node2" class="node">
<title>Node2</title>
<g id="a_node2"><a xlink:href="slave_8impl_8h.html#a778e65356f7da66831f18ec53b975383" target="_top" xlink:title="Builds a Modbus TCP exception.">
<polygon fill="white" stroke="#666666" points="315,-93 181,-93 181,-74 315,-74 315,-93"/>
<text text-anchor="middle" x="248" y="-81" font-family="Helvetica,sans-Serif" font-size="10.00">modbusBuildExceptionTCP</text>
</a>
</g>
</g>
<!-- Node1&#45;&gt;Node2 -->
<g id="edge1" class="edge">
<title>Node1&#45;&gt;Node2</title>
<path fill="none" stroke="#63b8ff" d="M345.95,-59.18C327.21,-63.88 306.26,-69.14 288.64,-73.56"/>
<polygon fill="#63b8ff" stroke="#63b8ff" points="346.66,-62.61 355.5,-56.78 344.95,-55.82 346.66,-62.61"/>
</g>
<!-- Node4 -->
<g id="node4" class="node">
<title>Node4</title>
<g id="a_node4"><a xlink:href="master_8impl_8h.html#a7feaa87c1b0f6c9fbd565494b2b96c8d" target="_top" xlink:title="Finalizes a Modbus TCP request.">
<polygon fill="white" stroke="#666666" points="309.5,-56 186.5,-56 186.5,-37 309.5,-37 309.5,-56"/>
<text text-anchor="middle" x="248" y="-44" font-family="Helvetica,sans-Serif" font-size="10.00">modbusEndRequestTCP</text>
</a>
</g>
</g>
<!-- Node1&#45;&gt;Node4 -->
<g id="edge3" class="edge">
<title>Node1&#45;&gt;Node4</title>
<path fill="none" stroke="#63b8ff" d="M339.13,-46.5C329.49,-46.5 319.47,-46.5 309.75,-46.5"/>
<polygon fill="#63b8ff" stroke="#63b8ff" points="339.13,-50 349.13,-46.5 339.13,-43 339.13,-50"/>
</g>
<!-- Node5 -->
<g id="node5" class="node">
<title>Node5</title>
<g id="a_node5"><a xlink:href="slave_8impl_8h.html#a5ad3fe86aa14f8982d7c459c68cd8b3e" target="_top" xlink:title="Parses provided Modbus TCP request frame and generates a Modbus TCP response.">
<polygon fill="white" stroke="#666666" points="314,-19 182,-19 182,0 314,0 314,-19"/>
<text text-anchor="middle" x="248" y="-7" font-family="Helvetica,sans-Serif" font-size="10.00">modbusParseRequestTCP</text>
</a>
</g>
</g>
<!-- Node1&#45;&gt;Node5 -->
<g id="edge4" class="edge">
<title>Node1&#45;&gt;Node5</title>
<path fill="none" stroke="#63b8ff" d="M345.95,-33.82C327.21,-29.12 306.26,-23.86 288.64,-19.44"/>
<polygon fill="#63b8ff" stroke="#63b8ff" points="344.95,-37.18 355.5,-36.22 346.66,-30.39 344.95,-37.18"/>
</g>
<!-- Node3 -->
<g id="node3" class="node">
<title>Node3</title>
<g id="a_node3"><a xlink:href="classllm_1_1Slave.html#a844c37870a4e98bffc091ddfafb8f959" target="_top" xlink:title=" ">
<polygon fill="white" stroke="#666666" points="145,-93 0,-93 0,-74 145,-74 145,-93"/>
<text text-anchor="middle" x="72.5" y="-81" font-family="Helvetica,sans-Serif" font-size="10.00">llm::Slave::buildExceptionTCP</text>
</a>
</g>
</g>
<!-- Node2&#45;&gt;Node3 -->
<g id="edge2" class="edge">
<title>Node2&#45;&gt;Node3</title>
<path fill="none" stroke="#63b8ff" d="M169.65,-83.5C161.61,-83.5 153.46,-83.5 145.48,-83.5"/>
<polygon fill="#63b8ff" stroke="#63b8ff" points="169.4,-87 179.4,-83.5 169.4,-80 169.4,-87"/>
</g>
<!-- Node6 -->
<g id="node6" class="node">
<title>Node6</title>
<g id="a_node6"><a xlink:href="classllm_1_1Slave.html#a05169339916c3727c780c75157b399b9" target="_top" xlink:title=" ">
<polygon fill="white" stroke="#666666" points="144,-19 1,-19 1,0 144,0 144,-19"/>
<text text-anchor="middle" x="72.5" y="-7" font-family="Helvetica,sans-Serif" font-size="10.00">llm::Slave::parseRequestTCP</text>
</a>
</g>
</g>
<!-- Node5&#45;&gt;Node6 -->
<g id="edge5" class="edge">
<title>Node5&#45;&gt;Node6</title>
<path fill="none" stroke="#63b8ff" d="M170.6,-9.5C161.92,-9.5 153.09,-9.5 144.49,-9.5"/>
<polygon fill="#63b8ff" stroke="#63b8ff" points="170.39,-13 180.39,-9.5 170.39,-6 170.39,-13"/>
</g>
</g>
</svg>
