<?xml version="1.0" encoding="UTF-8" standalone="no"?>
<!DOCTYPE svg PUBLIC "-//W3C//DTD SVG 1.1//EN"
 "http://www.w3.org/Graphics/SVG/1.1/DTD/svg11.dtd">
<!-- Generated by graphviz version 7.0.5 (20221223.1930)
 -->
<!-- Title: modbusGetRequestError Pages: 1 -->
<svg width="455pt" height="397pt"
 viewBox="0.00 0.00 455.00 397.00" xmlns="http://www.w3.org/2000/svg" xmlns:xlink="http://www.w3.org/1999/xlink">
<g id="graph0" class="graph" transform="scale(1 1) rotate(0) translate(4 393)">
<title>modbusGetRequestError</title>
<!-- Node1 -->
<g id="node1" class="node">
<title>Node1</title>
<g id="a_node1"><a xlink:title="Returns request error from ModbusErrorInfo.">
<polygon fill="#999999" stroke="#666666" points="447,-204 324,-204 324,-185 447,-185 447,-204"/>
<text text-anchor="middle" x="385.5" y="-192" font-family="Helvetica,sans-Serif" font-size="10.00">modbusGetRequestError</text>
</a>
</g>
</g>
<!-- Node2 -->
<g id="node2" class="node">
<title>Node2</title>
<g id="a_node2"><a xlink:href="namespacellm.html#a57bd253b3362a63c62c8c5b5b0391252" target="_top" xlink:title="Throws an exception based on ModbusErrorInfo.">
<polygon fill="white" stroke="#666666" points="288,-204 193,-204 193,-185 288,-185 288,-204"/>
<text text-anchor="middle" x="240.5" y="-192" font-family="Helvetica,sans-Serif" font-size="10.00">llm::throwErrorInfo</text>
</a>
</g>
</g>
<!-- Node1&#45;&gt;Node2 -->
<g id="edge1" class="edge">
<title>Node1&#45;&gt;Node2</title>
<path fill="none" stroke="#63b8ff" d="M312.36,-194.5C304.21,-194.5 296.06,-194.5 288.35,-194.5"/>
<polygon fill="#63b8ff" stroke="#63b8ff" points="312.34,-198 322.34,-194.5 312.34,-191 312.34,-198"/>
</g>
<!-- Node3 -->
<g id="node3" class="node">
<title>Node3</title>
<g id="a_node3"><a xlink:href="classllm_1_1Slave.html#ac915e0947f733a784a9069f5ff5b9737" target="_top" xlink:title=" ">
<polygon fill="white" stroke="#666666" points="151.5,-389 5.5,-389 5.5,-370 151.5,-370 151.5,-389"/>
<text text-anchor="middle" x="78.5" y="-377" font-family="Helvetica,sans-Serif" font-size="10.00">llm::Slave::buildExceptionPDU</text>
</a>
</g>
</g>
<!-- Node2&#45;&gt;Node3 -->
<g id="edge2" class="edge">
<title>Node2&#45;&gt;Node3</title>
<path fill="none" stroke="#63b8ff" d="M235.32,-215.17C226.98,-250.8 204.84,-323.59 157,-361.5 152.89,-364.76 148.29,-367.45 143.43,-369.66"/>
<polygon fill="#63b8ff" stroke="#63b8ff" points="238.67,-216.23 237.38,-205.72 231.83,-214.74 238.67,-216.23"/>
</g>
<!-- Node4 -->
<g id="node4" class="node">
<title>Node4</title>
<g id="a_node4"><a xlink:href="classllm_1_1Slave.html#a10e79600053c725e639225264d966e63" target="_top" xlink:title=" ">
<polygon fill="white" stroke="#666666" points="151.5,-352 5.5,-352 5.5,-333 151.5,-333 151.5,-352"/>
<text text-anchor="middle" x="78.5" y="-340" font-family="Helvetica,sans-Serif" font-size="10.00">llm::Slave::buildExceptionRTU</text>
</a>
</g>
</g>
<!-- Node2&#45;&gt;Node4 -->
<g id="edge3" class="edge">
<title>Node2&#45;&gt;Node4</title>
<path fill="none" stroke="#63b8ff" d="M232.41,-214.63C221.14,-243.6 196.29,-296.64 157,-324.5 152.49,-327.7 147.5,-330.33 142.29,-332.51"/>
<polygon fill="#63b8ff" stroke="#63b8ff" points="235.58,-216.16 235.78,-205.57 229.02,-213.72 235.58,-216.16"/>
</g>
<!-- Node5 -->
<g id="node5" class="node">
<title>Node5</title>
<g id="a_node5"><a xlink:href="classllm_1_1Slave.html#a844c37870a4e98bffc091ddfafb8f959" target="_top" xlink:title=" ">
<polygon fill="white" stroke="#666666" points="151,-315 6,-315 6,-296 151,-296 151,-315"/>
<text text-anchor="middle" x="78.5" y="-303" font-family="Helvetica,sans-Serif" font-size="10.00">llm::Slave::buildExceptionTCP</text>
</a>
</g>
</g>
<!-- Node2&#45;&gt;Node5 -->
<g id="edge4" class="edge">
<title>Node2&#45;&gt;Node5</title>
<path fill="none" stroke="#63b8ff" d="M227.49,-214.12C213.33,-235.53 187.78,-269.19 157,-287.5 151.54,-290.75 145.54,-293.41 139.37,-295.59"/>
<polygon fill="#63b8ff" stroke="#63b8ff" points="230.41,-216.04 232.84,-205.73 224.51,-212.28 230.41,-216.04"/>
</g>
<!-- Node6 -->
<g id="node6" class="node">
<title>Node6</title>
<g id="a_node6"><a xlink:href="classllm_1_1Master.html#ac2e598f20d2c576e74590d461cf75f97" target="_top" xlink:title=" ">
<polygon fill="white" stroke="#666666" points="127.5,-278 29.5,-278 29.5,-259 127.5,-259 127.5,-278"/>
<text text-anchor="middle" x="78.5" y="-266" font-family="Helvetica,sans-Serif" font-size="10.00">llm::Master::Master</text>
</a>
</g>
</g>
<!-- Node2&#45;&gt;Node6 -->
<g id="edge5" class="edge">
<title>Node2&#45;&gt;Node6</title>
<path fill="none" stroke="#63b8ff" d="M219.09,-211.52C203.12,-224.02 179.85,-240.5 157,-250.5 147.89,-254.49 137.77,-257.65 127.94,-260.15"/>
<polygon fill="#63b8ff" stroke="#63b8ff" points="221.24,-214.28 226.84,-205.29 216.86,-208.82 221.24,-214.28"/>
</g>
<!-- Node7 -->
<g id="node7" class="node">
<title>Node7</title>
<g id="a_node7"><a xlink:href="classllm_1_1Slave.html#af8cc9d8d58bf7f632f3f3cf7e6b9c84b" target="_top" xlink:title=" ">
<polygon fill="white" stroke="#666666" points="150.5,-241 6.5,-241 6.5,-222 150.5,-222 150.5,-241"/>
<text text-anchor="middle" x="78.5" y="-229" font-family="Helvetica,sans-Serif" font-size="10.00">llm::Slave::parseRequestPDU</text>
</a>
</g>
</g>
<!-- Node2&#45;&gt;Node7 -->
<g id="edge6" class="edge">
<title>Node2&#45;&gt;Node7</title>
<path fill="none" stroke="#63b8ff" d="M185.52,-206.98C164.98,-211.73 141.88,-217.07 122.5,-221.56"/>
<polygon fill="#63b8ff" stroke="#63b8ff" points="186.19,-210.42 195.15,-204.76 184.62,-203.6 186.19,-210.42"/>
</g>
<!-- Node8 -->
<g id="node8" class="node">
<title>Node8</title>
<g id="a_node8"><a xlink:href="classllm_1_1Slave.html#a001591b9a38b69cf29adc853872a09fe" target="_top" xlink:title=" ">
<polygon fill="white" stroke="#666666" points="150,-204 7,-204 7,-185 150,-185 150,-204"/>
<text text-anchor="middle" x="78.5" y="-192" font-family="Helvetica,sans-Serif" font-size="10.00">llm::Slave::parseRequestRTU</text>
</a>
</g>
</g>
<!-- Node2&#45;&gt;Node8 -->
<g id="edge7" class="edge">
<title>Node2&#45;&gt;Node8</title>
<path fill="none" stroke="#63b8ff" d="M181.6,-194.5C171.46,-194.5 160.81,-194.5 150.36,-194.5"/>
<polygon fill="#63b8ff" stroke="#63b8ff" points="181.28,-198 191.28,-194.5 181.28,-191 181.28,-198"/>
</g>
<!-- Node9 -->
<g id="node9" class="node">
<title>Node9</title>
<g id="a_node9"><a xlink:href="classllm_1_1Slave.html#a05169339916c3727c780c75157b399b9" target="_top" xlink:title=" ">
<polygon fill="white" stroke="#666666" points="150,-167 7,-167 7,-148 150,-148 150,-167"/>
<text text-anchor="middle" x="78.5" y="-155" font-family="Helvetica,sans-Serif" font-size="10.00">llm::Slave::parseRequestTCP</text>
</a>
</g>
</g>
<!-- Node2&#45;&gt;Node9 -->
<g id="edge8" class="edge">
<title>Node2&#45;&gt;Node9</title>
<path fill="none" stroke="#63b8ff" d="M185.52,-182.02C164.98,-177.27 141.88,-171.93 122.5,-167.44"/>
<polygon fill="#63b8ff" stroke="#63b8ff" points="184.62,-185.4 195.15,-184.24 186.19,-178.58 184.62,-185.4"/>
</g>
<!-- Node10 -->
<g id="node10" class="node">
<title>Node10</title>
<g id="a_node10"><a xlink:href="classllm_1_1Master.html#a39b0210172c76ef4dc9e43668daef7c9" target="_top" xlink:title=" ">
<polygon fill="white" stroke="#666666" points="157,-130 0,-130 0,-111 157,-111 157,-130"/>
<text text-anchor="middle" x="78.5" y="-118" font-family="Helvetica,sans-Serif" font-size="10.00">llm::Master::parseResponsePDU</text>
</a>
</g>
</g>
<!-- Node2&#45;&gt;Node10 -->
<g id="edge9" class="edge">
<title>Node2&#45;&gt;Node10</title>
<path fill="none" stroke="#63b8ff" d="M218.73,-177.67C202.72,-165.47 179.58,-149.43 157,-139.5 148.76,-135.88 139.7,-132.87 130.78,-130.4"/>
<polygon fill="#63b8ff" stroke="#63b8ff" points="216.48,-180.35 226.51,-183.75 220.79,-174.84 216.48,-180.35"/>
</g>
<!-- Node11 -->
<g id="node11" class="node">
<title>Node11</title>
<g id="a_node11"><a xlink:href="classllm_1_1Master.html#ab052e172e96808744ee43a8eff80b679" target="_top" xlink:title=" ">
<polygon fill="white" stroke="#666666" points="156.5,-93 0.5,-93 0.5,-74 156.5,-74 156.5,-93"/>
<text text-anchor="middle" x="78.5" y="-81" font-family="Helvetica,sans-Serif" font-size="10.00">llm::Master::parseResponseRTU</text>
</a>
</g>
</g>
<!-- Node2&#45;&gt;Node11 -->
<g id="edge10" class="edge">
<title>Node2&#45;&gt;Node11</title>
<path fill="none" stroke="#63b8ff" d="M227.39,-175.16C213.15,-154.04 187.54,-120.81 157,-102.5 150.82,-98.8 143.96,-95.81 136.94,-93.41"/>
<polygon fill="#63b8ff" stroke="#63b8ff" points="224.39,-176.96 232.78,-183.42 230.25,-173.13 224.39,-176.96"/>
</g>
<!-- Node12 -->
<g id="node12" class="node">
<title>Node12</title>
<g id="a_node12"><a xlink:href="classllm_1_1Master.html#ad1f614f5d44a61a8507ae34968fa7903" target="_top" xlink:title=" ">
<polygon fill="white" stroke="#666666" points="156,-56 1,-56 1,-37 156,-37 156,-56"/>
<text text-anchor="middle" x="78.5" y="-44" font-family="Helvetica,sans-Serif" font-size="10.00">llm::Master::parseResponseTCP</text>
</a>
</g>
</g>
<!-- Node2&#45;&gt;Node12 -->
<g id="edge11" class="edge">
<title>Node2&#45;&gt;Node12</title>
<path fill="none" stroke="#63b8ff" d="M232.16,-174.17C220.7,-145.4 195.76,-93.24 157,-65.5 151.82,-61.79 146,-58.8 139.93,-56.39"/>
<polygon fill="#63b8ff" stroke="#63b8ff" points="228.76,-175.09 235.59,-183.19 235.31,-172.6 228.76,-175.09"/>
</g>
<!-- Node13 -->
<g id="node13" class="node">
<title>Node13</title>
<g id="a_node13"><a xlink:href="classllm_1_1Slave.html#a6824a1d0fcfd26d8bedaa934f0abcf39" target="_top" xlink:title=" ">
<polygon fill="white" stroke="#666666" points="122.5,-19 34.5,-19 34.5,0 122.5,0 122.5,-19"/>
<text text-anchor="middle" x="78.5" y="-7" font-family="Helvetica,sans-Serif" font-size="10.00">llm::Slave::Slave</text>
</a>
</g>
</g>
<!-- Node2&#45;&gt;Node13 -->
<g id="edge12" class="edge">
<title>Node2&#45;&gt;Node13</title>
<path fill="none" stroke="#63b8ff" d="M235.23,-174.01C226.76,-138.68 204.42,-66.46 157,-28.5 147.27,-20.71 134.8,-16.05 122.72,-13.28"/>
<polygon fill="#63b8ff" stroke="#63b8ff" points="231.73,-174.38 237.33,-183.37 238.56,-172.85 231.73,-174.38"/>
</g>
</g>
</svg>
