<?xml version="1.0" encoding="UTF-8" standalone="no"?>
<!DOCTYPE svg PUBLIC "-//W3C//DTD SVG 1.1//EN"
 "http://www.w3.org/Graphics/SVG/1.1/DTD/svg11.dtd">
<!-- Generated by graphviz version 7.0.5 (20221223.1930)
 -->
<!-- Title: modbusBufferAllocateADU Pages: 1 -->
<svg width="1072pt" height="695pt"
 viewBox="0.00 0.00 1072.00 695.00" xmlns="http://www.w3.org/2000/svg" xmlns:xlink="http://www.w3.org/1999/xlink">
<g id="graph0" class="graph" transform="scale(1 1) rotate(0) translate(4 691)">
<title>modbusBufferAllocateADU</title>
<!-- Node1 -->
<g id="node1" class="node">
<title>Node1</title>
<g id="a_node1"><a xlink:title="Allocates memory to hold Modbus ADU.">
<polygon fill="#999999" stroke="#666666" points="1064,-424 931,-424 931,-405 1064,-405 1064,-424"/>
<text text-anchor="middle" x="997.5" y="-412" font-family="Helvetica,sans-Serif" font-size="10.00">modbusBufferAllocateADU</text>
</a>
</g>
</g>
<!-- Node2 -->
<g id="node2" class="node">
<title>Node2</title>
<g id="a_node2"><a xlink:href="base_8impl_8h.html#a00605b5ebcf90f8035bfaa7a7c039776" target="_top" xlink:title="Frees memory allocated inside the buffer.">
<polygon fill="white" stroke="#666666" points="865.5,-556 769.5,-556 769.5,-537 865.5,-537 865.5,-556"/>
<text text-anchor="middle" x="817.5" y="-544" font-family="Helvetica,sans-Serif" font-size="10.00">modbusBufferFree</text>
</a>
</g>
</g>
<!-- Node1&#45;&gt;Node2 -->
<g id="edge1" class="edge">
<title>Node1&#45;&gt;Node2</title>
<path fill="none" stroke="#63b8ff" d="M973.96,-431.21C936.28,-459.16 861.66,-514.49 831.55,-536.82"/>
<polygon fill="#63b8ff" stroke="#63b8ff" points="975.96,-434.09 981.91,-425.32 971.79,-428.47 975.96,-434.09"/>
</g>
<!-- Node14 -->
<g id="node14" class="node">
<title>Node14</title>
<g id="a_node14"><a xlink:href="master_8h.html#a004b932b2b69ad0c6649c26d974146b2" target="_top" xlink:title="Allocates memory for the request frame.">
<polygon fill="white" stroke="#666666" points="893.5,-203 741.5,-203 741.5,-184 893.5,-184 893.5,-203"/>
<text text-anchor="middle" x="817.5" y="-191" font-family="Helvetica,sans-Serif" font-size="10.00">modbusMasterAllocateRequest</text>
</a>
</g>
</g>
<!-- Node1&#45;&gt;Node14 -->
<g id="edge13" class="edge">
<title>Node1&#45;&gt;Node14</title>
<path fill="none" stroke="#63b8ff" d="M981.61,-396.01C945.46,-351.13 854.05,-237.64 826.49,-203.42"/>
<polygon fill="#63b8ff" stroke="#63b8ff" points="978.67,-397.95 987.67,-403.54 984.13,-393.56 978.67,-397.95"/>
</g>
<!-- Node26 -->
<g id="node26" class="node">
<title>Node26</title>
<g id="a_node26"><a xlink:href="slave_8h.html#ad1165bb6d12af1db502a05df5da55aed" target="_top" xlink:title="Allocates memory for slave&#39;s response frame.">
<polygon fill="white" stroke="#666666" points="895,-424 740,-424 740,-405 895,-405 895,-424"/>
<text text-anchor="middle" x="817.5" y="-412" font-family="Helvetica,sans-Serif" font-size="10.00">modbusSlaveAllocateResponse</text>
</a>
</g>
</g>
<!-- Node1&#45;&gt;Node26 -->
<g id="edge25" class="edge">
<title>Node1&#45;&gt;Node26</title>
<path fill="none" stroke="#63b8ff" d="M919.27,-414.5C911.36,-414.5 903.34,-414.5 895.44,-414.5"/>
<polygon fill="#63b8ff" stroke="#63b8ff" points="919.21,-418 929.21,-414.5 919.21,-411 919.21,-418"/>
</g>
<!-- Node3 -->
<g id="node3" class="node">
<title>Node3</title>
<g id="a_node3"><a xlink:href="base_8impl_8h.html#ac4ff5a6ae685570f045448e76e518a0c" target="_top" xlink:title="Equivalent of modbusBufferFree() \copydetail modbusBufferFree()">
<polygon fill="white" stroke="#666666" points="683.5,-650 573.5,-650 573.5,-631 683.5,-631 683.5,-650"/>
<text text-anchor="middle" x="628.5" y="-638" font-family="Helvetica,sans-Serif" font-size="10.00">modbusBufferDestroy</text>
</a>
</g>
</g>
<!-- Node2&#45;&gt;Node3 -->
<g id="edge2" class="edge">
<title>Node2&#45;&gt;Node3</title>
<path fill="none" stroke="#63b8ff" d="M786.75,-561.46C748.19,-580.84 682.02,-614.1 649.18,-630.61"/>
<polygon fill="#63b8ff" stroke="#63b8ff" points="788.13,-564.68 795.49,-557.06 784.98,-558.43 788.13,-564.68"/>
</g>
<!-- Node8 -->
<g id="node8" class="node">
<title>Node8</title>
<g id="a_node8"><a xlink:href="master_8h.html#a040a82085ce05ff95c53d3dca4c3acfd" target="_top" xlink:title="Frees memory allocated for master&#39;s request frame.">
<polygon fill="white" stroke="#666666" points="697,-538 560,-538 560,-519 697,-519 697,-538"/>
<text text-anchor="middle" x="628.5" y="-526" font-family="Helvetica,sans-Serif" font-size="10.00">modbusMasterFreeRequest</text>
</a>
</g>
</g>
<!-- Node2&#45;&gt;Node8 -->
<g id="edge7" class="edge">
<title>Node2&#45;&gt;Node8</title>
<path fill="none" stroke="#63b8ff" d="M757.95,-540.86C738.67,-539.01 717.07,-536.93 697.16,-535.01"/>
<polygon fill="#63b8ff" stroke="#63b8ff" points="757.52,-544.34 767.81,-541.81 758.19,-537.37 757.52,-544.34"/>
</g>
<!-- Node10 -->
<g id="node10" class="node">
<title>Node10</title>
<g id="a_node10"><a xlink:href="slave_8h.html#aac289ce160ea61287c98e8a1ee4353d5" target="_top" xlink:title="Frees memory allocated for slave&#39;s response frame.">
<polygon fill="white" stroke="#666666" points="698,-575 559,-575 559,-556 698,-556 698,-575"/>
<text text-anchor="middle" x="628.5" y="-563" font-family="Helvetica,sans-Serif" font-size="10.00">modbusSlaveFreeResponse</text>
</a>
</g>
</g>
<!-- Node2&#45;&gt;Node10 -->
<g id="edge9" class="edge">
<title>Node2&#45;&gt;Node10</title>
<path fill="none" stroke="#63b8ff" d="M758.12,-552.43C739.14,-554.36 717.9,-556.52 698.23,-558.52"/>
<polygon fill="#63b8ff" stroke="#63b8ff" points="758.21,-555.94 767.81,-551.45 757.5,-548.98 758.21,-555.94"/>
</g>
<!-- Node4 -->
<g id="node4" class="node">
<title>Node4</title>
<g id="a_node4"><a xlink:href="master_8impl_8h.html#a5fe38fae0f89de04fa616d105f660d25" target="_top" xlink:title="Deinitializes a ModbusMaster struct.">
<polygon fill="white" stroke="#666666" points="496.5,-650 382.5,-650 382.5,-631 496.5,-631 496.5,-650"/>
<text text-anchor="middle" x="439.5" y="-638" font-family="Helvetica,sans-Serif" font-size="10.00">modbusMasterDestroy</text>
</a>
</g>
</g>
<!-- Node3&#45;&gt;Node4 -->
<g id="edge3" class="edge">
<title>Node3&#45;&gt;Node4</title>
<path fill="none" stroke="#63b8ff" d="M561.66,-640.5C540.53,-640.5 517.32,-640.5 496.93,-640.5"/>
<polygon fill="#63b8ff" stroke="#63b8ff" points="561.65,-644 571.65,-640.5 561.65,-637 561.65,-644"/>
</g>
<!-- Node6 -->
<g id="node6" class="node">
<title>Node6</title>
<g id="a_node6"><a xlink:href="slave_8impl_8h.html#a70695c3b7355bc0a3e6d49c46a4eef1f" target="_top" xlink:title="Frees memory allocated in the ModbusSlave struct.">
<polygon fill="white" stroke="#666666" points="494,-687 385,-687 385,-668 494,-668 494,-687"/>
<text text-anchor="middle" x="439.5" y="-675" font-family="Helvetica,sans-Serif" font-size="10.00">modbusSlaveDestroy</text>
</a>
</g>
</g>
<!-- Node3&#45;&gt;Node6 -->
<g id="edge5" class="edge">
<title>Node3&#45;&gt;Node6</title>
<path fill="none" stroke="#63b8ff" d="M566.4,-652.59C541.91,-657.43 514.04,-662.95 490.75,-667.56"/>
<polygon fill="#63b8ff" stroke="#63b8ff" points="566.77,-656.08 575.9,-650.71 565.41,-649.22 566.77,-656.08"/>
</g>
<!-- Node5 -->
<g id="node5" class="node">
<title>Node5</title>
<g id="a_node5"><a xlink:href="classllm_1_1Master.html#adae54d760d1eb2f0babcaff59325376d" target="_top" xlink:title=" ">
<polygon fill="white" stroke="#666666" points="305,-650 201,-650 201,-631 305,-631 305,-650"/>
<text text-anchor="middle" x="253" y="-638" font-family="Helvetica,sans-Serif" font-size="10.00">llm::Master::~Master</text>
</a>
</g>
</g>
<!-- Node4&#45;&gt;Node5 -->
<g id="edge4" class="edge">
<title>Node4&#45;&gt;Node5</title>
<path fill="none" stroke="#63b8ff" d="M370.71,-640.5C349.09,-640.5 325.55,-640.5 305.31,-640.5"/>
<polygon fill="#63b8ff" stroke="#63b8ff" points="370.63,-644 380.63,-640.5 370.63,-637 370.63,-644"/>
</g>
<!-- Node7 -->
<g id="node7" class="node">
<title>Node7</title>
<g id="a_node7"><a xlink:href="classllm_1_1Slave.html#a46b8ac6f2b8dee5550d18bd7f1dd355d" target="_top" xlink:title=" ">
<polygon fill="white" stroke="#666666" points="299.5,-687 206.5,-687 206.5,-668 299.5,-668 299.5,-687"/>
<text text-anchor="middle" x="253" y="-675" font-family="Helvetica,sans-Serif" font-size="10.00">llm::Slave::~Slave</text>
</a>
</g>
</g>
<!-- Node6&#45;&gt;Node7 -->
<g id="edge6" class="edge">
<title>Node6&#45;&gt;Node7</title>
<path fill="none" stroke="#63b8ff" d="M373.33,-677.5C349.04,-677.5 322,-677.5 299.81,-677.5"/>
<polygon fill="#63b8ff" stroke="#63b8ff" points="373.13,-681 383.13,-677.5 373.13,-674 373.13,-681"/>
</g>
<!-- Node9 -->
<g id="node9" class="node">
<title>Node9</title>
<g id="a_node9"><a xlink:href="classllm_1_1Master.html#a6c3883d0f98a5b4255a02f46f33c2423" target="_top" xlink:title=" ">
<polygon fill="white" stroke="#666666" points="500,-537 379,-537 379,-518 500,-518 500,-537"/>
<text text-anchor="middle" x="439.5" y="-525" font-family="Helvetica,sans-Serif" font-size="10.00">llm::Master::freeRequest</text>
</a>
</g>
</g>
<!-- Node8&#45;&gt;Node9 -->
<g id="edge8" class="edge">
<title>Node8&#45;&gt;Node9</title>
<path fill="none" stroke="#63b8ff" d="M548.64,-528.08C532.46,-527.99 515.68,-527.9 500.31,-527.82"/>
<polygon fill="#63b8ff" stroke="#63b8ff" points="548.19,-531.58 558.21,-528.13 548.23,-524.58 548.19,-531.58"/>
</g>
<!-- Node11 -->
<g id="node11" class="node">
<title>Node11</title>
<g id="a_node11"><a xlink:href="classllm_1_1Slave.html#aadbd0a4dc7769b5c393d6dfe5a344b8a" target="_top" xlink:title=" ">
<polygon fill="white" stroke="#666666" points="501,-613 378,-613 378,-594 501,-594 501,-613"/>
<text text-anchor="middle" x="439.5" y="-601" font-family="Helvetica,sans-Serif" font-size="10.00">llm::Slave::freeResponse</text>
</a>
</g>
</g>
<!-- Node10&#45;&gt;Node11 -->
<g id="edge10" class="edge">
<title>Node10&#45;&gt;Node11</title>
<path fill="none" stroke="#63b8ff" d="M567.14,-577.77C542.08,-582.86 513.37,-588.69 489.63,-593.52"/>
<polygon fill="#63b8ff" stroke="#63b8ff" points="567.78,-581.21 576.88,-575.79 566.39,-574.35 567.78,-581.21"/>
</g>
<!-- Node12 -->
<g id="node12" class="node">
<title>Node12</title>
<g id="a_node12"><a xlink:href="slave_8impl_8h.html#a6a1e63faa64b7ca4b91d1ce7988be850" target="_top" xlink:title="Parses provided Modbus RTU request frame and generates a Modbus RTU response.">
<polygon fill="white" stroke="#666666" points="319.5,-519 186.5,-519 186.5,-500 319.5,-500 319.5,-519"/>
<text text-anchor="middle" x="253" y="-507" font-family="Helvetica,sans-Serif" font-size="10.00">modbusParseRequestRTU</text>
</a>
</g>
</g>
<!-- Node10&#45;&gt;Node12 -->
<g id="edge11" class="edge">
<title>Node10&#45;&gt;Node12</title>
<path fill="none" stroke="#63b8ff" d="M547.25,-565.14C494.2,-563.58 423.38,-558.99 362,-546.5 331.9,-540.37 298.65,-528.1 277.11,-519.37"/>
<polygon fill="#63b8ff" stroke="#63b8ff" points="547.03,-568.63 557.12,-565.39 547.21,-561.63 547.03,-568.63"/>
</g>
<!-- Node13 -->
<g id="node13" class="node">
<title>Node13</title>
<g id="a_node13"><a xlink:href="classllm_1_1Slave.html#a001591b9a38b69cf29adc853872a09fe" target="_top" xlink:title=" ">
<polygon fill="white" stroke="#666666" points="143.5,-519 0.5,-519 0.5,-500 143.5,-500 143.5,-519"/>
<text text-anchor="middle" x="72" y="-507" font-family="Helvetica,sans-Serif" font-size="10.00">llm::Slave::parseRequestRTU</text>
</a>
</g>
</g>
<!-- Node12&#45;&gt;Node13 -->
<g id="edge12" class="edge">
<title>Node12&#45;&gt;Node13</title>
<path fill="none" stroke="#63b8ff" d="M174.67,-509.5C164.44,-509.5 153.99,-509.5 143.87,-509.5"/>
<polygon fill="#63b8ff" stroke="#63b8ff" points="174.6,-513 184.6,-509.5 174.6,-506 174.6,-513"/>
</g>
<!-- Node15 -->
<g id="node15" class="node">
<title>Node15</title>
<g id="a_node15"><a xlink:href="master__func_8impl_8h.html#ad3a6d4576d762da3eb0bd73aa5bb24fe" target="_top" xlink:title="Read mutiple coils/discrete inputs/holding registers/input registers.">
<polygon fill="white" stroke="#666666" points="704,-147 553,-147 553,-128 704,-128 704,-147"/>
<text text-anchor="middle" x="628.5" y="-135" font-family="Helvetica,sans-Serif" font-size="10.00">modbusBuildRequest01020304</text>
</a>
</g>
</g>
<!-- Node14&#45;&gt;Node15 -->
<g id="edge14" class="edge">
<title>Node14&#45;&gt;Node15</title>
<path fill="none" stroke="#63b8ff" d="M777.31,-179.88C755.78,-172.59 728.54,-163.66 704,-156.5 693.24,-153.36 681.51,-150.24 670.62,-147.45"/>
<polygon fill="#63b8ff" stroke="#63b8ff" points="775.97,-183.13 786.57,-183.04 778.23,-176.5 775.97,-183.13"/>
</g>
<!-- Node20 -->
<g id="node20" class="node">
<title>Node20</title>
<g id="a_node20"><a xlink:href="master__func_8impl_8h.html#a5309a3003ea2d248e51193e75ab30044" target="_top" xlink:title="Write single coil/holding register.">
<polygon fill="white" stroke="#666666" points="693.5,-56 563.5,-56 563.5,-37 693.5,-37 693.5,-56"/>
<text text-anchor="middle" x="628.5" y="-44" font-family="Helvetica,sans-Serif" font-size="10.00">modbusBuildRequest0506</text>
</a>
</g>
</g>
<!-- Node14&#45;&gt;Node20 -->
<g id="edge19" class="edge">
<title>Node14&#45;&gt;Node20</title>
<path fill="none" stroke="#63b8ff" d="M794.92,-176.53C755.57,-145.61 673.35,-80.97 642.01,-56.33"/>
<polygon fill="#63b8ff" stroke="#63b8ff" points="792.73,-179.26 802.75,-182.69 797.05,-173.76 792.73,-179.26"/>
</g>
<!-- Node23 -->
<g id="node23" class="node">
<title>Node23</title>
<g id="a_node23"><a xlink:href="master__func_8impl_8h.html#ae9842e659ccd8942905e685923de8916" target="_top" xlink:title="Write multiple coils.">
<polygon fill="white" stroke="#666666" points="688,-258 569,-258 569,-239 688,-239 688,-258"/>
<text text-anchor="middle" x="628.5" y="-246" font-family="Helvetica,sans-Serif" font-size="10.00">modbusBuildRequest15</text>
</a>
</g>
</g>
<!-- Node14&#45;&gt;Node23 -->
<g id="edge22" class="edge">
<title>Node14&#45;&gt;Node23</title>
<path fill="none" stroke="#63b8ff" d="M777.78,-207.09C756.2,-214.45 728.75,-223.45 704,-230.5 694.15,-233.31 683.48,-236.05 673.38,-238.52"/>
<polygon fill="#63b8ff" stroke="#63b8ff" points="778.74,-210.46 787.06,-203.9 776.47,-203.84 778.74,-210.46"/>
</g>
<!-- Node24 -->
<g id="node24" class="node">
<title>Node24</title>
<g id="a_node24"><a xlink:href="master__func_8impl_8h.html#aca022c438a427d8f4b03db4427c2b344" target="_top" xlink:title="Write multiple holding registers.">
<polygon fill="white" stroke="#666666" points="688,-221 569,-221 569,-202 688,-202 688,-221"/>
<text text-anchor="middle" x="628.5" y="-209" font-family="Helvetica,sans-Serif" font-size="10.00">modbusBuildRequest16</text>
</a>
</g>
</g>
<!-- Node14&#45;&gt;Node24 -->
<g id="edge23" class="edge">
<title>Node14&#45;&gt;Node24</title>
<path fill="none" stroke="#63b8ff" d="M729.98,-201.83C715.84,-203.19 701.48,-204.57 688.21,-205.85"/>
<polygon fill="#63b8ff" stroke="#63b8ff" points="730.12,-205.33 739.74,-200.89 729.45,-198.36 730.12,-205.33"/>
</g>
<!-- Node25 -->
<g id="node25" class="node">
<title>Node25</title>
<g id="a_node25"><a xlink:href="master__func_8impl_8h.html#a6f2c5d59dee73c80ad54e53cca38aeec" target="_top" xlink:title="Mask write register request.">
<polygon fill="white" stroke="#666666" points="688,-184 569,-184 569,-165 688,-165 688,-184"/>
<text text-anchor="middle" x="628.5" y="-172" font-family="Helvetica,sans-Serif" font-size="10.00">modbusBuildRequest22</text>
</a>
</g>
</g>
<!-- Node14&#45;&gt;Node25 -->
<g id="edge24" class="edge">
<title>Node14&#45;&gt;Node25</title>
<path fill="none" stroke="#63b8ff" d="M729.98,-184.71C715.84,-183.27 701.48,-181.81 688.21,-180.47"/>
<polygon fill="#63b8ff" stroke="#63b8ff" points="729.44,-188.17 739.74,-185.7 730.15,-181.21 729.44,-188.17"/>
</g>
<!-- Node16 -->
<g id="node16" class="node">
<title>Node16</title>
<g id="a_node16"><a xlink:href="master__func_8h.html#aadb2b7e2d3ee4fbde22cdf076713d75e" target="_top" xlink:title="Read multiple coils &#45; a wrapper for modbusBuildRequest01020304()">
<polygon fill="white" stroke="#666666" points="499,-93 380,-93 380,-74 499,-74 499,-93"/>
<text text-anchor="middle" x="439.5" y="-81" font-family="Helvetica,sans-Serif" font-size="10.00">modbusBuildRequest01</text>
</a>
</g>
</g>
<!-- Node15&#45;&gt;Node16 -->
<g id="edge15" class="edge">
<title>Node15&#45;&gt;Node16</title>
<path fill="none" stroke="#63b8ff" d="M587.38,-124.12C566.49,-117.32 540.48,-109.13 517,-102.5 505.94,-99.38 493.9,-96.26 482.71,-93.48"/>
<polygon fill="#63b8ff" stroke="#63b8ff" points="586.07,-127.37 596.67,-127.16 588.25,-120.72 586.07,-127.37"/>
</g>
<!-- Node17 -->
<g id="node17" class="node">
<title>Node17</title>
<g id="a_node17"><a xlink:href="master__func_8h.html#a2a6452a8200d77483254bef08ee2cf8c" target="_top" xlink:title="Read multiple discrete inputs &#45; a wrapper for modbusBuildRequest01020304()">
<polygon fill="white" stroke="#666666" points="499,-204 380,-204 380,-185 499,-185 499,-204"/>
<text text-anchor="middle" x="439.5" y="-192" font-family="Helvetica,sans-Serif" font-size="10.00">modbusBuildRequest02</text>
</a>
</g>
</g>
<!-- Node15&#45;&gt;Node17 -->
<g id="edge16" class="edge">
<title>Node15&#45;&gt;Node17</title>
<path fill="none" stroke="#63b8ff" d="M569.78,-150.64C564.05,-152.41 558.37,-154.37 553,-156.5 535.99,-163.26 534.07,-169.9 517,-176.5 508.98,-179.6 500.28,-182.27 491.71,-184.52"/>
<polygon fill="#63b8ff" stroke="#63b8ff" points="570.73,-154.01 579.36,-147.86 568.78,-147.28 570.73,-154.01"/>
</g>
<!-- Node18 -->
<g id="node18" class="node">
<title>Node18</title>
<g id="a_node18"><a xlink:href="master__func_8h.html#a1c7ed51c58b1ef42ee176833c7fd0515" target="_top" xlink:title="Read multiple holding registers &#45; a wrapper for modbusBuildRequest01020304()">
<polygon fill="white" stroke="#666666" points="499,-167 380,-167 380,-148 499,-148 499,-167"/>
<text text-anchor="middle" x="439.5" y="-155" font-family="Helvetica,sans-Serif" font-size="10.00">modbusBuildRequest03</text>
</a>
</g>
</g>
<!-- Node15&#45;&gt;Node18 -->
<g id="edge17" class="edge">
<title>Node15&#45;&gt;Node18</title>
<path fill="none" stroke="#63b8ff" d="M541.23,-146.73C527.07,-148.24 512.68,-149.78 499.38,-151.2"/>
<polygon fill="#63b8ff" stroke="#63b8ff" points="541.44,-150.22 551.01,-145.68 540.7,-143.26 541.44,-150.22"/>
</g>
<!-- Node19 -->
<g id="node19" class="node">
<title>Node19</title>
<g id="a_node19"><a xlink:href="master__func_8h.html#a22bf4541196b3e88c0a86861d334e3b1" target="_top" xlink:title="Read multiple input registers &#45; a wrapper for modbusBuildRequest01020304()">
<polygon fill="white" stroke="#666666" points="499,-130 380,-130 380,-111 499,-111 499,-130"/>
<text text-anchor="middle" x="439.5" y="-118" font-family="Helvetica,sans-Serif" font-size="10.00">modbusBuildRequest04</text>
</a>
</g>
</g>
<!-- Node15&#45;&gt;Node19 -->
<g id="edge18" class="edge">
<title>Node15&#45;&gt;Node19</title>
<path fill="none" stroke="#63b8ff" d="M541.23,-129.66C527.07,-128.37 512.68,-127.06 499.38,-125.85"/>
<polygon fill="#63b8ff" stroke="#63b8ff" points="540.73,-133.13 551.01,-130.55 541.37,-126.16 540.73,-133.13"/>
</g>
<!-- Node21 -->
<g id="node21" class="node">
<title>Node21</title>
<g id="a_node21"><a xlink:href="master__func_8h.html#a7151355c8c34af355fd779f88a64e125" target="_top" xlink:title="Write single coil &#45; a wrapper for modbusBuildRequest0506()">
<polygon fill="white" stroke="#666666" points="499,-19 380,-19 380,0 499,0 499,-19"/>
<text text-anchor="middle" x="439.5" y="-7" font-family="Helvetica,sans-Serif" font-size="10.00">modbusBuildRequest05</text>
</a>
</g>
</g>
<!-- Node20&#45;&gt;Node21 -->
<g id="edge20" class="edge">
<title>Node20&#45;&gt;Node21</title>
<path fill="none" stroke="#63b8ff" d="M566.4,-34.41C541.91,-29.57 514.04,-24.05 490.75,-19.44"/>
<polygon fill="#63b8ff" stroke="#63b8ff" points="565.41,-37.78 575.9,-36.29 566.77,-30.92 565.41,-37.78"/>
</g>
<!-- Node22 -->
<g id="node22" class="node">
<title>Node22</title>
<g id="a_node22"><a xlink:href="master__func_8h.html#a56779853bdfd2bb75601be746c20eb09" target="_top" xlink:title="Write single holding register &#45; a wrapper for modbusBuildRequest0506()">
<polygon fill="white" stroke="#666666" points="499,-56 380,-56 380,-37 499,-37 499,-56"/>
<text text-anchor="middle" x="439.5" y="-44" font-family="Helvetica,sans-Serif" font-size="10.00">modbusBuildRequest06</text>
</a>
</g>
</g>
<!-- Node20&#45;&gt;Node22 -->
<g id="edge21" class="edge">
<title>Node20&#45;&gt;Node22</title>
<path fill="none" stroke="#63b8ff" d="M551.8,-46.5C534.32,-46.5 515.97,-46.5 499.32,-46.5"/>
<polygon fill="#63b8ff" stroke="#63b8ff" points="551.63,-50 561.63,-46.5 551.63,-43 551.63,-50"/>
</g>
<!-- Node27 -->
<g id="node27" class="node">
<title>Node27</title>
<g id="a_node27"><a xlink:href="slave_8impl_8h.html#a58243ce1e1adaffd0a3260edc2d03603" target="_top" xlink:title="Builds an exception response frame.">
<polygon fill="white" stroke="#666666" points="686,-386 571,-386 571,-367 686,-367 686,-386"/>
<text text-anchor="middle" x="628.5" y="-374" font-family="Helvetica,sans-Serif" font-size="10.00">modbusBuildException</text>
</a>
</g>
</g>
<!-- Node26&#45;&gt;Node27 -->
<g id="edge26" class="edge">
<title>Node26&#45;&gt;Node27</title>
<path fill="none" stroke="#63b8ff" d="M756.14,-402.23C731.08,-397.14 702.37,-391.31 678.63,-386.48"/>
<polygon fill="#63b8ff" stroke="#63b8ff" points="755.39,-405.65 765.88,-404.21 756.78,-398.79 755.39,-405.65"/>
</g>
<!-- Node39 -->
<g id="node39" class="node">
<title>Node39</title>
<g id="a_node39"><a xlink:href="slave__func_8impl_8h.html#aaff57f2a5c6a8e6c77d36c5dc7e48cfa" target="_top" xlink:title="Handles requests 01, 02, 03 and 04 (Read Multiple XX) and generates response.">
<polygon fill="white" stroke="#666666" points="517,-241 362,-241 362,-222 517,-222 517,-241"/>
<text text-anchor="middle" x="439.5" y="-229" font-family="Helvetica,sans-Serif" font-size="10.00">modbusParseRequest01020304</text>
</a>
</g>
</g>
<!-- Node26&#45;&gt;Node39 -->
<g id="edge43" class="edge">
<title>Node26&#45;&gt;Node39</title>
<path fill="none" stroke="#63b8ff" d="M789.4,-399.14C721.11,-360.5 545.36,-261.57 517,-250.5 508.08,-247.02 498.31,-244.02 488.84,-241.5"/>
<polygon fill="#63b8ff" stroke="#63b8ff" points="787.29,-401.97 797.72,-403.85 790.74,-395.87 787.29,-401.97"/>
</g>
<!-- Node40 -->
<g id="node40" class="node">
<title>Node40</title>
<g id="a_node40"><a xlink:href="slave__func_8impl_8h.html#a236881fe30a95d4cc9b031a9e24ae2a8" target="_top" xlink:title="Handles requests 05 and 06 (Write Single XX) and generates response.">
<polygon fill="white" stroke="#666666" points="506.5,-500 372.5,-500 372.5,-481 506.5,-481 506.5,-500"/>
<text text-anchor="middle" x="439.5" y="-488" font-family="Helvetica,sans-Serif" font-size="10.00">modbusParseRequest0506</text>
</a>
</g>
</g>
<!-- Node26&#45;&gt;Node40 -->
<g id="edge44" class="edge">
<title>Node26&#45;&gt;Node40</title>
<path fill="none" stroke="#63b8ff" d="M778.85,-428.21C757.19,-435.67 729.33,-444.56 704,-450.5 637.66,-466.04 560.46,-476.94 506.84,-483.39"/>
<polygon fill="#63b8ff" stroke="#63b8ff" points="779.85,-431.56 788.13,-424.96 777.54,-424.96 779.85,-431.56"/>
</g>
<!-- Node41 -->
<g id="node41" class="node">
<title>Node41</title>
<g id="a_node41"><a xlink:href="slave__func_8impl_8h.html#a0cb2a7bf59d4014088e1ce1c61523071" target="_top" xlink:title="Handles requests 15 and 16 (Write Multiple XX) and generates response.">
<polygon fill="white" stroke="#666666" points="506.5,-463 372.5,-463 372.5,-444 506.5,-444 506.5,-463"/>
<text text-anchor="middle" x="439.5" y="-451" font-family="Helvetica,sans-Serif" font-size="10.00">modbusParseRequest1516</text>
</a>
</g>
</g>
<!-- Node26&#45;&gt;Node41 -->
<g id="edge45" class="edge">
<title>Node26&#45;&gt;Node41</title>
<path fill="none" stroke="#63b8ff" d="M733.85,-425.92C723.8,-427.19 713.67,-428.41 704,-429.5 637.01,-437.01 560.23,-443.8 506.91,-448.22"/>
<polygon fill="#63b8ff" stroke="#63b8ff" points="734.16,-429.41 743.64,-424.66 733.27,-422.47 734.16,-429.41"/>
</g>
<!-- Node42 -->
<g id="node42" class="node">
<title>Node42</title>
<g id="a_node42"><a xlink:href="slave__func_8impl_8h.html#a814f041d9acfa578998b8ce8fe53815c" target="_top" xlink:title="Handles request 22 (Mask Write Register) and generates response.">
<polygon fill="white" stroke="#666666" points="501,-426 378,-426 378,-407 501,-407 501,-426"/>
<text text-anchor="middle" x="439.5" y="-414" font-family="Helvetica,sans-Serif" font-size="10.00">modbusParseRequest22</text>
</a>
</g>
</g>
<!-- Node26&#45;&gt;Node42 -->
<g id="edge46" class="edge">
<title>Node26&#45;&gt;Node42</title>
<path fill="none" stroke="#63b8ff" d="M728.09,-414.97C658.29,-415.34 562.72,-415.85 501.29,-416.18"/>
<polygon fill="#63b8ff" stroke="#63b8ff" points="728.01,-418.47 737.99,-414.92 727.97,-411.47 728.01,-418.47"/>
</g>
<!-- Node28 -->
<g id="node28" class="node">
<title>Node28</title>
<g id="a_node28"><a xlink:href="slave_8impl_8h.html#a384f75966903cc0c249eb68a6a20180e" target="_top" xlink:title="Builds an exception PDU.">
<polygon fill="white" stroke="#666666" points="507.5,-352 371.5,-352 371.5,-333 507.5,-333 507.5,-352"/>
<text text-anchor="middle" x="439.5" y="-340" font-family="Helvetica,sans-Serif" font-size="10.00">modbusBuildExceptionPDU</text>
</a>
</g>
</g>
<!-- Node27&#45;&gt;Node28 -->
<g id="edge27" class="edge">
<title>Node27&#45;&gt;Node28</title>
<path fill="none" stroke="#63b8ff" d="M561.56,-364.51C539.9,-360.57 516.08,-356.24 495.34,-352.47"/>
<polygon fill="#63b8ff" stroke="#63b8ff" points="560.7,-367.91 571.17,-366.26 561.96,-361.03 560.7,-367.91"/>
</g>
<!-- Node30 -->
<g id="node30" class="node">
<title>Node30</title>
<g id="a_node30"><a xlink:href="slave_8impl_8h.html#a1da09df8858b91c61fe02c25783c2946" target="_top" xlink:title="Builds a Modbus RTU exception.">
<polygon fill="white" stroke="#666666" points="507,-315 372,-315 372,-296 507,-296 507,-315"/>
<text text-anchor="middle" x="439.5" y="-303" font-family="Helvetica,sans-Serif" font-size="10.00">modbusBuildExceptionRTU</text>
</a>
</g>
</g>
<!-- Node27&#45;&gt;Node30 -->
<g id="edge29" class="edge">
<title>Node27&#45;&gt;Node30</title>
<path fill="none" stroke="#63b8ff" d="M599.24,-361.31C577.3,-349.98 545.84,-334.76 517,-324.5 507.33,-321.06 496.76,-318.01 486.65,-315.41"/>
<polygon fill="#63b8ff" stroke="#63b8ff" points="597.38,-364.29 607.86,-365.82 600.62,-358.08 597.38,-364.29"/>
</g>
<!-- Node32 -->
<g id="node32" class="node">
<title>Node32</title>
<g id="a_node32"><a xlink:href="slave_8impl_8h.html#a778e65356f7da66831f18ec53b975383" target="_top" xlink:title="Builds a Modbus TCP exception.">
<polygon fill="white" stroke="#666666" points="506.5,-278 372.5,-278 372.5,-259 506.5,-259 506.5,-278"/>
<text text-anchor="middle" x="439.5" y="-266" font-family="Helvetica,sans-Serif" font-size="10.00">modbusBuildExceptionTCP</text>
</a>
</g>
</g>
<!-- Node27&#45;&gt;Node32 -->
<g id="edge31" class="edge">
<title>Node27&#45;&gt;Node32</title>
<path fill="none" stroke="#63b8ff" d="M605.43,-359.78C590.49,-348.34 570.37,-332.73 553,-318.5 536.66,-305.12 535.76,-297.2 517,-287.5 509.95,-283.85 502.17,-280.89 494.35,-278.47"/>
<polygon fill="#63b8ff" stroke="#63b8ff" points="603.15,-362.44 613.22,-365.72 607.39,-356.87 603.15,-362.44"/>
</g>
<!-- Node34 -->
<g id="node34" class="node">
<title>Node34</title>
<g id="a_node34"><a xlink:href="slave_8impl_8h.html#aff0a9164a0e37aa619232ae86e3ff97a" target="_top" xlink:title="Parses provided PDU and generates response honorinng pduOffset and padding set in ModbusSlave during ...">
<polygon fill="white" stroke="#666666" points="496,-389 383,-389 383,-370 496,-370 496,-389"/>
<text text-anchor="middle" x="439.5" y="-377" font-family="Helvetica,sans-Serif" font-size="10.00">modbusParseRequest</text>
</a>
</g>
</g>
<!-- Node27&#45;&gt;Node34 -->
<g id="edge33" class="edge">
<title>Node27&#45;&gt;Node34</title>
<path fill="none" stroke="#63b8ff" d="M559.36,-377.59C538.69,-377.92 516.23,-378.29 496.45,-378.6"/>
<polygon fill="#63b8ff" stroke="#63b8ff" points="559.18,-381.1 569.12,-377.44 559.06,-374.1 559.18,-381.1"/>
</g>
<!-- Node27&#45;&gt;Node39 -->
<g id="edge39" class="edge">
<title>Node27&#45;&gt;Node39</title>
<path fill="none" stroke="#63b8ff" d="M601.52,-360.35C586.06,-349.81 566.83,-334.98 553,-318.5 531.02,-292.3 543.94,-271.57 517,-250.5 512.26,-246.79 506.88,-243.8 501.24,-241.38"/>
<polygon fill="#63b8ff" stroke="#63b8ff" points="599.5,-363.21 609.78,-365.79 603.36,-357.36 599.5,-363.21"/>
</g>
<!-- Node27&#45;&gt;Node40 -->
<g id="edge40" class="edge">
<title>Node27&#45;&gt;Node40</title>
<path fill="none" stroke="#63b8ff" d="M611.71,-394.82C591.83,-416.67 555.6,-452.74 517,-472.5 510.68,-475.73 503.78,-478.4 496.78,-480.59"/>
<polygon fill="#63b8ff" stroke="#63b8ff" points="614.15,-397.34 618.18,-387.54 608.92,-392.69 614.15,-397.34"/>
</g>
<!-- Node27&#45;&gt;Node41 -->
<g id="edge41" class="edge">
<title>Node27&#45;&gt;Node41</title>
<path fill="none" stroke="#63b8ff" d="M602.22,-392.44C580.38,-405.61 547.6,-423.96 517,-435.5 508.83,-438.58 499.96,-441.25 491.26,-443.51"/>
<polygon fill="#63b8ff" stroke="#63b8ff" points="604.02,-395.45 610.72,-387.24 600.36,-389.48 604.02,-395.45"/>
</g>
<!-- Node27&#45;&gt;Node42 -->
<g id="edge42" class="edge">
<title>Node27&#45;&gt;Node42</title>
<path fill="none" stroke="#63b8ff" d="M569.7,-388.86C543.11,-394.55 511.97,-401.21 486.93,-406.57"/>
<polygon fill="#63b8ff" stroke="#63b8ff" points="570.27,-392.32 579.31,-386.81 568.8,-385.48 570.27,-392.32"/>
</g>
<!-- Node29 -->
<g id="node29" class="node">
<title>Node29</title>
<g id="a_node29"><a xlink:href="classllm_1_1Slave.html#ac915e0947f733a784a9069f5ff5b9737" target="_top" xlink:title=" ">
<polygon fill="white" stroke="#666666" points="326,-352 180,-352 180,-333 326,-333 326,-352"/>
<text text-anchor="middle" x="253" y="-340" font-family="Helvetica,sans-Serif" font-size="10.00">llm::Slave::buildExceptionPDU</text>
</a>
</g>
</g>
<!-- Node28&#45;&gt;Node29 -->
<g id="edge28" class="edge">
<title>Node28&#45;&gt;Node29</title>
<path fill="none" stroke="#63b8ff" d="M359.73,-342.5C348.7,-342.5 337.4,-342.5 326.49,-342.5"/>
<polygon fill="#63b8ff" stroke="#63b8ff" points="359.59,-346 369.59,-342.5 359.59,-339 359.59,-346"/>
</g>
<!-- Node31 -->
<g id="node31" class="node">
<title>Node31</title>
<g id="a_node31"><a xlink:href="classllm_1_1Slave.html#a10e79600053c725e639225264d966e63" target="_top" xlink:title=" ">
<polygon fill="white" stroke="#666666" points="326,-315 180,-315 180,-296 326,-296 326,-315"/>
<text text-anchor="middle" x="253" y="-303" font-family="Helvetica,sans-Serif" font-size="10.00">llm::Slave::buildExceptionRTU</text>
</a>
</g>
</g>
<!-- Node30&#45;&gt;Node31 -->
<g id="edge30" class="edge">
<title>Node30&#45;&gt;Node31</title>
<path fill="none" stroke="#63b8ff" d="M360.42,-305.5C349.09,-305.5 337.46,-305.5 326.25,-305.5"/>
<polygon fill="#63b8ff" stroke="#63b8ff" points="360.12,-309 370.12,-305.5 360.12,-302 360.12,-309"/>
</g>
<!-- Node33 -->
<g id="node33" class="node">
<title>Node33</title>
<g id="a_node33"><a xlink:href="classllm_1_1Slave.html#a844c37870a4e98bffc091ddfafb8f959" target="_top" xlink:title=" ">
<polygon fill="white" stroke="#666666" points="325.5,-278 180.5,-278 180.5,-259 325.5,-259 325.5,-278"/>
<text text-anchor="middle" x="253" y="-266" font-family="Helvetica,sans-Serif" font-size="10.00">llm::Slave::buildExceptionTCP</text>
</a>
</g>
</g>
<!-- Node32&#45;&gt;Node33 -->
<g id="edge32" class="edge">
<title>Node32&#45;&gt;Node33</title>
<path fill="none" stroke="#63b8ff" d="M360.68,-268.5C349.07,-268.5 337.16,-268.5 325.69,-268.5"/>
<polygon fill="#63b8ff" stroke="#63b8ff" points="360.64,-272 370.64,-268.5 360.64,-265 360.64,-272"/>
</g>
<!-- Node34&#45;&gt;Node12 -->
<g id="edge36" class="edge">
<title>Node34&#45;&gt;Node12</title>
<path fill="none" stroke="#63b8ff" d="M372.07,-393.49C368.58,-395 365.2,-396.66 362,-398.5 361.9,-398.55 289.98,-472.5 263.57,-499.66"/>
<polygon fill="#63b8ff" stroke="#63b8ff" points="373.22,-396.8 381.33,-389.98 370.74,-390.25 373.22,-396.8"/>
</g>
<!-- Node35 -->
<g id="node35" class="node">
<title>Node35</title>
<g id="a_node35"><a xlink:href="slave_8impl_8h.html#ab5c5f3146a46cf8d221aca22e9c8a052" target="_top" xlink:title="Parses provided PDU and generates PDU for the response frame.">
<polygon fill="white" stroke="#666666" points="320,-426 186,-426 186,-407 320,-407 320,-426"/>
<text text-anchor="middle" x="253" y="-414" font-family="Helvetica,sans-Serif" font-size="10.00">modbusParseRequestPDU</text>
</a>
</g>
</g>
<!-- Node34&#45;&gt;Node35 -->
<g id="edge34" class="edge">
<title>Node34&#45;&gt;Node35</title>
<path fill="none" stroke="#63b8ff" d="M377.89,-391.65C353.81,-396.48 326.45,-401.97 303.58,-406.56"/>
<polygon fill="#63b8ff" stroke="#63b8ff" points="378.46,-395.11 387.57,-389.71 377.08,-388.25 378.46,-395.11"/>
</g>
<!-- Node37 -->
<g id="node37" class="node">
<title>Node37</title>
<g id="a_node37"><a xlink:href="slave_8impl_8h.html#a5ad3fe86aa14f8982d7c459c68cd8b3e" target="_top" xlink:title="Parses provided Modbus TCP request frame and generates a Modbus TCP response.">
<polygon fill="white" stroke="#666666" points="319,-389 187,-389 187,-370 319,-370 319,-389"/>
<text text-anchor="middle" x="253" y="-377" font-family="Helvetica,sans-Serif" font-size="10.00">modbusParseRequestTCP</text>
</a>
</g>
</g>
<!-- Node34&#45;&gt;Node37 -->
<g id="edge37" class="edge">
<title>Node34&#45;&gt;Node37</title>
<path fill="none" stroke="#63b8ff" d="M371.17,-379.5C354.28,-379.5 336.19,-379.5 319.39,-379.5"/>
<polygon fill="#63b8ff" stroke="#63b8ff" points="371.13,-383 381.13,-379.5 371.13,-376 371.13,-383"/>
</g>
<!-- Node36 -->
<g id="node36" class="node">
<title>Node36</title>
<g id="a_node36"><a xlink:href="classllm_1_1Slave.html#af8cc9d8d58bf7f632f3f3cf7e6b9c84b" target="_top" xlink:title=" ">
<polygon fill="white" stroke="#666666" points="144,-426 0,-426 0,-407 144,-407 144,-426"/>
<text text-anchor="middle" x="72" y="-414" font-family="Helvetica,sans-Serif" font-size="10.00">llm::Slave::parseRequestPDU</text>
</a>
</g>
</g>
<!-- Node35&#45;&gt;Node36 -->
<g id="edge35" class="edge">
<title>Node35&#45;&gt;Node36</title>
<path fill="none" stroke="#63b8ff" d="M174.12,-416.5C164.24,-416.5 154.17,-416.5 144.4,-416.5"/>
<polygon fill="#63b8ff" stroke="#63b8ff" points="174.09,-420 184.09,-416.5 174.09,-413 174.09,-420"/>
</g>
<!-- Node38 -->
<g id="node38" class="node">
<title>Node38</title>
<g id="a_node38"><a xlink:href="classllm_1_1Slave.html#a05169339916c3727c780c75157b399b9" target="_top" xlink:title=" ">
<polygon fill="white" stroke="#666666" points="143.5,-389 0.5,-389 0.5,-370 143.5,-370 143.5,-389"/>
<text text-anchor="middle" x="72" y="-377" font-family="Helvetica,sans-Serif" font-size="10.00">llm::Slave::parseRequestTCP</text>
</a>
</g>
</g>
<!-- Node37&#45;&gt;Node38 -->
<g id="edge38" class="edge">
<title>Node37&#45;&gt;Node38</title>
<path fill="none" stroke="#63b8ff" d="M175.41,-379.5C164.96,-379.5 154.28,-379.5 143.94,-379.5"/>
<polygon fill="#63b8ff" stroke="#63b8ff" points="175.1,-383 185.1,-379.5 175.1,-376 175.1,-383"/>
</g>
</g>
</svg>
