<?xml version="1.0" encoding="UTF-8" standalone="no"?>
<!DOCTYPE svg PUBLIC "-//W3C//DTD SVG 1.1//EN"
 "http://www.w3.org/Graphics/SVG/1.1/DTD/svg11.dtd">
<!-- Generated by graphviz version 7.0.5 (20221223.1930)
 -->
<!-- Title: modbusUnpackRTU Pages: 1 -->
<svg width="481pt" height="64pt"
 viewBox="0.00 0.00 481.00 64.00" xmlns="http://www.w3.org/2000/svg" xmlns:xlink="http://www.w3.org/1999/xlink">
<g id="graph0" class="graph" transform="scale(1 1) rotate(0) translate(4 60)">
<title>modbusUnpackRTU</title>
<!-- Node1 -->
<g id="node1" class="node">
<title>Node1</title>
<g id="a_node1"><a xlink:title="Unpacks data from a Modbus RTU frame and optionally checks CRC.">
<polygon fill="#999999" stroke="#666666" points="473,-37 368,-37 368,-18 473,-18 473,-37"/>
<text text-anchor="middle" x="420.5" y="-25" font-family="Helvetica,sans-Serif" font-size="10.00">modbusUnpackRTU</text>
</a>
</g>
</g>
<!-- Node2 -->
<g id="node2" class="node">
<title>Node2</title>
<g id="a_node2"><a xlink:href="slave_8impl_8h.html#a6a1e63faa64b7ca4b91d1ce7988be850" target="_top" xlink:title="Parses provided Modbus RTU request frame and generates a Modbus RTU response.">
<polygon fill="white" stroke="#666666" points="328.5,-56 195.5,-56 195.5,-37 328.5,-37 328.5,-56"/>
<text text-anchor="middle" x="262" y="-44" font-family="Helvetica,sans-Serif" font-size="10.00">modbusParseRequestRTU</text>
</a>
</g>
</g>
<!-- Node1&#45;&gt;Node2 -->
<g id="edge1" class="edge">
<title>Node1&#45;&gt;Node2</title>
<path fill="none" stroke="#63b8ff" d="M356.49,-35.15C347.39,-36.25 338.01,-37.39 328.86,-38.5"/>
<polygon fill="#63b8ff" stroke="#63b8ff" points="356.81,-38.64 366.32,-33.96 355.97,-31.69 356.81,-38.64"/>
</g>
<!-- Node4 -->
<g id="node4" class="node">
<title>Node4</title>
<g id="a_node4"><a xlink:href="master_8impl_8h.html#a151b85c221ae43804856eb92737498e5" target="_top" xlink:title="Parses a Modbus RTU slave response.">
<polygon fill="white" stroke="#666666" points="332,-19 192,-19 192,0 332,0 332,-19"/>
<text text-anchor="middle" x="262" y="-7" font-family="Helvetica,sans-Serif" font-size="10.00">modbusParseResponseRTU</text>
</a>
</g>
</g>
<!-- Node1&#45;&gt;Node4 -->
<g id="edge3" class="edge">
<title>Node1&#45;&gt;Node4</title>
<path fill="none" stroke="#63b8ff" d="M356.46,-20.25C348.57,-19.34 340.47,-18.41 332.49,-17.49"/>
<polygon fill="#63b8ff" stroke="#63b8ff" points="355.98,-23.72 366.32,-21.38 356.78,-16.76 355.98,-23.72"/>
</g>
<!-- Node3 -->
<g id="node3" class="node">
<title>Node3</title>
<g id="a_node3"><a xlink:href="classllm_1_1Slave.html#a001591b9a38b69cf29adc853872a09fe" target="_top" xlink:title=" ">
<polygon fill="white" stroke="#666666" points="149.5,-56 6.5,-56 6.5,-37 149.5,-37 149.5,-56"/>
<text text-anchor="middle" x="78" y="-44" font-family="Helvetica,sans-Serif" font-size="10.00">llm::Slave::parseRequestRTU</text>
</a>
</g>
</g>
<!-- Node2&#45;&gt;Node3 -->
<g id="edge2" class="edge">
<title>Node2&#45;&gt;Node3</title>
<path fill="none" stroke="#63b8ff" d="M183.55,-46.5C172.4,-46.5 160.97,-46.5 149.96,-46.5"/>
<polygon fill="#63b8ff" stroke="#63b8ff" points="183.52,-50 193.52,-46.5 183.52,-43 183.52,-50"/>
</g>
<!-- Node5 -->
<g id="node5" class="node">
<title>Node5</title>
<g id="a_node5"><a xlink:href="classllm_1_1Master.html#ab052e172e96808744ee43a8eff80b679" target="_top" xlink:title=" ">
<polygon fill="white" stroke="#666666" points="156,-19 0,-19 0,0 156,0 156,-19"/>
<text text-anchor="middle" x="78" y="-7" font-family="Helvetica,sans-Serif" font-size="10.00">llm::Master::parseResponseRTU</text>
</a>
</g>
</g>
<!-- Node4&#45;&gt;Node5 -->
<g id="edge4" class="edge">
<title>Node4&#45;&gt;Node5</title>
<path fill="none" stroke="#63b8ff" d="M180.17,-9.5C172.25,-9.5 164.22,-9.5 156.34,-9.5"/>
<polygon fill="#63b8ff" stroke="#63b8ff" points="180.16,-13 190.16,-9.5 180.16,-6 180.16,-13"/>
</g>
</g>
</svg>
