<?xml version="1.0" encoding="UTF-8" standalone="no"?>
<!DOCTYPE svg PUBLIC "-//W3C//DTD SVG 1.1//EN"
 "http://www.w3.org/Graphics/SVG/1.1/DTD/svg11.dtd">
<!-- Generated by graphviz version 7.0.5 (20221223.1930)
 -->
<!-- Title: modbusWLE Pages: 1 -->
<svg width="563pt" height="101pt"
 viewBox="0.00 0.00 563.00 101.00" xmlns="http://www.w3.org/2000/svg" xmlns:xlink="http://www.w3.org/1999/xlink">
<g id="graph0" class="graph" transform="scale(1 1) rotate(0) translate(4 97)">
<title>modbusWLE</title>
<!-- Node1 -->
<g id="node1" class="node">
<title>Node1</title>
<g id="a_node1"><a xlink:title="Safely writes a little&#45;endian 16&#45;bit word to provided pointer.">
<polygon fill="#999999" stroke="#666666" points="555,-56 483,-56 483,-37 555,-37 555,-56"/>
<text text-anchor="middle" x="519" y="-44" font-family="Helvetica,sans-Serif" font-size="10.00">modbusWLE</text>
</a>
</g>
</g>
<!-- Node2 -->
<g id="node2" class="node">
<title>Node2</title>
<g id="a_node2"><a xlink:href="base_8h.html#af2cafe9debf86bea7042b4c40bb288cd" target="_top" xlink:title="Sets up address and CRC in a Modbus RTU frame.">
<polygon fill="white" stroke="#666666" points="447,-56 353,-56 353,-37 447,-37 447,-56"/>
<text text-anchor="middle" x="400" y="-44" font-family="Helvetica,sans-Serif" font-size="10.00">modbusPackRTU</text>
</a>
</g>
</g>
<!-- Node1&#45;&gt;Node2 -->
<g id="edge1" class="edge">
<title>Node1&#45;&gt;Node2</title>
<path fill="none" stroke="#63b8ff" d="M471.23,-46.5C463.29,-46.5 455.04,-46.5 447.12,-46.5"/>
<polygon fill="#63b8ff" stroke="#63b8ff" points="471.07,-50 481.07,-46.5 471.07,-43 471.07,-50"/>
</g>
<!-- Node3 -->
<g id="node3" class="node">
<title>Node3</title>
<g id="a_node3"><a xlink:href="slave_8impl_8h.html#a1da09df8858b91c61fe02c25783c2946" target="_top" xlink:title="Builds a Modbus RTU exception.">
<polygon fill="white" stroke="#666666" points="317,-93 182,-93 182,-74 317,-74 317,-93"/>
<text text-anchor="middle" x="249.5" y="-81" font-family="Helvetica,sans-Serif" font-size="10.00">modbusBuildExceptionRTU</text>
</a>
</g>
</g>
<!-- Node2&#45;&gt;Node3 -->
<g id="edge2" class="edge">
<title>Node2&#45;&gt;Node3</title>
<path fill="none" stroke="#63b8ff" d="M348.1,-59.18C329.24,-63.88 308.15,-69.14 290.41,-73.56"/>
<polygon fill="#63b8ff" stroke="#63b8ff" points="348.88,-62.6 357.74,-56.78 347.19,-55.8 348.88,-62.6"/>
</g>
<!-- Node5 -->
<g id="node5" class="node">
<title>Node5</title>
<g id="a_node5"><a xlink:href="master_8impl_8h.html#a4623d6d41d5e4a148e399fe19051183c" target="_top" xlink:title="Finalizes a Modbus RTU request.">
<polygon fill="white" stroke="#666666" points="311.5,-56 187.5,-56 187.5,-37 311.5,-37 311.5,-56"/>
<text text-anchor="middle" x="249.5" y="-44" font-family="Helvetica,sans-Serif" font-size="10.00">modbusEndRequestRTU</text>
</a>
</g>
</g>
<!-- Node2&#45;&gt;Node5 -->
<g id="edge4" class="edge">
<title>Node2&#45;&gt;Node5</title>
<path fill="none" stroke="#63b8ff" d="M341.32,-46.5C331.68,-46.5 321.66,-46.5 311.93,-46.5"/>
<polygon fill="#63b8ff" stroke="#63b8ff" points="341.31,-50 351.31,-46.5 341.31,-43 341.31,-50"/>
</g>
<!-- Node6 -->
<g id="node6" class="node">
<title>Node6</title>
<g id="a_node6"><a xlink:href="slave_8impl_8h.html#a6a1e63faa64b7ca4b91d1ce7988be850" target="_top" xlink:title="Parses provided Modbus RTU request frame and generates a Modbus RTU response.">
<polygon fill="white" stroke="#666666" points="316,-19 183,-19 183,0 316,0 316,-19"/>
<text text-anchor="middle" x="249.5" y="-7" font-family="Helvetica,sans-Serif" font-size="10.00">modbusParseRequestRTU</text>
</a>
</g>
</g>
<!-- Node2&#45;&gt;Node6 -->
<g id="edge5" class="edge">
<title>Node2&#45;&gt;Node6</title>
<path fill="none" stroke="#63b8ff" d="M348.1,-33.82C329.24,-29.12 308.15,-23.86 290.41,-19.44"/>
<polygon fill="#63b8ff" stroke="#63b8ff" points="347.19,-37.2 357.74,-36.22 348.88,-30.4 347.19,-37.2"/>
</g>
<!-- Node4 -->
<g id="node4" class="node">
<title>Node4</title>
<g id="a_node4"><a xlink:href="classllm_1_1Slave.html#a10e79600053c725e639225264d966e63" target="_top" xlink:title=" ">
<polygon fill="white" stroke="#666666" points="146,-93 0,-93 0,-74 146,-74 146,-93"/>
<text text-anchor="middle" x="73" y="-81" font-family="Helvetica,sans-Serif" font-size="10.00">llm::Slave::buildExceptionRTU</text>
</a>
</g>
</g>
<!-- Node3&#45;&gt;Node4 -->
<g id="edge3" class="edge">
<title>Node3&#45;&gt;Node4</title>
<path fill="none" stroke="#63b8ff" d="M170.05,-83.5C162.14,-83.5 154.14,-83.5 146.3,-83.5"/>
<polygon fill="#63b8ff" stroke="#63b8ff" points="170.02,-87 180.02,-83.5 170.02,-80 170.02,-87"/>
</g>
<!-- Node7 -->
<g id="node7" class="node">
<title>Node7</title>
<g id="a_node7"><a xlink:href="classllm_1_1Slave.html#a001591b9a38b69cf29adc853872a09fe" target="_top" xlink:title=" ">
<polygon fill="white" stroke="#666666" points="144.5,-19 1.5,-19 1.5,0 144.5,0 144.5,-19"/>
<text text-anchor="middle" x="73" y="-7" font-family="Helvetica,sans-Serif" font-size="10.00">llm::Slave::parseRequestRTU</text>
</a>
</g>
</g>
<!-- Node6&#45;&gt;Node7 -->
<g id="edge6" class="edge">
<title>Node6&#45;&gt;Node7</title>
<path fill="none" stroke="#63b8ff" d="M171.1,-9.5C162.32,-9.5 153.41,-9.5 144.72,-9.5"/>
<polygon fill="#63b8ff" stroke="#63b8ff" points="171.02,-13 181.02,-9.5 171.02,-6 171.02,-13"/>
</g>
</g>
</svg>
