<?xml version="1.0" encoding="UTF-8" standalone="no"?>
<!DOCTYPE svg PUBLIC "-//W3C//DTD SVG 1.1//EN"
 "http://www.w3.org/Graphics/SVG/1.1/DTD/svg11.dtd">
<!-- Generated by graphviz version 7.0.5 (20221223.1930)
 -->
<!-- Title: modbusBufferFree Pages: 1 -->
<svg width="627pt" height="175pt"
 viewBox="0.00 0.00 627.00 175.00" xmlns="http://www.w3.org/2000/svg" xmlns:xlink="http://www.w3.org/1999/xlink">
<g id="graph0" class="graph" transform="scale(1 1) rotate(0) translate(4 171)">
<title>modbusBufferFree</title>
<!-- Node1 -->
<g id="node1" class="node">
<title>Node1</title>
<g id="a_node1"><a xlink:title="Frees memory allocated inside the buffer.">
<polygon fill="#999999" stroke="#666666" points="619,-93 523,-93 523,-74 619,-74 619,-93"/>
<text text-anchor="middle" x="571" y="-81" font-family="Helvetica,sans-Serif" font-size="10.00">modbusBufferFree</text>
</a>
</g>
</g>
<!-- Node2 -->
<g id="node2" class="node">
<title>Node2</title>
<g id="a_node2"><a xlink:href="base_8impl_8h.html#ac4ff5a6ae685570f045448e76e518a0c" target="_top" xlink:title="Equivalent of modbusBufferFree() \copydetail modbusBufferFree()">
<polygon fill="white" stroke="#666666" points="472.5,-130 362.5,-130 362.5,-111 472.5,-111 472.5,-130"/>
<text text-anchor="middle" x="417.5" y="-118" font-family="Helvetica,sans-Serif" font-size="10.00">modbusBufferDestroy</text>
</a>
</g>
</g>
<!-- Node1&#45;&gt;Node2 -->
<g id="edge1" class="edge">
<title>Node1&#45;&gt;Node2</title>
<path fill="none" stroke="#63b8ff" d="M518.35,-96.12C499.04,-100.83 477.4,-106.12 459.21,-110.56"/>
<polygon fill="#63b8ff" stroke="#63b8ff" points="519.05,-99.55 527.93,-93.77 517.39,-92.75 519.05,-99.55"/>
</g>
<!-- Node7 -->
<g id="node7" class="node">
<title>Node7</title>
<g id="a_node7"><a xlink:href="master_8h.html#a040a82085ce05ff95c53d3dca4c3acfd" target="_top" xlink:title="Frees memory allocated for master&#39;s request frame.">
<polygon fill="white" stroke="#666666" points="486,-93 349,-93 349,-74 486,-74 486,-93"/>
<text text-anchor="middle" x="417.5" y="-81" font-family="Helvetica,sans-Serif" font-size="10.00">modbusMasterFreeRequest</text>
</a>
</g>
</g>
<!-- Node1&#45;&gt;Node7 -->
<g id="edge6" class="edge">
<title>Node1&#45;&gt;Node7</title>
<path fill="none" stroke="#63b8ff" d="M511.52,-83.5C503.3,-83.5 494.8,-83.5 486.43,-83.5"/>
<polygon fill="#63b8ff" stroke="#63b8ff" points="511.38,-87 521.38,-83.5 511.38,-80 511.38,-87"/>
</g>
<!-- Node9 -->
<g id="node9" class="node">
<title>Node9</title>
<g id="a_node9"><a xlink:href="slave_8h.html#aac289ce160ea61287c98e8a1ee4353d5" target="_top" xlink:title="Frees memory allocated for slave&#39;s response frame.">
<polygon fill="white" stroke="#666666" points="487,-56 348,-56 348,-37 487,-37 487,-56"/>
<text text-anchor="middle" x="417.5" y="-44" font-family="Helvetica,sans-Serif" font-size="10.00">modbusSlaveFreeResponse</text>
</a>
</g>
</g>
<!-- Node1&#45;&gt;Node9 -->
<g id="edge8" class="edge">
<title>Node1&#45;&gt;Node9</title>
<path fill="none" stroke="#63b8ff" d="M518.35,-70.88C499.04,-66.17 477.4,-60.88 459.21,-56.44"/>
<polygon fill="#63b8ff" stroke="#63b8ff" points="517.39,-74.25 527.93,-73.23 519.05,-67.45 517.39,-74.25"/>
</g>
<!-- Node3 -->
<g id="node3" class="node">
<title>Node3</title>
<g id="a_node3"><a xlink:href="master_8impl_8h.html#a5fe38fae0f89de04fa616d105f660d25" target="_top" xlink:title="Deinitializes a ModbusMaster struct.">
<polygon fill="white" stroke="#666666" points="302.5,-167 188.5,-167 188.5,-148 302.5,-148 302.5,-167"/>
<text text-anchor="middle" x="245.5" y="-155" font-family="Helvetica,sans-Serif" font-size="10.00">modbusMasterDestroy</text>
</a>
</g>
</g>
<!-- Node2&#45;&gt;Node3 -->
<g id="edge2" class="edge">
<title>Node2&#45;&gt;Node3</title>
<path fill="none" stroke="#63b8ff" d="M359.75,-132.85C337.78,-137.63 312.97,-143.03 292.18,-147.56"/>
<polygon fill="#63b8ff" stroke="#63b8ff" points="360.44,-136.28 369.46,-130.74 358.95,-129.44 360.44,-136.28"/>
</g>
<!-- Node5 -->
<g id="node5" class="node">
<title>Node5</title>
<g id="a_node5"><a xlink:href="slave_8impl_8h.html#a70695c3b7355bc0a3e6d49c46a4eef1f" target="_top" xlink:title="Frees memory allocated in the ModbusSlave struct.">
<polygon fill="white" stroke="#666666" points="300,-130 191,-130 191,-111 300,-111 300,-130"/>
<text text-anchor="middle" x="245.5" y="-118" font-family="Helvetica,sans-Serif" font-size="10.00">modbusSlaveDestroy</text>
</a>
</g>
</g>
<!-- Node2&#45;&gt;Node5 -->
<g id="edge4" class="edge">
<title>Node2&#45;&gt;Node5</title>
<path fill="none" stroke="#63b8ff" d="M350.86,-120.5C334.11,-120.5 316.31,-120.5 300.24,-120.5"/>
<polygon fill="#63b8ff" stroke="#63b8ff" points="350.73,-124 360.73,-120.5 350.73,-117 350.73,-124"/>
</g>
<!-- Node4 -->
<g id="node4" class="node">
<title>Node4</title>
<g id="a_node4"><a xlink:href="classllm_1_1Master.html#adae54d760d1eb2f0babcaff59325376d" target="_top" xlink:title=" ">
<polygon fill="white" stroke="#666666" points="123.5,-167 19.5,-167 19.5,-148 123.5,-148 123.5,-167"/>
<text text-anchor="middle" x="71.5" y="-155" font-family="Helvetica,sans-Serif" font-size="10.00">llm::Master::~Master</text>
</a>
</g>
</g>
<!-- Node3&#45;&gt;Node4 -->
<g id="edge3" class="edge">
<title>Node3&#45;&gt;Node4</title>
<path fill="none" stroke="#63b8ff" d="M176.76,-157.5C159.1,-157.5 140.36,-157.5 123.71,-157.5"/>
<polygon fill="#63b8ff" stroke="#63b8ff" points="176.67,-161 186.67,-157.5 176.67,-154 176.67,-161"/>
</g>
<!-- Node6 -->
<g id="node6" class="node">
<title>Node6</title>
<g id="a_node6"><a xlink:href="classllm_1_1Slave.html#a46b8ac6f2b8dee5550d18bd7f1dd355d" target="_top" xlink:title=" ">
<polygon fill="white" stroke="#666666" points="118,-130 25,-130 25,-111 118,-111 118,-130"/>
<text text-anchor="middle" x="71.5" y="-118" font-family="Helvetica,sans-Serif" font-size="10.00">llm::Slave::~Slave</text>
</a>
</g>
</g>
<!-- Node5&#45;&gt;Node6 -->
<g id="edge5" class="edge">
<title>Node5&#45;&gt;Node6</title>
<path fill="none" stroke="#63b8ff" d="M179.18,-120.5C158.94,-120.5 137.08,-120.5 118.44,-120.5"/>
<polygon fill="#63b8ff" stroke="#63b8ff" points="179.04,-124 189.04,-120.5 179.04,-117 179.04,-124"/>
</g>
<!-- Node8 -->
<g id="node8" class="node">
<title>Node8</title>
<g id="a_node8"><a xlink:href="classllm_1_1Master.html#a6c3883d0f98a5b4255a02f46f33c2423" target="_top" xlink:title=" ">
<polygon fill="white" stroke="#666666" points="306,-93 185,-93 185,-74 306,-74 306,-93"/>
<text text-anchor="middle" x="245.5" y="-81" font-family="Helvetica,sans-Serif" font-size="10.00">llm::Master::freeRequest</text>
</a>
</g>
</g>
<!-- Node7&#45;&gt;Node8 -->
<g id="edge7" class="edge">
<title>Node7&#45;&gt;Node8</title>
<path fill="none" stroke="#63b8ff" d="M337.5,-83.5C326.99,-83.5 316.36,-83.5 306.25,-83.5"/>
<polygon fill="#63b8ff" stroke="#63b8ff" points="337.31,-87 347.31,-83.5 337.31,-80 337.31,-87"/>
</g>
<!-- Node10 -->
<g id="node10" class="node">
<title>Node10</title>
<g id="a_node10"><a xlink:href="classllm_1_1Slave.html#aadbd0a4dc7769b5c393d6dfe5a344b8a" target="_top" xlink:title=" ">
<polygon fill="white" stroke="#666666" points="307,-56 184,-56 184,-37 307,-37 307,-56"/>
<text text-anchor="middle" x="245.5" y="-44" font-family="Helvetica,sans-Serif" font-size="10.00">llm::Slave::freeResponse</text>
</a>
</g>
</g>
<!-- Node9&#45;&gt;Node10 -->
<g id="edge9" class="edge">
<title>Node9&#45;&gt;Node10</title>
<path fill="none" stroke="#63b8ff" d="M336.47,-46.5C326.72,-46.5 316.88,-46.5 307.47,-46.5"/>
<polygon fill="#63b8ff" stroke="#63b8ff" points="336.33,-50 346.33,-46.5 336.33,-43 336.33,-50"/>
</g>
<!-- Node11 -->
<g id="node11" class="node">
<title>Node11</title>
<g id="a_node11"><a xlink:href="slave_8impl_8h.html#a6a1e63faa64b7ca4b91d1ce7988be850" target="_top" xlink:title="Parses provided Modbus RTU request frame and generates a Modbus RTU response.">
<polygon fill="white" stroke="#666666" points="312,-19 179,-19 179,0 312,0 312,-19"/>
<text text-anchor="middle" x="245.5" y="-7" font-family="Helvetica,sans-Serif" font-size="10.00">modbusParseRequestRTU</text>
</a>
</g>
</g>
<!-- Node9&#45;&gt;Node11 -->
<g id="edge10" class="edge">
<title>Node9&#45;&gt;Node11</title>
<path fill="none" stroke="#63b8ff" d="M359.75,-34.15C337.78,-29.37 312.97,-23.97 292.18,-19.44"/>
<polygon fill="#63b8ff" stroke="#63b8ff" points="358.95,-37.56 369.46,-36.26 360.44,-30.72 358.95,-37.56"/>
</g>
<!-- Node12 -->
<g id="node12" class="node">
<title>Node12</title>
<g id="a_node12"><a xlink:href="classllm_1_1Slave.html#a001591b9a38b69cf29adc853872a09fe" target="_top" xlink:title=" ">
<polygon fill="white" stroke="#666666" points="143,-19 0,-19 0,0 143,0 143,-19"/>
<text text-anchor="middle" x="71.5" y="-7" font-family="Helvetica,sans-Serif" font-size="10.00">llm::Slave::parseRequestRTU</text>
</a>
</g>
</g>
<!-- Node11&#45;&gt;Node12 -->
<g id="edge11" class="edge">
<title>Node11&#45;&gt;Node12</title>
<path fill="none" stroke="#63b8ff" d="M167.63,-9.5C159.52,-9.5 151.31,-9.5 143.28,-9.5"/>
<polygon fill="#63b8ff" stroke="#63b8ff" points="167.47,-13 177.47,-9.5 167.47,-6 167.47,-13"/>
</g>
</g>
</svg>
