<?xml version="1.0" encoding="UTF-8" standalone="no"?>
<!DOCTYPE svg PUBLIC "-//W3C//DTD SVG 1.1//EN"
 "http://www.w3.org/Graphics/SVG/1.1/DTD/svg11.dtd">
<!-- Generated by graphviz version 7.0.5 (20221223.1930)
 -->
<!-- Title: modbusCheckRangeU16 Pages: 1 -->
<svg width="486pt" height="304pt"
 viewBox="0.00 0.00 486.00 304.00" xmlns="http://www.w3.org/2000/svg" xmlns:xlink="http://www.w3.org/1999/xlink">
<g id="graph0" class="graph" transform="scale(1 1) rotate(0) translate(4 300)">
<title>modbusCheckRangeU16</title>
<!-- Node1 -->
<g id="node1" class="node">
<title>Node1</title>
<g id="a_node1"><a xlink:title="Checks whether provided address range causes an uint16_t overflow.">
<polygon fill="#999999" stroke="#666666" points="478,-130 353,-130 353,-111 478,-111 478,-130"/>
<text text-anchor="middle" x="415.5" y="-118" font-family="Helvetica,sans-Serif" font-size="10.00">modbusCheckRangeU16</text>
</a>
</g>
</g>
<!-- Node2 -->
<g id="node2" class="node">
<title>Node2</title>
<g id="a_node2"><a xlink:href="master__func_8impl_8h.html#ad3a6d4576d762da3eb0bd73aa5bb24fe" target="_top" xlink:title="Read mutiple coils/discrete inputs/holding registers/input registers.">
<polygon fill="white" stroke="#666666" points="311.5,-241 160.5,-241 160.5,-222 311.5,-222 311.5,-241"/>
<text text-anchor="middle" x="236" y="-229" font-family="Helvetica,sans-Serif" font-size="10.00">modbusBuildRequest01020304</text>
</a>
</g>
</g>
<!-- Node1&#45;&gt;Node2 -->
<g id="edge1" class="edge">
<title>Node1&#45;&gt;Node2</title>
<path fill="none" stroke="#63b8ff" d="M400.21,-139.25C382.9,-160.6 351.69,-194.93 317,-213.5 310.98,-216.73 304.4,-219.37 297.69,-221.55"/>
<polygon fill="#63b8ff" stroke="#63b8ff" points="402.77,-141.66 406.22,-131.64 397.27,-137.32 402.77,-141.66"/>
</g>
<!-- Node7 -->
<g id="node7" class="node">
<title>Node7</title>
<g id="a_node7"><a xlink:href="master__func_8impl_8h.html#ae9842e659ccd8942905e685923de8916" target="_top" xlink:title="Write multiple coils.">
<polygon fill="white" stroke="#666666" points="295.5,-204 176.5,-204 176.5,-185 295.5,-185 295.5,-204"/>
<text text-anchor="middle" x="236" y="-192" font-family="Helvetica,sans-Serif" font-size="10.00">modbusBuildRequest15</text>
</a>
</g>
</g>
<!-- Node1&#45;&gt;Node7 -->
<g id="edge6" class="edge">
<title>Node1&#45;&gt;Node7</title>
<path fill="none" stroke="#63b8ff" d="M390.93,-136.74C371.78,-149.25 343.67,-166.11 317,-176.5 308.91,-179.65 300.13,-182.32 291.45,-184.56"/>
<polygon fill="#63b8ff" stroke="#63b8ff" points="392.68,-139.78 399.06,-131.32 388.8,-133.95 392.68,-139.78"/>
</g>
<!-- Node8 -->
<g id="node8" class="node">
<title>Node8</title>
<g id="a_node8"><a xlink:href="master__func_8impl_8h.html#aca022c438a427d8f4b03db4427c2b344" target="_top" xlink:title="Write multiple holding registers.">
<polygon fill="white" stroke="#666666" points="295.5,-167 176.5,-167 176.5,-148 295.5,-148 295.5,-167"/>
<text text-anchor="middle" x="236" y="-155" font-family="Helvetica,sans-Serif" font-size="10.00">modbusBuildRequest16</text>
</a>
</g>
</g>
<!-- Node1&#45;&gt;Node8 -->
<g id="edge7" class="edge">
<title>Node1&#45;&gt;Node8</title>
<path fill="none" stroke="#63b8ff" d="M355.88,-132.72C332.78,-137.53 306.6,-142.99 284.7,-147.56"/>
<polygon fill="#63b8ff" stroke="#63b8ff" points="356.38,-136.19 365.45,-130.72 354.95,-129.34 356.38,-136.19"/>
</g>
<!-- Node9 -->
<g id="node9" class="node">
<title>Node9</title>
<g id="a_node9"><a xlink:href="slave__func_8impl_8h.html#aaff57f2a5c6a8e6c77d36c5dc7e48cfa" target="_top" xlink:title="Handles requests 01, 02, 03 and 04 (Read Multiple XX) and generates response.">
<polygon fill="white" stroke="#666666" points="313.5,-130 158.5,-130 158.5,-111 313.5,-111 313.5,-130"/>
<text text-anchor="middle" x="236" y="-118" font-family="Helvetica,sans-Serif" font-size="10.00">modbusParseRequest01020304</text>
</a>
</g>
</g>
<!-- Node1&#45;&gt;Node9 -->
<g id="edge8" class="edge">
<title>Node1&#45;&gt;Node9</title>
<path fill="none" stroke="#63b8ff" d="M341.5,-120.5C332.36,-120.5 322.99,-120.5 313.8,-120.5"/>
<polygon fill="#63b8ff" stroke="#63b8ff" points="341.4,-124 351.4,-120.5 341.4,-117 341.4,-124"/>
</g>
<!-- Node10 -->
<g id="node10" class="node">
<title>Node10</title>
<g id="a_node10"><a xlink:href="slave__func_8impl_8h.html#a0cb2a7bf59d4014088e1ce1c61523071" target="_top" xlink:title="Handles requests 15 and 16 (Write Multiple XX) and generates response.">
<polygon fill="white" stroke="#666666" points="303,-93 169,-93 169,-74 303,-74 303,-93"/>
<text text-anchor="middle" x="236" y="-81" font-family="Helvetica,sans-Serif" font-size="10.00">modbusParseRequest1516</text>
</a>
</g>
</g>
<!-- Node1&#45;&gt;Node10 -->
<g id="edge9" class="edge">
<title>Node1&#45;&gt;Node10</title>
<path fill="none" stroke="#63b8ff" d="M355.88,-108.28C332.78,-103.47 306.6,-98.01 284.7,-93.44"/>
<polygon fill="#63b8ff" stroke="#63b8ff" points="354.95,-111.66 365.45,-110.28 356.38,-104.81 354.95,-111.66"/>
</g>
<!-- Node11 -->
<g id="node11" class="node">
<title>Node11</title>
<g id="a_node11"><a xlink:href="master__func_8impl_8h.html#adafbaa72d4df36b3577ce5494b460a2b" target="_top" xlink:title="Parses response to requests 01, 02, 03 and 04.">
<polygon fill="white" stroke="#666666" points="317,-56 155,-56 155,-37 317,-37 317,-56"/>
<text text-anchor="middle" x="236" y="-44" font-family="Helvetica,sans-Serif" font-size="10.00">modbusParseResponse01020304</text>
</a>
</g>
</g>
<!-- Node1&#45;&gt;Node11 -->
<g id="edge10" class="edge">
<title>Node1&#45;&gt;Node11</title>
<path fill="none" stroke="#63b8ff" d="M390.52,-104.44C371.34,-92.24 343.38,-75.84 317,-65.5 307.96,-61.96 298.08,-58.96 288.44,-56.46"/>
<polygon fill="#63b8ff" stroke="#63b8ff" points="388.39,-107.23 398.68,-109.74 392.19,-101.36 388.39,-107.23"/>
</g>
<!-- Node12 -->
<g id="node12" class="node">
<title>Node12</title>
<g id="a_node12"><a xlink:href="master__func_8impl_8h.html#a0c53ade25c249f6aeed8c877b98f8016" target="_top" xlink:title="Parses response to requests 15 and 16 (write mutliple regsiters/coils)">
<polygon fill="white" stroke="#666666" points="306.5,-19 165.5,-19 165.5,0 306.5,0 306.5,-19"/>
<text text-anchor="middle" x="236" y="-7" font-family="Helvetica,sans-Serif" font-size="10.00">modbusParseResponse1516</text>
</a>
</g>
</g>
<!-- Node1&#45;&gt;Node12 -->
<g id="edge11" class="edge">
<title>Node1&#45;&gt;Node12</title>
<path fill="none" stroke="#63b8ff" d="M400.21,-101.75C382.9,-80.4 351.69,-46.07 317,-27.5 310.98,-24.27 304.4,-21.63 297.69,-19.45"/>
<polygon fill="#63b8ff" stroke="#63b8ff" points="397.27,-103.68 406.22,-109.36 402.77,-99.34 397.27,-103.68"/>
</g>
<!-- Node3 -->
<g id="node3" class="node">
<title>Node3</title>
<g id="a_node3"><a xlink:href="master__func_8h.html#aadb2b7e2d3ee4fbde22cdf076713d75e" target="_top" xlink:title="Read multiple coils &#45; a wrapper for modbusBuildRequest01020304()">
<polygon fill="white" stroke="#666666" points="119,-296 0,-296 0,-277 119,-277 119,-296"/>
<text text-anchor="middle" x="59.5" y="-284" font-family="Helvetica,sans-Serif" font-size="10.00">modbusBuildRequest01</text>
</a>
</g>
</g>
<!-- Node2&#45;&gt;Node3 -->
<g id="edge2" class="edge">
<title>Node2&#45;&gt;Node3</title>
<path fill="none" stroke="#63b8ff" d="M193.33,-244.9C171.26,-251.98 143.68,-260.77 119,-268.5 110.58,-271.14 101.48,-273.96 93.01,-276.56"/>
<polygon fill="#63b8ff" stroke="#63b8ff" points="194.11,-248.33 202.57,-241.94 191.98,-241.66 194.11,-248.33"/>
</g>
<!-- Node4 -->
<g id="node4" class="node">
<title>Node4</title>
<g id="a_node4"><a xlink:href="master__func_8h.html#a2a6452a8200d77483254bef08ee2cf8c" target="_top" xlink:title="Read multiple discrete inputs &#45; a wrapper for modbusBuildRequest01020304()">
<polygon fill="white" stroke="#666666" points="119,-259 0,-259 0,-240 119,-240 119,-259"/>
<text text-anchor="middle" x="59.5" y="-247" font-family="Helvetica,sans-Serif" font-size="10.00">modbusBuildRequest02</text>
</a>
</g>
</g>
<!-- Node2&#45;&gt;Node4 -->
<g id="edge3" class="edge">
<title>Node2&#45;&gt;Node4</title>
<path fill="none" stroke="#63b8ff" d="M148.94,-240.38C138.9,-241.41 128.84,-242.45 119.29,-243.44"/>
<polygon fill="#63b8ff" stroke="#63b8ff" points="149.14,-243.87 158.73,-239.37 148.42,-236.91 149.14,-243.87"/>
</g>
<!-- Node5 -->
<g id="node5" class="node">
<title>Node5</title>
<g id="a_node5"><a xlink:href="master__func_8h.html#a1c7ed51c58b1ef42ee176833c7fd0515" target="_top" xlink:title="Read multiple holding registers &#45; a wrapper for modbusBuildRequest01020304()">
<polygon fill="white" stroke="#666666" points="119,-222 0,-222 0,-203 119,-203 119,-222"/>
<text text-anchor="middle" x="59.5" y="-210" font-family="Helvetica,sans-Serif" font-size="10.00">modbusBuildRequest03</text>
</a>
</g>
</g>
<!-- Node2&#45;&gt;Node5 -->
<g id="edge4" class="edge">
<title>Node2&#45;&gt;Node5</title>
<path fill="none" stroke="#63b8ff" d="M148.94,-222.13C138.9,-221.04 128.84,-219.94 119.29,-218.9"/>
<polygon fill="#63b8ff" stroke="#63b8ff" points="148.41,-225.59 158.73,-223.2 149.17,-218.63 148.41,-225.59"/>
</g>
<!-- Node6 -->
<g id="node6" class="node">
<title>Node6</title>
<g id="a_node6"><a xlink:href="master__func_8h.html#a22bf4541196b3e88c0a86861d334e3b1" target="_top" xlink:title="Read multiple input registers &#45; a wrapper for modbusBuildRequest01020304()">
<polygon fill="white" stroke="#666666" points="119,-185 0,-185 0,-166 119,-166 119,-185"/>
<text text-anchor="middle" x="59.5" y="-173" font-family="Helvetica,sans-Serif" font-size="10.00">modbusBuildRequest04</text>
</a>
</g>
</g>
<!-- Node2&#45;&gt;Node6 -->
<g id="edge5" class="edge">
<title>Node2&#45;&gt;Node6</title>
<path fill="none" stroke="#63b8ff" d="M170.55,-218.57C165.24,-217.03 160,-215.34 155,-213.5 138.03,-207.24 135.66,-201.54 119,-194.5 111.23,-191.22 102.68,-188.15 94.58,-185.48"/>
<polygon fill="#63b8ff" stroke="#63b8ff" points="169.47,-221.91 180.04,-221.13 171.29,-215.15 169.47,-221.91"/>
</g>
</g>
</svg>
