<?xml version="1.0" encoding="UTF-8" standalone="no"?>
<!DOCTYPE svg PUBLIC "-//W3C//DTD SVG 1.1//EN"
 "http://www.w3.org/Graphics/SVG/1.1/DTD/svg11.dtd">
<!-- Generated by graphviz version 7.0.5 (20221223.1930)
 -->
<!-- Title: modbusBufferModeTCP Pages: 1 -->
<svg width="475pt" height="64pt"
 viewBox="0.00 0.00 475.00 64.00" xmlns="http://www.w3.org/2000/svg" xmlns:xlink="http://www.w3.org/1999/xlink">
<g id="graph0" class="graph" transform="scale(1 1) rotate(0) translate(4 60)">
<title>modbusBufferModeTCP</title>
<!-- Node1 -->
<g id="node1" class="node">
<title>Node1</title>
<g id="a_node1"><a xlink:title="Prepares buffer to store a Modbus TCP message.">
<polygon fill="#999999" stroke="#666666" points="467,-37 347,-37 347,-18 467,-18 467,-37"/>
<text text-anchor="middle" x="407" y="-25" font-family="Helvetica,sans-Serif" font-size="10.00">modbusBufferModeTCP</text>
</a>
</g>
</g>
<!-- Node2 -->
<g id="node2" class="node">
<title>Node2</title>
<g id="a_node2"><a xlink:href="master_8impl_8h.html#afd1467296480779237ab090a8579efb5" target="_top" xlink:title="Begins a TCP request.">
<polygon fill="white" stroke="#666666" points="310.5,-56 179.5,-56 179.5,-37 310.5,-37 310.5,-56"/>
<text text-anchor="middle" x="245" y="-44" font-family="Helvetica,sans-Serif" font-size="10.00">modbusBeginRequestTCP</text>
</a>
</g>
</g>
<!-- Node1&#45;&gt;Node2 -->
<g id="edge1" class="edge">
<title>Node1&#45;&gt;Node2</title>
<path fill="none" stroke="#63b8ff" d="M335.71,-35.85C327.42,-36.83 319,-37.83 310.8,-38.8"/>
<polygon fill="#63b8ff" stroke="#63b8ff" points="335.86,-39.35 345.37,-34.7 335.03,-32.4 335.86,-39.35"/>
</g>
<!-- Node3 -->
<g id="node3" class="node">
<title>Node3</title>
<g id="a_node3"><a xlink:href="slave_8impl_8h.html#a5ad3fe86aa14f8982d7c459c68cd8b3e" target="_top" xlink:title="Parses provided Modbus TCP request frame and generates a Modbus TCP response.">
<polygon fill="white" stroke="#666666" points="311,-19 179,-19 179,0 311,0 311,-19"/>
<text text-anchor="middle" x="245" y="-7" font-family="Helvetica,sans-Serif" font-size="10.00">modbusParseRequestTCP</text>
</a>
</g>
</g>
<!-- Node1&#45;&gt;Node3 -->
<g id="edge2" class="edge">
<title>Node1&#45;&gt;Node3</title>
<path fill="none" stroke="#63b8ff" d="M335.6,-19.58C327.53,-18.67 319.34,-17.75 311.34,-16.85"/>
<polygon fill="#63b8ff" stroke="#63b8ff" points="335.04,-23.04 345.37,-20.68 335.83,-16.08 335.04,-23.04"/>
</g>
<!-- Node4 -->
<g id="node4" class="node">
<title>Node4</title>
<g id="a_node4"><a xlink:href="classllm_1_1Slave.html#a05169339916c3727c780c75157b399b9" target="_top" xlink:title=" ">
<polygon fill="white" stroke="#666666" points="143,-19 0,-19 0,0 143,0 143,-19"/>
<text text-anchor="middle" x="71.5" y="-7" font-family="Helvetica,sans-Serif" font-size="10.00">llm::Slave::parseRequestTCP</text>
</a>
</g>
</g>
<!-- Node3&#45;&gt;Node4 -->
<g id="edge3" class="edge">
<title>Node3&#45;&gt;Node4</title>
<path fill="none" stroke="#63b8ff" d="M167.17,-9.5C159.24,-9.5 151.22,-9.5 143.36,-9.5"/>
<polygon fill="#63b8ff" stroke="#63b8ff" points="167.16,-13 177.16,-9.5 167.16,-6 167.16,-13"/>
</g>
</g>
</svg>
