<?xml version="1.0" encoding="UTF-8" standalone="no"?>
<!DOCTYPE svg PUBLIC "-//W3C//DTD SVG 1.1//EN"
 "http://www.w3.org/Graphics/SVG/1.1/DTD/svg11.dtd">
<!-- Generated by graphviz version 7.0.5 (20221223.1930)
 -->
<!-- Title: modbusWBE Pages: 1 -->
<svg width="623pt" height="471pt"
 viewBox="0.00 0.00 623.00 471.00" xmlns="http://www.w3.org/2000/svg" xmlns:xlink="http://www.w3.org/1999/xlink">
<g id="graph0" class="graph" transform="scale(1 1) rotate(0) translate(4 467)">
<title>modbusWBE</title>
<!-- Node1 -->
<g id="node1" class="node">
<title>Node1</title>
<g id="a_node1"><a xlink:title="Safely writes a big&#45;endian 16&#45;bit word to provided pointer.">
<polygon fill="#999999" stroke="#666666" points="615,-185 542,-185 542,-166 615,-166 615,-185"/>
<text text-anchor="middle" x="578.5" y="-173" font-family="Helvetica,sans-Serif" font-size="10.00">modbusWBE</text>
</a>
</g>
</g>
<!-- Node2 -->
<g id="node2" class="node">
<title>Node2</title>
<g id="a_node2"><a xlink:href="master__func_8impl_8h.html#ad3a6d4576d762da3eb0bd73aa5bb24fe" target="_top" xlink:title="Read mutiple coils/discrete inputs/holding registers/input registers.">
<polygon fill="white" stroke="#666666" points="504,-389 353,-389 353,-370 504,-370 504,-389"/>
<text text-anchor="middle" x="428.5" y="-377" font-family="Helvetica,sans-Serif" font-size="10.00">modbusBuildRequest01020304</text>
</a>
</g>
</g>
<!-- Node1&#45;&gt;Node2 -->
<g id="edge1" class="edge">
<title>Node1&#45;&gt;Node2</title>
<path fill="none" stroke="#63b8ff" d="M571.28,-196.1C561.3,-226.66 539.36,-284.68 506,-324.5 489.72,-343.93 465.11,-360 448.22,-369.65"/>
<polygon fill="#63b8ff" stroke="#63b8ff" points="574.61,-197.18 574.27,-186.59 567.93,-195.08 574.61,-197.18"/>
</g>
<!-- Node7 -->
<g id="node7" class="node">
<title>Node7</title>
<g id="a_node7"><a xlink:href="master__func_8impl_8h.html#a5309a3003ea2d248e51193e75ab30044" target="_top" xlink:title="Write single coil/holding register.">
<polygon fill="white" stroke="#666666" points="493.5,-315 363.5,-315 363.5,-296 493.5,-296 493.5,-315"/>
<text text-anchor="middle" x="428.5" y="-303" font-family="Helvetica,sans-Serif" font-size="10.00">modbusBuildRequest0506</text>
</a>
</g>
</g>
<!-- Node1&#45;&gt;Node7 -->
<g id="edge6" class="edge">
<title>Node1&#45;&gt;Node7</title>
<path fill="none" stroke="#63b8ff" d="M570.03,-196.06C559.68,-221.55 538.49,-264.46 506,-287.5 501.44,-290.74 496.37,-293.4 491.09,-295.58"/>
<polygon fill="#63b8ff" stroke="#63b8ff" points="573.26,-197.4 573.59,-186.81 566.73,-194.89 573.26,-197.4"/>
</g>
<!-- Node10 -->
<g id="node10" class="node">
<title>Node10</title>
<g id="a_node10"><a xlink:href="master__func_8impl_8h.html#ae9842e659ccd8942905e685923de8916" target="_top" xlink:title="Write multiple coils.">
<polygon fill="white" stroke="#666666" points="488,-278 369,-278 369,-259 488,-259 488,-278"/>
<text text-anchor="middle" x="428.5" y="-266" font-family="Helvetica,sans-Serif" font-size="10.00">modbusBuildRequest15</text>
</a>
</g>
</g>
<!-- Node1&#45;&gt;Node10 -->
<g id="edge9" class="edge">
<title>Node1&#45;&gt;Node10</title>
<path fill="none" stroke="#63b8ff" d="M564.52,-194.4C551.66,-211.65 530.4,-236.52 506,-250.5 500.32,-253.76 494.08,-256.42 487.69,-258.61"/>
<polygon fill="#63b8ff" stroke="#63b8ff" points="567.21,-196.66 570.2,-186.49 561.52,-192.58 567.21,-196.66"/>
</g>
<!-- Node11 -->
<g id="node11" class="node">
<title>Node11</title>
<g id="a_node11"><a xlink:href="master__func_8impl_8h.html#aca022c438a427d8f4b03db4427c2b344" target="_top" xlink:title="Write multiple holding registers.">
<polygon fill="white" stroke="#666666" points="488,-241 369,-241 369,-222 488,-222 488,-241"/>
<text text-anchor="middle" x="428.5" y="-229" font-family="Helvetica,sans-Serif" font-size="10.00">modbusBuildRequest16</text>
</a>
</g>
</g>
<!-- Node1&#45;&gt;Node11 -->
<g id="edge10" class="edge">
<title>Node1&#45;&gt;Node11</title>
<path fill="none" stroke="#63b8ff" d="M551.75,-191.26C538.47,-198.85 521.78,-207.56 506,-213.5 497.83,-216.57 488.96,-219.24 480.25,-221.5"/>
<polygon fill="#63b8ff" stroke="#63b8ff" points="553.43,-194.34 560.28,-186.26 549.89,-188.3 553.43,-194.34"/>
</g>
<!-- Node12 -->
<g id="node12" class="node">
<title>Node12</title>
<g id="a_node12"><a xlink:href="master__func_8impl_8h.html#a6f2c5d59dee73c80ad54e53cca38aeec" target="_top" xlink:title="Mask write register request.">
<polygon fill="white" stroke="#666666" points="488,-204 369,-204 369,-185 488,-185 488,-204"/>
<text text-anchor="middle" x="428.5" y="-192" font-family="Helvetica,sans-Serif" font-size="10.00">modbusBuildRequest22</text>
</a>
</g>
</g>
<!-- Node1&#45;&gt;Node12 -->
<g id="edge11" class="edge">
<title>Node1&#45;&gt;Node12</title>
<path fill="none" stroke="#63b8ff" d="M530.35,-181.55C517.01,-183.27 502.32,-185.15 488.38,-186.94"/>
<polygon fill="#63b8ff" stroke="#63b8ff" points="530.7,-185.04 540.17,-180.29 529.81,-178.09 530.7,-185.04"/>
</g>
<!-- Node13 -->
<g id="node13" class="node">
<title>Node13</title>
<g id="a_node13"><a xlink:href="base_8h.html#a39dcd3aad118a779b7e1775fea3e5d77" target="_top" xlink:title="Sets up the MBAP header in a Modbus TCP frame.">
<polygon fill="white" stroke="#666666" points="475,-167 382,-167 382,-148 475,-148 475,-167"/>
<text text-anchor="middle" x="428.5" y="-155" font-family="Helvetica,sans-Serif" font-size="10.00">modbusPackTCP</text>
</a>
</g>
</g>
<!-- Node1&#45;&gt;Node13 -->
<g id="edge12" class="edge">
<title>Node1&#45;&gt;Node13</title>
<path fill="none" stroke="#63b8ff" d="M530.49,-169.78C512.87,-167.64 492.88,-165.21 475.37,-163.08"/>
<polygon fill="#63b8ff" stroke="#63b8ff" points="529.82,-173.23 540.17,-170.96 530.67,-166.28 529.82,-173.23"/>
</g>
<!-- Node19 -->
<g id="node19" class="node">
<title>Node19</title>
<g id="a_node19"><a xlink:href="slave__func_8impl_8h.html#aaff57f2a5c6a8e6c77d36c5dc7e48cfa" target="_top" xlink:title="Handles requests 01, 02, 03 and 04 (Read Multiple XX) and generates response.">
<polygon fill="white" stroke="#666666" points="506,-130 351,-130 351,-111 506,-111 506,-130"/>
<text text-anchor="middle" x="428.5" y="-118" font-family="Helvetica,sans-Serif" font-size="10.00">modbusParseRequest01020304</text>
</a>
</g>
</g>
<!-- Node1&#45;&gt;Node19 -->
<g id="edge18" class="edge">
<title>Node1&#45;&gt;Node19</title>
<path fill="none" stroke="#63b8ff" d="M550.56,-160.14C537.43,-153.13 521.22,-145.14 506,-139.5 496.63,-136.03 486.39,-132.99 476.53,-130.42"/>
<polygon fill="#63b8ff" stroke="#63b8ff" points="548.58,-163.05 559.03,-164.77 551.94,-156.91 548.58,-163.05"/>
</g>
<!-- Node20 -->
<g id="node20" class="node">
<title>Node20</title>
<g id="a_node20"><a xlink:href="slave__func_8impl_8h.html#a236881fe30a95d4cc9b031a9e24ae2a8" target="_top" xlink:title="Handles requests 05 and 06 (Write Single XX) and generates response.">
<polygon fill="white" stroke="#666666" points="495.5,-93 361.5,-93 361.5,-74 495.5,-74 495.5,-93"/>
<text text-anchor="middle" x="428.5" y="-81" font-family="Helvetica,sans-Serif" font-size="10.00">modbusParseRequest0506</text>
</a>
</g>
</g>
<!-- Node1&#45;&gt;Node20 -->
<g id="edge19" class="edge">
<title>Node1&#45;&gt;Node20</title>
<path fill="none" stroke="#63b8ff" d="M563.95,-156.64C550.95,-139.93 529.81,-116.12 506,-102.5 499.59,-98.83 492.47,-95.86 485.24,-93.47"/>
<polygon fill="#63b8ff" stroke="#63b8ff" points="560.91,-158.42 569.72,-164.32 566.51,-154.22 560.91,-158.42"/>
</g>
<!-- Node21 -->
<g id="node21" class="node">
<title>Node21</title>
<g id="a_node21"><a xlink:href="slave__func_8impl_8h.html#a0cb2a7bf59d4014088e1ce1c61523071" target="_top" xlink:title="Handles requests 15 and 16 (Write Multiple XX) and generates response.">
<polygon fill="white" stroke="#666666" points="495.5,-56 361.5,-56 361.5,-37 495.5,-37 495.5,-56"/>
<text text-anchor="middle" x="428.5" y="-44" font-family="Helvetica,sans-Serif" font-size="10.00">modbusParseRequest1516</text>
</a>
</g>
</g>
<!-- Node1&#45;&gt;Node21 -->
<g id="edge20" class="edge">
<title>Node1&#45;&gt;Node21</title>
<path fill="none" stroke="#63b8ff" d="M569.98,-155.12C559.57,-129.85 538.33,-87.33 506,-64.5 501.43,-61.27 496.36,-58.62 491.07,-56.44"/>
<polygon fill="#63b8ff" stroke="#63b8ff" points="566.66,-156.24 573.56,-164.28 573.18,-153.69 566.66,-156.24"/>
</g>
<!-- Node22 -->
<g id="node22" class="node">
<title>Node22</title>
<g id="a_node22"><a xlink:href="slave__func_8impl_8h.html#a814f041d9acfa578998b8ce8fe53815c" target="_top" xlink:title="Handles request 22 (Mask Write Register) and generates response.">
<polygon fill="white" stroke="#666666" points="490,-19 367,-19 367,0 490,0 490,-19"/>
<text text-anchor="middle" x="428.5" y="-7" font-family="Helvetica,sans-Serif" font-size="10.00">modbusParseRequest22</text>
</a>
</g>
</g>
<!-- Node1&#45;&gt;Node22 -->
<g id="edge21" class="edge">
<title>Node1&#45;&gt;Node22</title>
<path fill="none" stroke="#63b8ff" d="M573.39,-154.56C565.9,-122.18 546.88,-60.28 506,-27.5 501.32,-23.74 495.98,-20.75 490.36,-18.36"/>
<polygon fill="#63b8ff" stroke="#63b8ff" points="569.95,-155.23 575.47,-164.28 576.8,-153.77 569.95,-155.23"/>
</g>
<!-- Node3 -->
<g id="node3" class="node">
<title>Node3</title>
<g id="a_node3"><a xlink:href="master__func_8h.html#aadb2b7e2d3ee4fbde22cdf076713d75e" target="_top" xlink:title="Read multiple coils &#45; a wrapper for modbusBuildRequest01020304()">
<polygon fill="white" stroke="#666666" points="307.5,-463 188.5,-463 188.5,-444 307.5,-444 307.5,-463"/>
<text text-anchor="middle" x="248" y="-451" font-family="Helvetica,sans-Serif" font-size="10.00">modbusBuildRequest01</text>
</a>
</g>
</g>
<!-- Node2&#45;&gt;Node3 -->
<g id="edge2" class="edge">
<title>Node2&#45;&gt;Node3</title>
<path fill="none" stroke="#63b8ff" d="M400.66,-394.73C378.27,-406.97 345.27,-423.97 315,-435.5 307.12,-438.5 298.53,-441.22 290.24,-443.59"/>
<polygon fill="#63b8ff" stroke="#63b8ff" points="402.06,-397.96 409.11,-390.05 398.67,-391.83 402.06,-397.96"/>
</g>
<!-- Node4 -->
<g id="node4" class="node">
<title>Node4</title>
<g id="a_node4"><a xlink:href="master__func_8h.html#a2a6452a8200d77483254bef08ee2cf8c" target="_top" xlink:title="Read multiple discrete inputs &#45; a wrapper for modbusBuildRequest01020304()">
<polygon fill="white" stroke="#666666" points="307.5,-426 188.5,-426 188.5,-407 307.5,-407 307.5,-426"/>
<text text-anchor="middle" x="248" y="-414" font-family="Helvetica,sans-Serif" font-size="10.00">modbusBuildRequest02</text>
</a>
</g>
</g>
<!-- Node2&#45;&gt;Node4 -->
<g id="edge3" class="edge">
<title>Node2&#45;&gt;Node4</title>
<path fill="none" stroke="#63b8ff" d="M368.55,-391.72C345.32,-396.53 318.99,-401.99 296.97,-406.56"/>
<polygon fill="#63b8ff" stroke="#63b8ff" points="369.1,-395.18 378.18,-389.72 367.68,-388.33 369.1,-395.18"/>
</g>
<!-- Node5 -->
<g id="node5" class="node">
<title>Node5</title>
<g id="a_node5"><a xlink:href="master__func_8h.html#a1c7ed51c58b1ef42ee176833c7fd0515" target="_top" xlink:title="Read multiple holding registers &#45; a wrapper for modbusBuildRequest01020304()">
<polygon fill="white" stroke="#666666" points="307.5,-389 188.5,-389 188.5,-370 307.5,-370 307.5,-389"/>
<text text-anchor="middle" x="248" y="-377" font-family="Helvetica,sans-Serif" font-size="10.00">modbusBuildRequest03</text>
</a>
</g>
</g>
<!-- Node2&#45;&gt;Node5 -->
<g id="edge4" class="edge">
<title>Node2&#45;&gt;Node5</title>
<path fill="none" stroke="#63b8ff" d="M341.27,-379.5C329.91,-379.5 318.48,-379.5 307.73,-379.5"/>
<polygon fill="#63b8ff" stroke="#63b8ff" points="341.06,-383 351.06,-379.5 341.06,-376 341.06,-383"/>
</g>
<!-- Node6 -->
<g id="node6" class="node">
<title>Node6</title>
<g id="a_node6"><a xlink:href="master__func_8h.html#a22bf4541196b3e88c0a86861d334e3b1" target="_top" xlink:title="Read multiple input registers &#45; a wrapper for modbusBuildRequest01020304()">
<polygon fill="white" stroke="#666666" points="307.5,-352 188.5,-352 188.5,-333 307.5,-333 307.5,-352"/>
<text text-anchor="middle" x="248" y="-340" font-family="Helvetica,sans-Serif" font-size="10.00">modbusBuildRequest04</text>
</a>
</g>
</g>
<!-- Node2&#45;&gt;Node6 -->
<g id="edge5" class="edge">
<title>Node2&#45;&gt;Node6</title>
<path fill="none" stroke="#63b8ff" d="M368.55,-367.28C345.32,-362.47 318.99,-357.01 296.97,-352.44"/>
<polygon fill="#63b8ff" stroke="#63b8ff" points="367.68,-370.67 378.18,-369.28 369.1,-363.82 367.68,-370.67"/>
</g>
<!-- Node8 -->
<g id="node8" class="node">
<title>Node8</title>
<g id="a_node8"><a xlink:href="master__func_8h.html#a7151355c8c34af355fd779f88a64e125" target="_top" xlink:title="Write single coil &#45; a wrapper for modbusBuildRequest0506()">
<polygon fill="white" stroke="#666666" points="307.5,-315 188.5,-315 188.5,-296 307.5,-296 307.5,-315"/>
<text text-anchor="middle" x="248" y="-303" font-family="Helvetica,sans-Serif" font-size="10.00">modbusBuildRequest05</text>
</a>
</g>
</g>
<!-- Node7&#45;&gt;Node8 -->
<g id="edge7" class="edge">
<title>Node7&#45;&gt;Node8</title>
<path fill="none" stroke="#63b8ff" d="M351.89,-305.5C337.12,-305.5 321.83,-305.5 307.71,-305.5"/>
<polygon fill="#63b8ff" stroke="#63b8ff" points="351.54,-309 361.54,-305.5 351.54,-302 351.54,-309"/>
</g>
<!-- Node9 -->
<g id="node9" class="node">
<title>Node9</title>
<g id="a_node9"><a xlink:href="master__func_8h.html#a56779853bdfd2bb75601be746c20eb09" target="_top" xlink:title="Write single holding register &#45; a wrapper for modbusBuildRequest0506()">
<polygon fill="white" stroke="#666666" points="307.5,-278 188.5,-278 188.5,-259 307.5,-259 307.5,-278"/>
<text text-anchor="middle" x="248" y="-266" font-family="Helvetica,sans-Serif" font-size="10.00">modbusBuildRequest06</text>
</a>
</g>
</g>
<!-- Node7&#45;&gt;Node9 -->
<g id="edge8" class="edge">
<title>Node7&#45;&gt;Node9</title>
<path fill="none" stroke="#63b8ff" d="M368.55,-293.28C345.32,-288.47 318.99,-283.01 296.97,-278.44"/>
<polygon fill="#63b8ff" stroke="#63b8ff" points="367.68,-296.67 378.18,-295.28 369.1,-289.82 367.68,-296.67"/>
</g>
<!-- Node14 -->
<g id="node14" class="node">
<title>Node14</title>
<g id="a_node14"><a xlink:href="slave_8impl_8h.html#a778e65356f7da66831f18ec53b975383" target="_top" xlink:title="Builds a Modbus TCP exception.">
<polygon fill="white" stroke="#666666" points="315,-204 181,-204 181,-185 315,-185 315,-204"/>
<text text-anchor="middle" x="248" y="-192" font-family="Helvetica,sans-Serif" font-size="10.00">modbusBuildExceptionTCP</text>
</a>
</g>
</g>
<!-- Node13&#45;&gt;Node14 -->
<g id="edge13" class="edge">
<title>Node13&#45;&gt;Node14</title>
<path fill="none" stroke="#63b8ff" d="M370.57,-169.3C346.87,-174.21 319.66,-179.85 296.99,-184.55"/>
<polygon fill="#63b8ff" stroke="#63b8ff" points="370.97,-172.79 380.05,-167.34 369.55,-165.94 370.97,-172.79"/>
</g>
<!-- Node16 -->
<g id="node16" class="node">
<title>Node16</title>
<g id="a_node16"><a xlink:href="master_8impl_8h.html#a7feaa87c1b0f6c9fbd565494b2b96c8d" target="_top" xlink:title="Finalizes a Modbus TCP request.">
<polygon fill="white" stroke="#666666" points="309.5,-167 186.5,-167 186.5,-148 309.5,-148 309.5,-167"/>
<text text-anchor="middle" x="248" y="-155" font-family="Helvetica,sans-Serif" font-size="10.00">modbusEndRequestTCP</text>
</a>
</g>
</g>
<!-- Node13&#45;&gt;Node16 -->
<g id="edge15" class="edge">
<title>Node13&#45;&gt;Node16</title>
<path fill="none" stroke="#63b8ff" d="M370.2,-157.5C350.97,-157.5 329.46,-157.5 309.96,-157.5"/>
<polygon fill="#63b8ff" stroke="#63b8ff" points="370.02,-161 380.02,-157.5 370.02,-154 370.02,-161"/>
</g>
<!-- Node17 -->
<g id="node17" class="node">
<title>Node17</title>
<g id="a_node17"><a xlink:href="slave_8impl_8h.html#a5ad3fe86aa14f8982d7c459c68cd8b3e" target="_top" xlink:title="Parses provided Modbus TCP request frame and generates a Modbus TCP response.">
<polygon fill="white" stroke="#666666" points="314,-130 182,-130 182,-111 314,-111 314,-130"/>
<text text-anchor="middle" x="248" y="-118" font-family="Helvetica,sans-Serif" font-size="10.00">modbusParseRequestTCP</text>
</a>
</g>
</g>
<!-- Node13&#45;&gt;Node17 -->
<g id="edge16" class="edge">
<title>Node13&#45;&gt;Node17</title>
<path fill="none" stroke="#63b8ff" d="M370.57,-145.7C346.87,-140.79 319.66,-135.15 296.99,-130.45"/>
<polygon fill="#63b8ff" stroke="#63b8ff" points="369.55,-149.06 380.05,-147.66 370.97,-142.21 369.55,-149.06"/>
</g>
<!-- Node15 -->
<g id="node15" class="node">
<title>Node15</title>
<g id="a_node15"><a xlink:href="classllm_1_1Slave.html#a844c37870a4e98bffc091ddfafb8f959" target="_top" xlink:title=" ">
<polygon fill="white" stroke="#666666" points="145,-204 0,-204 0,-185 145,-185 145,-204"/>
<text text-anchor="middle" x="72.5" y="-192" font-family="Helvetica,sans-Serif" font-size="10.00">llm::Slave::buildExceptionTCP</text>
</a>
</g>
</g>
<!-- Node14&#45;&gt;Node15 -->
<g id="edge14" class="edge">
<title>Node14&#45;&gt;Node15</title>
<path fill="none" stroke="#63b8ff" d="M169.65,-194.5C161.61,-194.5 153.46,-194.5 145.48,-194.5"/>
<polygon fill="#63b8ff" stroke="#63b8ff" points="169.4,-198 179.4,-194.5 169.4,-191 169.4,-198"/>
</g>
<!-- Node18 -->
<g id="node18" class="node">
<title>Node18</title>
<g id="a_node18"><a xlink:href="classllm_1_1Slave.html#a05169339916c3727c780c75157b399b9" target="_top" xlink:title=" ">
<polygon fill="white" stroke="#666666" points="144,-130 1,-130 1,-111 144,-111 144,-130"/>
<text text-anchor="middle" x="72.5" y="-118" font-family="Helvetica,sans-Serif" font-size="10.00">llm::Slave::parseRequestTCP</text>
</a>
</g>
</g>
<!-- Node17&#45;&gt;Node18 -->
<g id="edge17" class="edge">
<title>Node17&#45;&gt;Node18</title>
<path fill="none" stroke="#63b8ff" d="M170.6,-120.5C161.92,-120.5 153.09,-120.5 144.49,-120.5"/>
<polygon fill="#63b8ff" stroke="#63b8ff" points="170.39,-124 180.39,-120.5 170.39,-117 170.39,-124"/>
</g>
</g>
</svg>
