<?xml version="1.0" encoding="UTF-8" standalone="no"?>
<!DOCTYPE svg PUBLIC "-//W3C//DTD SVG 1.1//EN"
 "http://www.w3.org/Graphics/SVG/1.1/DTD/svg11.dtd">
<!-- Generated by graphviz version 7.0.5 (20221223.1930)
 -->
<!-- Title: modbusIsOk Pages: 1 -->
<svg width="455pt" height="520pt"
 viewBox="0.00 0.00 455.00 519.67" xmlns="http://www.w3.org/2000/svg" xmlns:xlink="http://www.w3.org/1999/xlink">
<g id="graph0" class="graph" transform="scale(1 1) rotate(0) translate(4 515.67)">
<title>modbusIsOk</title>
<!-- Node1 -->
<g id="node1" class="node">
<title>Node1</title>
<g id="a_node1"><a xlink:title="Checks if ModbusErrorInfo contains an error.">
<polygon fill="#999999" stroke="#666666" points="447,-263 375,-263 375,-244 447,-244 447,-263"/>
<text text-anchor="middle" x="411" y="-251" font-family="Helvetica,sans-Serif" font-size="10.00">modbusIsOk</text>
</a>
</g>
</g>
<!-- Node2 -->
<g id="node2" class="node">
<title>Node2</title>
<g id="a_node2"><a xlink:href="classllm_1_1Slave.html#ac915e0947f733a784a9069f5ff5b9737" target="_top" xlink:title=" ">
<polygon fill="white" stroke="#666666" points="146,-490 0,-490 0,-471 146,-471 146,-490"/>
<text text-anchor="middle" x="73" y="-478" font-family="Helvetica,sans-Serif" font-size="10.00">llm::Slave::buildExceptionPDU</text>
</a>
</g>
</g>
<!-- Node1&#45;&gt;Node2 -->
<g id="edge1" class="edge">
<title>Node1&#45;&gt;Node2</title>
<path fill="none" stroke="#63b8ff" d="M410.85,-274.83C411.4,-321.37 405.3,-431.77 339,-480.5 268.01,-532.68 154.94,-506.79 102.47,-490.44"/>
<polygon fill="#63b8ff" stroke="#63b8ff" points="414.36,-274.92 410.6,-265.01 407.36,-275.09 414.36,-274.92"/>
</g>
<!-- Node3 -->
<g id="node3" class="node">
<title>Node3</title>
<g id="a_node3"><a xlink:href="classllm_1_1Slave.html#a10e79600053c725e639225264d966e63" target="_top" xlink:title=" ">
<polygon fill="white" stroke="#666666" points="146,-414 0,-414 0,-395 146,-395 146,-414"/>
<text text-anchor="middle" x="73" y="-402" font-family="Helvetica,sans-Serif" font-size="10.00">llm::Slave::buildExceptionRTU</text>
</a>
</g>
</g>
<!-- Node1&#45;&gt;Node3 -->
<g id="edge2" class="edge">
<title>Node1&#45;&gt;Node3</title>
<path fill="none" stroke="#63b8ff" d="M407.28,-274.15C401.54,-308.26 384.74,-375.46 339,-404.5 266.17,-450.73 157.87,-429.24 105.12,-414.43"/>
<polygon fill="#63b8ff" stroke="#63b8ff" points="410.67,-275.12 408.7,-264.71 403.75,-274.08 410.67,-275.12"/>
</g>
<!-- Node4 -->
<g id="node4" class="node">
<title>Node4</title>
<g id="a_node4"><a xlink:href="classllm_1_1Slave.html#a844c37870a4e98bffc091ddfafb8f959" target="_top" xlink:title=" ">
<polygon fill="white" stroke="#666666" points="145.5,-338 0.5,-338 0.5,-319 145.5,-319 145.5,-338"/>
<text text-anchor="middle" x="73" y="-326" font-family="Helvetica,sans-Serif" font-size="10.00">llm::Slave::buildExceptionTCP</text>
</a>
</g>
</g>
<!-- Node1&#45;&gt;Node4 -->
<g id="edge3" class="edge">
<title>Node1&#45;&gt;Node4</title>
<path fill="none" stroke="#63b8ff" d="M398.19,-273.14C385.97,-291.36 365.02,-317.3 339,-328.5 265.89,-359.96 170.57,-348.9 116.45,-338.42"/>
<polygon fill="#63b8ff" stroke="#63b8ff" points="401.12,-275.06 403.54,-264.75 395.21,-271.3 401.12,-275.06"/>
</g>
<!-- Node5 -->
<g id="node5" class="node">
<title>Node5</title>
<g id="a_node5"><a xlink:href="slave_8impl_8h.html#a384f75966903cc0c249eb68a6a20180e" target="_top" xlink:title="Builds an exception PDU.">
<polygon fill="white" stroke="#666666" points="328.5,-471 192.5,-471 192.5,-452 328.5,-452 328.5,-471"/>
<text text-anchor="middle" x="260.5" y="-459" font-family="Helvetica,sans-Serif" font-size="10.00">modbusBuildExceptionPDU</text>
</a>
</g>
</g>
<!-- Node1&#45;&gt;Node5 -->
<g id="edge4" class="edge">
<title>Node1&#45;&gt;Node5</title>
<path fill="none" stroke="#63b8ff" d="M407.86,-274.21C402.85,-312.09 386.88,-392.77 339,-437.5 332.41,-443.65 324.28,-448.23 315.77,-451.63"/>
<polygon fill="#63b8ff" stroke="#63b8ff" points="411.3,-274.96 409,-264.62 404.35,-274.14 411.3,-274.96"/>
</g>
<!-- Node6 -->
<g id="node6" class="node">
<title>Node6</title>
<g id="a_node6"><a xlink:href="slave_8impl_8h.html#a1da09df8858b91c61fe02c25783c2946" target="_top" xlink:title="Builds a Modbus RTU exception.">
<polygon fill="white" stroke="#666666" points="328,-395 193,-395 193,-376 328,-376 328,-395"/>
<text text-anchor="middle" x="260.5" y="-383" font-family="Helvetica,sans-Serif" font-size="10.00">modbusBuildExceptionRTU</text>
</a>
</g>
</g>
<!-- Node1&#45;&gt;Node6 -->
<g id="edge6" class="edge">
<title>Node1&#45;&gt;Node6</title>
<path fill="none" stroke="#63b8ff" d="M401.86,-273.68C391.05,-297.99 369.67,-338.44 339,-361.5 330.89,-367.6 321.22,-372.16 311.5,-375.57"/>
<polygon fill="#63b8ff" stroke="#63b8ff" points="405.04,-275.15 405.72,-264.58 398.59,-272.42 405.04,-275.15"/>
</g>
<!-- Node7 -->
<g id="node7" class="node">
<title>Node7</title>
<g id="a_node7"><a xlink:href="slave_8impl_8h.html#a778e65356f7da66831f18ec53b975383" target="_top" xlink:title="Builds a Modbus TCP exception.">
<polygon fill="white" stroke="#666666" points="327.5,-319 193.5,-319 193.5,-300 327.5,-300 327.5,-319"/>
<text text-anchor="middle" x="260.5" y="-307" font-family="Helvetica,sans-Serif" font-size="10.00">modbusBuildExceptionTCP</text>
</a>
</g>
</g>
<!-- Node1&#45;&gt;Node7 -->
<g id="edge8" class="edge">
<title>Node1&#45;&gt;Node7</title>
<path fill="none" stroke="#63b8ff" d="M384.71,-269.14C371.49,-276.77 354.8,-285.56 339,-291.5 330.73,-294.61 321.74,-297.29 312.93,-299.57"/>
<polygon fill="#63b8ff" stroke="#63b8ff" points="386.37,-272.23 393.19,-264.12 382.8,-266.2 386.37,-272.23"/>
</g>
<!-- Node8 -->
<g id="node8" class="node">
<title>Node8</title>
<g id="a_node8"><a xlink:href="slave_8impl_8h.html#a6a1e63faa64b7ca4b91d1ce7988be850" target="_top" xlink:title="Parses provided Modbus RTU request frame and generates a Modbus RTU response.">
<polygon fill="white" stroke="#666666" points="327,-282 194,-282 194,-263 327,-263 327,-282"/>
<text text-anchor="middle" x="260.5" y="-270" font-family="Helvetica,sans-Serif" font-size="10.00">modbusParseRequestRTU</text>
</a>
</g>
</g>
<!-- Node1&#45;&gt;Node8 -->
<g id="edge10" class="edge">
<title>Node1&#45;&gt;Node8</title>
<path fill="none" stroke="#63b8ff" d="M363.68,-259.43C352.15,-260.9 339.56,-262.51 327.29,-264.08"/>
<polygon fill="#63b8ff" stroke="#63b8ff" points="363.83,-262.94 373.31,-258.19 362.94,-255.99 363.83,-262.94"/>
</g>
<!-- Node9 -->
<g id="node9" class="node">
<title>Node9</title>
<g id="a_node9"><a xlink:href="classllm_1_1Slave.html#a001591b9a38b69cf29adc853872a09fe" target="_top" xlink:title=" ">
<polygon fill="white" stroke="#666666" points="144.5,-263 1.5,-263 1.5,-244 144.5,-244 144.5,-263"/>
<text text-anchor="middle" x="73" y="-251" font-family="Helvetica,sans-Serif" font-size="10.00">llm::Slave::parseRequestRTU</text>
</a>
</g>
</g>
<!-- Node1&#45;&gt;Node9 -->
<g id="edge15" class="edge">
<title>Node1&#45;&gt;Node9</title>
<path fill="none" stroke="#63b8ff" d="M363.2,-253.5C306.52,-253.5 210.48,-253.5 144.75,-253.5"/>
<polygon fill="#63b8ff" stroke="#63b8ff" points="363.16,-257 373.16,-253.5 363.16,-250 363.16,-257"/>
</g>
<!-- Node10 -->
<g id="node10" class="node">
<title>Node10</title>
<g id="a_node10"><a xlink:href="slave_8impl_8h.html#a5ad3fe86aa14f8982d7c459c68cd8b3e" target="_top" xlink:title="Parses provided Modbus TCP request frame and generates a Modbus TCP response.">
<polygon fill="white" stroke="#666666" points="326.5,-206 194.5,-206 194.5,-187 326.5,-187 326.5,-206"/>
<text text-anchor="middle" x="260.5" y="-194" font-family="Helvetica,sans-Serif" font-size="10.00">modbusParseRequestTCP</text>
</a>
</g>
</g>
<!-- Node1&#45;&gt;Node10 -->
<g id="edge12" class="edge">
<title>Node1&#45;&gt;Node10</title>
<path fill="none" stroke="#63b8ff" d="M380.08,-238.5C367.55,-232.51 352.73,-225.79 339,-220.5 325.59,-215.34 310.57,-210.48 297.34,-206.5"/>
<polygon fill="#63b8ff" stroke="#63b8ff" points="378.53,-241.64 389.05,-242.87 381.59,-235.34 378.53,-241.64"/>
</g>
<!-- Node11 -->
<g id="node11" class="node">
<title>Node11</title>
<g id="a_node11"><a xlink:href="classllm_1_1Slave.html#a05169339916c3727c780c75157b399b9" target="_top" xlink:title=" ">
<polygon fill="white" stroke="#666666" points="144.5,-187 1.5,-187 1.5,-168 144.5,-168 144.5,-187"/>
<text text-anchor="middle" x="73" y="-175" font-family="Helvetica,sans-Serif" font-size="10.00">llm::Slave::parseRequestTCP</text>
</a>
</g>
</g>
<!-- Node1&#45;&gt;Node11 -->
<g id="edge16" class="edge">
<title>Node1&#45;&gt;Node11</title>
<path fill="none" stroke="#63b8ff" d="M398.62,-234.16C386.5,-215.67 365.43,-188.98 339,-177.5 265.99,-145.8 170.64,-156.94 116.48,-167.5"/>
<polygon fill="#63b8ff" stroke="#63b8ff" points="395.49,-235.76 403.75,-242.39 401.43,-232.05 395.49,-235.76"/>
</g>
<!-- Node12 -->
<g id="node12" class="node">
<title>Node12</title>
<g id="a_node12"><a xlink:href="classllm_1_1Slave.html#af8cc9d8d58bf7f632f3f3cf7e6b9c84b" target="_top" xlink:title=" ">
<polygon fill="white" stroke="#666666" points="332.5,-130 188.5,-130 188.5,-111 332.5,-111 332.5,-130"/>
<text text-anchor="middle" x="260.5" y="-118" font-family="Helvetica,sans-Serif" font-size="10.00">llm::Slave::parseRequestPDU</text>
</a>
</g>
</g>
<!-- Node1&#45;&gt;Node12 -->
<g id="edge14" class="edge">
<title>Node1&#45;&gt;Node12</title>
<path fill="none" stroke="#63b8ff" d="M401.91,-233.13C391.15,-208.6 369.82,-167.78 339,-144.5 330.91,-138.39 321.24,-133.82 311.52,-130.4"/>
<polygon fill="#63b8ff" stroke="#63b8ff" points="398.67,-234.45 405.76,-242.33 405.13,-231.75 398.67,-234.45"/>
</g>
<!-- Node13 -->
<g id="node13" class="node">
<title>Node13</title>
<g id="a_node13"><a xlink:href="classllm_1_1Master.html#a39b0210172c76ef4dc9e43668daef7c9" target="_top" xlink:title=" ">
<polygon fill="white" stroke="#666666" points="339,-93 182,-93 182,-74 339,-74 339,-93"/>
<text text-anchor="middle" x="260.5" y="-81" font-family="Helvetica,sans-Serif" font-size="10.00">llm::Master::parseResponsePDU</text>
</a>
</g>
</g>
<!-- Node1&#45;&gt;Node13 -->
<g id="edge17" class="edge">
<title>Node1&#45;&gt;Node13</title>
<path fill="none" stroke="#63b8ff" d="M406.34,-232.91C399.36,-199.92 380.94,-135.48 339,-101.5 335.03,-98.28 330.59,-95.62 325.89,-93.42"/>
<polygon fill="#63b8ff" stroke="#63b8ff" points="402.84,-233.26 408.19,-242.4 409.71,-231.92 402.84,-233.26"/>
</g>
<!-- Node14 -->
<g id="node14" class="node">
<title>Node14</title>
<g id="a_node14"><a xlink:href="classllm_1_1Master.html#ab052e172e96808744ee43a8eff80b679" target="_top" xlink:title=" ">
<polygon fill="white" stroke="#666666" points="338.5,-56 182.5,-56 182.5,-37 338.5,-37 338.5,-56"/>
<text text-anchor="middle" x="260.5" y="-44" font-family="Helvetica,sans-Serif" font-size="10.00">llm::Master::parseResponseRTU</text>
</a>
</g>
</g>
<!-- Node1&#45;&gt;Node14 -->
<g id="edge18" class="edge">
<title>Node1&#45;&gt;Node14</title>
<path fill="none" stroke="#63b8ff" d="M408.41,-232.45C404.28,-193.23 389.67,-108.93 339,-64.5 335.36,-61.31 331.27,-58.66 326.92,-56.46"/>
<polygon fill="#63b8ff" stroke="#63b8ff" points="404.92,-232.75 409.31,-242.39 411.9,-232.12 404.92,-232.75"/>
</g>
<!-- Node15 -->
<g id="node15" class="node">
<title>Node15</title>
<g id="a_node15"><a xlink:href="classllm_1_1Master.html#ad1f614f5d44a61a8507ae34968fa7903" target="_top" xlink:title=" ">
<polygon fill="white" stroke="#666666" points="338,-19 183,-19 183,0 338,0 338,-19"/>
<text text-anchor="middle" x="260.5" y="-7" font-family="Helvetica,sans-Serif" font-size="10.00">llm::Master::parseResponseTCP</text>
</a>
</g>
</g>
<!-- Node1&#45;&gt;Node15 -->
<g id="edge19" class="edge">
<title>Node1&#45;&gt;Node15</title>
<path fill="none" stroke="#63b8ff" d="M409.91,-232.14C408.49,-187.25 398.58,-82.71 339,-27.5 335.56,-24.31 331.66,-21.65 327.49,-19.43"/>
<polygon fill="#63b8ff" stroke="#63b8ff" points="406.4,-232.14 410.09,-242.07 413.4,-232.01 406.4,-232.14"/>
</g>
<!-- Node5&#45;&gt;Node2 -->
<g id="edge5" class="edge">
<title>Node5&#45;&gt;Node2</title>
<path fill="none" stroke="#63b8ff" d="M180.75,-469.57C169.37,-470.73 157.7,-471.93 146.45,-473.08"/>
<polygon fill="#63b8ff" stroke="#63b8ff" points="180.91,-473.07 190.5,-468.57 180.2,-466.1 180.91,-473.07"/>
</g>
<!-- Node6&#45;&gt;Node3 -->
<g id="edge7" class="edge">
<title>Node6&#45;&gt;Node3</title>
<path fill="none" stroke="#63b8ff" d="M181.09,-393.53C169.52,-394.72 157.64,-395.93 146.2,-397.1"/>
<polygon fill="#63b8ff" stroke="#63b8ff" points="181.43,-397.01 191.02,-392.51 180.72,-390.05 181.43,-397.01"/>
</g>
<!-- Node7&#45;&gt;Node4 -->
<g id="edge9" class="edge">
<title>Node7&#45;&gt;Node4</title>
<path fill="none" stroke="#63b8ff" d="M181.79,-317.46C169.91,-318.68 157.7,-319.93 145.95,-321.13"/>
<polygon fill="#63b8ff" stroke="#63b8ff" points="181.96,-320.96 191.55,-316.46 181.24,-314 181.96,-320.96"/>
</g>
<!-- Node8&#45;&gt;Node9 -->
<g id="edge11" class="edge">
<title>Node8&#45;&gt;Node9</title>
<path fill="none" stroke="#63b8ff" d="M182.29,-264.59C169.85,-263.32 157.02,-262 144.74,-260.75"/>
<polygon fill="#63b8ff" stroke="#63b8ff" points="181.77,-268.06 192.07,-265.59 182.48,-261.09 181.77,-268.06"/>
</g>
<!-- Node10&#45;&gt;Node11 -->
<g id="edge13" class="edge">
<title>Node10&#45;&gt;Node11</title>
<path fill="none" stroke="#63b8ff" d="M182.71,-188.63C170.16,-187.35 157.2,-186.02 144.8,-184.75"/>
<polygon fill="#63b8ff" stroke="#63b8ff" points="182.29,-192.11 192.59,-189.65 183,-185.15 182.29,-192.11"/>
</g>
</g>
</svg>
