<?xml version="1.0" encoding="UTF-8" standalone="no"?>
<!DOCTYPE svg PUBLIC "-//W3C//DTD SVG 1.1//EN"
 "http://www.w3.org/Graphics/SVG/1.1/DTD/svg11.dtd">
<!-- Generated by graphviz version 7.0.5 (20221223.1930)
 -->
<!-- Title: include/lightmodbus/base.h Pages: 1 -->
<svg width="817pt" height="368pt"
 viewBox="0.00 0.00 817.43 368.00" xmlns="http://www.w3.org/2000/svg" xmlns:xlink="http://www.w3.org/1999/xlink">
<g id="graph0" class="graph" transform="scale(1 1) rotate(0) translate(4 364)">
<title>include/lightmodbus/base.h</title>
<!-- Node1 -->
<g id="node1" class="node">
<title>Node1</title>
<g id="a_node1"><a xlink:title="Common types and functions (header)">
<polygon fill="#999999" stroke="#666666" points="317.95,-360 214.95,-360 214.95,-330 317.95,-330 317.95,-360"/>
<text text-anchor="start" x="222.95" y="-348" font-family="Helvetica,sans-Serif" font-size="10.00">include/lightmodbus</text>
<text text-anchor="middle" x="266.45" y="-337" font-family="Helvetica,sans-Serif" font-size="10.00">/base.h</text>
</a>
</g>
</g>
<!-- Node2 -->
<g id="node2" class="node">
<title>Node2</title>
<g id="a_node2"><a xlink:href="base_8impl_8h.html" target="_top" xlink:title="Common types and functions (implementation)">
<polygon fill="white" stroke="#666666" points="116.95,-294 13.95,-294 13.95,-264 116.95,-264 116.95,-294"/>
<text text-anchor="start" x="21.95" y="-282" font-family="Helvetica,sans-Serif" font-size="10.00">include/lightmodbus</text>
<text text-anchor="middle" x="65.45" y="-271" font-family="Helvetica,sans-Serif" font-size="10.00">/base.impl.h</text>
</a>
</g>
</g>
<!-- Node1&#45;&gt;Node2 -->
<g id="edge1" class="edge">
<title>Node1&#45;&gt;Node2</title>
<path fill="none" stroke="#63b8ff" d="M210.29,-326.12C178.84,-316.1 140.13,-303.78 110.64,-294.39"/>
<polygon fill="#63b8ff" stroke="#63b8ff" points="209.06,-329.4 219.65,-329.1 211.18,-322.73 209.06,-329.4"/>
</g>
<!-- Node3 -->
<g id="node3" class="node">
<title>Node3</title>
<g id="a_node3"><a xlink:href="lightmodbus_8h.html" target="_top" xlink:title="The main library header file (include this one)">
<polygon fill="white" stroke="#666666" points="412.95,-96 309.95,-96 309.95,-66 412.95,-66 412.95,-96"/>
<text text-anchor="start" x="317.95" y="-84" font-family="Helvetica,sans-Serif" font-size="10.00">include/lightmodbus</text>
<text text-anchor="middle" x="361.45" y="-73" font-family="Helvetica,sans-Serif" font-size="10.00">/lightmodbus.h</text>
</a>
</g>
</g>
<!-- Node1&#45;&gt;Node3 -->
<g id="edge8" class="edge">
<title>Node1&#45;&gt;Node3</title>
<path fill="none" stroke="#63b8ff" d="M203.23,-340.93C133.91,-336.09 29.19,-323.91 4.45,-294 -4.05,-283.73 2.32,-277.16 4.45,-264 14.36,-202.96 1.3,-172.01 48.45,-132 86.95,-99.33 231.07,-87.81 309.62,-83.9"/>
<polygon fill="#63b8ff" stroke="#63b8ff" points="202.74,-344.41 212.95,-341.58 203.2,-337.42 202.74,-344.41"/>
</g>
<!-- Node5 -->
<g id="node5" class="node">
<title>Node5</title>
<g id="a_node5"><a xlink:href="debug_8h.html" target="_top" xlink:title="Debug utilities (header)">
<polygon fill="white" stroke="#666666" points="475.95,-228 372.95,-228 372.95,-198 475.95,-198 475.95,-228"/>
<text text-anchor="start" x="380.95" y="-216" font-family="Helvetica,sans-Serif" font-size="10.00">include/lightmodbus</text>
<text text-anchor="middle" x="424.45" y="-205" font-family="Helvetica,sans-Serif" font-size="10.00">/debug.h</text>
</a>
</g>
</g>
<!-- Node1&#45;&gt;Node5 -->
<g id="edge4" class="edge">
<title>Node1&#45;&gt;Node5</title>
<path fill="none" stroke="#63b8ff" d="M292.46,-322.6C324.77,-296.01 379.05,-251.36 406.86,-228.47"/>
<polygon fill="#63b8ff" stroke="#63b8ff" points="290.63,-319.57 285.13,-328.63 295.08,-324.98 290.63,-319.57"/>
</g>
<!-- Node7 -->
<g id="node7" class="node">
<title>Node7</title>
<g id="a_node7"><a xlink:href="master_8h.html" target="_top" xlink:title="Master&#39;s types and basic functions (header)">
<polygon fill="white" stroke="#666666" points="237.95,-294 134.95,-294 134.95,-264 237.95,-264 237.95,-294"/>
<text text-anchor="start" x="142.95" y="-282" font-family="Helvetica,sans-Serif" font-size="10.00">include/lightmodbus</text>
<text text-anchor="middle" x="186.45" y="-271" font-family="Helvetica,sans-Serif" font-size="10.00">/master.h</text>
</a>
</g>
</g>
<!-- Node1&#45;&gt;Node7 -->
<g id="edge9" class="edge">
<title>Node1&#45;&gt;Node7</title>
<path fill="none" stroke="#63b8ff" d="M239.82,-322.7C228.2,-313.4 214.86,-302.73 204.43,-294.39"/>
<polygon fill="#63b8ff" stroke="#63b8ff" points="237.52,-325.34 247.51,-328.85 241.89,-319.87 237.52,-325.34"/>
</g>
<!-- Node9 -->
<g id="node9" class="node">
<title>Node9</title>
<g id="a_node9"><a xlink:href="master__func_8h.html" target="_top" xlink:title="Master&#39;s functions for building requests and parsing responses (header)">
<polygon fill="white" stroke="#666666" points="317.95,-228 214.95,-228 214.95,-198 317.95,-198 317.95,-228"/>
<text text-anchor="start" x="222.95" y="-216" font-family="Helvetica,sans-Serif" font-size="10.00">include/lightmodbus</text>
<text text-anchor="middle" x="266.45" y="-205" font-family="Helvetica,sans-Serif" font-size="10.00">/master_func.h</text>
</a>
</g>
</g>
<!-- Node1&#45;&gt;Node9 -->
<g id="edge19" class="edge">
<title>Node1&#45;&gt;Node9</title>
<path fill="none" stroke="#63b8ff" d="M266.45,-318.38C266.45,-291.49 266.45,-250.18 266.45,-228.47"/>
<polygon fill="#63b8ff" stroke="#63b8ff" points="262.95,-318.08 266.45,-328.08 269.95,-318.08 262.95,-318.08"/>
</g>
<!-- Node11 -->
<g id="node11" class="node">
<title>Node11</title>
<g id="a_node11"><a xlink:href="slave_8h.html" target="_top" xlink:title="Slave&#39;s types and basic functions (header)">
<polygon fill="white" stroke="#666666" points="610.95,-294 507.95,-294 507.95,-264 610.95,-264 610.95,-294"/>
<text text-anchor="start" x="515.95" y="-282" font-family="Helvetica,sans-Serif" font-size="10.00">include/lightmodbus</text>
<text text-anchor="middle" x="559.45" y="-271" font-family="Helvetica,sans-Serif" font-size="10.00">/slave.h</text>
</a>
</g>
</g>
<!-- Node1&#45;&gt;Node11 -->
<g id="edge20" class="edge">
<title>Node1&#45;&gt;Node11</title>
<path fill="none" stroke="#63b8ff" d="M329.17,-330.3C382.42,-318.67 457.93,-302.18 507.77,-291.29"/>
<polygon fill="#63b8ff" stroke="#63b8ff" points="328.66,-326.83 319.64,-332.38 330.15,-333.67 328.66,-326.83"/>
</g>
<!-- Node13 -->
<g id="node13" class="node">
<title>Node13</title>
<g id="a_node13"><a xlink:href="slave__func_8h.html" target="_top" xlink:title="Slave&#39;s functions for parsing requests (header)">
<polygon fill="white" stroke="#666666" points="747.95,-228 644.95,-228 644.95,-198 747.95,-198 747.95,-228"/>
<text text-anchor="start" x="652.95" y="-216" font-family="Helvetica,sans-Serif" font-size="10.00">include/lightmodbus</text>
<text text-anchor="middle" x="696.45" y="-205" font-family="Helvetica,sans-Serif" font-size="10.00">/slave_func.h</text>
</a>
</g>
</g>
<!-- Node1&#45;&gt;Node13 -->
<g id="edge31" class="edge">
<title>Node1&#45;&gt;Node13</title>
<path fill="none" stroke="#63b8ff" d="M329.56,-340.08C417.32,-333.78 571.01,-319.47 620.45,-294 650.25,-278.65 674.83,-246.9 687.39,-228.35"/>
<polygon fill="#63b8ff" stroke="#63b8ff" points="329.39,-336.58 319.66,-340.77 329.88,-343.56 329.39,-336.58"/>
</g>
<!-- Node2&#45;&gt;Node3 -->
<g id="edge2" class="edge">
<title>Node2&#45;&gt;Node3</title>
<path fill="none" stroke="#63b8ff" d="M56.99,-253.31C47.75,-221.33 37.78,-165.7 66.45,-132 97.12,-95.94 233.63,-85.88 309.74,-83.08"/>
<polygon fill="#63b8ff" stroke="#63b8ff" points="53.53,-253.98 59.84,-262.49 60.21,-251.9 53.53,-253.98"/>
</g>
<!-- Node4 -->
<g id="node4" class="node">
<title>Node4</title>
<g id="a_node4"><a xlink:href="lightmodbus_8hpp.html" target="_top" xlink:title="(Very) experimental liblightmodbus C++ interface">
<polygon fill="white" stroke="#666666" points="412.95,-30 309.95,-30 309.95,0 412.95,0 412.95,-30"/>
<text text-anchor="start" x="317.95" y="-18" font-family="Helvetica,sans-Serif" font-size="10.00">include/lightmodbus</text>
<text text-anchor="middle" x="361.45" y="-7" font-family="Helvetica,sans-Serif" font-size="10.00">/lightmodbus.hpp</text>
</a>
</g>
</g>
<!-- Node3&#45;&gt;Node4 -->
<g id="edge3" class="edge">
<title>Node3&#45;&gt;Node4</title>
<path fill="none" stroke="#63b8ff" d="M361.45,-54.39C361.45,-46.13 361.45,-37.28 361.45,-30.16"/>
<polygon fill="#63b8ff" stroke="#63b8ff" points="357.95,-54.28 361.45,-64.28 364.95,-54.28 357.95,-54.28"/>
</g>
<!-- Node5&#45;&gt;Node3 -->
<g id="edge7" class="edge">
<title>Node5&#45;&gt;Node3</title>
<path fill="none" stroke="#63b8ff" d="M412.56,-187.46C399.55,-160.61 379.13,-118.48 368.47,-96.47"/>
<polygon fill="#63b8ff" stroke="#63b8ff" points="409.3,-188.76 416.81,-196.23 415.6,-185.7 409.3,-188.76"/>
</g>
<!-- Node6 -->
<g id="node6" class="node">
<title>Node6</title>
<g id="a_node6"><a xlink:href="debug_8impl_8h.html" target="_top" xlink:title="Debug utilities (implementation)">
<polygon fill="white" stroke="#666666" points="511.95,-162 408.95,-162 408.95,-132 511.95,-132 511.95,-162"/>
<text text-anchor="start" x="416.95" y="-150" font-family="Helvetica,sans-Serif" font-size="10.00">include/lightmodbus</text>
<text text-anchor="middle" x="460.45" y="-139" font-family="Helvetica,sans-Serif" font-size="10.00">/debug.impl.h</text>
</a>
</g>
</g>
<!-- Node5&#45;&gt;Node6 -->
<g id="edge5" class="edge">
<title>Node5&#45;&gt;Node6</title>
<path fill="none" stroke="#63b8ff" d="M438.05,-187.83C442.92,-179.17 448.25,-169.7 452.48,-162.16"/>
<polygon fill="#63b8ff" stroke="#63b8ff" points="435.03,-186.05 433.18,-196.48 441.14,-189.48 435.03,-186.05"/>
</g>
<!-- Node6&#45;&gt;Node3 -->
<g id="edge6" class="edge">
<title>Node6&#45;&gt;Node3</title>
<path fill="none" stroke="#63b8ff" d="M429.2,-125.8C414.42,-116.24 397.12,-105.06 383.7,-96.39"/>
<polygon fill="#63b8ff" stroke="#63b8ff" points="426.91,-128.48 437.21,-130.97 430.71,-122.61 426.91,-128.48"/>
</g>
<!-- Node7&#45;&gt;Node3 -->
<g id="edge10" class="edge">
<title>Node7&#45;&gt;Node3</title>
<path fill="none" stroke="#63b8ff" d="M152.71,-257.34C109.63,-228.42 44.71,-174.66 80.45,-132 109.13,-97.77 236.73,-86.95 309.73,-83.55"/>
<polygon fill="#63b8ff" stroke="#63b8ff" points="150.77,-260.25 161.05,-262.79 154.6,-254.39 150.77,-260.25"/>
</g>
<!-- Node8 -->
<g id="node8" class="node">
<title>Node8</title>
<g id="a_node8"><a xlink:href="master_8impl_8h.html" target="_top" xlink:title="Master&#39;s types and basic functions (implementation)">
<polygon fill="white" stroke="#666666" points="192.95,-162 89.95,-162 89.95,-132 192.95,-132 192.95,-162"/>
<text text-anchor="start" x="97.95" y="-150" font-family="Helvetica,sans-Serif" font-size="10.00">include/lightmodbus</text>
<text text-anchor="middle" x="141.45" y="-139" font-family="Helvetica,sans-Serif" font-size="10.00">/master.impl.h</text>
</a>
</g>
</g>
<!-- Node7&#45;&gt;Node8 -->
<g id="edge11" class="edge">
<title>Node7&#45;&gt;Node8</title>
<path fill="none" stroke="#63b8ff" d="M177.71,-252.74C168.4,-225.86 154.01,-184.28 146.46,-162.47"/>
<polygon fill="#63b8ff" stroke="#63b8ff" points="174.39,-253.86 180.97,-262.16 181,-251.57 174.39,-253.86"/>
</g>
<!-- Node7&#45;&gt;Node9 -->
<g id="edge13" class="edge">
<title>Node7&#45;&gt;Node9</title>
<path fill="none" stroke="#63b8ff" d="M213.08,-256.7C224.71,-247.4 238.04,-236.73 248.47,-228.39"/>
<polygon fill="#63b8ff" stroke="#63b8ff" points="211.01,-253.87 205.39,-262.85 215.38,-259.34 211.01,-253.87"/>
</g>
<!-- Node10 -->
<g id="node10" class="node">
<title>Node10</title>
<g id="a_node10"><a xlink:href="master__func_8impl_8h.html" target="_top" xlink:title="Master&#39;s functions for building requests and parsing responses (implementation)">
<polygon fill="white" stroke="#666666" points="313.95,-162 210.95,-162 210.95,-132 313.95,-132 313.95,-162"/>
<text text-anchor="start" x="218.95" y="-150" font-family="Helvetica,sans-Serif" font-size="10.00">include/lightmodbus</text>
<text text-anchor="middle" x="262.45" y="-139" font-family="Helvetica,sans-Serif" font-size="10.00">/master_func.impl.h</text>
</a>
</g>
</g>
<!-- Node7&#45;&gt;Node10 -->
<g id="edge18" class="edge">
<title>Node7&#45;&gt;Node10</title>
<path fill="none" stroke="#63b8ff" d="M188.88,-252.73C191.37,-236.2 196.38,-214.66 206.45,-198 215.08,-183.72 229.08,-171.22 240.92,-162.29"/>
<polygon fill="#63b8ff" stroke="#63b8ff" points="185.46,-251.87 187.67,-262.24 192.4,-252.76 185.46,-251.87"/>
</g>
<!-- Node8&#45;&gt;Node3 -->
<g id="edge12" class="edge">
<title>Node8&#45;&gt;Node3</title>
<path fill="none" stroke="#63b8ff" d="M202.02,-128.38C236.61,-118.32 279.43,-105.86 311.98,-96.39"/>
<polygon fill="#63b8ff" stroke="#63b8ff" points="201.18,-124.98 192.55,-131.13 203.13,-131.7 201.18,-124.98"/>
</g>
<!-- Node9&#45;&gt;Node3 -->
<g id="edge14" class="edge">
<title>Node9&#45;&gt;Node3</title>
<path fill="none" stroke="#63b8ff" d="M295.45,-190.51C305.18,-182.34 315.55,-172.45 323.45,-162 339.12,-141.27 350.66,-113.04 356.7,-96.26"/>
<polygon fill="#63b8ff" stroke="#63b8ff" points="293.54,-187.55 287.96,-196.56 297.94,-193 293.54,-187.55"/>
</g>
<!-- Node9&#45;&gt;Node8 -->
<g id="edge15" class="edge">
<title>Node9&#45;&gt;Node8</title>
<path fill="none" stroke="#63b8ff" d="M228.27,-192.45C209.29,-182.73 186.76,-171.2 169.41,-162.31"/>
<polygon fill="#63b8ff" stroke="#63b8ff" points="226.56,-195.51 237.05,-196.95 229.75,-189.27 226.56,-195.51"/>
</g>
<!-- Node9&#45;&gt;Node10 -->
<g id="edge16" class="edge">
<title>Node9&#45;&gt;Node10</title>
<path fill="none" stroke="#63b8ff" d="M264.85,-186.39C264.33,-178.13 263.78,-169.28 263.34,-162.16"/>
<polygon fill="#63b8ff" stroke="#63b8ff" points="261.35,-186.52 265.47,-196.29 268.34,-186.09 261.35,-186.52"/>
</g>
<!-- Node10&#45;&gt;Node3 -->
<g id="edge17" class="edge">
<title>Node10&#45;&gt;Node3</title>
<path fill="none" stroke="#63b8ff" d="M293.7,-125.8C308.48,-116.24 325.78,-105.06 339.2,-96.39"/>
<polygon fill="#63b8ff" stroke="#63b8ff" points="292.19,-122.61 285.69,-130.97 295.99,-128.48 292.19,-122.61"/>
</g>
<!-- Node11&#45;&gt;Node3 -->
<g id="edge22" class="edge">
<title>Node11&#45;&gt;Node3</title>
<path fill="none" stroke="#63b8ff" d="M559.93,-252.7C559.13,-220.46 552.85,-164.95 521.45,-132 493.44,-102.61 448.45,-90.4 413.3,-85.38"/>
<polygon fill="#63b8ff" stroke="#63b8ff" points="556.42,-252.33 559.99,-262.31 563.42,-252.29 556.42,-252.33"/>
</g>
<!-- Node11&#45;&gt;Node5 -->
<g id="edge21" class="edge">
<title>Node11&#45;&gt;Node5</title>
<path fill="none" stroke="#63b8ff" d="M518.79,-258.72C498.17,-248.95 473.56,-237.28 454.65,-228.31"/>
<polygon fill="#63b8ff" stroke="#63b8ff" points="517.25,-261.87 527.79,-262.99 520.25,-255.54 517.25,-261.87"/>
</g>
<!-- Node12 -->
<g id="node12" class="node">
<title>Node12</title>
<g id="a_node12"><a xlink:href="slave_8impl_8h.html" target="_top" xlink:title="Slave&#39;s types and basic functions (implementation)">
<polygon fill="white" stroke="#666666" points="792.95,-162 689.95,-162 689.95,-132 792.95,-132 792.95,-162"/>
<text text-anchor="start" x="697.95" y="-150" font-family="Helvetica,sans-Serif" font-size="10.00">include/lightmodbus</text>
<text text-anchor="middle" x="741.45" y="-139" font-family="Helvetica,sans-Serif" font-size="10.00">/slave.impl.h</text>
</a>
</g>
</g>
<!-- Node11&#45;&gt;Node12 -->
<g id="edge23" class="edge">
<title>Node11&#45;&gt;Node12</title>
<path fill="none" stroke="#63b8ff" d="M579.65,-255.25C598.06,-234.86 624.19,-206.84 636.45,-198 656.76,-183.36 682.03,-171.17 702.69,-162.5"/>
<polygon fill="#63b8ff" stroke="#63b8ff" points="577.14,-252.81 573.07,-262.59 582.35,-257.48 577.14,-252.81"/>
</g>
<!-- Node11&#45;&gt;Node13 -->
<g id="edge25" class="edge">
<title>Node11&#45;&gt;Node13</title>
<path fill="none" stroke="#63b8ff" d="M600.43,-258.86C621.41,-249.05 646.53,-237.32 665.81,-228.31"/>
<polygon fill="#63b8ff" stroke="#63b8ff" points="599.15,-255.59 591.57,-263 602.11,-261.94 599.15,-255.59"/>
</g>
<!-- Node14 -->
<g id="node14" class="node">
<title>Node14</title>
<g id="a_node14"><a xlink:href="slave__func_8impl_8h.html" target="_top" xlink:title="Slave&#39;s functions for parsing requests (implementation)">
<polygon fill="white" stroke="#666666" points="671.95,-162 568.95,-162 568.95,-132 671.95,-132 671.95,-162"/>
<text text-anchor="start" x="576.95" y="-150" font-family="Helvetica,sans-Serif" font-size="10.00">include/lightmodbus</text>
<text text-anchor="middle" x="620.45" y="-139" font-family="Helvetica,sans-Serif" font-size="10.00">/slave_func.impl.h</text>
</a>
</g>
</g>
<!-- Node11&#45;&gt;Node14 -->
<g id="edge30" class="edge">
<title>Node11&#45;&gt;Node14</title>
<path fill="none" stroke="#63b8ff" d="M570.97,-253.46C583.56,-226.61 603.34,-184.48 613.66,-162.47"/>
<polygon fill="#63b8ff" stroke="#63b8ff" points="567.93,-251.68 566.85,-262.22 574.27,-254.65 567.93,-251.68"/>
</g>
<!-- Node12&#45;&gt;Node3 -->
<g id="edge24" class="edge">
<title>Node12&#45;&gt;Node3</title>
<path fill="none" stroke="#63b8ff" d="M678.37,-131.48C579.41,-112.54 474.35,-97.28 413.2,-88.88"/>
<polygon fill="#63b8ff" stroke="#63b8ff" points="677.5,-134.87 687.98,-133.33 678.83,-128 677.5,-134.87"/>
</g>
<!-- Node13&#45;&gt;Node3 -->
<g id="edge26" class="edge">
<title>Node13&#45;&gt;Node3</title>
<path fill="none" stroke="#63b8ff" d="M752.75,-193.48C788.59,-178.78 824.47,-156.65 802.45,-132 776.89,-103.37 523.97,-89.02 413.09,-84.06"/>
<polygon fill="#63b8ff" stroke="#63b8ff" points="751.64,-190.16 743.6,-197.06 754.19,-196.68 751.64,-190.16"/>
</g>
<!-- Node13&#45;&gt;Node12 -->
<g id="edge27" class="edge">
<title>Node13&#45;&gt;Node12</title>
<path fill="none" stroke="#63b8ff" d="M713.05,-188.39C719.24,-179.59 726.08,-169.86 731.49,-162.16"/>
<polygon fill="#63b8ff" stroke="#63b8ff" points="710.2,-186.36 707.31,-196.56 715.92,-190.39 710.2,-186.36"/>
</g>
<!-- Node13&#45;&gt;Node14 -->
<g id="edge28" class="edge">
<title>Node13&#45;&gt;Node14</title>
<path fill="none" stroke="#63b8ff" d="M670.83,-190.42C659.86,-181.18 647.34,-170.65 637.53,-162.39"/>
<polygon fill="#63b8ff" stroke="#63b8ff" points="668.52,-193.06 678.43,-196.82 673.03,-187.7 668.52,-193.06"/>
</g>
<!-- Node14&#45;&gt;Node3 -->
<g id="edge29" class="edge">
<title>Node14&#45;&gt;Node3</title>
<path fill="none" stroke="#63b8ff" d="M557.73,-130.5C513.42,-119.55 454.77,-105.06 413.15,-94.78"/>
<polygon fill="#63b8ff" stroke="#63b8ff" points="556.64,-133.84 567.19,-132.84 558.32,-127.04 556.64,-133.84"/>
</g>
</g>
</svg>
