<?xml version="1.0" encoding="UTF-8" standalone="no"?>
<!DOCTYPE svg PUBLIC "-//W3C//DTD SVG 1.1//EN"
 "http://www.w3.org/Graphics/SVG/1.1/DTD/svg11.dtd">
<!-- Generated by graphviz version 7.0.5 (20221223.1930)
 -->
<!-- Title: include/lightmodbus/debug.h Pages: 1 -->
<svg width="151pt" height="236pt"
 viewBox="0.00 0.00 151.00 236.00" xmlns="http://www.w3.org/2000/svg" xmlns:xlink="http://www.w3.org/1999/xlink">
<g id="graph0" class="graph" transform="scale(1 1) rotate(0) translate(4 232)">
<title>include/lightmodbus/debug.h</title>
<!-- Node1 -->
<g id="node1" class="node">
<title>Node1</title>
<g id="a_node1"><a xlink:title="Debug utilities (header)">
<polygon fill="#999999" stroke="#666666" points="143,-228 40,-228 40,-198 143,-198 143,-228"/>
<text text-anchor="start" x="48" y="-216" font-family="Helvetica,sans-Serif" font-size="10.00">include/lightmodbus</text>
<text text-anchor="middle" x="91.5" y="-205" font-family="Helvetica,sans-Serif" font-size="10.00">/debug.h</text>
</a>
</g>
</g>
<!-- Node2 -->
<g id="node2" class="node">
<title>Node2</title>
<g id="a_node2"><a xlink:href="debug_8impl_8h.html" target="_top" xlink:title="Debug utilities (implementation)">
<polygon fill="white" stroke="#666666" points="103,-162 0,-162 0,-132 103,-132 103,-162"/>
<text text-anchor="start" x="8" y="-150" font-family="Helvetica,sans-Serif" font-size="10.00">include/lightmodbus</text>
<text text-anchor="middle" x="51.5" y="-139" font-family="Helvetica,sans-Serif" font-size="10.00">/debug.impl.h</text>
</a>
</g>
</g>
<!-- Node1&#45;&gt;Node2 -->
<g id="edge1" class="edge">
<title>Node1&#45;&gt;Node2</title>
<path fill="none" stroke="#63b8ff" d="M76.57,-188.11C71.11,-179.38 65.11,-169.78 60.35,-162.16"/>
<polygon fill="#63b8ff" stroke="#63b8ff" points="73.55,-189.89 81.82,-196.51 79.49,-186.18 73.55,-189.89"/>
</g>
<!-- Node3 -->
<g id="node3" class="node">
<title>Node3</title>
<g id="a_node3"><a xlink:href="lightmodbus_8h.html" target="_top" xlink:title="The main library header file (include this one)">
<polygon fill="white" stroke="#666666" points="143,-96 40,-96 40,-66 143,-66 143,-96"/>
<text text-anchor="start" x="48" y="-84" font-family="Helvetica,sans-Serif" font-size="10.00">include/lightmodbus</text>
<text text-anchor="middle" x="91.5" y="-73" font-family="Helvetica,sans-Serif" font-size="10.00">/lightmodbus.h</text>
</a>
</g>
</g>
<!-- Node1&#45;&gt;Node3 -->
<g id="edge4" class="edge">
<title>Node1&#45;&gt;Node3</title>
<path fill="none" stroke="#63b8ff" d="M104.16,-187.3C107.57,-179.42 110.78,-170.53 112.5,-162 115.13,-148.93 115.13,-145.07 112.5,-132 109.97,-119.45 104.2,-106.12 99.35,-96.39"/>
<polygon fill="#63b8ff" stroke="#63b8ff" points="101.04,-185.7 99.99,-196.24 107.39,-188.66 101.04,-185.7"/>
</g>
<!-- Node2&#45;&gt;Node3 -->
<g id="edge2" class="edge">
<title>Node2&#45;&gt;Node3</title>
<path fill="none" stroke="#63b8ff" d="M66.43,-122.11C71.89,-113.38 77.89,-103.78 82.65,-96.16"/>
<polygon fill="#63b8ff" stroke="#63b8ff" points="63.51,-120.18 61.18,-130.51 69.45,-123.89 63.51,-120.18"/>
</g>
<!-- Node4 -->
<g id="node4" class="node">
<title>Node4</title>
<g id="a_node4"><a xlink:href="lightmodbus_8hpp.html" target="_top" xlink:title="(Very) experimental liblightmodbus C++ interface">
<polygon fill="white" stroke="#666666" points="143,-30 40,-30 40,0 143,0 143,-30"/>
<text text-anchor="start" x="48" y="-18" font-family="Helvetica,sans-Serif" font-size="10.00">include/lightmodbus</text>
<text text-anchor="middle" x="91.5" y="-7" font-family="Helvetica,sans-Serif" font-size="10.00">/lightmodbus.hpp</text>
</a>
</g>
</g>
<!-- Node3&#45;&gt;Node4 -->
<g id="edge3" class="edge">
<title>Node3&#45;&gt;Node4</title>
<path fill="none" stroke="#63b8ff" d="M91.5,-54.39C91.5,-46.13 91.5,-37.28 91.5,-30.16"/>
<polygon fill="#63b8ff" stroke="#63b8ff" points="88,-54.28 91.5,-64.28 95,-54.28 88,-54.28"/>
</g>
</g>
</svg>
