<?xml version="1.0" encoding="UTF-8" standalone="no"?>
<!DOCTYPE svg PUBLIC "-//W3C//DTD SVG 1.1//EN"
 "http://www.w3.org/Graphics/SVG/1.1/DTD/svg11.dtd">
<!-- Generated by graphviz version 7.0.5 (20221223.1930)
 -->
<!-- Title: modbusErrorStr Pages: 1 -->
<svg width="244pt" height="113pt"
 viewBox="0.00 0.00 244.00 113.00" xmlns="http://www.w3.org/2000/svg" xmlns:xlink="http://www.w3.org/1999/xlink">
<g id="graph0" class="graph" transform="scale(1 1) rotate(0) translate(4 109)">
<title>modbusErrorStr</title>
<!-- Node1 -->
<g id="node1" class="node">
<title>Node1</title>
<g id="a_node1"><a xlink:title="Returns a string containing the name of the ModbusError value.">
<polygon fill="#999999" stroke="#666666" points="236,-62 152,-62 152,-43 236,-43 236,-62"/>
<text text-anchor="middle" x="194" y="-50" font-family="Helvetica,sans-Serif" font-size="10.00">modbusErrorStr</text>
</a>
</g>
</g>
<!-- Node2 -->
<g id="node2" class="node">
<title>Node2</title>
<g id="a_node2"><a xlink:href="classllm_1_1RequestError.html#a7b7541907d4fea3a7e2dcb438abf9090" target="_top" xlink:title=" ">
<polygon fill="white" stroke="#666666" points="116,-105 0,-105 0,-86 116,-86 116,-105"/>
<text text-anchor="middle" x="58" y="-93" font-family="Helvetica,sans-Serif" font-size="10.00">llm::RequestError::what</text>
</a>
</g>
</g>
<!-- Node1&#45;&gt;Node2 -->
<g id="edge1" class="edge">
<title>Node1&#45;&gt;Node2</title>
<path fill="none" stroke="#63b8ff" d="M151.03,-65.97C131.25,-72.32 108.06,-79.76 89.91,-85.58"/>
<polygon fill="#63b8ff" stroke="#63b8ff" points="152.03,-69.32 160.48,-62.94 149.89,-62.66 152.03,-69.32"/>
</g>
<!-- Node3 -->
<g id="node3" class="node">
<title>Node3</title>
<g id="a_node3"><a xlink:href="classllm_1_1ResponseError.html#aeb25fb1e58b1e063e2134377ec7cfe97" target="_top" xlink:title=" ">
<polygon fill="white" stroke="#666666" points="107,-67.5 9,-67.5 9,-37.5 107,-37.5 107,-67.5"/>
<text text-anchor="start" x="17" y="-55.5" font-family="Helvetica,sans-Serif" font-size="10.00">llm::ResponseError</text>
<text text-anchor="middle" x="58" y="-44.5" font-family="Helvetica,sans-Serif" font-size="10.00">::what</text>
</a>
</g>
</g>
<!-- Node1&#45;&gt;Node3 -->
<g id="edge2" class="edge">
<title>Node1&#45;&gt;Node3</title>
<path fill="none" stroke="#63b8ff" d="M140.23,-52.5C129.42,-52.5 118.1,-52.5 107.45,-52.5"/>
<polygon fill="#63b8ff" stroke="#63b8ff" points="140.19,-56 150.19,-52.5 140.19,-49 140.19,-56"/>
</g>
<!-- Node4 -->
<g id="node4" class="node">
<title>Node4</title>
<g id="a_node4"><a xlink:href="classllm_1_1GeneralError.html#acab0f7922118a949b9f7e91fd5d8bac6" target="_top" xlink:title=" ">
<polygon fill="white" stroke="#666666" points="114.5,-19 1.5,-19 1.5,0 114.5,0 114.5,-19"/>
<text text-anchor="middle" x="58" y="-7" font-family="Helvetica,sans-Serif" font-size="10.00">llm::GeneralError::what</text>
</a>
</g>
</g>
<!-- Node1&#45;&gt;Node4 -->
<g id="edge3" class="edge">
<title>Node1&#45;&gt;Node4</title>
<path fill="none" stroke="#63b8ff" d="M151.03,-39.03C131.25,-32.68 108.06,-25.24 89.91,-19.42"/>
<polygon fill="#63b8ff" stroke="#63b8ff" points="149.89,-42.34 160.48,-42.06 152.03,-35.68 149.89,-42.34"/>
</g>
</g>
</svg>
