<?xml version="1.0" encoding="UTF-8" standalone="no"?>
<!DOCTYPE svg PUBLIC "-//W3C//DTD SVG 1.1//EN"
 "http://www.w3.org/Graphics/SVG/1.1/DTD/svg11.dtd">
<!-- Generated by graphviz version 7.0.5 (20221223.1930)
 -->
<!-- Title: Graphical Class Hierarchy Pages: 1 -->
<svg width="218pt" height="101pt"
 viewBox="0.00 0.00 218.00 101.00" xmlns="http://www.w3.org/2000/svg" xmlns:xlink="http://www.w3.org/1999/xlink">
<g id="graph0" class="graph" transform="scale(1 1) rotate(0) translate(4 97)">
<title>Graphical Class Hierarchy</title>
<!-- Node0 -->
<g id="node1" class="node">
<title>Node0</title>
<g id="a_node1"><a xlink:title=" ">
<polygon fill="#e0e0e0" stroke="#999999" points="76,-56 0,-56 0,-37 76,-37 76,-56"/>
<text text-anchor="middle" x="38" y="-44" font-family="Helvetica,sans-Serif" font-size="10.00">std::exception</text>
</a>
</g>
</g>
<!-- Node1 -->
<g id="node2" class="node">
<title>Node1</title>
<g id="a_node2"><a xlink:href="classllm_1_1GeneralError.html" target="_top" xlink:title="General error exception class.">
<polygon fill="white" stroke="#666666" points="205,-93 117,-93 117,-74 205,-74 205,-93"/>
<text text-anchor="middle" x="161" y="-81" font-family="Helvetica,sans-Serif" font-size="10.00">llm::GeneralError</text>
</a>
</g>
</g>
<!-- Node0&#45;&gt;Node1 -->
<g id="edge1" class="edge">
<title>Node0&#45;&gt;Node1</title>
<path fill="none" stroke="#63b8ff" d="M82.43,-59.78C97.29,-64.32 113.64,-69.32 127.48,-73.56"/>
<polygon fill="#63b8ff" stroke="#63b8ff" points="83.46,-56.44 72.87,-56.86 81.41,-63.13 83.46,-56.44"/>
</g>
<!-- Node2 -->
<g id="node3" class="node">
<title>Node2</title>
<g id="a_node3"><a xlink:href="classllm_1_1RequestError.html" target="_top" xlink:title="Request error exception class.">
<polygon fill="white" stroke="#666666" points="206,-56 116,-56 116,-37 206,-37 206,-56"/>
<text text-anchor="middle" x="161" y="-44" font-family="Helvetica,sans-Serif" font-size="10.00">llm::RequestError</text>
</a>
</g>
</g>
<!-- Node0&#45;&gt;Node2 -->
<g id="edge2" class="edge">
<title>Node0&#45;&gt;Node2</title>
<path fill="none" stroke="#63b8ff" d="M87.77,-46.5C97.04,-46.5 106.7,-46.5 115.82,-46.5"/>
<polygon fill="#63b8ff" stroke="#63b8ff" points="87.8,-43 77.8,-46.5 87.8,-50 87.8,-43"/>
</g>
<!-- Node3 -->
<g id="node4" class="node">
<title>Node3</title>
<g id="a_node4"><a xlink:href="classllm_1_1ResponseError.html" target="_top" xlink:title="Response error exception class.">
<polygon fill="white" stroke="#666666" points="210,-19 112,-19 112,0 210,0 210,-19"/>
<text text-anchor="middle" x="161" y="-7" font-family="Helvetica,sans-Serif" font-size="10.00">llm::ResponseError</text>
</a>
</g>
</g>
<!-- Node0&#45;&gt;Node3 -->
<g id="edge3" class="edge">
<title>Node0&#45;&gt;Node3</title>
<path fill="none" stroke="#63b8ff" d="M82.43,-33.22C97.29,-28.68 113.64,-23.68 127.48,-19.44"/>
<polygon fill="#63b8ff" stroke="#63b8ff" points="81.41,-29.87 72.87,-36.14 83.46,-36.56 81.41,-29.87"/>
</g>
</g>
</svg>
