<?xml version="1.0" encoding="UTF-8" standalone="no"?>
<!DOCTYPE svg PUBLIC "-//W3C//DTD SVG 1.1//EN"
 "http://www.w3.org/Graphics/SVG/1.1/DTD/svg11.dtd">
<!-- Generated by graphviz version 7.0.5 (20221223.1930)
 -->
<!-- Title: include/lightmodbus/lightmodbus.h Pages: 1 -->
<svg width="767pt" height="313pt"
 viewBox="0.00 0.00 766.59 313.00" xmlns="http://www.w3.org/2000/svg" xmlns:xlink="http://www.w3.org/1999/xlink">
<g id="graph0" class="graph" transform="scale(1 1) rotate(0) translate(4 309)">
<title>include/lightmodbus/lightmodbus.h</title>
<!-- Node1 -->
<g id="node1" class="node">
<title>Node1</title>
<g id="a_node1"><a xlink:title="The main library header file (include this one)">
<polygon fill="#999999" stroke="#666666" points="432.63,-305 329.63,-305 329.63,-275 432.63,-275 432.63,-305"/>
<text text-anchor="start" x="337.63" y="-293" font-family="Helvetica,sans-Serif" font-size="10.00">include/lightmodbus</text>
<text text-anchor="middle" x="381.13" y="-282" font-family="Helvetica,sans-Serif" font-size="10.00">/lightmodbus.h</text>
</a>
</g>
</g>
<!-- Node2 -->
<g id="node2" class="node">
<title>Node2</title>
<g id="a_node2"><a xlink:href="base_8h.html" target="_top" xlink:title="Common types and functions (header)">
<polygon fill="white" stroke="#666666" points="437.63,-74 392.63,-74 392.63,-55 437.63,-55 437.63,-74"/>
<text text-anchor="middle" x="415.13" y="-62" font-family="Helvetica,sans-Serif" font-size="10.00">base.h</text>
</a>
</g>
</g>
<!-- Node1&#45;&gt;Node2 -->
<g id="edge1" class="edge">
<title>Node1&#45;&gt;Node2</title>
<path fill="none" stroke="#63b8ff" d="M433.08,-289.76C523,-289.84 701.82,-284.15 741.13,-239 830.24,-136.66 549.18,-84.95 449.12,-70.1"/>
<polygon fill="#63b8ff" stroke="#63b8ff" points="449.75,-66.66 439.35,-68.69 448.75,-73.59 449.75,-66.66"/>
</g>
<!-- Node4 -->
<g id="node4" class="node">
<title>Node4</title>
<g id="a_node4"><a xlink:href="slave_8h.html" target="_top" xlink:title="Slave&#39;s types and basic functions (header)">
<polygon fill="white" stroke="#666666" points="230.63,-129 183.63,-129 183.63,-110 230.63,-110 230.63,-129"/>
<text text-anchor="middle" x="207.13" y="-117" font-family="Helvetica,sans-Serif" font-size="10.00">slave.h</text>
</a>
</g>
</g>
<!-- Node1&#45;&gt;Node4 -->
<g id="edge3" class="edge">
<title>Node1&#45;&gt;Node4</title>
<path fill="none" stroke="#63b8ff" d="M329.43,-285.74C232.6,-279.09 31.76,-262.61 11.13,-239 -40.32,-180.13 102.89,-141.79 172.09,-127.17"/>
<polygon fill="#63b8ff" stroke="#63b8ff" points="172.73,-130.61 181.82,-125.17 171.32,-123.75 172.73,-130.61"/>
</g>
<!-- Node6 -->
<g id="node6" class="node">
<title>Node6</title>
<g id="a_node6"><a xlink:href="slave__func_8h.html" target="_top" xlink:title="Slave&#39;s functions for parsing requests (header)">
<polygon fill="white" stroke="#666666" points="237.63,-184 166.63,-184 166.63,-165 237.63,-165 237.63,-184"/>
<text text-anchor="middle" x="202.13" y="-172" font-family="Helvetica,sans-Serif" font-size="10.00">slave_func.h</text>
</a>
</g>
</g>
<!-- Node1&#45;&gt;Node6 -->
<g id="edge7" class="edge">
<title>Node1&#45;&gt;Node6</title>
<path fill="none" stroke="#63b8ff" d="M329.28,-276.51C303.73,-268.62 273.49,-256.54 250.13,-239 233.93,-226.83 220.54,-207.77 212.06,-193.71"/>
<polygon fill="#63b8ff" stroke="#63b8ff" points="215.32,-192.37 207.31,-185.43 209.25,-195.85 215.32,-192.37"/>
</g>
<!-- Node7 -->
<g id="node7" class="node">
<title>Node7</title>
<g id="a_node7"><a xlink:href="master_8h.html" target="_top" xlink:title="Master&#39;s types and basic functions (header)">
<polygon fill="white" stroke="#666666" points="374.13,-129 320.13,-129 320.13,-110 374.13,-110 374.13,-129"/>
<text text-anchor="middle" x="347.13" y="-117" font-family="Helvetica,sans-Serif" font-size="10.00">master.h</text>
</a>
</g>
</g>
<!-- Node1&#45;&gt;Node7 -->
<g id="edge10" class="edge">
<title>Node1&#45;&gt;Node7</title>
<path fill="none" stroke="#63b8ff" d="M329.23,-274.86C311.45,-267.26 293.46,-255.86 283.13,-239 261.28,-203.33 301.23,-159.64 327.27,-136.56"/>
<polygon fill="#63b8ff" stroke="#63b8ff" points="329.29,-139.44 334.63,-130.29 324.75,-134.11 329.29,-139.44"/>
</g>
<!-- Node8 -->
<g id="node8" class="node">
<title>Node8</title>
<g id="a_node8"><a xlink:href="master__func_8h.html" target="_top" xlink:title="Master&#39;s functions for building requests and parsing responses (header)">
<polygon fill="white" stroke="#666666" points="472.13,-184 394.13,-184 394.13,-165 472.13,-165 472.13,-184"/>
<text text-anchor="middle" x="433.13" y="-172" font-family="Helvetica,sans-Serif" font-size="10.00">master_func.h</text>
</a>
</g>
</g>
<!-- Node1&#45;&gt;Node8 -->
<g id="edge14" class="edge">
<title>Node1&#45;&gt;Node8</title>
<path fill="none" stroke="#63b8ff" d="M432.88,-278.57C454.75,-271.33 478.13,-259.19 491.13,-239 503.09,-220.42 481.84,-202.1 461.78,-189.95"/>
<polygon fill="#63b8ff" stroke="#63b8ff" points="463.62,-186.97 453.19,-185.09 460.17,-193.06 463.62,-186.97"/>
</g>
<!-- Node9 -->
<g id="node9" class="node">
<title>Node9</title>
<g id="a_node9"><a xlink:href="debug_8h.html" target="_top" xlink:title="Debug utilities (header)">
<polygon fill="white" stroke="#666666" points="570.13,-184 520.13,-184 520.13,-165 570.13,-165 570.13,-184"/>
<text text-anchor="middle" x="545.13" y="-172" font-family="Helvetica,sans-Serif" font-size="10.00">debug.h</text>
</a>
</g>
</g>
<!-- Node1&#45;&gt;Node9 -->
<g id="edge17" class="edge">
<title>Node1&#45;&gt;Node9</title>
<path fill="none" stroke="#63b8ff" d="M433.03,-285.5C495.62,-280.08 595.28,-267.17 618.13,-239 634.03,-219.39 606.1,-200.92 580.33,-189.01"/>
<polygon fill="#63b8ff" stroke="#63b8ff" points="581.87,-185.86 571.3,-185.08 579.07,-192.28 581.87,-185.86"/>
</g>
<!-- Node10 -->
<g id="node10" class="node">
<title>Node10</title>
<g id="a_node10"><a xlink:href="base_8impl_8h.html" target="_top" xlink:title="Common types and functions (implementation)">
<polygon fill="white" stroke="#666666" points="731.63,-239 666.63,-239 666.63,-220 731.63,-220 731.63,-239"/>
<text text-anchor="middle" x="699.13" y="-227" font-family="Helvetica,sans-Serif" font-size="10.00">base.impl.h</text>
</a>
</g>
</g>
<!-- Node1&#45;&gt;Node10 -->
<g id="edge20" class="edge">
<title>Node1&#45;&gt;Node10</title>
<path fill="none" stroke="#63b8ff" d="M432.93,-279.47C494.8,-268.09 597.22,-249.25 655.32,-238.56"/>
<polygon fill="#63b8ff" stroke="#63b8ff" points="655.64,-242.06 664.84,-236.81 654.37,-235.18 655.64,-242.06"/>
</g>
<!-- Node12 -->
<g id="node12" class="node">
<title>Node12</title>
<g id="a_node12"><a xlink:href="slave_8impl_8h.html" target="_top" xlink:title="Slave&#39;s types and basic functions (implementation)">
<polygon fill="white" stroke="#666666" points="88.13,-239 20.13,-239 20.13,-220 88.13,-220 88.13,-239"/>
<text text-anchor="middle" x="54.13" y="-227" font-family="Helvetica,sans-Serif" font-size="10.00">slave.impl.h</text>
</a>
</g>
</g>
<!-- Node1&#45;&gt;Node12 -->
<g id="edge23" class="edge">
<title>Node1&#45;&gt;Node12</title>
<path fill="none" stroke="#63b8ff" d="M329.25,-280.2C274.6,-270.86 185.75,-255.45 99.44,-239.4"/>
<polygon fill="#63b8ff" stroke="#63b8ff" points="100.35,-236.01 89.87,-237.62 99.06,-242.89 100.35,-236.01"/>
</g>
<!-- Node13 -->
<g id="node13" class="node">
<title>Node13</title>
<g id="a_node13"><a xlink:href="slave__func_8impl_8h.html" target="_top" xlink:title="Slave&#39;s functions for parsing requests (implementation)">
<polygon fill="white" stroke="#666666" points="198.13,-239 106.13,-239 106.13,-220 198.13,-220 198.13,-239"/>
<text text-anchor="middle" x="152.13" y="-227" font-family="Helvetica,sans-Serif" font-size="10.00">slave_func.impl.h</text>
</a>
</g>
</g>
<!-- Node1&#45;&gt;Node13 -->
<g id="edge26" class="edge">
<title>Node1&#45;&gt;Node13</title>
<path fill="none" stroke="#63b8ff" d="M329.17,-275.73C289.65,-265.63 235.8,-251.87 197.9,-242.19"/>
<polygon fill="#63b8ff" stroke="#63b8ff" points="199.2,-238.91 188.64,-239.83 197.46,-245.69 199.2,-238.91"/>
</g>
<!-- Node14 -->
<g id="node14" class="node">
<title>Node14</title>
<g id="a_node14"><a xlink:href="master_8impl_8h.html" target="_top" xlink:title="Master&#39;s types and basic functions (implementation)">
<polygon fill="white" stroke="#666666" points="366.13,-239 292.13,-239 292.13,-220 366.13,-220 366.13,-239"/>
<text text-anchor="middle" x="329.13" y="-227" font-family="Helvetica,sans-Serif" font-size="10.00">master.impl.h</text>
</a>
</g>
</g>
<!-- Node1&#45;&gt;Node14 -->
<g id="edge29" class="edge">
<title>Node1&#45;&gt;Node14</title>
<path fill="none" stroke="#63b8ff" d="M368.28,-274.54C361.03,-266.39 351.94,-256.16 344.34,-247.61"/>
<polygon fill="#63b8ff" stroke="#63b8ff" points="347.11,-245.46 337.85,-240.31 341.87,-250.11 347.11,-245.46"/>
</g>
<!-- Node15 -->
<g id="node15" class="node">
<title>Node15</title>
<g id="a_node15"><a xlink:href="master__func_8impl_8h.html" target="_top" xlink:title="Master&#39;s functions for building requests and parsing responses (implementation)">
<polygon fill="white" stroke="#666666" points="482.13,-239 384.13,-239 384.13,-220 482.13,-220 482.13,-239"/>
<text text-anchor="middle" x="433.13" y="-227" font-family="Helvetica,sans-Serif" font-size="10.00">master_func.impl.h</text>
</a>
</g>
</g>
<!-- Node1&#45;&gt;Node15 -->
<g id="edge32" class="edge">
<title>Node1&#45;&gt;Node15</title>
<path fill="none" stroke="#63b8ff" d="M393.98,-274.54C401.23,-266.39 410.32,-256.16 417.92,-247.61"/>
<polygon fill="#63b8ff" stroke="#63b8ff" points="420.39,-250.11 424.41,-240.31 415.15,-245.46 420.39,-250.11"/>
</g>
<!-- Node16 -->
<g id="node16" class="node">
<title>Node16</title>
<g id="a_node16"><a xlink:href="debug_8impl_8h.html" target="_top" xlink:title="Debug utilities (implementation)">
<polygon fill="white" stroke="#666666" points="609.63,-239 538.63,-239 538.63,-220 609.63,-220 609.63,-239"/>
<text text-anchor="middle" x="574.13" y="-227" font-family="Helvetica,sans-Serif" font-size="10.00">debug.impl.h</text>
</a>
</g>
</g>
<!-- Node1&#45;&gt;Node16 -->
<g id="edge35" class="edge">
<title>Node1&#45;&gt;Node16</title>
<path fill="none" stroke="#63b8ff" d="M428.84,-274.54C461.15,-264.75 503.36,-251.95 533.96,-242.68"/>
<polygon fill="#63b8ff" stroke="#63b8ff" points="534.66,-246.12 543.21,-239.87 532.63,-239.42 534.66,-246.12"/>
</g>
<!-- Node3 -->
<g id="node3" class="node">
<title>Node3</title>
<g id="a_node3"><a xlink:title=" ">
<polygon fill="#e0e0e0" stroke="#999999" points="371.13,-19 323.13,-19 323.13,0 371.13,0 371.13,-19"/>
<text text-anchor="middle" x="347.13" y="-7" font-family="Helvetica,sans-Serif" font-size="10.00">stdint.h</text>
</a>
</g>
</g>
<!-- Node2&#45;&gt;Node3 -->
<g id="edge2" class="edge">
<title>Node2&#45;&gt;Node3</title>
<path fill="none" stroke="#63b8ff" d="M403.6,-54.51C393.67,-46.77 379.12,-35.43 367.27,-26.2"/>
<polygon fill="#63b8ff" stroke="#63b8ff" points="369.73,-23.68 359.69,-20.29 365.42,-29.2 369.73,-23.68"/>
</g>
<!-- Node4&#45;&gt;Node2 -->
<g id="edge6" class="edge">
<title>Node4&#45;&gt;Node2</title>
<path fill="none" stroke="#63b8ff" d="M230.99,-112.42C267.86,-103.03 338.83,-84.94 381.08,-74.18"/>
<polygon fill="#63b8ff" stroke="#63b8ff" points="381.89,-77.58 390.72,-71.72 380.16,-70.8 381.89,-77.58"/>
</g>
<!-- Node4&#45;&gt;Node3 -->
<g id="edge4" class="edge">
<title>Node4&#45;&gt;Node3</title>
<path fill="none" stroke="#63b8ff" d="M210.89,-109.55C216.94,-96.09 230.02,-70.57 248.13,-55 266.7,-39.04 291.92,-27.82 312.26,-20.63"/>
<polygon fill="#63b8ff" stroke="#63b8ff" points="313.17,-24.02 321.55,-17.53 310.96,-17.38 313.17,-24.02"/>
</g>
<!-- Node5 -->
<g id="node5" class="node">
<title>Node5</title>
<g id="a_node5"><a xlink:title=" ">
<polygon fill="#e0e0e0" stroke="#999999" points="308.63,-74 257.63,-74 257.63,-55 308.63,-55 308.63,-74"/>
<text text-anchor="middle" x="283.13" y="-62" font-family="Helvetica,sans-Serif" font-size="10.00">stddef.h</text>
</a>
</g>
</g>
<!-- Node4&#45;&gt;Node5 -->
<g id="edge5" class="edge">
<title>Node4&#45;&gt;Node5</title>
<path fill="none" stroke="#63b8ff" d="M220.02,-109.51C231.23,-101.7 247.7,-90.21 261.01,-80.93"/>
<polygon fill="#63b8ff" stroke="#63b8ff" points="262.99,-83.81 269.19,-75.22 258.98,-78.07 262.99,-83.81"/>
</g>
<!-- Node6&#45;&gt;Node2 -->
<g id="edge8" class="edge">
<title>Node6&#45;&gt;Node2</title>
<path fill="none" stroke="#63b8ff" d="M216.28,-164.5C236.77,-151.64 276.11,-127.61 311.13,-110 334.33,-98.33 361.31,-86.85 381.98,-78.47"/>
<polygon fill="#63b8ff" stroke="#63b8ff" points="383.07,-81.8 391.05,-74.83 380.46,-75.3 383.07,-81.8"/>
</g>
<!-- Node6&#45;&gt;Node4 -->
<g id="edge9" class="edge">
<title>Node6&#45;&gt;Node4</title>
<path fill="none" stroke="#63b8ff" d="M202.96,-164.75C203.57,-158.27 204.43,-149.16 205.21,-140.9"/>
<polygon fill="#63b8ff" stroke="#63b8ff" points="208.69,-141.23 206.14,-130.95 201.72,-140.58 208.69,-141.23"/>
</g>
<!-- Node7&#45;&gt;Node2 -->
<g id="edge13" class="edge">
<title>Node7&#45;&gt;Node2</title>
<path fill="none" stroke="#63b8ff" d="M358.67,-109.51C368.59,-101.77 383.14,-90.43 394.99,-81.2"/>
<polygon fill="#63b8ff" stroke="#63b8ff" points="396.84,-84.2 402.57,-75.29 392.53,-78.68 396.84,-84.2"/>
</g>
<!-- Node7&#45;&gt;Node3 -->
<g id="edge11" class="edge">
<title>Node7&#45;&gt;Node3</title>
<path fill="none" stroke="#63b8ff" d="M347.13,-109.66C347.13,-92.57 347.13,-54.61 347.13,-30.92"/>
<polygon fill="#63b8ff" stroke="#63b8ff" points="350.63,-30.97 347.13,-20.97 343.63,-30.97 350.63,-30.97"/>
</g>
<!-- Node7&#45;&gt;Node5 -->
<g id="edge12" class="edge">
<title>Node7&#45;&gt;Node5</title>
<path fill="none" stroke="#63b8ff" d="M336.27,-109.51C327.02,-101.85 313.51,-90.66 302.42,-81.47"/>
<polygon fill="#63b8ff" stroke="#63b8ff" points="304.93,-79.01 294.99,-75.32 300.46,-84.4 304.93,-79.01"/>
</g>
<!-- Node8&#45;&gt;Node2 -->
<g id="edge15" class="edge">
<title>Node8&#45;&gt;Node2</title>
<path fill="none" stroke="#63b8ff" d="M431.66,-164.66C428.8,-147.5 422.42,-109.26 418.48,-85.6"/>
<polygon fill="#63b8ff" stroke="#63b8ff" points="421.97,-85.24 416.87,-75.95 415.06,-86.39 421.97,-85.24"/>
</g>
<!-- Node8&#45;&gt;Node7 -->
<g id="edge16" class="edge">
<title>Node8&#45;&gt;Node7</title>
<path fill="none" stroke="#63b8ff" d="M418.54,-164.51C405.61,-156.54 386.49,-144.75 371.28,-135.38"/>
<polygon fill="#63b8ff" stroke="#63b8ff" points="373.14,-132.42 362.79,-130.15 369.47,-138.38 373.14,-132.42"/>
</g>
<!-- Node9&#45;&gt;Node2 -->
<g id="edge18" class="edge">
<title>Node9&#45;&gt;Node2</title>
<path fill="none" stroke="#63b8ff" d="M534.49,-164.66C512.69,-146.55 462.63,-104.96 434.76,-81.81"/>
<polygon fill="#63b8ff" stroke="#63b8ff" points="437.01,-79.13 427.08,-75.43 432.54,-84.51 437.01,-79.13"/>
</g>
<!-- Node9&#45;&gt;Node4 -->
<g id="edge19" class="edge">
<title>Node9&#45;&gt;Node4</title>
<path fill="none" stroke="#63b8ff" d="M519.73,-169.52C459.93,-160.14 310.23,-136.67 242,-125.97"/>
<polygon fill="#63b8ff" stroke="#63b8ff" points="242.92,-122.57 232.5,-124.48 241.84,-129.49 242.92,-122.57"/>
</g>
<!-- Node10&#45;&gt;Node2 -->
<g id="edge21" class="edge">
<title>Node10&#45;&gt;Node2</title>
<path fill="none" stroke="#63b8ff" d="M683.73,-219.52C649.64,-199.66 565.18,-150.55 494.13,-110 476.47,-99.92 456.51,-88.68 441.08,-80.02"/>
<polygon fill="#63b8ff" stroke="#63b8ff" points="442.95,-77.06 432.52,-75.22 439.53,-83.17 442.95,-77.06"/>
</g>
<!-- Node11 -->
<g id="node11" class="node">
<title>Node11</title>
<g id="a_node11"><a xlink:title=" ">
<polygon fill="#e0e0e0" stroke="#999999" points="722.63,-184 675.63,-184 675.63,-165 722.63,-165 722.63,-184"/>
<text text-anchor="middle" x="699.13" y="-172" font-family="Helvetica,sans-Serif" font-size="10.00">stdlib.h</text>
</a>
</g>
</g>
<!-- Node10&#45;&gt;Node11 -->
<g id="edge22" class="edge">
<title>Node10&#45;&gt;Node11</title>
<path fill="none" stroke="#63b8ff" d="M699.13,-219.75C699.13,-213.27 699.13,-204.16 699.13,-195.9"/>
<polygon fill="#63b8ff" stroke="#63b8ff" points="702.63,-195.96 699.13,-185.96 695.63,-195.96 702.63,-195.96"/>
</g>
<!-- Node12&#45;&gt;Node4 -->
<g id="edge24" class="edge">
<title>Node12&#45;&gt;Node4</title>
<path fill="none" stroke="#63b8ff" d="M66.65,-219.66C92.65,-201.31 152.78,-158.87 185.3,-135.91"/>
<polygon fill="#63b8ff" stroke="#63b8ff" points="187.05,-138.96 193.2,-130.33 183.01,-133.24 187.05,-138.96"/>
</g>
<!-- Node12&#45;&gt;Node6 -->
<g id="edge25" class="edge">
<title>Node12&#45;&gt;Node6</title>
<path fill="none" stroke="#63b8ff" d="M79.24,-219.51C103.3,-210.89 139.85,-197.8 166.84,-188.14"/>
<polygon fill="#63b8ff" stroke="#63b8ff" points="167.74,-191.53 175.97,-184.87 165.38,-184.94 167.74,-191.53"/>
</g>
<!-- Node13&#45;&gt;Node4 -->
<g id="edge28" class="edge">
<title>Node13&#45;&gt;Node4</title>
<path fill="none" stroke="#63b8ff" d="M150.85,-219.75C149.4,-206.98 148.27,-182.83 157.13,-165 162.87,-153.45 173.03,-143.55 182.7,-136.04"/>
<polygon fill="#63b8ff" stroke="#63b8ff" points="184.71,-138.91 190.8,-130.24 180.63,-133.22 184.71,-138.91"/>
</g>
<!-- Node13&#45;&gt;Node6 -->
<g id="edge27" class="edge">
<title>Node13&#45;&gt;Node6</title>
<path fill="none" stroke="#63b8ff" d="M160.39,-219.75C167.29,-212.43 177.36,-201.76 185.87,-192.74"/>
<polygon fill="#63b8ff" stroke="#63b8ff" points="188.34,-195.22 192.66,-185.54 183.25,-190.42 188.34,-195.22"/>
</g>
<!-- Node14&#45;&gt;Node7 -->
<g id="edge30" class="edge">
<title>Node14&#45;&gt;Node7</title>
<path fill="none" stroke="#63b8ff" d="M330.6,-219.66C333.46,-202.5 339.84,-164.26 343.78,-140.6"/>
<polygon fill="#63b8ff" stroke="#63b8ff" points="347.2,-141.39 345.39,-130.95 340.29,-140.24 347.2,-141.39"/>
</g>
<!-- Node14&#45;&gt;Node8 -->
<g id="edge31" class="edge">
<title>Node14&#45;&gt;Node8</title>
<path fill="none" stroke="#63b8ff" d="M346.77,-219.51C362.86,-211.31 386.88,-199.07 405.5,-189.58"/>
<polygon fill="#63b8ff" stroke="#63b8ff" points="407.08,-192.7 414.4,-185.05 403.9,-186.47 407.08,-192.7"/>
</g>
<!-- Node15&#45;&gt;Node7 -->
<g id="edge34" class="edge">
<title>Node15&#45;&gt;Node7</title>
<path fill="none" stroke="#63b8ff" d="M421.99,-219.74C411.68,-211.28 396.29,-197.77 385.13,-184 373.87,-170.11 363.62,-152.54 356.61,-139.41"/>
<polygon fill="#63b8ff" stroke="#63b8ff" points="359.73,-137.84 352.03,-130.56 353.51,-141.05 359.73,-137.84"/>
</g>
<!-- Node15&#45;&gt;Node8 -->
<g id="edge33" class="edge">
<title>Node15&#45;&gt;Node8</title>
<path fill="none" stroke="#63b8ff" d="M433.13,-219.75C433.13,-213.27 433.13,-204.16 433.13,-195.9"/>
<polygon fill="#63b8ff" stroke="#63b8ff" points="436.63,-195.96 433.13,-185.96 429.63,-195.96 436.63,-195.96"/>
</g>
<!-- Node16&#45;&gt;Node9 -->
<g id="edge36" class="edge">
<title>Node16&#45;&gt;Node9</title>
<path fill="none" stroke="#63b8ff" d="M569.34,-219.75C565.59,-212.88 560.22,-203.08 555.5,-194.45"/>
<polygon fill="#63b8ff" stroke="#63b8ff" points="558.62,-192.86 550.75,-185.77 552.48,-196.22 558.62,-192.86"/>
</g>
</g>
</svg>
