<?xml version="1.0" encoding="UTF-8" standalone="no"?>
<!DOCTYPE svg PUBLIC "-//W3C//DTD SVG 1.1//EN"
 "http://www.w3.org/Graphics/SVG/1.1/DTD/svg11.dtd">
<!-- Generated by graphviz version 7.0.5 (20221223.1930)
 -->
<!-- Title: include/lightmodbus/lightmodbus.hpp Pages: 1 -->
<svg width="767pt" height="368pt"
 viewBox="0.00 0.00 767.09 368.00" xmlns="http://www.w3.org/2000/svg" xmlns:xlink="http://www.w3.org/1999/xlink">
<g id="graph0" class="graph" transform="scale(1 1) rotate(0) translate(4 364)">
<title>include/lightmodbus/lightmodbus.hpp</title>
<!-- Node1 -->
<g id="node1" class="node">
<title>Node1</title>
<g id="a_node1"><a xlink:title="(Very) experimental liblightmodbus C++ interface">
<polygon fill="#999999" stroke="#666666" points="389.86,-360 286.86,-360 286.86,-330 389.86,-330 389.86,-360"/>
<text text-anchor="start" x="294.86" y="-348" font-family="Helvetica,sans-Serif" font-size="10.00">include/lightmodbus</text>
<text text-anchor="middle" x="338.36" y="-337" font-family="Helvetica,sans-Serif" font-size="10.00">/lightmodbus.hpp</text>
</a>
</g>
</g>
<!-- Node2 -->
<g id="node2" class="node">
<title>Node2</title>
<g id="a_node2"><a xlink:title=" ">
<polygon fill="#e0e0e0" stroke="#999999" points="324.86,-294 265.86,-294 265.86,-275 324.86,-275 324.86,-294"/>
<text text-anchor="middle" x="295.36" y="-282" font-family="Helvetica,sans-Serif" font-size="10.00">stdexcept</text>
</a>
</g>
</g>
<!-- Node1&#45;&gt;Node2 -->
<g id="edge1" class="edge">
<title>Node1&#45;&gt;Node2</title>
<path fill="none" stroke="#63b8ff" d="M327.73,-329.54C321.94,-321.65 314.7,-311.81 308.55,-303.44"/>
<polygon fill="#63b8ff" stroke="#63b8ff" points="311.38,-301.38 302.64,-295.39 305.74,-305.53 311.38,-301.38"/>
</g>
<!-- Node3 -->
<g id="node3" class="node">
<title>Node3</title>
<g id="a_node3"><a xlink:href="lightmodbus_8h.html" target="_top" xlink:title="The main library header file (include this one)">
<polygon fill="white" stroke="#666666" points="419.86,-294 342.86,-294 342.86,-275 419.86,-275 419.86,-294"/>
<text text-anchor="middle" x="381.36" y="-282" font-family="Helvetica,sans-Serif" font-size="10.00">lightmodbus.h</text>
</a>
</g>
</g>
<!-- Node1&#45;&gt;Node3 -->
<g id="edge2" class="edge">
<title>Node1&#45;&gt;Node3</title>
<path fill="none" stroke="#63b8ff" d="M348.99,-329.54C354.79,-321.65 362.02,-311.81 368.18,-303.44"/>
<polygon fill="#63b8ff" stroke="#63b8ff" points="370.99,-305.53 374.09,-295.39 365.35,-301.38 370.99,-305.53"/>
</g>
<!-- Node4 -->
<g id="node4" class="node">
<title>Node4</title>
<g id="a_node4"><a xlink:href="base_8h.html" target="_top" xlink:title="Common types and functions (header)">
<polygon fill="white" stroke="#666666" points="437.86,-74 392.86,-74 392.86,-55 437.86,-55 437.86,-74"/>
<text text-anchor="middle" x="415.36" y="-62" font-family="Helvetica,sans-Serif" font-size="10.00">base.h</text>
</a>
</g>
</g>
<!-- Node3&#45;&gt;Node4 -->
<g id="edge3" class="edge">
<title>Node3&#45;&gt;Node4</title>
<path fill="none" stroke="#63b8ff" d="M420.18,-281.56C508.86,-276.72 720.33,-262.8 741.36,-239 831.24,-137.33 549.68,-85.18 449.42,-70.16"/>
<polygon fill="#63b8ff" stroke="#63b8ff" points="450.03,-66.72 439.63,-68.73 449.02,-73.64 450.03,-66.72"/>
</g>
<!-- Node6 -->
<g id="node6" class="node">
<title>Node6</title>
<g id="a_node6"><a xlink:href="slave_8h.html" target="_top" xlink:title="Slave&#39;s types and basic functions (header)">
<polygon fill="white" stroke="#666666" points="230.86,-129 183.86,-129 183.86,-110 230.86,-110 230.86,-129"/>
<text text-anchor="middle" x="207.36" y="-117" font-family="Helvetica,sans-Serif" font-size="10.00">slave.h</text>
</a>
</g>
</g>
<!-- Node3&#45;&gt;Node6 -->
<g id="edge5" class="edge">
<title>Node3&#45;&gt;Node6</title>
<path fill="none" stroke="#63b8ff" d="M342.36,-276.38C339.32,-275.89 336.3,-275.42 333.36,-275 262.1,-264.72 59.36,-292.67 11.36,-239 -40.76,-180.72 102.81,-142.06 172.21,-127.26"/>
<polygon fill="#63b8ff" stroke="#63b8ff" points="172.9,-130.7 181.98,-125.24 171.48,-123.84 172.9,-130.7"/>
</g>
<!-- Node8 -->
<g id="node8" class="node">
<title>Node8</title>
<g id="a_node8"><a xlink:href="slave__func_8h.html" target="_top" xlink:title="Slave&#39;s functions for parsing requests (header)">
<polygon fill="white" stroke="#666666" points="237.86,-184 166.86,-184 166.86,-165 237.86,-165 237.86,-184"/>
<text text-anchor="middle" x="202.36" y="-172" font-family="Helvetica,sans-Serif" font-size="10.00">slave_func.h</text>
</a>
</g>
</g>
<!-- Node3&#45;&gt;Node8 -->
<g id="edge9" class="edge">
<title>Node3&#45;&gt;Node8</title>
<path fill="none" stroke="#63b8ff" d="M342.43,-276.63C314.77,-270.31 277.82,-258.83 250.36,-239 233.94,-227.14 220.58,-208.03 212.17,-193.87"/>
<polygon fill="#63b8ff" stroke="#63b8ff" points="215.43,-192.53 207.47,-185.53 209.33,-195.96 215.43,-192.53"/>
</g>
<!-- Node9 -->
<g id="node9" class="node">
<title>Node9</title>
<g id="a_node9"><a xlink:href="master_8h.html" target="_top" xlink:title="Master&#39;s types and basic functions (header)">
<polygon fill="white" stroke="#666666" points="374.36,-129 320.36,-129 320.36,-110 374.36,-110 374.36,-129"/>
<text text-anchor="middle" x="347.36" y="-117" font-family="Helvetica,sans-Serif" font-size="10.00">master.h</text>
</a>
</g>
</g>
<!-- Node3&#45;&gt;Node9 -->
<g id="edge12" class="edge">
<title>Node3&#45;&gt;Node9</title>
<path fill="none" stroke="#63b8ff" d="M342.58,-276.47C321.2,-270.41 296.42,-259.26 283.36,-239 260.71,-203.83 300.98,-159.94 327.28,-136.7"/>
<polygon fill="#63b8ff" stroke="#63b8ff" points="329.38,-139.51 334.73,-130.37 324.84,-134.18 329.38,-139.51"/>
</g>
<!-- Node10 -->
<g id="node10" class="node">
<title>Node10</title>
<g id="a_node10"><a xlink:href="master__func_8h.html" target="_top" xlink:title="Master&#39;s functions for building requests and parsing responses (header)">
<polygon fill="white" stroke="#666666" points="472.36,-184 394.36,-184 394.36,-165 472.36,-165 472.36,-184"/>
<text text-anchor="middle" x="433.36" y="-172" font-family="Helvetica,sans-Serif" font-size="10.00">master_func.h</text>
</a>
</g>
</g>
<!-- Node3&#45;&gt;Node10 -->
<g id="edge16" class="edge">
<title>Node3&#45;&gt;Node10</title>
<path fill="none" stroke="#63b8ff" d="M420.35,-278.76C445.19,-273.5 475.59,-262.4 491.36,-239 503.72,-220.68 482.4,-202.32 462.22,-190.09"/>
<polygon fill="#63b8ff" stroke="#63b8ff" points="464,-187.07 453.57,-185.19 460.55,-193.16 464,-187.07"/>
</g>
<!-- Node11 -->
<g id="node11" class="node">
<title>Node11</title>
<g id="a_node11"><a xlink:href="debug_8h.html" target="_top" xlink:title="Debug utilities (header)">
<polygon fill="white" stroke="#666666" points="570.36,-184 520.36,-184 520.36,-165 570.36,-165 570.36,-184"/>
<text text-anchor="middle" x="545.36" y="-172" font-family="Helvetica,sans-Serif" font-size="10.00">debug.h</text>
</a>
</g>
</g>
<!-- Node3&#45;&gt;Node11 -->
<g id="edge19" class="edge">
<title>Node3&#45;&gt;Node11</title>
<path fill="none" stroke="#63b8ff" d="M420.24,-282.01C480.88,-278.77 593.64,-268.8 618.36,-239 634.58,-219.46 606.19,-200.85 580.22,-188.89"/>
<polygon fill="#63b8ff" stroke="#63b8ff" points="581.7,-185.72 571.13,-184.95 578.91,-192.14 581.7,-185.72"/>
</g>
<!-- Node12 -->
<g id="node12" class="node">
<title>Node12</title>
<g id="a_node12"><a xlink:href="base_8impl_8h.html" target="_top" xlink:title="Common types and functions (implementation)">
<polygon fill="white" stroke="#666666" points="731.86,-239 666.86,-239 666.86,-220 731.86,-220 731.86,-239"/>
<text text-anchor="middle" x="699.36" y="-227" font-family="Helvetica,sans-Serif" font-size="10.00">base.impl.h</text>
</a>
</g>
</g>
<!-- Node3&#45;&gt;Node12 -->
<g id="edge22" class="edge">
<title>Node3&#45;&gt;Node12</title>
<path fill="none" stroke="#63b8ff" d="M419.99,-277.36C472.59,-268.95 569.67,-253.27 652.36,-239 653.36,-238.83 654.38,-238.65 655.4,-238.47"/>
<polygon fill="#63b8ff" stroke="#63b8ff" points="655.78,-241.96 665.02,-236.78 654.56,-235.07 655.78,-241.96"/>
</g>
<!-- Node14 -->
<g id="node14" class="node">
<title>Node14</title>
<g id="a_node14"><a xlink:href="slave_8impl_8h.html" target="_top" xlink:title="Slave&#39;s types and basic functions (implementation)">
<polygon fill="white" stroke="#666666" points="88.36,-239 20.36,-239 20.36,-220 88.36,-220 88.36,-239"/>
<text text-anchor="middle" x="54.36" y="-227" font-family="Helvetica,sans-Serif" font-size="10.00">slave.impl.h</text>
</a>
</g>
</g>
<!-- Node3&#45;&gt;Node14 -->
<g id="edge25" class="edge">
<title>Node3&#45;&gt;Node14</title>
<path fill="none" stroke="#63b8ff" d="M342.6,-276.55C339.48,-276.02 336.37,-275.5 333.36,-275 232.25,-258.34 203.8,-257.34 99.92,-239.38"/>
<polygon fill="#63b8ff" stroke="#63b8ff" points="100.55,-235.94 90.1,-237.67 99.35,-242.83 100.55,-235.94"/>
</g>
<!-- Node15 -->
<g id="node15" class="node">
<title>Node15</title>
<g id="a_node15"><a xlink:href="slave__func_8impl_8h.html" target="_top" xlink:title="Slave&#39;s functions for parsing requests (implementation)">
<polygon fill="white" stroke="#666666" points="198.36,-239 106.36,-239 106.36,-220 198.36,-220 198.36,-239"/>
<text text-anchor="middle" x="152.36" y="-227" font-family="Helvetica,sans-Serif" font-size="10.00">slave_func.impl.h</text>
</a>
</g>
</g>
<!-- Node3&#45;&gt;Node15 -->
<g id="edge28" class="edge">
<title>Node3&#45;&gt;Node15</title>
<path fill="none" stroke="#63b8ff" d="M342.52,-274.51C303.83,-265.55 244.28,-251.77 202.14,-242.02"/>
<polygon fill="#63b8ff" stroke="#63b8ff" points="203.02,-238.63 192.49,-239.79 201.45,-245.45 203.02,-238.63"/>
</g>
<!-- Node16 -->
<g id="node16" class="node">
<title>Node16</title>
<g id="a_node16"><a xlink:href="master_8impl_8h.html" target="_top" xlink:title="Master&#39;s types and basic functions (implementation)">
<polygon fill="white" stroke="#666666" points="366.36,-239 292.36,-239 292.36,-220 366.36,-220 366.36,-239"/>
<text text-anchor="middle" x="329.36" y="-227" font-family="Helvetica,sans-Serif" font-size="10.00">master.impl.h</text>
</a>
</g>
</g>
<!-- Node3&#45;&gt;Node16 -->
<g id="edge31" class="edge">
<title>Node3&#45;&gt;Node16</title>
<path fill="none" stroke="#63b8ff" d="M372.78,-274.75C365.52,-267.35 354.91,-256.54 346,-247.45"/>
<polygon fill="#63b8ff" stroke="#63b8ff" points="348.7,-245.21 339.2,-240.52 343.7,-250.11 348.7,-245.21"/>
</g>
<!-- Node17 -->
<g id="node17" class="node">
<title>Node17</title>
<g id="a_node17"><a xlink:href="master__func_8impl_8h.html" target="_top" xlink:title="Master&#39;s functions for building requests and parsing responses (implementation)">
<polygon fill="white" stroke="#666666" points="482.36,-239 384.36,-239 384.36,-220 482.36,-220 482.36,-239"/>
<text text-anchor="middle" x="433.36" y="-227" font-family="Helvetica,sans-Serif" font-size="10.00">master_func.impl.h</text>
</a>
</g>
</g>
<!-- Node3&#45;&gt;Node17 -->
<g id="edge34" class="edge">
<title>Node3&#45;&gt;Node17</title>
<path fill="none" stroke="#63b8ff" d="M389.95,-274.75C397.21,-267.35 407.82,-256.54 416.73,-247.45"/>
<polygon fill="#63b8ff" stroke="#63b8ff" points="419.03,-250.11 423.53,-240.52 414.03,-245.21 419.03,-250.11"/>
</g>
<!-- Node18 -->
<g id="node18" class="node">
<title>Node18</title>
<g id="a_node18"><a xlink:href="debug_8impl_8h.html" target="_top" xlink:title="Debug utilities (implementation)">
<polygon fill="white" stroke="#666666" points="609.86,-239 538.86,-239 538.86,-220 609.86,-220 609.86,-239"/>
<text text-anchor="middle" x="574.36" y="-227" font-family="Helvetica,sans-Serif" font-size="10.00">debug.impl.h</text>
</a>
</g>
</g>
<!-- Node3&#45;&gt;Node18 -->
<g id="edge37" class="edge">
<title>Node3&#45;&gt;Node18</title>
<path fill="none" stroke="#63b8ff" d="M414.1,-274.51C446.23,-265.69 495.41,-252.18 530.81,-242.46"/>
<polygon fill="#63b8ff" stroke="#63b8ff" points="531.61,-245.87 540.33,-239.85 529.76,-239.12 531.61,-245.87"/>
</g>
<!-- Node5 -->
<g id="node5" class="node">
<title>Node5</title>
<g id="a_node5"><a xlink:title=" ">
<polygon fill="#e0e0e0" stroke="#999999" points="371.36,-19 323.36,-19 323.36,0 371.36,0 371.36,-19"/>
<text text-anchor="middle" x="347.36" y="-7" font-family="Helvetica,sans-Serif" font-size="10.00">stdint.h</text>
</a>
</g>
</g>
<!-- Node4&#45;&gt;Node5 -->
<g id="edge4" class="edge">
<title>Node4&#45;&gt;Node5</title>
<path fill="none" stroke="#63b8ff" d="M403.83,-54.51C393.9,-46.77 379.35,-35.43 367.51,-26.2"/>
<polygon fill="#63b8ff" stroke="#63b8ff" points="369.96,-23.68 359.92,-20.29 365.66,-29.2 369.96,-23.68"/>
</g>
<!-- Node6&#45;&gt;Node4 -->
<g id="edge8" class="edge">
<title>Node6&#45;&gt;Node4</title>
<path fill="none" stroke="#63b8ff" d="M231.22,-112.42C268.09,-103.03 339.06,-84.94 381.31,-74.18"/>
<polygon fill="#63b8ff" stroke="#63b8ff" points="382.12,-77.58 390.95,-71.72 380.39,-70.8 382.12,-77.58"/>
</g>
<!-- Node6&#45;&gt;Node5 -->
<g id="edge6" class="edge">
<title>Node6&#45;&gt;Node5</title>
<path fill="none" stroke="#63b8ff" d="M211.12,-109.55C217.17,-96.09 230.25,-70.57 248.36,-55 266.93,-39.04 292.16,-27.82 312.5,-20.63"/>
<polygon fill="#63b8ff" stroke="#63b8ff" points="313.41,-24.02 321.78,-17.53 311.19,-17.38 313.41,-24.02"/>
</g>
<!-- Node7 -->
<g id="node7" class="node">
<title>Node7</title>
<g id="a_node7"><a xlink:title=" ">
<polygon fill="#e0e0e0" stroke="#999999" points="308.86,-74 257.86,-74 257.86,-55 308.86,-55 308.86,-74"/>
<text text-anchor="middle" x="283.36" y="-62" font-family="Helvetica,sans-Serif" font-size="10.00">stddef.h</text>
</a>
</g>
</g>
<!-- Node6&#45;&gt;Node7 -->
<g id="edge7" class="edge">
<title>Node6&#45;&gt;Node7</title>
<path fill="none" stroke="#63b8ff" d="M220.26,-109.51C231.46,-101.7 247.94,-90.21 261.24,-80.93"/>
<polygon fill="#63b8ff" stroke="#63b8ff" points="263.22,-83.81 269.42,-75.22 259.22,-78.07 263.22,-83.81"/>
</g>
<!-- Node8&#45;&gt;Node4 -->
<g id="edge10" class="edge">
<title>Node8&#45;&gt;Node4</title>
<path fill="none" stroke="#63b8ff" d="M216.51,-164.5C237,-151.64 276.34,-127.61 311.36,-110 334.57,-98.33 361.55,-86.85 382.21,-78.47"/>
<polygon fill="#63b8ff" stroke="#63b8ff" points="383.3,-81.8 391.28,-74.83 380.69,-75.3 383.3,-81.8"/>
</g>
<!-- Node8&#45;&gt;Node6 -->
<g id="edge11" class="edge">
<title>Node8&#45;&gt;Node6</title>
<path fill="none" stroke="#63b8ff" d="M203.19,-164.75C203.8,-158.27 204.66,-149.16 205.44,-140.9"/>
<polygon fill="#63b8ff" stroke="#63b8ff" points="208.92,-141.23 206.38,-130.95 201.95,-140.58 208.92,-141.23"/>
</g>
<!-- Node9&#45;&gt;Node4 -->
<g id="edge15" class="edge">
<title>Node9&#45;&gt;Node4</title>
<path fill="none" stroke="#63b8ff" d="M358.9,-109.51C368.83,-101.77 383.38,-90.43 395.22,-81.2"/>
<polygon fill="#63b8ff" stroke="#63b8ff" points="397.07,-84.2 402.81,-75.29 392.77,-78.68 397.07,-84.2"/>
</g>
<!-- Node9&#45;&gt;Node5 -->
<g id="edge13" class="edge">
<title>Node9&#45;&gt;Node5</title>
<path fill="none" stroke="#63b8ff" d="M347.36,-109.66C347.36,-92.57 347.36,-54.61 347.36,-30.92"/>
<polygon fill="#63b8ff" stroke="#63b8ff" points="350.86,-30.97 347.36,-20.97 343.86,-30.97 350.86,-30.97"/>
</g>
<!-- Node9&#45;&gt;Node7 -->
<g id="edge14" class="edge">
<title>Node9&#45;&gt;Node7</title>
<path fill="none" stroke="#63b8ff" d="M336.51,-109.51C327.26,-101.85 313.74,-90.66 302.65,-81.47"/>
<polygon fill="#63b8ff" stroke="#63b8ff" points="305.16,-79.01 295.23,-75.32 300.7,-84.4 305.16,-79.01"/>
</g>
<!-- Node10&#45;&gt;Node4 -->
<g id="edge17" class="edge">
<title>Node10&#45;&gt;Node4</title>
<path fill="none" stroke="#63b8ff" d="M431.89,-164.66C429.03,-147.5 422.66,-109.26 418.71,-85.6"/>
<polygon fill="#63b8ff" stroke="#63b8ff" points="422.2,-85.24 417.11,-75.95 415.3,-86.39 422.2,-85.24"/>
</g>
<!-- Node10&#45;&gt;Node9 -->
<g id="edge18" class="edge">
<title>Node10&#45;&gt;Node9</title>
<path fill="none" stroke="#63b8ff" d="M418.77,-164.51C405.85,-156.54 386.72,-144.75 371.51,-135.38"/>
<polygon fill="#63b8ff" stroke="#63b8ff" points="373.37,-132.42 363.03,-130.15 369.7,-138.38 373.37,-132.42"/>
</g>
<!-- Node11&#45;&gt;Node4 -->
<g id="edge20" class="edge">
<title>Node11&#45;&gt;Node4</title>
<path fill="none" stroke="#63b8ff" d="M534.73,-164.66C512.92,-146.55 462.86,-104.96 435,-81.81"/>
<polygon fill="#63b8ff" stroke="#63b8ff" points="437.24,-79.13 427.31,-75.43 432.77,-84.51 437.24,-79.13"/>
</g>
<!-- Node11&#45;&gt;Node6 -->
<g id="edge21" class="edge">
<title>Node11&#45;&gt;Node6</title>
<path fill="none" stroke="#63b8ff" d="M519.96,-169.52C460.16,-160.14 310.46,-136.67 242.23,-125.97"/>
<polygon fill="#63b8ff" stroke="#63b8ff" points="243.16,-122.57 232.74,-124.48 242.07,-129.49 243.16,-122.57"/>
</g>
<!-- Node12&#45;&gt;Node4 -->
<g id="edge23" class="edge">
<title>Node12&#45;&gt;Node4</title>
<path fill="none" stroke="#63b8ff" d="M683.97,-219.52C649.88,-199.66 565.42,-150.55 494.36,-110 476.7,-99.92 456.75,-88.68 441.31,-80.02"/>
<polygon fill="#63b8ff" stroke="#63b8ff" points="443.19,-77.06 432.75,-75.22 439.76,-83.17 443.19,-77.06"/>
</g>
<!-- Node13 -->
<g id="node13" class="node">
<title>Node13</title>
<g id="a_node13"><a xlink:title=" ">
<polygon fill="#e0e0e0" stroke="#999999" points="722.86,-184 675.86,-184 675.86,-165 722.86,-165 722.86,-184"/>
<text text-anchor="middle" x="699.36" y="-172" font-family="Helvetica,sans-Serif" font-size="10.00">stdlib.h</text>
</a>
</g>
</g>
<!-- Node12&#45;&gt;Node13 -->
<g id="edge24" class="edge">
<title>Node12&#45;&gt;Node13</title>
<path fill="none" stroke="#63b8ff" d="M699.36,-219.75C699.36,-213.27 699.36,-204.16 699.36,-195.9"/>
<polygon fill="#63b8ff" stroke="#63b8ff" points="702.86,-195.96 699.36,-185.96 695.86,-195.96 702.86,-195.96"/>
</g>
<!-- Node14&#45;&gt;Node6 -->
<g id="edge26" class="edge">
<title>Node14&#45;&gt;Node6</title>
<path fill="none" stroke="#63b8ff" d="M66.88,-219.66C92.88,-201.31 153.01,-158.87 185.53,-135.91"/>
<polygon fill="#63b8ff" stroke="#63b8ff" points="187.28,-138.96 193.43,-130.33 183.25,-133.24 187.28,-138.96"/>
</g>
<!-- Node14&#45;&gt;Node8 -->
<g id="edge27" class="edge">
<title>Node14&#45;&gt;Node8</title>
<path fill="none" stroke="#63b8ff" d="M79.47,-219.51C103.53,-210.89 140.09,-197.8 167.08,-188.14"/>
<polygon fill="#63b8ff" stroke="#63b8ff" points="167.97,-191.53 176.2,-184.87 165.61,-184.94 167.97,-191.53"/>
</g>
<!-- Node15&#45;&gt;Node6 -->
<g id="edge30" class="edge">
<title>Node15&#45;&gt;Node6</title>
<path fill="none" stroke="#63b8ff" d="M151.08,-219.75C149.63,-206.98 148.51,-182.83 157.36,-165 163.1,-153.45 173.26,-143.55 182.94,-136.04"/>
<polygon fill="#63b8ff" stroke="#63b8ff" points="184.94,-138.91 191.03,-130.24 180.86,-133.22 184.94,-138.91"/>
</g>
<!-- Node15&#45;&gt;Node8 -->
<g id="edge29" class="edge">
<title>Node15&#45;&gt;Node8</title>
<path fill="none" stroke="#63b8ff" d="M160.62,-219.75C167.53,-212.43 177.59,-201.76 186.1,-192.74"/>
<polygon fill="#63b8ff" stroke="#63b8ff" points="188.57,-195.22 192.89,-185.54 183.48,-190.42 188.57,-195.22"/>
</g>
<!-- Node16&#45;&gt;Node9 -->
<g id="edge32" class="edge">
<title>Node16&#45;&gt;Node9</title>
<path fill="none" stroke="#63b8ff" d="M330.84,-219.66C333.7,-202.5 340.07,-164.26 344.01,-140.6"/>
<polygon fill="#63b8ff" stroke="#63b8ff" points="347.43,-141.39 345.62,-130.95 340.53,-140.24 347.43,-141.39"/>
</g>
<!-- Node16&#45;&gt;Node10 -->
<g id="edge33" class="edge">
<title>Node16&#45;&gt;Node10</title>
<path fill="none" stroke="#63b8ff" d="M347.01,-219.51C363.09,-211.31 387.11,-199.07 405.74,-189.58"/>
<polygon fill="#63b8ff" stroke="#63b8ff" points="407.31,-192.7 414.63,-185.05 404.13,-186.47 407.31,-192.7"/>
</g>
<!-- Node17&#45;&gt;Node9 -->
<g id="edge36" class="edge">
<title>Node17&#45;&gt;Node9</title>
<path fill="none" stroke="#63b8ff" d="M422.22,-219.74C411.91,-211.28 396.53,-197.77 385.36,-184 374.1,-170.11 363.85,-152.54 356.84,-139.41"/>
<polygon fill="#63b8ff" stroke="#63b8ff" points="359.97,-137.84 352.27,-130.56 353.75,-141.05 359.97,-137.84"/>
</g>
<!-- Node17&#45;&gt;Node10 -->
<g id="edge35" class="edge">
<title>Node17&#45;&gt;Node10</title>
<path fill="none" stroke="#63b8ff" d="M433.36,-219.75C433.36,-213.27 433.36,-204.16 433.36,-195.9"/>
<polygon fill="#63b8ff" stroke="#63b8ff" points="436.86,-195.96 433.36,-185.96 429.86,-195.96 436.86,-195.96"/>
</g>
<!-- Node18&#45;&gt;Node11 -->
<g id="edge38" class="edge">
<title>Node18&#45;&gt;Node11</title>
<path fill="none" stroke="#63b8ff" d="M569.57,-219.75C565.82,-212.88 560.46,-203.08 555.73,-194.45"/>
<polygon fill="#63b8ff" stroke="#63b8ff" points="558.85,-192.86 550.98,-185.77 552.71,-196.22 558.85,-192.86"/>
</g>
</g>
</svg>
