<?xml version="1.0" encoding="UTF-8" standalone="no"?>
<!DOCTYPE svg PUBLIC "-//W3C//DTD SVG 1.1//EN"
 "http://www.w3.org/Graphics/SVG/1.1/DTD/svg11.dtd">
<!-- Generated by graphviz version 7.0.5 (20221223.1930)
 -->
<!-- Title: modbusParseResponseRTU Pages: 1 -->
<svg width="432pt" height="82pt"
 viewBox="0.00 0.00 432.00 82.00" xmlns="http://www.w3.org/2000/svg" xmlns:xlink="http://www.w3.org/1999/xlink">
<g id="graph0" class="graph" transform="scale(1 1) rotate(0) translate(4 78)">
<title>modbusParseResponseRTU</title>
<!-- Node1 -->
<g id="node1" class="node">
<title>Node1</title>
<g id="a_node1"><a xlink:title="Parses a Modbus RTU slave response.">
<polygon fill="#999999" stroke="#666666" points="140,-55 0,-55 0,-36 140,-36 140,-55"/>
<text text-anchor="middle" x="70" y="-43" font-family="Helvetica,sans-Serif" font-size="10.00">modbusParseResponseRTU</text>
</a>
</g>
</g>
<!-- Node2 -->
<g id="node2" class="node">
<title>Node2</title>
<g id="a_node2"><a xlink:href="master_8impl_8h.html#ad8e87b7bdda035ea42cacc2241b406e3" target="_top" xlink:title="Parses a PDU section of a slave response.">
<polygon fill="white" stroke="#666666" points="317,-74 176,-74 176,-55 317,-55 317,-74"/>
<text text-anchor="middle" x="246.5" y="-62" font-family="Helvetica,sans-Serif" font-size="10.00">modbusParseResponsePDU</text>
</a>
</g>
</g>
<!-- Node1&#45;&gt;Node2 -->
<g id="edge1" class="edge">
<title>Node1&#45;&gt;Node2</title>
<path fill="none" stroke="#63b8ff" d="M140.47,-53.06C148.35,-53.92 156.43,-54.8 164.45,-55.67"/>
<polygon fill="#63b8ff" stroke="#63b8ff" points="163.88,-59.13 174.2,-56.74 164.63,-52.17 163.88,-59.13"/>
</g>
<!-- Node3 -->
<g id="node3" class="node">
<title>Node3</title>
<g id="a_node3"><a xlink:href="base_8h.html#a4dba88e9baf690b8dafa0fad81eb7d07" target="_top" xlink:title="Unpacks data from a Modbus RTU frame and optionally checks CRC.">
<polygon fill="white" stroke="#666666" points="299,-37 194,-37 194,-18 299,-18 299,-37"/>
<text text-anchor="middle" x="246.5" y="-25" font-family="Helvetica,sans-Serif" font-size="10.00">modbusUnpackRTU</text>
</a>
</g>
</g>
<!-- Node1&#45;&gt;Node3 -->
<g id="edge2" class="edge">
<title>Node1&#45;&gt;Node3</title>
<path fill="none" stroke="#63b8ff" d="M140.47,-38.33C154.35,-36.9 168.87,-35.4 182.52,-34"/>
<polygon fill="#63b8ff" stroke="#63b8ff" points="182.66,-37.5 192.24,-32.99 181.94,-30.54 182.66,-37.5"/>
</g>
<!-- Node4 -->
<g id="node4" class="node">
<title>Node4</title>
<g id="a_node4"><a xlink:href="base_8impl_8h.html#a11346a546b84663cd92cb30f4ffd1393" target="_top" xlink:title="Calculates 16&#45;bit Modbus CRC of provided data.">
<polygon fill="white" stroke="#666666" points="424,-56 353,-56 353,-37 424,-37 424,-56"/>
<text text-anchor="middle" x="388.5" y="-44" font-family="Helvetica,sans-Serif" font-size="10.00">modbusCRC</text>
</a>
</g>
</g>
<!-- Node3&#45;&gt;Node4 -->
<g id="edge3" class="edge">
<title>Node3&#45;&gt;Node4</title>
<path fill="none" stroke="#63b8ff" d="M299.23,-34.52C312.97,-36.39 327.71,-38.39 341.14,-40.21"/>
<polygon fill="#63b8ff" stroke="#63b8ff" points="340.67,-43.68 351.05,-41.55 341.61,-36.74 340.67,-43.68"/>
</g>
<!-- Node5 -->
<g id="node5" class="node">
<title>Node5</title>
<g id="a_node5"><a xlink:href="base_8h.html#a0fc3f293c746d39a93e4c1158f792404" target="_top" xlink:title="Safely reads a little&#45;endian 16&#45;bit word from provided pointer.">
<polygon fill="white" stroke="#666666" points="423.5,-19 353.5,-19 353.5,0 423.5,0 423.5,-19"/>
<text text-anchor="middle" x="388.5" y="-7" font-family="Helvetica,sans-Serif" font-size="10.00">modbusRLE</text>
</a>
</g>
</g>
<!-- Node3&#45;&gt;Node5 -->
<g id="edge4" class="edge">
<title>Node3&#45;&gt;Node5</title>
<path fill="none" stroke="#63b8ff" d="M299.23,-20.85C313.35,-19.03 328.53,-17.08 342.26,-15.32"/>
<polygon fill="#63b8ff" stroke="#63b8ff" points="342.42,-18.83 351.89,-14.08 341.53,-11.88 342.42,-18.83"/>
</g>
</g>
</svg>
