<?xml version="1.0" encoding="UTF-8" standalone="no"?>
<!DOCTYPE svg PUBLIC "-//W3C//DTD SVG 1.1//EN"
 "http://www.w3.org/Graphics/SVG/1.1/DTD/svg11.dtd">
<!-- Generated by graphviz version 7.0.5 (20221223.1930)
 -->
<!-- Title: modbusBuildRequest0506 Pages: 1 -->
<svg width="511pt" height="82pt"
 viewBox="0.00 0.00 511.00 82.00" xmlns="http://www.w3.org/2000/svg" xmlns:xlink="http://www.w3.org/1999/xlink">
<g id="graph0" class="graph" transform="scale(1 1) rotate(0) translate(4 78)">
<title>modbusBuildRequest0506</title>
<!-- Node1 -->
<g id="node1" class="node">
<title>Node1</title>
<g id="a_node1"><a xlink:title="Write single coil/holding register.">
<polygon fill="#999999" stroke="#666666" points="130,-37 0,-37 0,-18 130,-18 130,-37"/>
<text text-anchor="middle" x="65" y="-25" font-family="Helvetica,sans-Serif" font-size="10.00">modbusBuildRequest0506</text>
</a>
</g>
</g>
<!-- Node2 -->
<g id="node2" class="node">
<title>Node2</title>
<g id="a_node2"><a xlink:href="master_8h.html#a004b932b2b69ad0c6649c26d974146b2" target="_top" xlink:title="Allocates memory for the request frame.">
<polygon fill="white" stroke="#666666" points="318,-56 166,-56 166,-37 318,-37 318,-56"/>
<text text-anchor="middle" x="242" y="-44" font-family="Helvetica,sans-Serif" font-size="10.00">modbusMasterAllocateRequest</text>
</a>
</g>
</g>
<!-- Node1&#45;&gt;Node2 -->
<g id="edge1" class="edge">
<title>Node1&#45;&gt;Node2</title>
<path fill="none" stroke="#63b8ff" d="M130.17,-34.47C137.99,-35.32 146.09,-36.2 154.17,-37.07"/>
<polygon fill="#63b8ff" stroke="#63b8ff" points="153.74,-40.55 164.06,-38.15 154.5,-33.59 153.74,-40.55"/>
</g>
<!-- Node5 -->
<g id="node5" class="node">
<title>Node5</title>
<g id="a_node5"><a xlink:href="base_8h.html#a73b9f793bbe67a1968cc8c53a22d4c4b" target="_top" xlink:title="Safely writes a big&#45;endian 16&#45;bit word to provided pointer.">
<polygon fill="white" stroke="#666666" points="278.5,-19 205.5,-19 205.5,0 278.5,0 278.5,-19"/>
<text text-anchor="middle" x="242" y="-7" font-family="Helvetica,sans-Serif" font-size="10.00">modbusWBE</text>
</a>
</g>
</g>
<!-- Node1&#45;&gt;Node5 -->
<g id="edge4" class="edge">
<title>Node1&#45;&gt;Node5</title>
<path fill="none" stroke="#63b8ff" d="M130.17,-20.9C151.27,-18.73 174.33,-16.36 193.92,-14.34"/>
<polygon fill="#63b8ff" stroke="#63b8ff" points="194.22,-17.83 203.81,-13.33 193.5,-10.87 194.22,-17.83"/>
</g>
<!-- Node3 -->
<g id="node3" class="node">
<title>Node3</title>
<g id="a_node3"><a xlink:href="base_8impl_8h.html#a54f7d1db7f58ffd329b1955ad1a66f37" target="_top" xlink:title="Allocates memory to hold Modbus ADU.">
<polygon fill="white" stroke="#666666" points="495,-74 362,-74 362,-55 495,-55 495,-74"/>
<text text-anchor="middle" x="428.5" y="-62" font-family="Helvetica,sans-Serif" font-size="10.00">modbusBufferAllocateADU</text>
</a>
</g>
</g>
<!-- Node2&#45;&gt;Node3 -->
<g id="edge2" class="edge">
<title>Node2&#45;&gt;Node3</title>
<path fill="none" stroke="#63b8ff" d="M318.31,-53.85C328.85,-54.88 339.69,-55.93 350.26,-56.96"/>
<polygon fill="#63b8ff" stroke="#63b8ff" points="349.8,-60.44 360.09,-57.92 350.48,-53.47 349.8,-60.44"/>
</g>
<!-- Node4 -->
<g id="node4" class="node">
<title>Node4</title>
<g id="a_node4"><a xlink:href="master_8h.html#a39dfa809ec99fbff3a4acef1bc543b9f" target="_top" xlink:title="Retreieves the custom context pointer.">
<polygon fill="white" stroke="#666666" points="503,-37 354,-37 354,-18 503,-18 503,-37"/>
<text text-anchor="middle" x="428.5" y="-25" font-family="Helvetica,sans-Serif" font-size="10.00">modbusMasterGetUserPointer</text>
</a>
</g>
</g>
<!-- Node2&#45;&gt;Node4 -->
<g id="edge3" class="edge">
<title>Node2&#45;&gt;Node4</title>
<path fill="none" stroke="#63b8ff" d="M318.31,-38.74C326.23,-37.93 334.33,-37.09 342.35,-36.27"/>
<polygon fill="#63b8ff" stroke="#63b8ff" points="342.53,-39.77 352.12,-35.26 341.81,-32.81 342.53,-39.77"/>
</g>
</g>
</svg>
