<?xml version="1.0" encoding="UTF-8" standalone="no"?>
<!DOCTYPE svg PUBLIC "-//W3C//DTD SVG 1.1//EN"
 "http://www.w3.org/Graphics/SVG/1.1/DTD/svg11.dtd">
<!-- Generated by graphviz version 7.0.5 (20221223.1930)
 -->
<!-- Title: modbusMasterFreeRequest Pages: 1 -->
<svg width="499pt" height="64pt"
 viewBox="0.00 0.00 499.00 64.00" xmlns="http://www.w3.org/2000/svg" xmlns:xlink="http://www.w3.org/1999/xlink">
<g id="graph0" class="graph" transform="scale(1 1) rotate(0) translate(4 60)">
<title>modbusMasterFreeRequest</title>
<!-- Node1 -->
<g id="node1" class="node">
<title>Node1</title>
<g id="a_node1"><a xlink:title="Frees memory allocated for master&#39;s request frame.">
<polygon fill="#999999" stroke="#666666" points="137,-37 0,-37 0,-18 137,-18 137,-37"/>
<text text-anchor="middle" x="68.5" y="-25" font-family="Helvetica,sans-Serif" font-size="10.00">modbusMasterFreeRequest</text>
</a>
</g>
</g>
<!-- Node2 -->
<g id="node2" class="node">
<title>Node2</title>
<g id="a_node2"><a xlink:href="base_8impl_8h.html#a00605b5ebcf90f8035bfaa7a7c039776" target="_top" xlink:title="Frees memory allocated inside the buffer.">
<polygon fill="white" stroke="#666666" points="295.5,-56 199.5,-56 199.5,-37 295.5,-37 295.5,-56"/>
<text text-anchor="middle" x="247.5" y="-44" font-family="Helvetica,sans-Serif" font-size="10.00">modbusBufferFree</text>
</a>
</g>
</g>
<!-- Node1&#45;&gt;Node2 -->
<g id="edge1" class="edge">
<title>Node1&#45;&gt;Node2</title>
<path fill="none" stroke="#63b8ff" d="M137.43,-34.79C153.98,-36.57 171.55,-38.45 187.64,-40.18"/>
<polygon fill="#63b8ff" stroke="#63b8ff" points="187.24,-43.66 197.56,-41.25 187.99,-36.7 187.24,-43.66"/>
</g>
<!-- Node4 -->
<g id="node4" class="node">
<title>Node4</title>
<g id="a_node4"><a xlink:href="master_8h.html#a39dfa809ec99fbff3a4acef1bc543b9f" target="_top" xlink:title="Retreieves the custom context pointer.">
<polygon fill="white" stroke="#666666" points="322,-19 173,-19 173,0 322,0 322,-19"/>
<text text-anchor="middle" x="247.5" y="-7" font-family="Helvetica,sans-Serif" font-size="10.00">modbusMasterGetUserPointer</text>
</a>
</g>
</g>
<!-- Node1&#45;&gt;Node4 -->
<g id="edge3" class="edge">
<title>Node1&#45;&gt;Node4</title>
<path fill="none" stroke="#63b8ff" d="M137.43,-20.59C145.25,-19.8 153.29,-18.98 161.3,-18.16"/>
<polygon fill="#63b8ff" stroke="#63b8ff" points="161.47,-21.66 171.07,-17.17 160.77,-14.7 161.47,-21.66"/>
</g>
<!-- Node3 -->
<g id="node3" class="node">
<title>Node3</title>
<g id="a_node3"><a xlink:href="base_8impl_8h.html#a54f7d1db7f58ffd329b1955ad1a66f37" target="_top" xlink:title="Allocates memory to hold Modbus ADU.">
<polygon fill="white" stroke="#666666" points="491,-56 358,-56 358,-37 491,-37 491,-56"/>
<text text-anchor="middle" x="424.5" y="-44" font-family="Helvetica,sans-Serif" font-size="10.00">modbusBufferAllocateADU</text>
</a>
</g>
</g>
<!-- Node2&#45;&gt;Node3 -->
<g id="edge2" class="edge">
<title>Node2&#45;&gt;Node3</title>
<path fill="none" stroke="#63b8ff" d="M295.86,-46.5C311.47,-46.5 329.26,-46.5 346.49,-46.5"/>
<polygon fill="#63b8ff" stroke="#63b8ff" points="346.2,-50 356.2,-46.5 346.2,-43 346.2,-50"/>
</g>
</g>
</svg>
