<?xml version="1.0" encoding="UTF-8" standalone="no"?>
<!DOCTYPE svg PUBLIC "-//W3C//DTD SVG 1.1//EN"
 "http://www.w3.org/Graphics/SVG/1.1/DTD/svg11.dtd">
<!-- Generated by graphviz version 7.0.5 (20221223.1930)
 -->
<!-- Title: modbusBuildRequest01020304 Pages: 1 -->
<svg width="314pt" height="138pt"
 viewBox="0.00 0.00 314.00 138.00" xmlns="http://www.w3.org/2000/svg" xmlns:xlink="http://www.w3.org/1999/xlink">
<g id="graph0" class="graph" transform="scale(1 1) rotate(0) translate(4 134)">
<title>modbusBuildRequest01020304</title>
<!-- Node1 -->
<g id="node1" class="node">
<title>Node1</title>
<g id="a_node1"><a xlink:title="Read mutiple coils/discrete inputs/holding registers/input registers.">
<polygon fill="#999999" stroke="#666666" points="306,-74 155,-74 155,-55 306,-55 306,-74"/>
<text text-anchor="middle" x="230.5" y="-62" font-family="Helvetica,sans-Serif" font-size="10.00">modbusBuildRequest01020304</text>
</a>
</g>
</g>
<!-- Node2 -->
<g id="node2" class="node">
<title>Node2</title>
<g id="a_node2"><a xlink:href="master__func_8h.html#aadb2b7e2d3ee4fbde22cdf076713d75e" target="_top" xlink:title="Read multiple coils &#45; a wrapper for modbusBuildRequest01020304()">
<polygon fill="white" stroke="#666666" points="119,-130 0,-130 0,-111 119,-111 119,-130"/>
<text text-anchor="middle" x="59.5" y="-118" font-family="Helvetica,sans-Serif" font-size="10.00">modbusBuildRequest01</text>
</a>
</g>
</g>
<!-- Node1&#45;&gt;Node2 -->
<g id="edge1" class="edge">
<title>Node1&#45;&gt;Node2</title>
<path fill="none" stroke="#63b8ff" d="M190.61,-78.22C169.49,-85.59 142.87,-94.72 119,-102.5 110.82,-105.17 101.95,-107.95 93.66,-110.5"/>
<polygon fill="#63b8ff" stroke="#63b8ff" points="191.71,-81.54 200,-74.94 189.4,-74.94 191.71,-81.54"/>
</g>
<!-- Node3 -->
<g id="node3" class="node">
<title>Node3</title>
<g id="a_node3"><a xlink:href="master__func_8h.html#a2a6452a8200d77483254bef08ee2cf8c" target="_top" xlink:title="Read multiple discrete inputs &#45; a wrapper for modbusBuildRequest01020304()">
<polygon fill="white" stroke="#666666" points="119,-93 0,-93 0,-74 119,-74 119,-93"/>
<text text-anchor="middle" x="59.5" y="-81" font-family="Helvetica,sans-Serif" font-size="10.00">modbusBuildRequest02</text>
</a>
</g>
</g>
<!-- Node1&#45;&gt;Node3 -->
<g id="edge2" class="edge">
<title>Node1&#45;&gt;Node3</title>
<path fill="none" stroke="#63b8ff" d="M143.45,-74.17C135.34,-75.09 127.26,-75.99 119.5,-76.87"/>
<polygon fill="#63b8ff" stroke="#63b8ff" points="143.83,-77.65 153.38,-73.06 143.05,-70.7 143.83,-77.65"/>
</g>
<!-- Node4 -->
<g id="node4" class="node">
<title>Node4</title>
<g id="a_node4"><a xlink:href="master__func_8h.html#a1c7ed51c58b1ef42ee176833c7fd0515" target="_top" xlink:title="Read multiple holding registers &#45; a wrapper for modbusBuildRequest01020304()">
<polygon fill="white" stroke="#666666" points="119,-56 0,-56 0,-37 119,-37 119,-56"/>
<text text-anchor="middle" x="59.5" y="-44" font-family="Helvetica,sans-Serif" font-size="10.00">modbusBuildRequest03</text>
</a>
</g>
</g>
<!-- Node1&#45;&gt;Node4 -->
<g id="edge3" class="edge">
<title>Node1&#45;&gt;Node4</title>
<path fill="none" stroke="#63b8ff" d="M143.45,-55.33C135.34,-54.47 127.26,-53.61 119.5,-52.78"/>
<polygon fill="#63b8ff" stroke="#63b8ff" points="143.06,-58.81 153.38,-56.39 143.8,-51.85 143.06,-58.81"/>
</g>
<!-- Node5 -->
<g id="node5" class="node">
<title>Node5</title>
<g id="a_node5"><a xlink:href="master__func_8h.html#a22bf4541196b3e88c0a86861d334e3b1" target="_top" xlink:title="Read multiple input registers &#45; a wrapper for modbusBuildRequest01020304()">
<polygon fill="white" stroke="#666666" points="119,-19 0,-19 0,0 119,0 119,-19"/>
<text text-anchor="middle" x="59.5" y="-7" font-family="Helvetica,sans-Serif" font-size="10.00">modbusBuildRequest04</text>
</a>
</g>
</g>
<!-- Node1&#45;&gt;Node5 -->
<g id="edge4" class="edge">
<title>Node1&#45;&gt;Node5</title>
<path fill="none" stroke="#63b8ff" d="M188.32,-51.07C167.54,-44.3 141.93,-35.96 119,-28.5 109.96,-25.56 100.14,-22.37 91.17,-19.45"/>
<polygon fill="#63b8ff" stroke="#63b8ff" points="186.98,-54.32 197.58,-54.09 189.15,-47.66 186.98,-54.32"/>
</g>
</g>
</svg>
