<?xml version="1.0" encoding="UTF-8" standalone="no"?>
<!DOCTYPE svg PUBLIC "-//W3C//DTD SVG 1.1//EN"
 "http://www.w3.org/Graphics/SVG/1.1/DTD/svg11.dtd">
<!-- Generated by graphviz version 7.0.5 (20221223.1930)
 -->
<!-- Title: modbusBuildRequest15 Pages: 1 -->
<svg width="500pt" height="212pt"
 viewBox="0.00 0.00 500.00 212.00" xmlns="http://www.w3.org/2000/svg" xmlns:xlink="http://www.w3.org/1999/xlink">
<g id="graph0" class="graph" transform="scale(1 1) rotate(0) translate(4 208)">
<title>modbusBuildRequest15</title>
<!-- Node1 -->
<g id="node1" class="node">
<title>Node1</title>
<g id="a_node1"><a xlink:title="Write multiple coils.">
<polygon fill="#999999" stroke="#666666" points="119,-111 0,-111 0,-92 119,-92 119,-111"/>
<text text-anchor="middle" x="59.5" y="-99" font-family="Helvetica,sans-Serif" font-size="10.00">modbusBuildRequest15</text>
</a>
</g>
</g>
<!-- Node2 -->
<g id="node2" class="node">
<title>Node2</title>
<g id="a_node2"><a xlink:href="base_8h.html#af23a50b36bef9c09ac82214a52ff4d58" target="_top" xlink:title="Returns number of bytes necessary to hold given number of bits.">
<polygon fill="white" stroke="#666666" points="283,-204 179,-204 179,-185 283,-185 283,-204"/>
<text text-anchor="middle" x="231" y="-192" font-family="Helvetica,sans-Serif" font-size="10.00">modbusBitsToBytes</text>
</a>
</g>
</g>
<!-- Node1&#45;&gt;Node2 -->
<g id="edge1" class="edge">
<title>Node1&#45;&gt;Node2</title>
<path fill="none" stroke="#63b8ff" d="M69.98,-111.43C85.96,-127.58 119.97,-159.44 155,-176.5 159.02,-178.46 163.26,-180.21 167.6,-181.78"/>
<polygon fill="#63b8ff" stroke="#63b8ff" points="166.5,-185.1 177.09,-184.84 168.65,-178.44 166.5,-185.1"/>
</g>
<!-- Node3 -->
<g id="node3" class="node">
<title>Node3</title>
<g id="a_node3"><a xlink:href="base_8h.html#a61619958551d902c14ab6e51fb842ea0" target="_top" xlink:title="Checks whether provided address range causes an uint16_t overflow.">
<polygon fill="white" stroke="#666666" points="293.5,-167 168.5,-167 168.5,-148 293.5,-148 293.5,-167"/>
<text text-anchor="middle" x="231" y="-155" font-family="Helvetica,sans-Serif" font-size="10.00">modbusCheckRangeU16</text>
</a>
</g>
</g>
<!-- Node1&#45;&gt;Node3 -->
<g id="edge2" class="edge">
<title>Node1&#45;&gt;Node3</title>
<path fill="none" stroke="#63b8ff" d="M82.31,-111.34C101.26,-119.62 129.56,-131.38 155,-139.5 160.74,-141.33 166.78,-143.08 172.84,-144.71"/>
<polygon fill="#63b8ff" stroke="#63b8ff" points="171.67,-148.02 182.23,-147.13 173.42,-141.24 171.67,-148.02"/>
</g>
<!-- Node4 -->
<g id="node4" class="node">
<title>Node4</title>
<g id="a_node4"><a xlink:href="base_8h.html#aff2248343762719cdacf818e4dae3709" target="_top" xlink:title="Reads n&#45;th bit from an array.">
<polygon fill="white" stroke="#666666" points="280,-130 182,-130 182,-111 280,-111 280,-130"/>
<text text-anchor="middle" x="231" y="-118" font-family="Helvetica,sans-Serif" font-size="10.00">modbusMaskRead</text>
</a>
</g>
</g>
<!-- Node1&#45;&gt;Node4 -->
<g id="edge3" class="edge">
<title>Node1&#45;&gt;Node4</title>
<path fill="none" stroke="#63b8ff" d="M119.31,-108.09C135.85,-109.95 153.86,-111.97 170.45,-113.83"/>
<polygon fill="#63b8ff" stroke="#63b8ff" points="169.85,-117.28 180.17,-114.91 170.63,-110.32 169.85,-117.28"/>
</g>
<!-- Node5 -->
<g id="node5" class="node">
<title>Node5</title>
<g id="a_node5"><a xlink:href="base_8h.html#a5d9947eb500e2d0c87491a0adce53c2a" target="_top" xlink:title="Writes n&#45;th bit in an array.">
<polygon fill="white" stroke="#666666" points="280,-93 182,-93 182,-74 280,-74 280,-93"/>
<text text-anchor="middle" x="231" y="-81" font-family="Helvetica,sans-Serif" font-size="10.00">modbusMaskWrite</text>
</a>
</g>
</g>
<!-- Node1&#45;&gt;Node5 -->
<g id="edge4" class="edge">
<title>Node1&#45;&gt;Node5</title>
<path fill="none" stroke="#63b8ff" d="M119.31,-95.25C135.85,-93.5 153.86,-91.59 170.45,-89.82"/>
<polygon fill="#63b8ff" stroke="#63b8ff" points="170.6,-93.33 180.17,-88.79 169.86,-86.37 170.6,-93.33"/>
</g>
<!-- Node6 -->
<g id="node6" class="node">
<title>Node6</title>
<g id="a_node6"><a xlink:href="master_8h.html#a004b932b2b69ad0c6649c26d974146b2" target="_top" xlink:title="Allocates memory for the request frame.">
<polygon fill="white" stroke="#666666" points="307,-56 155,-56 155,-37 307,-37 307,-56"/>
<text text-anchor="middle" x="231" y="-44" font-family="Helvetica,sans-Serif" font-size="10.00">modbusMasterAllocateRequest</text>
</a>
</g>
</g>
<!-- Node1&#45;&gt;Node6 -->
<g id="edge5" class="edge">
<title>Node1&#45;&gt;Node6</title>
<path fill="none" stroke="#63b8ff" d="M84.31,-91.55C103.26,-83.85 130.56,-73.22 155,-65.5 161.89,-63.32 169.19,-61.22 176.44,-59.26"/>
<polygon fill="#63b8ff" stroke="#63b8ff" points="177.07,-62.71 185.85,-56.79 175.29,-55.94 177.07,-62.71"/>
</g>
<!-- Node9 -->
<g id="node9" class="node">
<title>Node9</title>
<g id="a_node9"><a xlink:href="base_8h.html#a73b9f793bbe67a1968cc8c53a22d4c4b" target="_top" xlink:title="Safely writes a big&#45;endian 16&#45;bit word to provided pointer.">
<polygon fill="white" stroke="#666666" points="267.5,-19 194.5,-19 194.5,0 267.5,0 267.5,-19"/>
<text text-anchor="middle" x="231" y="-7" font-family="Helvetica,sans-Serif" font-size="10.00">modbusWBE</text>
</a>
</g>
</g>
<!-- Node1&#45;&gt;Node9 -->
<g id="edge8" class="edge">
<title>Node1&#45;&gt;Node9</title>
<path fill="none" stroke="#63b8ff" d="M70.32,-91.64C86.52,-75.93 120.51,-45.28 155,-28.5 163.77,-24.23 173.59,-20.86 183.17,-18.21"/>
<polygon fill="#63b8ff" stroke="#63b8ff" points="183.91,-21.64 192.76,-15.8 182.21,-14.85 183.91,-21.64"/>
</g>
<!-- Node7 -->
<g id="node7" class="node">
<title>Node7</title>
<g id="a_node7"><a xlink:href="base_8impl_8h.html#a54f7d1db7f58ffd329b1955ad1a66f37" target="_top" xlink:title="Allocates memory to hold Modbus ADU.">
<polygon fill="white" stroke="#666666" points="484,-74 351,-74 351,-55 484,-55 484,-74"/>
<text text-anchor="middle" x="417.5" y="-62" font-family="Helvetica,sans-Serif" font-size="10.00">modbusBufferAllocateADU</text>
</a>
</g>
</g>
<!-- Node6&#45;&gt;Node7 -->
<g id="edge6" class="edge">
<title>Node6&#45;&gt;Node7</title>
<path fill="none" stroke="#63b8ff" d="M307.31,-53.85C317.85,-54.88 328.69,-55.93 339.26,-56.96"/>
<polygon fill="#63b8ff" stroke="#63b8ff" points="338.8,-60.44 349.09,-57.92 339.48,-53.47 338.8,-60.44"/>
</g>
<!-- Node8 -->
<g id="node8" class="node">
<title>Node8</title>
<g id="a_node8"><a xlink:href="master_8h.html#a39dfa809ec99fbff3a4acef1bc543b9f" target="_top" xlink:title="Retreieves the custom context pointer.">
<polygon fill="white" stroke="#666666" points="492,-37 343,-37 343,-18 492,-18 492,-37"/>
<text text-anchor="middle" x="417.5" y="-25" font-family="Helvetica,sans-Serif" font-size="10.00">modbusMasterGetUserPointer</text>
</a>
</g>
</g>
<!-- Node6&#45;&gt;Node8 -->
<g id="edge7" class="edge">
<title>Node6&#45;&gt;Node8</title>
<path fill="none" stroke="#63b8ff" d="M307.31,-38.74C315.23,-37.93 323.33,-37.09 331.35,-36.27"/>
<polygon fill="#63b8ff" stroke="#63b8ff" points="331.53,-39.77 341.12,-35.26 330.81,-32.81 331.53,-39.77"/>
</g>
</g>
</svg>
