<?xml version="1.0" encoding="UTF-8" standalone="no"?>
<!DOCTYPE svg PUBLIC "-//W3C//DTD SVG 1.1//EN"
 "http://www.w3.org/Graphics/SVG/1.1/DTD/svg11.dtd">
<!-- Generated by graphviz version 7.0.5 (20221223.1930)
 -->
<!-- Title: include/lightmodbus/master.h Pages: 1 -->
<svg width="148pt" height="148pt"
 viewBox="0.00 0.00 148.00 148.00" xmlns="http://www.w3.org/2000/svg" xmlns:xlink="http://www.w3.org/1999/xlink">
<g id="graph0" class="graph" transform="scale(1 1) rotate(0) translate(4 144)">
<title>include/lightmodbus/master.h</title>
<!-- Node1 -->
<g id="node1" class="node">
<title>Node1</title>
<g id="a_node1"><a xlink:title="Master&#39;s types and basic functions (header)">
<polygon fill="#999999" stroke="#666666" points="103,-140 0,-140 0,-110 103,-110 103,-140"/>
<text text-anchor="start" x="8" y="-128" font-family="Helvetica,sans-Serif" font-size="10.00">include/lightmodbus</text>
<text text-anchor="middle" x="51.5" y="-117" font-family="Helvetica,sans-Serif" font-size="10.00">/master.h</text>
</a>
</g>
</g>
<!-- Node2 -->
<g id="node2" class="node">
<title>Node2</title>
<g id="a_node2"><a xlink:title=" ">
<polygon fill="#e0e0e0" stroke="#999999" points="81.5,-19 33.5,-19 33.5,0 81.5,0 81.5,-19"/>
<text text-anchor="middle" x="57.5" y="-7" font-family="Helvetica,sans-Serif" font-size="10.00">stdint.h</text>
</a>
</g>
</g>
<!-- Node1&#45;&gt;Node2 -->
<g id="edge1" class="edge">
<title>Node1&#45;&gt;Node2</title>
<path fill="none" stroke="#63b8ff" d="M36.16,-109.57C23.54,-95.87 8.88,-74.52 16.5,-55 20.76,-44.08 29.11,-34.22 37.16,-26.57"/>
<polygon fill="#63b8ff" stroke="#63b8ff" points="39.22,-29.42 44.43,-20.2 34.61,-24.16 39.22,-29.42"/>
</g>
<!-- Node3 -->
<g id="node3" class="node">
<title>Node3</title>
<g id="a_node3"><a xlink:title=" ">
<polygon fill="#e0e0e0" stroke="#999999" points="77,-74 26,-74 26,-55 77,-55 77,-74"/>
<text text-anchor="middle" x="51.5" y="-62" font-family="Helvetica,sans-Serif" font-size="10.00">stddef.h</text>
</a>
</g>
</g>
<!-- Node1&#45;&gt;Node3 -->
<g id="edge2" class="edge">
<title>Node1&#45;&gt;Node3</title>
<path fill="none" stroke="#63b8ff" d="M51.5,-109.54C51.5,-102.34 51.5,-93.53 51.5,-85.68"/>
<polygon fill="#63b8ff" stroke="#63b8ff" points="55,-85.69 51.5,-75.69 48,-85.69 55,-85.69"/>
</g>
<!-- Node4 -->
<g id="node4" class="node">
<title>Node4</title>
<g id="a_node4"><a xlink:href="base_8h.html" target="_top" xlink:title="Common types and functions (header)">
<polygon fill="white" stroke="#666666" points="140,-74 95,-74 95,-55 140,-55 140,-74"/>
<text text-anchor="middle" x="117.5" y="-62" font-family="Helvetica,sans-Serif" font-size="10.00">base.h</text>
</a>
</g>
</g>
<!-- Node1&#45;&gt;Node4 -->
<g id="edge3" class="edge">
<title>Node1&#45;&gt;Node4</title>
<path fill="none" stroke="#63b8ff" d="M67.81,-109.54C77.3,-101.13 89.29,-90.51 99.11,-81.8"/>
<polygon fill="#63b8ff" stroke="#63b8ff" points="101.42,-84.43 106.58,-75.18 96.77,-79.19 101.42,-84.43"/>
</g>
<!-- Node4&#45;&gt;Node2 -->
<g id="edge4" class="edge">
<title>Node4&#45;&gt;Node2</title>
<path fill="none" stroke="#63b8ff" d="M107.32,-54.51C98.74,-46.93 86.23,-35.88 75.9,-26.75"/>
<polygon fill="#63b8ff" stroke="#63b8ff" points="78.47,-24.36 68.66,-20.36 73.84,-29.6 78.47,-24.36"/>
</g>
</g>
</svg>
