<?xml version="1.0" encoding="UTF-8" standalone="no"?>
<!DOCTYPE svg PUBLIC "-//W3C//DTD SVG 1.1//EN"
 "http://www.w3.org/Graphics/SVG/1.1/DTD/svg11.dtd">
<!-- Generated by graphviz version 7.0.5 (20221223.1930)
 -->
<!-- Title: modbusParseResponsePDU Pages: 1 -->
<svg width="534pt" height="101pt"
 viewBox="0.00 0.00 534.00 101.00" xmlns="http://www.w3.org/2000/svg" xmlns:xlink="http://www.w3.org/1999/xlink">
<g id="graph0" class="graph" transform="scale(1 1) rotate(0) translate(4 97)">
<title>modbusParseResponsePDU</title>
<!-- Node1 -->
<g id="node1" class="node">
<title>Node1</title>
<g id="a_node1"><a xlink:title="Parses a PDU section of a slave response.">
<polygon fill="#999999" stroke="#666666" points="526,-56 385,-56 385,-37 526,-37 526,-56"/>
<text text-anchor="middle" x="455.5" y="-44" font-family="Helvetica,sans-Serif" font-size="10.00">modbusParseResponsePDU</text>
</a>
</g>
</g>
<!-- Node2 -->
<g id="node2" class="node">
<title>Node2</title>
<g id="a_node2"><a xlink:href="master_8impl_8h.html#a151b85c221ae43804856eb92737498e5" target="_top" xlink:title="Parses a Modbus RTU slave response.">
<polygon fill="white" stroke="#666666" points="340.5,-93 200.5,-93 200.5,-74 340.5,-74 340.5,-93"/>
<text text-anchor="middle" x="270.5" y="-81" font-family="Helvetica,sans-Serif" font-size="10.00">modbusParseResponseRTU</text>
</a>
</g>
</g>
<!-- Node1&#45;&gt;Node2 -->
<g id="edge1" class="edge">
<title>Node1&#45;&gt;Node2</title>
<path fill="none" stroke="#63b8ff" d="M394.38,-58.65C370.5,-63.48 343.36,-68.97 320.68,-73.56"/>
<polygon fill="#63b8ff" stroke="#63b8ff" points="394.87,-62.13 403.98,-56.72 393.48,-55.27 394.87,-62.13"/>
</g>
<!-- Node4 -->
<g id="node4" class="node">
<title>Node4</title>
<g id="a_node4"><a xlink:href="master_8impl_8h.html#a53ea67c733b1e627e1cdcb0003270a1b" target="_top" xlink:title="Parses a Modbus TCP slave response.">
<polygon fill="white" stroke="#666666" points="340.5,-56 200.5,-56 200.5,-37 340.5,-37 340.5,-56"/>
<text text-anchor="middle" x="270.5" y="-44" font-family="Helvetica,sans-Serif" font-size="10.00">modbusParseResponseTCP</text>
</a>
</g>
</g>
<!-- Node1&#45;&gt;Node4 -->
<g id="edge3" class="edge">
<title>Node1&#45;&gt;Node4</title>
<path fill="none" stroke="#63b8ff" d="M373.33,-46.5C362.48,-46.5 351.44,-46.5 340.82,-46.5"/>
<polygon fill="#63b8ff" stroke="#63b8ff" points="373.02,-50 383.02,-46.5 373.02,-43 373.02,-50"/>
</g>
<!-- Node6 -->
<g id="node6" class="node">
<title>Node6</title>
<g id="a_node6"><a xlink:href="classllm_1_1Master.html#a39b0210172c76ef4dc9e43668daef7c9" target="_top" xlink:title=" ">
<polygon fill="white" stroke="#666666" points="349,-19 192,-19 192,0 349,0 349,-19"/>
<text text-anchor="middle" x="270.5" y="-7" font-family="Helvetica,sans-Serif" font-size="10.00">llm::Master::parseResponsePDU</text>
</a>
</g>
</g>
<!-- Node1&#45;&gt;Node6 -->
<g id="edge5" class="edge">
<title>Node1&#45;&gt;Node6</title>
<path fill="none" stroke="#63b8ff" d="M394.38,-34.35C370.5,-29.52 343.36,-24.03 320.68,-19.44"/>
<polygon fill="#63b8ff" stroke="#63b8ff" points="393.48,-37.73 403.98,-36.28 394.87,-30.87 393.48,-37.73"/>
</g>
<!-- Node3 -->
<g id="node3" class="node">
<title>Node3</title>
<g id="a_node3"><a xlink:href="classllm_1_1Master.html#ab052e172e96808744ee43a8eff80b679" target="_top" xlink:title=" ">
<polygon fill="white" stroke="#666666" points="156,-93 0,-93 0,-74 156,-74 156,-93"/>
<text text-anchor="middle" x="78" y="-81" font-family="Helvetica,sans-Serif" font-size="10.00">llm::Master::parseResponseRTU</text>
</a>
</g>
</g>
<!-- Node2&#45;&gt;Node3 -->
<g id="edge2" class="edge">
<title>Node2&#45;&gt;Node3</title>
<path fill="none" stroke="#63b8ff" d="M188.68,-83.5C177.95,-83.5 166.98,-83.5 156.32,-83.5"/>
<polygon fill="#63b8ff" stroke="#63b8ff" points="188.67,-87 198.67,-83.5 188.67,-80 188.67,-87"/>
</g>
<!-- Node5 -->
<g id="node5" class="node">
<title>Node5</title>
<g id="a_node5"><a xlink:href="classllm_1_1Master.html#ad1f614f5d44a61a8507ae34968fa7903" target="_top" xlink:title=" ">
<polygon fill="white" stroke="#666666" points="155.5,-56 0.5,-56 0.5,-37 155.5,-37 155.5,-56"/>
<text text-anchor="middle" x="78" y="-44" font-family="Helvetica,sans-Serif" font-size="10.00">llm::Master::parseResponseTCP</text>
</a>
</g>
</g>
<!-- Node4&#45;&gt;Node5 -->
<g id="edge4" class="edge">
<title>Node4&#45;&gt;Node5</title>
<path fill="none" stroke="#63b8ff" d="M188.93,-46.5C178.02,-46.5 166.84,-46.5 155.99,-46.5"/>
<polygon fill="#63b8ff" stroke="#63b8ff" points="188.67,-50 198.67,-46.5 188.67,-43 188.67,-50"/>
</g>
</g>
</svg>
