<?xml version="1.0" encoding="UTF-8" standalone="no"?>
<!DOCTYPE svg PUBLIC "-//W3C//DTD SVG 1.1//EN"
 "http://www.w3.org/Graphics/SVG/1.1/DTD/svg11.dtd">
<!-- Generated by graphviz version 7.0.5 (20221223.1930)
 -->
<!-- Title: include/lightmodbus/master_func.impl.h Pages: 1 -->
<svg width="180pt" height="258pt"
 viewBox="0.00 0.00 179.50 258.00" xmlns="http://www.w3.org/2000/svg" xmlns:xlink="http://www.w3.org/1999/xlink">
<g id="graph0" class="graph" transform="scale(1 1) rotate(0) translate(4 254)">
<title>include/lightmodbus/master_func.impl.h</title>
<!-- Node1 -->
<g id="node1" class="node">
<title>Node1</title>
<g id="a_node1"><a xlink:title="Master&#39;s functions for building requests and parsing responses (implementation)">
<polygon fill="#999999" stroke="#666666" points="123.5,-250 20.5,-250 20.5,-220 123.5,-220 123.5,-250"/>
<text text-anchor="start" x="28.5" y="-238" font-family="Helvetica,sans-Serif" font-size="10.00">include/lightmodbus</text>
<text text-anchor="middle" x="72" y="-227" font-family="Helvetica,sans-Serif" font-size="10.00">/master_func.impl.h</text>
</a>
</g>
</g>
<!-- Node2 -->
<g id="node2" class="node">
<title>Node2</title>
<g id="a_node2"><a xlink:href="master__func_8h.html" target="_top" xlink:title="Master&#39;s functions for building requests and parsing responses (header)">
<polygon fill="white" stroke="#666666" points="78,-184 0,-184 0,-165 78,-165 78,-184"/>
<text text-anchor="middle" x="39" y="-172" font-family="Helvetica,sans-Serif" font-size="10.00">master_func.h</text>
</a>
</g>
</g>
<!-- Node1&#45;&gt;Node2 -->
<g id="edge1" class="edge">
<title>Node1&#45;&gt;Node2</title>
<path fill="none" stroke="#63b8ff" d="M63.84,-219.54C59.49,-211.82 54.09,-202.24 49.43,-193.99"/>
<polygon fill="#63b8ff" stroke="#63b8ff" points="52.6,-192.48 44.64,-185.49 46.5,-195.92 52.6,-192.48"/>
</g>
<!-- Node5 -->
<g id="node5" class="node">
<title>Node5</title>
<g id="a_node5"><a xlink:href="master_8h.html" target="_top" xlink:title="Master&#39;s types and basic functions (header)">
<polygon fill="white" stroke="#666666" points="121,-129 67,-129 67,-110 121,-110 121,-129"/>
<text text-anchor="middle" x="94" y="-117" font-family="Helvetica,sans-Serif" font-size="10.00">master.h</text>
</a>
</g>
</g>
<!-- Node1&#45;&gt;Node5 -->
<g id="edge8" class="edge">
<title>Node1&#45;&gt;Node5</title>
<path fill="none" stroke="#63b8ff" d="M77.03,-219.74C80.34,-209.83 84.51,-196.26 87,-184 89.92,-169.64 91.69,-153.19 92.72,-140.63"/>
<polygon fill="#63b8ff" stroke="#63b8ff" points="96.21,-140.94 93.43,-130.71 89.23,-140.44 96.21,-140.94"/>
</g>
<!-- Node3 -->
<g id="node3" class="node">
<title>Node3</title>
<g id="a_node3"><a xlink:href="base_8h.html" target="_top" xlink:title="Common types and functions (header)">
<polygon fill="white" stroke="#666666" points="63.5,-74 18.5,-74 18.5,-55 63.5,-55 63.5,-74"/>
<text text-anchor="middle" x="41" y="-62" font-family="Helvetica,sans-Serif" font-size="10.00">base.h</text>
</a>
</g>
</g>
<!-- Node2&#45;&gt;Node3 -->
<g id="edge2" class="edge">
<title>Node2&#45;&gt;Node3</title>
<path fill="none" stroke="#63b8ff" d="M39.16,-164.66C39.48,-147.57 40.18,-109.61 40.62,-85.92"/>
<polygon fill="#63b8ff" stroke="#63b8ff" points="44.12,-86.04 40.81,-75.97 37.12,-85.91 44.12,-86.04"/>
</g>
<!-- Node2&#45;&gt;Node5 -->
<g id="edge4" class="edge">
<title>Node2&#45;&gt;Node5</title>
<path fill="none" stroke="#63b8ff" d="M48.08,-164.75C55.84,-157.27 67.21,-146.32 76.7,-137.17"/>
<polygon fill="#63b8ff" stroke="#63b8ff" points="78.86,-139.95 83.63,-130.49 74,-134.91 78.86,-139.95"/>
</g>
<!-- Node4 -->
<g id="node4" class="node">
<title>Node4</title>
<g id="a_node4"><a xlink:title=" ">
<polygon fill="#e0e0e0" stroke="#999999" points="90,-19 42,-19 42,0 90,0 90,-19"/>
<text text-anchor="middle" x="66" y="-7" font-family="Helvetica,sans-Serif" font-size="10.00">stdint.h</text>
</a>
</g>
</g>
<!-- Node3&#45;&gt;Node4 -->
<g id="edge3" class="edge">
<title>Node3&#45;&gt;Node4</title>
<path fill="none" stroke="#63b8ff" d="M45.13,-54.75C48.33,-47.96 52.89,-38.3 56.93,-29.73"/>
<polygon fill="#63b8ff" stroke="#63b8ff" points="60.04,-31.35 61.14,-20.81 53.7,-28.36 60.04,-31.35"/>
</g>
<!-- Node5&#45;&gt;Node3 -->
<g id="edge7" class="edge">
<title>Node5&#45;&gt;Node3</title>
<path fill="none" stroke="#63b8ff" d="M85.25,-109.75C77.85,-102.35 67.04,-91.54 57.95,-82.45"/>
<polygon fill="#63b8ff" stroke="#63b8ff" points="60.56,-80.11 51.01,-75.51 55.61,-85.06 60.56,-80.11"/>
</g>
<!-- Node5&#45;&gt;Node4 -->
<g id="edge5" class="edge">
<title>Node5&#45;&gt;Node4</title>
<path fill="none" stroke="#63b8ff" d="M91.71,-109.66C87.26,-92.5 77.34,-54.26 71.21,-30.6"/>
<polygon fill="#63b8ff" stroke="#63b8ff" points="74.6,-29.73 68.7,-20.93 67.82,-31.48 74.6,-29.73"/>
</g>
<!-- Node6 -->
<g id="node6" class="node">
<title>Node6</title>
<g id="a_node6"><a xlink:title=" ">
<polygon fill="#e0e0e0" stroke="#999999" points="171.5,-74 120.5,-74 120.5,-55 171.5,-55 171.5,-74"/>
<text text-anchor="middle" x="146" y="-62" font-family="Helvetica,sans-Serif" font-size="10.00">stddef.h</text>
</a>
</g>
</g>
<!-- Node5&#45;&gt;Node6 -->
<g id="edge6" class="edge">
<title>Node5&#45;&gt;Node6</title>
<path fill="none" stroke="#63b8ff" d="M102.59,-109.75C109.84,-102.35 120.45,-91.54 129.37,-82.45"/>
<polygon fill="#63b8ff" stroke="#63b8ff" points="131.66,-85.11 136.17,-75.52 126.66,-80.21 131.66,-85.11"/>
</g>
</g>
</svg>
