<?xml version="1.0" encoding="UTF-8" standalone="no"?>
<!DOCTYPE svg PUBLIC "-//W3C//DTD SVG 1.1//EN"
 "http://www.w3.org/Graphics/SVG/1.1/DTD/svg11.dtd">
<!-- Generated by graphviz version 7.0.5 (20221223.1930)
 -->
<!-- Title: include/lightmodbus/master.impl.h Pages: 1 -->
<svg width="150pt" height="258pt"
 viewBox="0.00 0.00 150.30 258.00" xmlns="http://www.w3.org/2000/svg" xmlns:xlink="http://www.w3.org/1999/xlink">
<g id="graph0" class="graph" transform="scale(1 1) rotate(0) translate(4 254)">
<title>include/lightmodbus/master.impl.h</title>
<!-- Node1 -->
<g id="node1" class="node">
<title>Node1</title>
<g id="a_node1"><a xlink:title="Master&#39;s types and basic functions (implementation)">
<polygon fill="#999999" stroke="#666666" points="120.8,-250 17.8,-250 17.8,-220 120.8,-220 120.8,-250"/>
<text text-anchor="start" x="25.8" y="-238" font-family="Helvetica,sans-Serif" font-size="10.00">include/lightmodbus</text>
<text text-anchor="middle" x="69.3" y="-227" font-family="Helvetica,sans-Serif" font-size="10.00">/master.impl.h</text>
</a>
</g>
</g>
<!-- Node2 -->
<g id="node2" class="node">
<title>Node2</title>
<g id="a_node2"><a xlink:href="master_8h.html" target="_top" xlink:title="Master&#39;s types and basic functions (header)">
<polygon fill="white" stroke="#666666" points="64.3,-129 10.3,-129 10.3,-110 64.3,-110 64.3,-129"/>
<text text-anchor="middle" x="37.3" y="-117" font-family="Helvetica,sans-Serif" font-size="10.00">master.h</text>
</a>
</g>
</g>
<!-- Node1&#45;&gt;Node2 -->
<g id="edge1" class="edge">
<title>Node1&#45;&gt;Node2</title>
<path fill="none" stroke="#63b8ff" d="M65.25,-219.63C59.57,-199.49 49.24,-162.83 42.85,-140.18"/>
<polygon fill="#63b8ff" stroke="#63b8ff" points="46.26,-139.36 40.17,-130.69 39.52,-141.26 46.26,-139.36"/>
</g>
<!-- Node6 -->
<g id="node6" class="node">
<title>Node6</title>
<g id="a_node6"><a xlink:href="master__func_8h.html" target="_top" xlink:title="Master&#39;s functions for building requests and parsing responses (header)">
<polygon fill="white" stroke="#666666" points="142.3,-184 64.3,-184 64.3,-165 142.3,-165 142.3,-184"/>
<text text-anchor="middle" x="103.3" y="-172" font-family="Helvetica,sans-Serif" font-size="10.00">master_func.h</text>
</a>
</g>
</g>
<!-- Node1&#45;&gt;Node6 -->
<g id="edge6" class="edge">
<title>Node1&#45;&gt;Node6</title>
<path fill="none" stroke="#63b8ff" d="M77.71,-219.54C82.19,-211.82 87.76,-202.24 92.56,-193.99"/>
<polygon fill="#63b8ff" stroke="#63b8ff" points="95.5,-195.89 97.5,-185.48 89.45,-192.37 95.5,-195.89"/>
</g>
<!-- Node3 -->
<g id="node3" class="node">
<title>Node3</title>
<g id="a_node3"><a xlink:title=" ">
<polygon fill="#e0e0e0" stroke="#999999" points="67.3,-19 19.3,-19 19.3,0 67.3,0 67.3,-19"/>
<text text-anchor="middle" x="43.3" y="-7" font-family="Helvetica,sans-Serif" font-size="10.00">stdint.h</text>
</a>
</g>
</g>
<!-- Node2&#45;&gt;Node3 -->
<g id="edge2" class="edge">
<title>Node2&#45;&gt;Node3</title>
<path fill="none" stroke="#63b8ff" d="M26.82,-109.82C13.81,-97.91 -5.76,-75.64 2.3,-55 6.57,-44.08 14.91,-34.22 22.96,-26.57"/>
<polygon fill="#63b8ff" stroke="#63b8ff" points="25.02,-29.42 30.24,-20.2 20.41,-24.16 25.02,-29.42"/>
</g>
<!-- Node4 -->
<g id="node4" class="node">
<title>Node4</title>
<g id="a_node4"><a xlink:title=" ">
<polygon fill="#e0e0e0" stroke="#999999" points="62.8,-74 11.8,-74 11.8,-55 62.8,-55 62.8,-74"/>
<text text-anchor="middle" x="37.3" y="-62" font-family="Helvetica,sans-Serif" font-size="10.00">stddef.h</text>
</a>
</g>
</g>
<!-- Node2&#45;&gt;Node4 -->
<g id="edge3" class="edge">
<title>Node2&#45;&gt;Node4</title>
<path fill="none" stroke="#63b8ff" d="M37.3,-109.75C37.3,-103.27 37.3,-94.16 37.3,-85.9"/>
<polygon fill="#63b8ff" stroke="#63b8ff" points="40.8,-85.96 37.3,-75.96 33.8,-85.96 40.8,-85.96"/>
</g>
<!-- Node5 -->
<g id="node5" class="node">
<title>Node5</title>
<g id="a_node5"><a xlink:href="base_8h.html" target="_top" xlink:title="Common types and functions (header)">
<polygon fill="white" stroke="#666666" points="125.8,-74 80.8,-74 80.8,-55 125.8,-55 125.8,-74"/>
<text text-anchor="middle" x="103.3" y="-62" font-family="Helvetica,sans-Serif" font-size="10.00">base.h</text>
</a>
</g>
</g>
<!-- Node2&#45;&gt;Node5 -->
<g id="edge4" class="edge">
<title>Node2&#45;&gt;Node5</title>
<path fill="none" stroke="#63b8ff" d="M48.5,-109.51C58.04,-101.85 71.98,-90.66 83.41,-81.47"/>
<polygon fill="#63b8ff" stroke="#63b8ff" points="85.49,-84.3 91.09,-75.31 81.1,-78.84 85.49,-84.3"/>
</g>
<!-- Node5&#45;&gt;Node3 -->
<g id="edge5" class="edge">
<title>Node5&#45;&gt;Node3</title>
<path fill="none" stroke="#63b8ff" d="M93.12,-54.51C84.54,-46.93 72.03,-35.88 61.7,-26.75"/>
<polygon fill="#63b8ff" stroke="#63b8ff" points="64.28,-24.36 54.46,-20.36 59.64,-29.6 64.28,-24.36"/>
</g>
<!-- Node6&#45;&gt;Node2 -->
<g id="edge8" class="edge">
<title>Node6&#45;&gt;Node2</title>
<path fill="none" stroke="#63b8ff" d="M92.11,-164.51C82.57,-156.85 68.63,-145.66 57.2,-136.47"/>
<polygon fill="#63b8ff" stroke="#63b8ff" points="59.5,-133.84 49.51,-130.31 55.12,-139.3 59.5,-133.84"/>
</g>
<!-- Node6&#45;&gt;Node5 -->
<g id="edge7" class="edge">
<title>Node6&#45;&gt;Node5</title>
<path fill="none" stroke="#63b8ff" d="M103.3,-164.66C103.3,-147.57 103.3,-109.61 103.3,-85.92"/>
<polygon fill="#63b8ff" stroke="#63b8ff" points="106.8,-85.97 103.3,-75.97 99.8,-85.97 106.8,-85.97"/>
</g>
</g>
</svg>
