<?xml version="1.0" encoding="UTF-8" standalone="no"?>
<!DOCTYPE svg PUBLIC "-//W3C//DTD SVG 1.1//EN"
 "http://www.w3.org/Graphics/SVG/1.1/DTD/svg11.dtd">
<!-- Generated by graphviz version 7.0.5 (20221223.1930)
 -->
<!-- Title: modbusBuildRequest06 Pages: 1 -->
<svg width="666pt" height="82pt"
 viewBox="0.00 0.00 666.00 82.00" xmlns="http://www.w3.org/2000/svg" xmlns:xlink="http://www.w3.org/1999/xlink">
<g id="graph0" class="graph" transform="scale(1 1) rotate(0) translate(4 78)">
<title>modbusBuildRequest06</title>
<!-- Node1 -->
<g id="node1" class="node">
<title>Node1</title>
<g id="a_node1"><a xlink:title="Write single holding register &#45; a wrapper for modbusBuildRequest0506()">
<polygon fill="#999999" stroke="#666666" points="119,-37 0,-37 0,-18 119,-18 119,-37"/>
<text text-anchor="middle" x="59.5" y="-25" font-family="Helvetica,sans-Serif" font-size="10.00">modbusBuildRequest06</text>
</a>
</g>
</g>
<!-- Node2 -->
<g id="node2" class="node">
<title>Node2</title>
<g id="a_node2"><a xlink:href="master__func_8impl_8h.html#a5309a3003ea2d248e51193e75ab30044" target="_top" xlink:title="Write single coil/holding register.">
<polygon fill="white" stroke="#666666" points="285,-37 155,-37 155,-18 285,-18 285,-37"/>
<text text-anchor="middle" x="220" y="-25" font-family="Helvetica,sans-Serif" font-size="10.00">modbusBuildRequest0506</text>
</a>
</g>
</g>
<!-- Node1&#45;&gt;Node2 -->
<g id="edge1" class="edge">
<title>Node1&#45;&gt;Node2</title>
<path fill="none" stroke="#63b8ff" d="M119.07,-27.5C126.92,-27.5 135.06,-27.5 143.16,-27.5"/>
<polygon fill="#63b8ff" stroke="#63b8ff" points="143.02,-31 153.02,-27.5 143.02,-24 143.02,-31"/>
</g>
<!-- Node3 -->
<g id="node3" class="node">
<title>Node3</title>
<g id="a_node3"><a xlink:href="master_8h.html#a004b932b2b69ad0c6649c26d974146b2" target="_top" xlink:title="Allocates memory for the request frame.">
<polygon fill="white" stroke="#666666" points="473,-56 321,-56 321,-37 473,-37 473,-56"/>
<text text-anchor="middle" x="397" y="-44" font-family="Helvetica,sans-Serif" font-size="10.00">modbusMasterAllocateRequest</text>
</a>
</g>
</g>
<!-- Node2&#45;&gt;Node3 -->
<g id="edge2" class="edge">
<title>Node2&#45;&gt;Node3</title>
<path fill="none" stroke="#63b8ff" d="M285.17,-34.47C292.99,-35.32 301.09,-36.2 309.17,-37.07"/>
<polygon fill="#63b8ff" stroke="#63b8ff" points="308.74,-40.55 319.06,-38.15 309.5,-33.59 308.74,-40.55"/>
</g>
<!-- Node6 -->
<g id="node6" class="node">
<title>Node6</title>
<g id="a_node6"><a xlink:href="base_8h.html#a73b9f793bbe67a1968cc8c53a22d4c4b" target="_top" xlink:title="Safely writes a big&#45;endian 16&#45;bit word to provided pointer.">
<polygon fill="white" stroke="#666666" points="433.5,-19 360.5,-19 360.5,0 433.5,0 433.5,-19"/>
<text text-anchor="middle" x="397" y="-7" font-family="Helvetica,sans-Serif" font-size="10.00">modbusWBE</text>
</a>
</g>
</g>
<!-- Node2&#45;&gt;Node6 -->
<g id="edge5" class="edge">
<title>Node2&#45;&gt;Node6</title>
<path fill="none" stroke="#63b8ff" d="M285.17,-20.9C306.27,-18.73 329.33,-16.36 348.92,-14.34"/>
<polygon fill="#63b8ff" stroke="#63b8ff" points="349.22,-17.83 358.81,-13.33 348.5,-10.87 349.22,-17.83"/>
</g>
<!-- Node4 -->
<g id="node4" class="node">
<title>Node4</title>
<g id="a_node4"><a xlink:href="base_8impl_8h.html#a54f7d1db7f58ffd329b1955ad1a66f37" target="_top" xlink:title="Allocates memory to hold Modbus ADU.">
<polygon fill="white" stroke="#666666" points="650,-74 517,-74 517,-55 650,-55 650,-74"/>
<text text-anchor="middle" x="583.5" y="-62" font-family="Helvetica,sans-Serif" font-size="10.00">modbusBufferAllocateADU</text>
</a>
</g>
</g>
<!-- Node3&#45;&gt;Node4 -->
<g id="edge3" class="edge">
<title>Node3&#45;&gt;Node4</title>
<path fill="none" stroke="#63b8ff" d="M473.31,-53.85C483.85,-54.88 494.69,-55.93 505.26,-56.96"/>
<polygon fill="#63b8ff" stroke="#63b8ff" points="504.8,-60.44 515.09,-57.92 505.48,-53.47 504.8,-60.44"/>
</g>
<!-- Node5 -->
<g id="node5" class="node">
<title>Node5</title>
<g id="a_node5"><a xlink:href="master_8h.html#a39dfa809ec99fbff3a4acef1bc543b9f" target="_top" xlink:title="Retreieves the custom context pointer.">
<polygon fill="white" stroke="#666666" points="658,-37 509,-37 509,-18 658,-18 658,-37"/>
<text text-anchor="middle" x="583.5" y="-25" font-family="Helvetica,sans-Serif" font-size="10.00">modbusMasterGetUserPointer</text>
</a>
</g>
</g>
<!-- Node3&#45;&gt;Node5 -->
<g id="edge4" class="edge">
<title>Node3&#45;&gt;Node5</title>
<path fill="none" stroke="#63b8ff" d="M473.31,-38.74C481.23,-37.93 489.33,-37.09 497.35,-36.27"/>
<polygon fill="#63b8ff" stroke="#63b8ff" points="497.53,-39.77 507.12,-35.26 496.81,-32.81 497.53,-39.77"/>
</g>
</g>
</svg>
