<?xml version="1.0" encoding="UTF-8" standalone="no"?>
<!DOCTYPE svg PUBLIC "-//W3C//DTD SVG 1.1//EN"
 "http://www.w3.org/Graphics/SVG/1.1/DTD/svg11.dtd">
<!-- Generated by graphviz version 7.0.5 (20221223.1930)
 -->
<!-- Title: modbusParseResponse01020304 Pages: 1 -->
<svg width="331pt" height="138pt"
 viewBox="0.00 0.00 331.00 138.00" xmlns="http://www.w3.org/2000/svg" xmlns:xlink="http://www.w3.org/1999/xlink">
<g id="graph0" class="graph" transform="scale(1 1) rotate(0) translate(4 134)">
<title>modbusParseResponse01020304</title>
<!-- Node1 -->
<g id="node1" class="node">
<title>Node1</title>
<g id="a_node1"><a xlink:title="Parses response to requests 01, 02, 03 and 04.">
<polygon fill="#999999" stroke="#666666" points="162,-74 0,-74 0,-55 162,-55 162,-74"/>
<text text-anchor="middle" x="81" y="-62" font-family="Helvetica,sans-Serif" font-size="10.00">modbusParseResponse01020304</text>
</a>
</g>
</g>
<!-- Node2 -->
<g id="node2" class="node">
<title>Node2</title>
<g id="a_node2"><a xlink:href="base_8h.html#af23a50b36bef9c09ac82214a52ff4d58" target="_top" xlink:title="Returns number of bytes necessary to hold given number of bits.">
<polygon fill="white" stroke="#666666" points="312.5,-130 208.5,-130 208.5,-111 312.5,-111 312.5,-130"/>
<text text-anchor="middle" x="260.5" y="-118" font-family="Helvetica,sans-Serif" font-size="10.00">modbusBitsToBytes</text>
</a>
</g>
</g>
<!-- Node1&#45;&gt;Node2 -->
<g id="edge1" class="edge">
<title>Node1&#45;&gt;Node2</title>
<path fill="none" stroke="#63b8ff" d="M111.48,-74.44C134.87,-82.27 168.45,-93.34 198,-102.5 203.11,-104.08 208.47,-105.71 213.81,-107.3"/>
<polygon fill="#63b8ff" stroke="#63b8ff" points="212.61,-110.6 223.19,-110.08 214.59,-103.88 212.61,-110.6"/>
</g>
<!-- Node3 -->
<g id="node3" class="node">
<title>Node3</title>
<g id="a_node3"><a xlink:href="base_8h.html#a61619958551d902c14ab6e51fb842ea0" target="_top" xlink:title="Checks whether provided address range causes an uint16_t overflow.">
<polygon fill="white" stroke="#666666" points="323,-93 198,-93 198,-74 323,-74 323,-93"/>
<text text-anchor="middle" x="260.5" y="-81" font-family="Helvetica,sans-Serif" font-size="10.00">modbusCheckRangeU16</text>
</a>
</g>
</g>
<!-- Node1&#45;&gt;Node3 -->
<g id="edge2" class="edge">
<title>Node1&#45;&gt;Node3</title>
<path fill="none" stroke="#63b8ff" d="M162.44,-73.11C170.39,-73.96 178.43,-74.82 186.3,-75.66"/>
<polygon fill="#63b8ff" stroke="#63b8ff" points="185.86,-79.14 196.18,-76.72 186.61,-72.18 185.86,-79.14"/>
</g>
<!-- Node4 -->
<g id="node4" class="node">
<title>Node4</title>
<g id="a_node4"><a xlink:href="base_8h.html#aff2248343762719cdacf818e4dae3709" target="_top" xlink:title="Reads n&#45;th bit from an array.">
<polygon fill="white" stroke="#666666" points="309.5,-56 211.5,-56 211.5,-37 309.5,-37 309.5,-56"/>
<text text-anchor="middle" x="260.5" y="-44" font-family="Helvetica,sans-Serif" font-size="10.00">modbusMaskRead</text>
</a>
</g>
</g>
<!-- Node1&#45;&gt;Node4 -->
<g id="edge3" class="edge">
<title>Node1&#45;&gt;Node4</title>
<path fill="none" stroke="#63b8ff" d="M162.44,-56.34C175.09,-55.06 187.97,-53.75 200.04,-52.53"/>
<polygon fill="#63b8ff" stroke="#63b8ff" points="200.22,-56.03 209.81,-51.54 199.51,-49.07 200.22,-56.03"/>
</g>
<!-- Node5 -->
<g id="node5" class="node">
<title>Node5</title>
<g id="a_node5"><a xlink:href="base_8h.html#ace96da9afdf1e1796a6e2d7ac1f6c81a" target="_top" xlink:title="Safely reads a big&#45;endian 16&#45;bit word from provided pointer.">
<polygon fill="white" stroke="#666666" points="296,-19 225,-19 225,0 296,0 296,-19"/>
<text text-anchor="middle" x="260.5" y="-7" font-family="Helvetica,sans-Serif" font-size="10.00">modbusRBE</text>
</a>
</g>
</g>
<!-- Node1&#45;&gt;Node5 -->
<g id="edge4" class="edge">
<title>Node1&#45;&gt;Node5</title>
<path fill="none" stroke="#63b8ff" d="M114,-54.56C137.29,-47.32 169.6,-37.29 198,-28.5 203.94,-26.66 210.2,-24.72 216.36,-22.82"/>
<polygon fill="#63b8ff" stroke="#63b8ff" points="217.29,-26.2 225.81,-19.9 215.23,-19.51 217.29,-26.2"/>
</g>
</g>
</svg>
