<?xml version="1.0" encoding="UTF-8" standalone="no"?>
<!DOCTYPE svg PUBLIC "-//W3C//DTD SVG 1.1//EN"
 "http://www.w3.org/Graphics/SVG/1.1/DTD/svg11.dtd">
<!-- Generated by graphviz version 7.0.5 (20221223.1930)
 -->
<!-- Title: include/lightmodbus/master.h Pages: 1 -->
<svg width="288pt" height="302pt"
 viewBox="0.00 0.00 288.41 302.00" xmlns="http://www.w3.org/2000/svg" xmlns:xlink="http://www.w3.org/1999/xlink">
<g id="graph0" class="graph" transform="scale(1 1) rotate(0) translate(4 298)">
<title>include/lightmodbus/master.h</title>
<!-- Node1 -->
<g id="node1" class="node">
<title>Node1</title>
<g id="a_node1"><a xlink:title="Master&#39;s types and basic functions (header)">
<polygon fill="#999999" stroke="#666666" points="160.41,-294 57.41,-294 57.41,-264 160.41,-264 160.41,-294"/>
<text text-anchor="start" x="65.41" y="-282" font-family="Helvetica,sans-Serif" font-size="10.00">include/lightmodbus</text>
<text text-anchor="middle" x="108.91" y="-271" font-family="Helvetica,sans-Serif" font-size="10.00">/master.h</text>
</a>
</g>
</g>
<!-- Node2 -->
<g id="node2" class="node">
<title>Node2</title>
<g id="a_node2"><a xlink:href="lightmodbus_8h.html" target="_top" xlink:title="The main library header file (include this one)">
<polygon fill="white" stroke="#666666" points="160.41,-96 57.41,-96 57.41,-66 160.41,-66 160.41,-96"/>
<text text-anchor="start" x="65.41" y="-84" font-family="Helvetica,sans-Serif" font-size="10.00">include/lightmodbus</text>
<text text-anchor="middle" x="108.91" y="-73" font-family="Helvetica,sans-Serif" font-size="10.00">/lightmodbus.h</text>
</a>
</g>
</g>
<!-- Node1&#45;&gt;Node2 -->
<g id="edge1" class="edge">
<title>Node1&#45;&gt;Node2</title>
<path fill="none" stroke="#63b8ff" d="M76.72,-257.37C37.39,-229.48 -20.61,-177.94 7.91,-132 18.9,-114.3 38.23,-102.67 57.05,-95.13"/>
<polygon fill="#63b8ff" stroke="#63b8ff" points="74.3,-259.95 84.52,-262.75 78.28,-254.19 74.3,-259.95"/>
</g>
<!-- Node4 -->
<g id="node4" class="node">
<title>Node4</title>
<g id="a_node4"><a xlink:href="master_8impl_8h.html" target="_top" xlink:title="Master&#39;s types and basic functions (implementation)">
<polygon fill="white" stroke="#666666" points="120.41,-162 17.41,-162 17.41,-132 120.41,-132 120.41,-162"/>
<text text-anchor="start" x="25.41" y="-150" font-family="Helvetica,sans-Serif" font-size="10.00">include/lightmodbus</text>
<text text-anchor="middle" x="68.91" y="-139" font-family="Helvetica,sans-Serif" font-size="10.00">/master.impl.h</text>
</a>
</g>
</g>
<!-- Node1&#45;&gt;Node4 -->
<g id="edge3" class="edge">
<title>Node1&#45;&gt;Node4</title>
<path fill="none" stroke="#63b8ff" d="M98.25,-253.27C95.01,-245.29 91.61,-236.34 88.91,-228 81.6,-205.39 75.36,-178.46 71.88,-162.33"/>
<polygon fill="#63b8ff" stroke="#63b8ff" points="94.95,-254.46 102.03,-262.35 101.42,-251.77 94.95,-254.46"/>
</g>
<!-- Node5 -->
<g id="node5" class="node">
<title>Node5</title>
<g id="a_node5"><a xlink:href="master__func_8h.html" target="_top" xlink:title="Master&#39;s functions for building requests and parsing responses (header)">
<polygon fill="white" stroke="#666666" points="200.41,-228 97.41,-228 97.41,-198 200.41,-198 200.41,-228"/>
<text text-anchor="start" x="105.41" y="-216" font-family="Helvetica,sans-Serif" font-size="10.00">include/lightmodbus</text>
<text text-anchor="middle" x="148.91" y="-205" font-family="Helvetica,sans-Serif" font-size="10.00">/master_func.h</text>
</a>
</g>
</g>
<!-- Node1&#45;&gt;Node5 -->
<g id="edge5" class="edge">
<title>Node1&#45;&gt;Node5</title>
<path fill="none" stroke="#63b8ff" d="M123.84,-254.11C129.3,-245.38 135.3,-235.78 140.06,-228.16"/>
<polygon fill="#63b8ff" stroke="#63b8ff" points="120.92,-252.18 118.59,-262.51 126.86,-255.89 120.92,-252.18"/>
</g>
<!-- Node6 -->
<g id="node6" class="node">
<title>Node6</title>
<g id="a_node6"><a xlink:href="master__func_8impl_8h.html" target="_top" xlink:title="Master&#39;s functions for building requests and parsing responses (implementation)">
<polygon fill="white" stroke="#666666" points="280.41,-162 177.41,-162 177.41,-132 280.41,-132 280.41,-162"/>
<text text-anchor="start" x="185.41" y="-150" font-family="Helvetica,sans-Serif" font-size="10.00">include/lightmodbus</text>
<text text-anchor="middle" x="228.91" y="-139" font-family="Helvetica,sans-Serif" font-size="10.00">/master_func.impl.h</text>
</a>
</g>
</g>
<!-- Node1&#45;&gt;Node6 -->
<g id="edge10" class="edge">
<title>Node1&#45;&gt;Node6</title>
<path fill="none" stroke="#63b8ff" d="M168.58,-259.01C183.98,-251.54 199.22,-241.44 209.91,-228 225.11,-208.9 228.48,-179.62 229.04,-162.28"/>
<polygon fill="#63b8ff" stroke="#63b8ff" points="167.55,-255.64 159.86,-262.93 170.42,-262.02 167.55,-255.64"/>
</g>
<!-- Node3 -->
<g id="node3" class="node">
<title>Node3</title>
<g id="a_node3"><a xlink:href="lightmodbus_8hpp.html" target="_top" xlink:title="(Very) experimental liblightmodbus C++ interface">
<polygon fill="white" stroke="#666666" points="160.41,-30 57.41,-30 57.41,0 160.41,0 160.41,-30"/>
<text text-anchor="start" x="65.41" y="-18" font-family="Helvetica,sans-Serif" font-size="10.00">include/lightmodbus</text>
<text text-anchor="middle" x="108.91" y="-7" font-family="Helvetica,sans-Serif" font-size="10.00">/lightmodbus.hpp</text>
</a>
</g>
</g>
<!-- Node2&#45;&gt;Node3 -->
<g id="edge2" class="edge">
<title>Node2&#45;&gt;Node3</title>
<path fill="none" stroke="#63b8ff" d="M108.91,-54.39C108.91,-46.13 108.91,-37.28 108.91,-30.16"/>
<polygon fill="#63b8ff" stroke="#63b8ff" points="105.41,-54.28 108.91,-64.28 112.41,-54.28 105.41,-54.28"/>
</g>
<!-- Node4&#45;&gt;Node2 -->
<g id="edge4" class="edge">
<title>Node4&#45;&gt;Node2</title>
<path fill="none" stroke="#63b8ff" d="M83.84,-122.11C89.3,-113.38 95.3,-103.78 100.06,-96.16"/>
<polygon fill="#63b8ff" stroke="#63b8ff" points="80.92,-120.18 78.59,-130.51 86.86,-123.89 80.92,-120.18"/>
</g>
<!-- Node5&#45;&gt;Node2 -->
<g id="edge6" class="edge">
<title>Node5&#45;&gt;Node2</title>
<path fill="none" stroke="#63b8ff" d="M143.99,-186.58C140.65,-170.71 135.77,-149.95 129.91,-132 125.88,-119.65 120.09,-106.08 115.61,-96.2"/>
<polygon fill="#63b8ff" stroke="#63b8ff" points="140.52,-187.06 145.94,-196.16 147.38,-185.66 140.52,-187.06"/>
</g>
<!-- Node5&#45;&gt;Node4 -->
<g id="edge7" class="edge">
<title>Node5&#45;&gt;Node4</title>
<path fill="none" stroke="#63b8ff" d="M122.28,-190.7C110.66,-181.4 97.32,-170.73 86.89,-162.39"/>
<polygon fill="#63b8ff" stroke="#63b8ff" points="119.98,-193.34 129.97,-196.85 124.35,-187.87 119.98,-193.34"/>
</g>
<!-- Node5&#45;&gt;Node6 -->
<g id="edge8" class="edge">
<title>Node5&#45;&gt;Node6</title>
<path fill="none" stroke="#63b8ff" d="M175.54,-190.7C187.17,-181.4 200.5,-170.73 210.93,-162.39"/>
<polygon fill="#63b8ff" stroke="#63b8ff" points="173.47,-187.87 167.85,-196.85 177.84,-193.34 173.47,-187.87"/>
</g>
<!-- Node6&#45;&gt;Node2 -->
<g id="edge9" class="edge">
<title>Node6&#45;&gt;Node2</title>
<path fill="none" stroke="#63b8ff" d="M192.01,-126.32C173.84,-116.63 152.33,-105.16 135.75,-96.31"/>
<polygon fill="#63b8ff" stroke="#63b8ff" points="190.17,-129.31 200.64,-130.92 193.47,-123.13 190.17,-129.31"/>
</g>
</g>
</svg>
