<?xml version="1.0" encoding="UTF-8" standalone="no"?>
<!DOCTYPE svg PUBLIC "-//W3C//DTD SVG 1.1//EN"
 "http://www.w3.org/Graphics/SVG/1.1/DTD/svg11.dtd">
<!-- Generated by graphviz version 7.0.5 (20221223.1930)
 -->
<!-- Title: modbusMasterAllocateRequest Pages: 1 -->
<svg width="345pt" height="64pt"
 viewBox="0.00 0.00 345.00 64.00" xmlns="http://www.w3.org/2000/svg" xmlns:xlink="http://www.w3.org/1999/xlink">
<g id="graph0" class="graph" transform="scale(1 1) rotate(0) translate(4 60)">
<title>modbusMasterAllocateRequest</title>
<!-- Node1 -->
<g id="node1" class="node">
<title>Node1</title>
<g id="a_node1"><a xlink:title="Allocates memory for the request frame.">
<polygon fill="#999999" stroke="#666666" points="152,-37 0,-37 0,-18 152,-18 152,-37"/>
<text text-anchor="middle" x="76" y="-25" font-family="Helvetica,sans-Serif" font-size="10.00">modbusMasterAllocateRequest</text>
</a>
</g>
</g>
<!-- Node2 -->
<g id="node2" class="node">
<title>Node2</title>
<g id="a_node2"><a xlink:href="base_8impl_8h.html#a54f7d1db7f58ffd329b1955ad1a66f37" target="_top" xlink:title="Allocates memory to hold Modbus ADU.">
<polygon fill="white" stroke="#666666" points="329,-56 196,-56 196,-37 329,-37 329,-56"/>
<text text-anchor="middle" x="262.5" y="-44" font-family="Helvetica,sans-Serif" font-size="10.00">modbusBufferAllocateADU</text>
</a>
</g>
</g>
<!-- Node1&#45;&gt;Node2 -->
<g id="edge1" class="edge">
<title>Node1&#45;&gt;Node2</title>
<path fill="none" stroke="#63b8ff" d="M152.31,-35.26C162.85,-36.34 173.69,-37.46 184.26,-38.55"/>
<polygon fill="#63b8ff" stroke="#63b8ff" points="183.79,-42.02 194.09,-39.56 184.51,-35.05 183.79,-42.02"/>
</g>
<!-- Node3 -->
<g id="node3" class="node">
<title>Node3</title>
<g id="a_node3"><a xlink:href="master_8h.html#a39dfa809ec99fbff3a4acef1bc543b9f" target="_top" xlink:title="Retreieves the custom context pointer.">
<polygon fill="white" stroke="#666666" points="337,-19 188,-19 188,0 337,0 337,-19"/>
<text text-anchor="middle" x="262.5" y="-7" font-family="Helvetica,sans-Serif" font-size="10.00">modbusMasterGetUserPointer</text>
</a>
</g>
</g>
<!-- Node1&#45;&gt;Node3 -->
<g id="edge2" class="edge">
<title>Node1&#45;&gt;Node3</title>
<path fill="none" stroke="#63b8ff" d="M152.31,-20.15C160.23,-19.38 168.33,-18.59 176.35,-17.81"/>
<polygon fill="#63b8ff" stroke="#63b8ff" points="176.51,-21.31 186.12,-16.85 175.83,-14.34 176.51,-21.31"/>
</g>
</g>
</svg>
