<?xml version="1.0" encoding="UTF-8" standalone="no"?>
<!DOCTYPE svg PUBLIC "-//W3C//DTD SVG 1.1//EN"
 "http://www.w3.org/Graphics/SVG/1.1/DTD/svg11.dtd">
<!-- Generated by graphviz version 7.0.5 (20221223.1930)
 -->
<!-- Title: modbusMasterAllocateRequest Pages: 1 -->
<svg width="502pt" height="286pt"
 viewBox="0.00 0.00 502.00 286.00" xmlns="http://www.w3.org/2000/svg" xmlns:xlink="http://www.w3.org/1999/xlink">
<g id="graph0" class="graph" transform="scale(1 1) rotate(0) translate(4 282)">
<title>modbusMasterAllocateRequest</title>
<!-- Node1 -->
<g id="node1" class="node">
<title>Node1</title>
<g id="a_node1"><a xlink:title="Allocates memory for the request frame.">
<polygon fill="#999999" stroke="#666666" points="494,-93 342,-93 342,-74 494,-74 494,-93"/>
<text text-anchor="middle" x="418" y="-81" font-family="Helvetica,sans-Serif" font-size="10.00">modbusMasterAllocateRequest</text>
</a>
</g>
</g>
<!-- Node2 -->
<g id="node2" class="node">
<title>Node2</title>
<g id="a_node2"><a xlink:href="master__func_8impl_8h.html#ad3a6d4576d762da3eb0bd73aa5bb24fe" target="_top" xlink:title="Read mutiple coils/discrete inputs/holding registers/input registers.">
<polygon fill="white" stroke="#666666" points="306,-204 155,-204 155,-185 306,-185 306,-204"/>
<text text-anchor="middle" x="230.5" y="-192" font-family="Helvetica,sans-Serif" font-size="10.00">modbusBuildRequest01020304</text>
</a>
</g>
</g>
<!-- Node1&#45;&gt;Node2 -->
<g id="edge1" class="edge">
<title>Node1&#45;&gt;Node2</title>
<path fill="none" stroke="#63b8ff" d="M391,-99.06C352.3,-122.22 280.61,-165.11 248.19,-184.51"/>
<polygon fill="#63b8ff" stroke="#63b8ff" points="392.46,-102.27 399.24,-94.13 388.86,-96.26 392.46,-102.27"/>
</g>
<!-- Node7 -->
<g id="node7" class="node">
<title>Node7</title>
<g id="a_node7"><a xlink:href="master__func_8impl_8h.html#a5309a3003ea2d248e51193e75ab30044" target="_top" xlink:title="Write single coil/holding register.">
<polygon fill="white" stroke="#666666" points="295.5,-130 165.5,-130 165.5,-111 295.5,-111 295.5,-130"/>
<text text-anchor="middle" x="230.5" y="-118" font-family="Helvetica,sans-Serif" font-size="10.00">modbusBuildRequest0506</text>
</a>
</g>
</g>
<!-- Node1&#45;&gt;Node7 -->
<g id="edge6" class="edge">
<title>Node1&#45;&gt;Node7</title>
<path fill="none" stroke="#63b8ff" d="M356.06,-95.65C331.85,-100.48 304.34,-105.97 281.35,-110.56"/>
<polygon fill="#63b8ff" stroke="#63b8ff" points="356.68,-99.1 365.81,-93.71 355.31,-92.24 356.68,-99.1"/>
</g>
<!-- Node10 -->
<g id="node10" class="node">
<title>Node10</title>
<g id="a_node10"><a xlink:href="master__func_8impl_8h.html#ae9842e659ccd8942905e685923de8916" target="_top" xlink:title="Write multiple coils.">
<polygon fill="white" stroke="#666666" points="290,-93 171,-93 171,-74 290,-74 290,-93"/>
<text text-anchor="middle" x="230.5" y="-81" font-family="Helvetica,sans-Serif" font-size="10.00">modbusBuildRequest15</text>
</a>
</g>
</g>
<!-- Node1&#45;&gt;Node10 -->
<g id="edge9" class="edge">
<title>Node1&#45;&gt;Node10</title>
<path fill="none" stroke="#63b8ff" d="M330.27,-83.5C316.76,-83.5 303.08,-83.5 290.38,-83.5"/>
<polygon fill="#63b8ff" stroke="#63b8ff" points="330.04,-87 340.04,-83.5 330.04,-80 330.04,-87"/>
</g>
<!-- Node11 -->
<g id="node11" class="node">
<title>Node11</title>
<g id="a_node11"><a xlink:href="master__func_8impl_8h.html#aca022c438a427d8f4b03db4427c2b344" target="_top" xlink:title="Write multiple holding registers.">
<polygon fill="white" stroke="#666666" points="290,-56 171,-56 171,-37 290,-37 290,-56"/>
<text text-anchor="middle" x="230.5" y="-44" font-family="Helvetica,sans-Serif" font-size="10.00">modbusBuildRequest16</text>
</a>
</g>
</g>
<!-- Node1&#45;&gt;Node11 -->
<g id="edge10" class="edge">
<title>Node1&#45;&gt;Node11</title>
<path fill="none" stroke="#63b8ff" d="M356.06,-71.35C331.85,-66.52 304.34,-61.03 281.35,-56.44"/>
<polygon fill="#63b8ff" stroke="#63b8ff" points="355.31,-74.76 365.81,-73.29 356.68,-67.9 355.31,-74.76"/>
</g>
<!-- Node12 -->
<g id="node12" class="node">
<title>Node12</title>
<g id="a_node12"><a xlink:href="master__func_8impl_8h.html#a6f2c5d59dee73c80ad54e53cca38aeec" target="_top" xlink:title="Mask write register request.">
<polygon fill="white" stroke="#666666" points="290,-19 171,-19 171,0 290,0 290,-19"/>
<text text-anchor="middle" x="230.5" y="-7" font-family="Helvetica,sans-Serif" font-size="10.00">modbusBuildRequest22</text>
</a>
</g>
</g>
<!-- Node1&#45;&gt;Node12 -->
<g id="edge11" class="edge">
<title>Node1&#45;&gt;Node12</title>
<path fill="none" stroke="#63b8ff" d="M390.33,-67.85C368.32,-55.47 335.95,-38.5 306,-27.5 297.63,-24.42 288.54,-21.73 279.68,-19.42"/>
<polygon fill="#63b8ff" stroke="#63b8ff" points="388.51,-70.84 398.93,-72.75 391.98,-64.76 388.51,-70.84"/>
</g>
<!-- Node3 -->
<g id="node3" class="node">
<title>Node3</title>
<g id="a_node3"><a xlink:href="master__func_8h.html#aadb2b7e2d3ee4fbde22cdf076713d75e" target="_top" xlink:title="Read multiple coils &#45; a wrapper for modbusBuildRequest01020304()">
<polygon fill="white" stroke="#666666" points="119,-278 0,-278 0,-259 119,-259 119,-278"/>
<text text-anchor="middle" x="59.5" y="-266" font-family="Helvetica,sans-Serif" font-size="10.00">modbusBuildRequest01</text>
</a>
</g>
</g>
<!-- Node2&#45;&gt;Node3 -->
<g id="edge2" class="edge">
<title>Node2&#45;&gt;Node3</title>
<path fill="none" stroke="#63b8ff" d="M202.38,-209.88C180.38,-221.97 148.31,-238.67 119,-250.5 111.81,-253.4 103.96,-256.12 96.42,-258.51"/>
<polygon fill="#63b8ff" stroke="#63b8ff" points="203.95,-213.02 211,-205.1 200.56,-206.9 203.95,-213.02"/>
</g>
<!-- Node4 -->
<g id="node4" class="node">
<title>Node4</title>
<g id="a_node4"><a xlink:href="master__func_8h.html#a2a6452a8200d77483254bef08ee2cf8c" target="_top" xlink:title="Read multiple discrete inputs &#45; a wrapper for modbusBuildRequest01020304()">
<polygon fill="white" stroke="#666666" points="119,-241 0,-241 0,-222 119,-222 119,-241"/>
<text text-anchor="middle" x="59.5" y="-229" font-family="Helvetica,sans-Serif" font-size="10.00">modbusBuildRequest02</text>
</a>
</g>
</g>
<!-- Node2&#45;&gt;Node4 -->
<g id="edge3" class="edge">
<title>Node2&#45;&gt;Node4</title>
<path fill="none" stroke="#63b8ff" d="M173.08,-206.85C151.24,-211.63 126.58,-217.03 105.91,-221.56"/>
<polygon fill="#63b8ff" stroke="#63b8ff" points="173.71,-210.3 182.73,-204.74 172.22,-203.46 173.71,-210.3"/>
</g>
<!-- Node5 -->
<g id="node5" class="node">
<title>Node5</title>
<g id="a_node5"><a xlink:href="master__func_8h.html#a1c7ed51c58b1ef42ee176833c7fd0515" target="_top" xlink:title="Read multiple holding registers &#45; a wrapper for modbusBuildRequest01020304()">
<polygon fill="white" stroke="#666666" points="119,-204 0,-204 0,-185 119,-185 119,-204"/>
<text text-anchor="middle" x="59.5" y="-192" font-family="Helvetica,sans-Serif" font-size="10.00">modbusBuildRequest03</text>
</a>
</g>
</g>
<!-- Node2&#45;&gt;Node5 -->
<g id="edge4" class="edge">
<title>Node2&#45;&gt;Node5</title>
<path fill="none" stroke="#63b8ff" d="M143.45,-194.5C135.34,-194.5 127.26,-194.5 119.5,-194.5"/>
<polygon fill="#63b8ff" stroke="#63b8ff" points="143.37,-198 153.37,-194.5 143.37,-191 143.37,-198"/>
</g>
<!-- Node6 -->
<g id="node6" class="node">
<title>Node6</title>
<g id="a_node6"><a xlink:href="master__func_8h.html#a22bf4541196b3e88c0a86861d334e3b1" target="_top" xlink:title="Read multiple input registers &#45; a wrapper for modbusBuildRequest01020304()">
<polygon fill="white" stroke="#666666" points="119,-167 0,-167 0,-148 119,-148 119,-167"/>
<text text-anchor="middle" x="59.5" y="-155" font-family="Helvetica,sans-Serif" font-size="10.00">modbusBuildRequest04</text>
</a>
</g>
</g>
<!-- Node2&#45;&gt;Node6 -->
<g id="edge5" class="edge">
<title>Node2&#45;&gt;Node6</title>
<path fill="none" stroke="#63b8ff" d="M173.08,-182.15C151.24,-177.37 126.58,-171.97 105.91,-167.44"/>
<polygon fill="#63b8ff" stroke="#63b8ff" points="172.22,-185.54 182.73,-184.26 173.71,-178.7 172.22,-185.54"/>
</g>
<!-- Node8 -->
<g id="node8" class="node">
<title>Node8</title>
<g id="a_node8"><a xlink:href="master__func_8h.html#a7151355c8c34af355fd779f88a64e125" target="_top" xlink:title="Write single coil &#45; a wrapper for modbusBuildRequest0506()">
<polygon fill="white" stroke="#666666" points="119,-130 0,-130 0,-111 119,-111 119,-130"/>
<text text-anchor="middle" x="59.5" y="-118" font-family="Helvetica,sans-Serif" font-size="10.00">modbusBuildRequest05</text>
</a>
</g>
</g>
<!-- Node7&#45;&gt;Node8 -->
<g id="edge7" class="edge">
<title>Node7&#45;&gt;Node8</title>
<path fill="none" stroke="#63b8ff" d="M153.73,-120.5C142.22,-120.5 130.5,-120.5 119.42,-120.5"/>
<polygon fill="#63b8ff" stroke="#63b8ff" points="153.61,-124 163.61,-120.5 153.61,-117 153.61,-124"/>
</g>
<!-- Node9 -->
<g id="node9" class="node">
<title>Node9</title>
<g id="a_node9"><a xlink:href="master__func_8h.html#a56779853bdfd2bb75601be746c20eb09" target="_top" xlink:title="Write single holding register &#45; a wrapper for modbusBuildRequest0506()">
<polygon fill="white" stroke="#666666" points="119,-93 0,-93 0,-74 119,-74 119,-93"/>
<text text-anchor="middle" x="59.5" y="-81" font-family="Helvetica,sans-Serif" font-size="10.00">modbusBuildRequest06</text>
</a>
</g>
</g>
<!-- Node7&#45;&gt;Node9 -->
<g id="edge8" class="edge">
<title>Node7&#45;&gt;Node9</title>
<path fill="none" stroke="#63b8ff" d="M173.08,-108.15C151.24,-103.37 126.58,-97.97 105.91,-93.44"/>
<polygon fill="#63b8ff" stroke="#63b8ff" points="172.22,-111.54 182.73,-110.26 173.71,-104.7 172.22,-111.54"/>
</g>
</g>
</svg>
