<?xml version="1.0" encoding="UTF-8" standalone="no"?>
<!DOCTYPE svg PUBLIC "-//W3C//DTD SVG 1.1//EN"
 "http://www.w3.org/Graphics/SVG/1.1/DTD/svg11.dtd">
<!-- Generated by graphviz version 7.0.5 (20221223.1930)
 -->
<!-- Title: modbusMasterGetUserPointer Pages: 1 -->
<svg width="687pt" height="360pt"
 viewBox="0.00 0.00 687.00 360.00" xmlns="http://www.w3.org/2000/svg" xmlns:xlink="http://www.w3.org/1999/xlink">
<g id="graph0" class="graph" transform="scale(1 1) rotate(0) translate(4 356)">
<title>modbusMasterGetUserPointer</title>
<!-- Node1 -->
<g id="node1" class="node">
<title>Node1</title>
<g id="a_node1"><a xlink:title="Retreieves the custom context pointer.">
<polygon fill="#999999" stroke="#666666" points="679,-111 530,-111 530,-92 679,-92 679,-111"/>
<text text-anchor="middle" x="604.5" y="-99" font-family="Helvetica,sans-Serif" font-size="10.00">modbusMasterGetUserPointer</text>
</a>
</g>
</g>
<!-- Node2 -->
<g id="node2" class="node">
<title>Node2</title>
<g id="a_node2"><a xlink:href="classllm_1_1Master.html#abd27128b7899148b8aa8531587e51ddc" target="_top" xlink:title=" ">
<polygon fill="white" stroke="#666666" points="485,-167 351,-167 351,-148 485,-148 485,-167"/>
<text text-anchor="middle" x="418" y="-155" font-family="Helvetica,sans-Serif" font-size="10.00">llm::Master::getUserPointer</text>
</a>
</g>
</g>
<!-- Node1&#45;&gt;Node2 -->
<g id="edge1" class="edge">
<title>Node1&#45;&gt;Node2</title>
<path fill="none" stroke="#63b8ff" d="M566.44,-115.38C545.37,-123.02 518.39,-132.36 494,-139.5 484.23,-142.36 473.66,-145.11 463.61,-147.56"/>
<polygon fill="#63b8ff" stroke="#63b8ff" points="567.57,-118.69 575.76,-111.97 565.17,-112.12 567.57,-118.69"/>
</g>
<!-- Node3 -->
<g id="node3" class="node">
<title>Node3</title>
<g id="a_node3"><a xlink:href="master_8h.html#a004b932b2b69ad0c6649c26d974146b2" target="_top" xlink:title="Allocates memory for the request frame.">
<polygon fill="white" stroke="#666666" points="494,-130 342,-130 342,-111 494,-111 494,-130"/>
<text text-anchor="middle" x="418" y="-118" font-family="Helvetica,sans-Serif" font-size="10.00">modbusMasterAllocateRequest</text>
</a>
</g>
</g>
<!-- Node1&#45;&gt;Node3 -->
<g id="edge2" class="edge">
<title>Node1&#45;&gt;Node3</title>
<path fill="none" stroke="#63b8ff" d="M518.25,-110.28C510.22,-111.11 502.12,-111.94 494.2,-112.76"/>
<polygon fill="#63b8ff" stroke="#63b8ff" points="518.43,-113.78 528.01,-109.27 517.71,-106.82 518.43,-113.78"/>
</g>
<!-- Node15 -->
<g id="node15" class="node">
<title>Node15</title>
<g id="a_node15"><a xlink:href="master_8impl_8h.html#a5fe38fae0f89de04fa616d105f660d25" target="_top" xlink:title="Deinitializes a ModbusMaster struct.">
<polygon fill="white" stroke="#666666" points="475,-83 361,-83 361,-64 475,-64 475,-83"/>
<text text-anchor="middle" x="418" y="-71" font-family="Helvetica,sans-Serif" font-size="10.00">modbusMasterDestroy</text>
</a>
</g>
</g>
<!-- Node1&#45;&gt;Node15 -->
<g id="edge14" class="edge">
<title>Node1&#45;&gt;Node15</title>
<path fill="none" stroke="#63b8ff" d="M526.53,-89.82C509.37,-87.21 491.48,-84.5 475.34,-82.05"/>
<polygon fill="#63b8ff" stroke="#63b8ff" points="525.76,-93.24 536.18,-91.28 526.81,-86.32 525.76,-93.24"/>
</g>
<!-- Node17 -->
<g id="node17" class="node">
<title>Node17</title>
<g id="a_node17"><a xlink:href="master_8h.html#a040a82085ce05ff95c53d3dca4c3acfd" target="_top" xlink:title="Frees memory allocated for master&#39;s request frame.">
<polygon fill="white" stroke="#666666" points="486.5,-37 349.5,-37 349.5,-18 486.5,-18 486.5,-37"/>
<text text-anchor="middle" x="418" y="-25" font-family="Helvetica,sans-Serif" font-size="10.00">modbusMasterFreeRequest</text>
</a>
</g>
</g>
<!-- Node1&#45;&gt;Node17 -->
<g id="edge16" class="edge">
<title>Node1&#45;&gt;Node17</title>
<path fill="none" stroke="#63b8ff" d="M570.25,-87.12C548.62,-77.87 519.74,-65.71 494,-55.5 478.37,-49.3 460.76,-42.71 446.53,-37.48"/>
<polygon fill="#63b8ff" stroke="#63b8ff" points="568.58,-90.21 579.15,-90.94 571.34,-83.78 568.58,-90.21"/>
</g>
<!-- Node4 -->
<g id="node4" class="node">
<title>Node4</title>
<g id="a_node4"><a xlink:href="master__func_8impl_8h.html#ad3a6d4576d762da3eb0bd73aa5bb24fe" target="_top" xlink:title="Read mutiple coils/discrete inputs/holding registers/input registers.">
<polygon fill="white" stroke="#666666" points="306,-278 155,-278 155,-259 306,-259 306,-278"/>
<text text-anchor="middle" x="230.5" y="-266" font-family="Helvetica,sans-Serif" font-size="10.00">modbusBuildRequest01020304</text>
</a>
</g>
</g>
<!-- Node3&#45;&gt;Node4 -->
<g id="edge3" class="edge">
<title>Node3&#45;&gt;Node4</title>
<path fill="none" stroke="#63b8ff" d="M347.41,-135.6C345.53,-136.8 343.72,-138.1 342,-139.5 313.63,-162.58 329.39,-185.38 306,-213.5 290.06,-232.66 266.12,-248.78 249.7,-258.52"/>
<polygon fill="#63b8ff" stroke="#63b8ff" points="348.79,-138.83 355.98,-131.04 345.51,-132.65 348.79,-138.83"/>
</g>
<!-- Node9 -->
<g id="node9" class="node">
<title>Node9</title>
<g id="a_node9"><a xlink:href="master__func_8impl_8h.html#a5309a3003ea2d248e51193e75ab30044" target="_top" xlink:title="Write single coil/holding register.">
<polygon fill="white" stroke="#666666" points="295.5,-204 165.5,-204 165.5,-185 295.5,-185 295.5,-204"/>
<text text-anchor="middle" x="230.5" y="-192" font-family="Helvetica,sans-Serif" font-size="10.00">modbusBuildRequest0506</text>
</a>
</g>
</g>
<!-- Node3&#45;&gt;Node9 -->
<g id="edge8" class="edge">
<title>Node3&#45;&gt;Node9</title>
<path fill="none" stroke="#63b8ff" d="M352.06,-134.48C348.58,-135.98 345.2,-137.65 342,-139.5 322.13,-150.97 325.93,-165.14 306,-176.5 300.34,-179.73 294.11,-182.38 287.75,-184.56"/>
<polygon fill="#63b8ff" stroke="#63b8ff" points="353.21,-137.78 361.32,-130.95 350.72,-131.24 353.21,-137.78"/>
</g>
<!-- Node12 -->
<g id="node12" class="node">
<title>Node12</title>
<g id="a_node12"><a xlink:href="master__func_8impl_8h.html#ae9842e659ccd8942905e685923de8916" target="_top" xlink:title="Write multiple coils.">
<polygon fill="white" stroke="#666666" points="290,-167 171,-167 171,-148 290,-148 290,-167"/>
<text text-anchor="middle" x="230.5" y="-155" font-family="Helvetica,sans-Serif" font-size="10.00">modbusBuildRequest15</text>
</a>
</g>
</g>
<!-- Node3&#45;&gt;Node12 -->
<g id="edge11" class="edge">
<title>Node3&#45;&gt;Node12</title>
<path fill="none" stroke="#63b8ff" d="M356.06,-132.65C331.85,-137.48 304.34,-142.97 281.35,-147.56"/>
<polygon fill="#63b8ff" stroke="#63b8ff" points="356.68,-136.1 365.81,-130.71 355.31,-129.24 356.68,-136.1"/>
</g>
<!-- Node13 -->
<g id="node13" class="node">
<title>Node13</title>
<g id="a_node13"><a xlink:href="master__func_8impl_8h.html#aca022c438a427d8f4b03db4427c2b344" target="_top" xlink:title="Write multiple holding registers.">
<polygon fill="white" stroke="#666666" points="290,-130 171,-130 171,-111 290,-111 290,-130"/>
<text text-anchor="middle" x="230.5" y="-118" font-family="Helvetica,sans-Serif" font-size="10.00">modbusBuildRequest16</text>
</a>
</g>
</g>
<!-- Node3&#45;&gt;Node13 -->
<g id="edge12" class="edge">
<title>Node3&#45;&gt;Node13</title>
<path fill="none" stroke="#63b8ff" d="M330.27,-120.5C316.76,-120.5 303.08,-120.5 290.38,-120.5"/>
<polygon fill="#63b8ff" stroke="#63b8ff" points="330.04,-124 340.04,-120.5 330.04,-117 330.04,-124"/>
</g>
<!-- Node14 -->
<g id="node14" class="node">
<title>Node14</title>
<g id="a_node14"><a xlink:href="master__func_8impl_8h.html#a6f2c5d59dee73c80ad54e53cca38aeec" target="_top" xlink:title="Mask write register request.">
<polygon fill="white" stroke="#666666" points="290,-93 171,-93 171,-74 290,-74 290,-93"/>
<text text-anchor="middle" x="230.5" y="-81" font-family="Helvetica,sans-Serif" font-size="10.00">modbusBuildRequest22</text>
</a>
</g>
</g>
<!-- Node3&#45;&gt;Node14 -->
<g id="edge13" class="edge">
<title>Node3&#45;&gt;Node14</title>
<path fill="none" stroke="#63b8ff" d="M356.06,-108.35C331.85,-103.52 304.34,-98.03 281.35,-93.44"/>
<polygon fill="#63b8ff" stroke="#63b8ff" points="355.31,-111.76 365.81,-110.29 356.68,-104.9 355.31,-111.76"/>
</g>
<!-- Node5 -->
<g id="node5" class="node">
<title>Node5</title>
<g id="a_node5"><a xlink:href="master__func_8h.html#aadb2b7e2d3ee4fbde22cdf076713d75e" target="_top" xlink:title="Read multiple coils &#45; a wrapper for modbusBuildRequest01020304()">
<polygon fill="white" stroke="#666666" points="119,-352 0,-352 0,-333 119,-333 119,-352"/>
<text text-anchor="middle" x="59.5" y="-340" font-family="Helvetica,sans-Serif" font-size="10.00">modbusBuildRequest01</text>
</a>
</g>
</g>
<!-- Node4&#45;&gt;Node5 -->
<g id="edge4" class="edge">
<title>Node4&#45;&gt;Node5</title>
<path fill="none" stroke="#63b8ff" d="M202.38,-283.88C180.38,-295.97 148.31,-312.67 119,-324.5 111.81,-327.4 103.96,-330.12 96.42,-332.51"/>
<polygon fill="#63b8ff" stroke="#63b8ff" points="203.95,-287.02 211,-279.1 200.56,-280.9 203.95,-287.02"/>
</g>
<!-- Node6 -->
<g id="node6" class="node">
<title>Node6</title>
<g id="a_node6"><a xlink:href="master__func_8h.html#a2a6452a8200d77483254bef08ee2cf8c" target="_top" xlink:title="Read multiple discrete inputs &#45; a wrapper for modbusBuildRequest01020304()">
<polygon fill="white" stroke="#666666" points="119,-315 0,-315 0,-296 119,-296 119,-315"/>
<text text-anchor="middle" x="59.5" y="-303" font-family="Helvetica,sans-Serif" font-size="10.00">modbusBuildRequest02</text>
</a>
</g>
</g>
<!-- Node4&#45;&gt;Node6 -->
<g id="edge5" class="edge">
<title>Node4&#45;&gt;Node6</title>
<path fill="none" stroke="#63b8ff" d="M173.08,-280.85C151.24,-285.63 126.58,-291.03 105.91,-295.56"/>
<polygon fill="#63b8ff" stroke="#63b8ff" points="173.71,-284.3 182.73,-278.74 172.22,-277.46 173.71,-284.3"/>
</g>
<!-- Node7 -->
<g id="node7" class="node">
<title>Node7</title>
<g id="a_node7"><a xlink:href="master__func_8h.html#a1c7ed51c58b1ef42ee176833c7fd0515" target="_top" xlink:title="Read multiple holding registers &#45; a wrapper for modbusBuildRequest01020304()">
<polygon fill="white" stroke="#666666" points="119,-278 0,-278 0,-259 119,-259 119,-278"/>
<text text-anchor="middle" x="59.5" y="-266" font-family="Helvetica,sans-Serif" font-size="10.00">modbusBuildRequest03</text>
</a>
</g>
</g>
<!-- Node4&#45;&gt;Node7 -->
<g id="edge6" class="edge">
<title>Node4&#45;&gt;Node7</title>
<path fill="none" stroke="#63b8ff" d="M143.45,-268.5C135.34,-268.5 127.26,-268.5 119.5,-268.5"/>
<polygon fill="#63b8ff" stroke="#63b8ff" points="143.37,-272 153.37,-268.5 143.37,-265 143.37,-272"/>
</g>
<!-- Node8 -->
<g id="node8" class="node">
<title>Node8</title>
<g id="a_node8"><a xlink:href="master__func_8h.html#a22bf4541196b3e88c0a86861d334e3b1" target="_top" xlink:title="Read multiple input registers &#45; a wrapper for modbusBuildRequest01020304()">
<polygon fill="white" stroke="#666666" points="119,-241 0,-241 0,-222 119,-222 119,-241"/>
<text text-anchor="middle" x="59.5" y="-229" font-family="Helvetica,sans-Serif" font-size="10.00">modbusBuildRequest04</text>
</a>
</g>
</g>
<!-- Node4&#45;&gt;Node8 -->
<g id="edge7" class="edge">
<title>Node4&#45;&gt;Node8</title>
<path fill="none" stroke="#63b8ff" d="M173.08,-256.15C151.24,-251.37 126.58,-245.97 105.91,-241.44"/>
<polygon fill="#63b8ff" stroke="#63b8ff" points="172.22,-259.54 182.73,-258.26 173.71,-252.7 172.22,-259.54"/>
</g>
<!-- Node10 -->
<g id="node10" class="node">
<title>Node10</title>
<g id="a_node10"><a xlink:href="master__func_8h.html#a7151355c8c34af355fd779f88a64e125" target="_top" xlink:title="Write single coil &#45; a wrapper for modbusBuildRequest0506()">
<polygon fill="white" stroke="#666666" points="119,-204 0,-204 0,-185 119,-185 119,-204"/>
<text text-anchor="middle" x="59.5" y="-192" font-family="Helvetica,sans-Serif" font-size="10.00">modbusBuildRequest05</text>
</a>
</g>
</g>
<!-- Node9&#45;&gt;Node10 -->
<g id="edge9" class="edge">
<title>Node9&#45;&gt;Node10</title>
<path fill="none" stroke="#63b8ff" d="M153.73,-194.5C142.22,-194.5 130.5,-194.5 119.42,-194.5"/>
<polygon fill="#63b8ff" stroke="#63b8ff" points="153.61,-198 163.61,-194.5 153.61,-191 153.61,-198"/>
</g>
<!-- Node11 -->
<g id="node11" class="node">
<title>Node11</title>
<g id="a_node11"><a xlink:href="master__func_8h.html#a56779853bdfd2bb75601be746c20eb09" target="_top" xlink:title="Write single holding register &#45; a wrapper for modbusBuildRequest0506()">
<polygon fill="white" stroke="#666666" points="119,-167 0,-167 0,-148 119,-148 119,-167"/>
<text text-anchor="middle" x="59.5" y="-155" font-family="Helvetica,sans-Serif" font-size="10.00">modbusBuildRequest06</text>
</a>
</g>
</g>
<!-- Node9&#45;&gt;Node11 -->
<g id="edge10" class="edge">
<title>Node9&#45;&gt;Node11</title>
<path fill="none" stroke="#63b8ff" d="M173.08,-182.15C151.24,-177.37 126.58,-171.97 105.91,-167.44"/>
<polygon fill="#63b8ff" stroke="#63b8ff" points="172.22,-185.54 182.73,-184.26 173.71,-178.7 172.22,-185.54"/>
</g>
<!-- Node16 -->
<g id="node16" class="node">
<title>Node16</title>
<g id="a_node16"><a xlink:href="classllm_1_1Master.html#adae54d760d1eb2f0babcaff59325376d" target="_top" xlink:title=" ">
<polygon fill="white" stroke="#666666" points="282.5,-56 178.5,-56 178.5,-37 282.5,-37 282.5,-56"/>
<text text-anchor="middle" x="230.5" y="-44" font-family="Helvetica,sans-Serif" font-size="10.00">llm::Master::~Master</text>
</a>
</g>
</g>
<!-- Node15&#45;&gt;Node16 -->
<g id="edge15" class="edge">
<title>Node15&#45;&gt;Node16</title>
<path fill="none" stroke="#63b8ff" d="M349.33,-63.65C327.41,-60.46 303.45,-56.97 282.91,-53.98"/>
<polygon fill="#63b8ff" stroke="#63b8ff" points="348.69,-67.09 359.09,-65.07 349.7,-60.17 348.69,-67.09"/>
</g>
<!-- Node18 -->
<g id="node18" class="node">
<title>Node18</title>
<g id="a_node18"><a xlink:href="classllm_1_1Master.html#a6c3883d0f98a5b4255a02f46f33c2423" target="_top" xlink:title=" ">
<polygon fill="white" stroke="#666666" points="291,-19 170,-19 170,0 291,0 291,-19"/>
<text text-anchor="middle" x="230.5" y="-7" font-family="Helvetica,sans-Serif" font-size="10.00">llm::Master::freeRequest</text>
</a>
</g>
</g>
<!-- Node17&#45;&gt;Node18 -->
<g id="edge17" class="edge">
<title>Node17&#45;&gt;Node18</title>
<path fill="none" stroke="#63b8ff" d="M338,-19.83C322.39,-18.32 306.26,-16.75 291.41,-15.31"/>
<polygon fill="#63b8ff" stroke="#63b8ff" points="337.45,-23.3 347.74,-20.78 338.12,-16.33 337.45,-23.3"/>
</g>
</g>
</svg>
