<?xml version="1.0" encoding="UTF-8" standalone="no"?>
<!DOCTYPE svg PUBLIC "-//W3C//DTD SVG 1.1//EN"
 "http://www.w3.org/Graphics/SVG/1.1/DTD/svg11.dtd">
<!-- Generated by graphviz version 7.0.5 (20221223.1930)
 -->
<!-- Title: include/lightmodbus/master_func.h Pages: 1 -->
<svg width="165pt" height="203pt"
 viewBox="0.00 0.00 165.00 203.00" xmlns="http://www.w3.org/2000/svg" xmlns:xlink="http://www.w3.org/1999/xlink">
<g id="graph0" class="graph" transform="scale(1 1) rotate(0) translate(4 199)">
<title>include/lightmodbus/master_func.h</title>
<!-- Node1 -->
<g id="node1" class="node">
<title>Node1</title>
<g id="a_node1"><a xlink:title="Master&#39;s functions for building requests and parsing responses (header)">
<polygon fill="#999999" stroke="#666666" points="103,-195 0,-195 0,-165 103,-165 103,-195"/>
<text text-anchor="start" x="8" y="-183" font-family="Helvetica,sans-Serif" font-size="10.00">include/lightmodbus</text>
<text text-anchor="middle" x="51.5" y="-172" font-family="Helvetica,sans-Serif" font-size="10.00">/master_func.h</text>
</a>
</g>
</g>
<!-- Node2 -->
<g id="node2" class="node">
<title>Node2</title>
<g id="a_node2"><a xlink:href="base_8h.html" target="_top" xlink:title="Common types and functions (header)">
<polygon fill="white" stroke="#666666" points="49,-74 4,-74 4,-55 49,-55 49,-74"/>
<text text-anchor="middle" x="26.5" y="-62" font-family="Helvetica,sans-Serif" font-size="10.00">base.h</text>
</a>
</g>
</g>
<!-- Node1&#45;&gt;Node2 -->
<g id="edge1" class="edge">
<title>Node1&#45;&gt;Node2</title>
<path fill="none" stroke="#63b8ff" d="M48.33,-164.63C43.9,-144.49 35.82,-107.83 30.83,-85.18"/>
<polygon fill="#63b8ff" stroke="#63b8ff" points="34.32,-84.72 28.75,-75.71 27.48,-86.23 34.32,-84.72"/>
</g>
<!-- Node4 -->
<g id="node4" class="node">
<title>Node4</title>
<g id="a_node4"><a xlink:href="master_8h.html" target="_top" xlink:title="Master&#39;s types and basic functions (header)">
<polygon fill="white" stroke="#666666" points="106.5,-129 52.5,-129 52.5,-110 106.5,-110 106.5,-129"/>
<text text-anchor="middle" x="79.5" y="-117" font-family="Helvetica,sans-Serif" font-size="10.00">master.h</text>
</a>
</g>
</g>
<!-- Node1&#45;&gt;Node4 -->
<g id="edge3" class="edge">
<title>Node1&#45;&gt;Node4</title>
<path fill="none" stroke="#63b8ff" d="M58.42,-164.54C62.03,-157 66.49,-147.67 70.38,-139.55"/>
<polygon fill="#63b8ff" stroke="#63b8ff" points="73.53,-141.07 74.69,-130.54 67.22,-138.05 73.53,-141.07"/>
</g>
<!-- Node3 -->
<g id="node3" class="node">
<title>Node3</title>
<g id="a_node3"><a xlink:title=" ">
<polygon fill="#e0e0e0" stroke="#999999" points="75.5,-19 27.5,-19 27.5,0 75.5,0 75.5,-19"/>
<text text-anchor="middle" x="51.5" y="-7" font-family="Helvetica,sans-Serif" font-size="10.00">stdint.h</text>
</a>
</g>
</g>
<!-- Node2&#45;&gt;Node3 -->
<g id="edge2" class="edge">
<title>Node2&#45;&gt;Node3</title>
<path fill="none" stroke="#63b8ff" d="M30.63,-54.75C33.83,-47.96 38.39,-38.3 42.43,-29.73"/>
<polygon fill="#63b8ff" stroke="#63b8ff" points="45.54,-31.35 46.64,-20.81 39.2,-28.36 45.54,-31.35"/>
</g>
<!-- Node4&#45;&gt;Node2 -->
<g id="edge6" class="edge">
<title>Node4&#45;&gt;Node2</title>
<path fill="none" stroke="#63b8ff" d="M70.75,-109.75C63.35,-102.35 52.54,-91.54 43.45,-82.45"/>
<polygon fill="#63b8ff" stroke="#63b8ff" points="46.06,-80.11 36.51,-75.51 41.11,-85.06 46.06,-80.11"/>
</g>
<!-- Node4&#45;&gt;Node3 -->
<g id="edge4" class="edge">
<title>Node4&#45;&gt;Node3</title>
<path fill="none" stroke="#63b8ff" d="M77.21,-109.66C72.76,-92.5 62.84,-54.26 56.71,-30.6"/>
<polygon fill="#63b8ff" stroke="#63b8ff" points="60.1,-29.73 54.2,-20.93 53.32,-31.48 60.1,-29.73"/>
</g>
<!-- Node5 -->
<g id="node5" class="node">
<title>Node5</title>
<g id="a_node5"><a xlink:title=" ">
<polygon fill="#e0e0e0" stroke="#999999" points="157,-74 106,-74 106,-55 157,-55 157,-74"/>
<text text-anchor="middle" x="131.5" y="-62" font-family="Helvetica,sans-Serif" font-size="10.00">stddef.h</text>
</a>
</g>
</g>
<!-- Node4&#45;&gt;Node5 -->
<g id="edge5" class="edge">
<title>Node4&#45;&gt;Node5</title>
<path fill="none" stroke="#63b8ff" d="M88.09,-109.75C95.34,-102.35 105.95,-91.54 114.87,-82.45"/>
<polygon fill="#63b8ff" stroke="#63b8ff" points="117.16,-85.11 121.67,-75.52 112.16,-80.21 117.16,-85.11"/>
</g>
</g>
</svg>
