<?xml version="1.0" encoding="UTF-8" standalone="no"?>
<!DOCTYPE svg PUBLIC "-//W3C//DTD SVG 1.1//EN"
 "http://www.w3.org/Graphics/SVG/1.1/DTD/svg11.dtd">
<!-- Generated by graphviz version 7.0.5 (20221223.1930)
 -->
<!-- Title: modbusBuildExceptionRTU Pages: 1 -->
<svg width="664pt" height="193pt"
 viewBox="0.00 0.00 664.00 193.00" xmlns="http://www.w3.org/2000/svg" xmlns:xlink="http://www.w3.org/1999/xlink">
<g id="graph0" class="graph" transform="scale(1 1) rotate(0) translate(4 189)">
<title>modbusBuildExceptionRTU</title>
<!-- Node1 -->
<g id="node1" class="node">
<title>Node1</title>
<g id="a_node1"><a xlink:title="Builds a Modbus RTU exception.">
<polygon fill="#999999" stroke="#666666" points="135,-111 0,-111 0,-92 135,-92 135,-111"/>
<text text-anchor="middle" x="67.5" y="-99" font-family="Helvetica,sans-Serif" font-size="10.00">modbusBuildExceptionRTU</text>
</a>
</g>
</g>
<!-- Node2 -->
<g id="node2" class="node">
<title>Node2</title>
<g id="a_node2"><a xlink:href="slave_8impl_8h.html#a58243ce1e1adaffd0a3260edc2d03603" target="_top" xlink:title="Builds an exception response frame.">
<polygon fill="white" stroke="#666666" points="286,-157 171,-157 171,-138 286,-138 286,-157"/>
<text text-anchor="middle" x="228.5" y="-145" font-family="Helvetica,sans-Serif" font-size="10.00">modbusBuildException</text>
</a>
</g>
</g>
<!-- Node1&#45;&gt;Node2 -->
<g id="edge1" class="edge">
<title>Node1&#45;&gt;Node2</title>
<path fill="none" stroke="#63b8ff" d="M103,-111.48C126.23,-118.2 157.11,-127.14 182.3,-134.42"/>
<polygon fill="#63b8ff" stroke="#63b8ff" points="181.03,-137.7 191.61,-137.12 182.98,-130.98 181.03,-137.7"/>
</g>
<!-- Node6 -->
<g id="node6" class="node">
<title>Node6</title>
<g id="a_node6"><a xlink:href="base_8h.html#a64880e7075f445881485396f3aa869c5" target="_top" xlink:title="Checks if ModbusErrorInfo contains an error.">
<polygon fill="white" stroke="#666666" points="264.5,-111 192.5,-111 192.5,-92 264.5,-92 264.5,-111"/>
<text text-anchor="middle" x="228.5" y="-99" font-family="Helvetica,sans-Serif" font-size="10.00">modbusIsOk</text>
</a>
</g>
</g>
<!-- Node1&#45;&gt;Node6 -->
<g id="edge5" class="edge">
<title>Node1&#45;&gt;Node6</title>
<path fill="none" stroke="#63b8ff" d="M135.47,-101.5C150.72,-101.5 166.6,-101.5 180.79,-101.5"/>
<polygon fill="#63b8ff" stroke="#63b8ff" points="180.75,-105 190.75,-101.5 180.75,-98 180.75,-105"/>
</g>
<!-- Node9 -->
<g id="node9" class="node">
<title>Node9</title>
<g id="a_node9"><a xlink:href="base_8h.html#af2cafe9debf86bea7042b4c40bb288cd" target="_top" xlink:title="Sets up address and CRC in a Modbus RTU frame.">
<polygon fill="white" stroke="#666666" points="275.5,-56 181.5,-56 181.5,-37 275.5,-37 275.5,-56"/>
<text text-anchor="middle" x="228.5" y="-44" font-family="Helvetica,sans-Serif" font-size="10.00">modbusPackRTU</text>
</a>
</g>
</g>
<!-- Node1&#45;&gt;Node9 -->
<g id="edge8" class="edge">
<title>Node1&#45;&gt;Node9</title>
<path fill="none" stroke="#63b8ff" d="M97.29,-91.54C122.65,-82.77 159.83,-69.91 187.97,-60.17"/>
<polygon fill="#63b8ff" stroke="#63b8ff" points="188.92,-63.55 197.22,-56.97 186.63,-56.93 188.92,-63.55"/>
</g>
<!-- Node3 -->
<g id="node3" class="node">
<title>Node3</title>
<g id="a_node3"><a xlink:href="slave_8h.html#ad1165bb6d12af1db502a05df5da55aed" target="_top" xlink:title="Allocates memory for slave&#39;s response frame.">
<polygon fill="white" stroke="#666666" points="477,-167 322,-167 322,-148 477,-148 477,-167"/>
<text text-anchor="middle" x="399.5" y="-155" font-family="Helvetica,sans-Serif" font-size="10.00">modbusSlaveAllocateResponse</text>
</a>
</g>
</g>
<!-- Node2&#45;&gt;Node3 -->
<g id="edge2" class="edge">
<title>Node2&#45;&gt;Node3</title>
<path fill="none" stroke="#63b8ff" d="M286.24,-150.86C294.09,-151.32 302.29,-151.81 310.54,-152.3"/>
<polygon fill="#63b8ff" stroke="#63b8ff" points="310.09,-155.77 320.28,-152.87 310.5,-148.79 310.09,-155.77"/>
</g>
<!-- Node4 -->
<g id="node4" class="node">
<title>Node4</title>
<g id="a_node4"><a xlink:href="base_8impl_8h.html#a54f7d1db7f58ffd329b1955ad1a66f37" target="_top" xlink:title="Allocates memory to hold Modbus ADU.">
<polygon fill="white" stroke="#666666" points="651,-185 518,-185 518,-166 651,-166 651,-185"/>
<text text-anchor="middle" x="584.5" y="-173" font-family="Helvetica,sans-Serif" font-size="10.00">modbusBufferAllocateADU</text>
</a>
</g>
</g>
<!-- Node3&#45;&gt;Node4 -->
<g id="edge3" class="edge">
<title>Node3&#45;&gt;Node4</title>
<path fill="none" stroke="#63b8ff" d="M477.31,-165.06C486.94,-166 496.8,-166.97 506.43,-167.92"/>
<polygon fill="#63b8ff" stroke="#63b8ff" points="505.82,-171.38 516.11,-168.87 506.5,-164.41 505.82,-171.38"/>
</g>
<!-- Node5 -->
<g id="node5" class="node">
<title>Node5</title>
<g id="a_node5"><a xlink:href="slave_8h.html#a6517cff5567f0f07444d140edc7dfafd" target="_top" xlink:title="Retreieves the custom context pointer.">
<polygon fill="white" stroke="#666666" points="656,-148 513,-148 513,-129 656,-129 656,-148"/>
<text text-anchor="middle" x="584.5" y="-136" font-family="Helvetica,sans-Serif" font-size="10.00">modbusSlaveGetUserPointer</text>
</a>
</g>
</g>
<!-- Node3&#45;&gt;Node5 -->
<g id="edge4" class="edge">
<title>Node3&#45;&gt;Node5</title>
<path fill="none" stroke="#63b8ff" d="M477.31,-149.52C485.29,-148.7 493.42,-147.85 501.45,-147.02"/>
<polygon fill="#63b8ff" stroke="#63b8ff" points="501.63,-150.52 511.21,-146.01 500.91,-143.56 501.63,-150.52"/>
</g>
<!-- Node7 -->
<g id="node7" class="node">
<title>Node7</title>
<g id="a_node7"><a xlink:href="base_8h.html#a29d2a7853b328113e4fcddae85fd3ce5" target="_top" xlink:title="Returns ModbusError contained in ModbusErrorInfo.">
<polygon fill="white" stroke="#666666" points="454.5,-130 344.5,-130 344.5,-111 454.5,-111 454.5,-130"/>
<text text-anchor="middle" x="399.5" y="-118" font-family="Helvetica,sans-Serif" font-size="10.00">modbusGetErrorCode</text>
</a>
</g>
</g>
<!-- Node6&#45;&gt;Node7 -->
<g id="edge6" class="edge">
<title>Node6&#45;&gt;Node7</title>
<path fill="none" stroke="#63b8ff" d="M264.93,-105.48C284.64,-107.7 309.81,-110.53 332.97,-113.13"/>
<polygon fill="#63b8ff" stroke="#63b8ff" points="332.31,-116.58 342.64,-114.22 333.09,-109.62 332.31,-116.58"/>
</g>
<!-- Node8 -->
<g id="node8" class="node">
<title>Node8</title>
<g id="a_node8"><a xlink:href="base_8h.html#a9ee4c2e633c7a42f88acc09b95f8171e" target="_top" xlink:title="Returns uint8_t describing error source of ModbusErrorInfo.">
<polygon fill="white" stroke="#666666" points="458.5,-93 340.5,-93 340.5,-74 458.5,-74 458.5,-93"/>
<text text-anchor="middle" x="399.5" y="-81" font-family="Helvetica,sans-Serif" font-size="10.00">modbusGetErrorSource</text>
</a>
</g>
</g>
<!-- Node6&#45;&gt;Node8 -->
<g id="edge7" class="edge">
<title>Node6&#45;&gt;Node8</title>
<path fill="none" stroke="#63b8ff" d="M264.93,-97.73C283.47,-95.75 306.84,-93.26 328.83,-90.92"/>
<polygon fill="#63b8ff" stroke="#63b8ff" points="329.09,-94.41 338.67,-89.87 328.35,-87.45 329.09,-94.41"/>
</g>
<!-- Node10 -->
<g id="node10" class="node">
<title>Node10</title>
<g id="a_node10"><a xlink:href="base_8impl_8h.html#a11346a546b84663cd92cb30f4ffd1393" target="_top" xlink:title="Calculates 16&#45;bit Modbus CRC of provided data.">
<polygon fill="white" stroke="#666666" points="435,-56 364,-56 364,-37 435,-37 435,-56"/>
<text text-anchor="middle" x="399.5" y="-44" font-family="Helvetica,sans-Serif" font-size="10.00">modbusCRC</text>
</a>
</g>
</g>
<!-- Node9&#45;&gt;Node10 -->
<g id="edge9" class="edge">
<title>Node9&#45;&gt;Node10</title>
<path fill="none" stroke="#63b8ff" d="M275.68,-46.5C299.53,-46.5 328.55,-46.5 352.39,-46.5"/>
<polygon fill="#63b8ff" stroke="#63b8ff" points="352.12,-50 362.12,-46.5 352.12,-43 352.12,-50"/>
</g>
<!-- Node11 -->
<g id="node11" class="node">
<title>Node11</title>
<g id="a_node11"><a xlink:href="base_8h.html#af718da7da634f311c2ae8db6be3d9027" target="_top" xlink:title="Safely writes a little&#45;endian 16&#45;bit word to provided pointer.">
<polygon fill="white" stroke="#666666" points="435.5,-19 363.5,-19 363.5,0 435.5,0 435.5,-19"/>
<text text-anchor="middle" x="399.5" y="-7" font-family="Helvetica,sans-Serif" font-size="10.00">modbusWLE</text>
</a>
</g>
</g>
<!-- Node9&#45;&gt;Node11 -->
<g id="edge10" class="edge">
<title>Node9&#45;&gt;Node11</title>
<path fill="none" stroke="#63b8ff" d="M274.79,-36.58C298.76,-31.34 328.14,-24.9 352.25,-19.62"/>
<polygon fill="#63b8ff" stroke="#63b8ff" points="352.77,-23.09 361.79,-17.54 351.28,-16.26 352.77,-23.09"/>
</g>
</g>
</svg>
