<?xml version="1.0" encoding="UTF-8" standalone="no"?>
<!DOCTYPE svg PUBLIC "-//W3C//DTD SVG 1.1//EN"
 "http://www.w3.org/Graphics/SVG/1.1/DTD/svg11.dtd">
<!-- Generated by graphviz version 7.0.5 (20221223.1930)
 -->
<!-- Title: modbusParseRequest0506 Pages: 1 -->
<svg width="663pt" height="140pt"
 viewBox="0.00 0.00 663.00 140.00" xmlns="http://www.w3.org/2000/svg" xmlns:xlink="http://www.w3.org/1999/xlink">
<g id="graph0" class="graph" transform="scale(1 1) rotate(0) translate(4 136)">
<title>modbusParseRequest0506</title>
<!-- Node1 -->
<g id="node1" class="node">
<title>Node1</title>
<g id="a_node1"><a xlink:title="Handles requests 05 and 06 (Write Single XX) and generates response.">
<polygon fill="#999999" stroke="#666666" points="134,-75 0,-75 0,-56 134,-56 134,-75"/>
<text text-anchor="middle" x="67" y="-63" font-family="Helvetica,sans-Serif" font-size="10.00">modbusParseRequest0506</text>
</a>
</g>
</g>
<!-- Node2 -->
<g id="node2" class="node">
<title>Node2</title>
<g id="a_node2"><a xlink:href="slave_8impl_8h.html#a58243ce1e1adaffd0a3260edc2d03603" target="_top" xlink:title="Builds an exception response frame.">
<polygon fill="white" stroke="#666666" points="285,-132 170,-132 170,-113 285,-113 285,-132"/>
<text text-anchor="middle" x="227.5" y="-120" font-family="Helvetica,sans-Serif" font-size="10.00">modbusBuildException</text>
</a>
</g>
</g>
<!-- Node1&#45;&gt;Node2 -->
<g id="edge1" class="edge">
<title>Node1&#45;&gt;Node2</title>
<path fill="none" stroke="#63b8ff" d="M95.61,-75.43C121.21,-84.64 159.55,-98.43 188.13,-108.7"/>
<polygon fill="#63b8ff" stroke="#63b8ff" points="186.92,-111.99 197.52,-112.08 189.29,-105.4 186.92,-111.99"/>
</g>
<!-- Node3 -->
<g id="node3" class="node">
<title>Node3</title>
<g id="a_node3"><a xlink:href="slave_8h.html#ad1165bb6d12af1db502a05df5da55aed" target="_top" xlink:title="Allocates memory for slave&#39;s response frame.">
<polygon fill="white" stroke="#666666" points="476,-113 321,-113 321,-94 476,-94 476,-113"/>
<text text-anchor="middle" x="398.5" y="-101" font-family="Helvetica,sans-Serif" font-size="10.00">modbusSlaveAllocateResponse</text>
</a>
</g>
</g>
<!-- Node1&#45;&gt;Node3 -->
<g id="edge6" class="edge">
<title>Node1&#45;&gt;Node3</title>
<path fill="none" stroke="#63b8ff" d="M134.28,-73.14C184.65,-78.95 254.42,-87 309.47,-93.35"/>
<polygon fill="#63b8ff" stroke="#63b8ff" points="308.79,-96.79 319.13,-94.46 309.6,-89.84 308.79,-96.79"/>
</g>
<!-- Node6 -->
<g id="node6" class="node">
<title>Node6</title>
<g id="a_node6"><a xlink:href="base_8h.html#ace96da9afdf1e1796a6e2d7ac1f6c81a" target="_top" xlink:title="Safely reads a big&#45;endian 16&#45;bit word from provided pointer.">
<polygon fill="white" stroke="#666666" points="263,-56 192,-56 192,-37 263,-37 263,-56"/>
<text text-anchor="middle" x="227.5" y="-44" font-family="Helvetica,sans-Serif" font-size="10.00">modbusRBE</text>
</a>
</g>
</g>
<!-- Node1&#45;&gt;Node6 -->
<g id="edge5" class="edge">
<title>Node1&#45;&gt;Node6</title>
<path fill="none" stroke="#63b8ff" d="M134.3,-57.55C149.83,-55.69 166.04,-53.75 180.46,-52.02"/>
<polygon fill="#63b8ff" stroke="#63b8ff" points="180.58,-55.53 190.09,-50.86 179.75,-48.58 180.58,-55.53"/>
</g>
<!-- Node7 -->
<g id="node7" class="node">
<title>Node7</title>
<g id="a_node7"><a xlink:href="base_8h.html#a73b9f793bbe67a1968cc8c53a22d4c4b" target="_top" xlink:title="Safely writes a big&#45;endian 16&#45;bit word to provided pointer.">
<polygon fill="white" stroke="#666666" points="264,-19 191,-19 191,0 264,0 264,-19"/>
<text text-anchor="middle" x="227.5" y="-7" font-family="Helvetica,sans-Serif" font-size="10.00">modbusWBE</text>
</a>
</g>
</g>
<!-- Node1&#45;&gt;Node7 -->
<g id="edge7" class="edge">
<title>Node1&#45;&gt;Node7</title>
<path fill="none" stroke="#63b8ff" d="M94.78,-55.59C115.32,-48.04 144.39,-37.45 170,-28.5 175.1,-26.72 180.48,-24.87 185.8,-23.06"/>
<polygon fill="#63b8ff" stroke="#63b8ff" points="186.76,-26.43 195.11,-19.91 184.52,-19.8 186.76,-26.43"/>
</g>
<!-- Node2&#45;&gt;Node3 -->
<g id="edge2" class="edge">
<title>Node2&#45;&gt;Node3</title>
<path fill="none" stroke="#63b8ff" d="M285.24,-116.12C293.09,-115.24 301.29,-114.32 309.54,-113.39"/>
<polygon fill="#63b8ff" stroke="#63b8ff" points="309.74,-116.89 319.28,-112.29 308.95,-109.93 309.74,-116.89"/>
</g>
<!-- Node4 -->
<g id="node4" class="node">
<title>Node4</title>
<g id="a_node4"><a xlink:href="base_8impl_8h.html#a54f7d1db7f58ffd329b1955ad1a66f37" target="_top" xlink:title="Allocates memory to hold Modbus ADU.">
<polygon fill="white" stroke="#666666" points="650,-132 517,-132 517,-113 650,-113 650,-132"/>
<text text-anchor="middle" x="583.5" y="-120" font-family="Helvetica,sans-Serif" font-size="10.00">modbusBufferAllocateADU</text>
</a>
</g>
</g>
<!-- Node3&#45;&gt;Node4 -->
<g id="edge3" class="edge">
<title>Node3&#45;&gt;Node4</title>
<path fill="none" stroke="#63b8ff" d="M476.31,-111.48C485.94,-112.48 495.8,-113.5 505.43,-114.5"/>
<polygon fill="#63b8ff" stroke="#63b8ff" points="504.8,-117.95 515.11,-115.5 505.53,-110.99 504.8,-117.95"/>
</g>
<!-- Node5 -->
<g id="node5" class="node">
<title>Node5</title>
<g id="a_node5"><a xlink:href="slave_8h.html#a6517cff5567f0f07444d140edc7dfafd" target="_top" xlink:title="Retreieves the custom context pointer.">
<polygon fill="white" stroke="#666666" points="655,-95 512,-95 512,-76 655,-76 655,-95"/>
<text text-anchor="middle" x="583.5" y="-83" font-family="Helvetica,sans-Serif" font-size="10.00">modbusSlaveGetUserPointer</text>
</a>
</g>
</g>
<!-- Node3&#45;&gt;Node5 -->
<g id="edge4" class="edge">
<title>Node3&#45;&gt;Node5</title>
<path fill="none" stroke="#63b8ff" d="M476.31,-95.94C484.29,-95.16 492.42,-94.36 500.45,-93.57"/>
<polygon fill="#63b8ff" stroke="#63b8ff" points="500.6,-97.07 510.21,-92.61 499.92,-90.11 500.6,-97.07"/>
</g>
</g>
</svg>
