<?xml version="1.0" encoding="UTF-8" standalone="no"?>
<!DOCTYPE svg PUBLIC "-//W3C//DTD SVG 1.1//EN"
 "http://www.w3.org/Graphics/SVG/1.1/DTD/svg11.dtd">
<!-- Generated by graphviz version 7.0.5 (20221223.1930)
 -->
<!-- Title: modbusParseRequest01020304 Pages: 1 -->
<svg width="694pt" height="251pt"
 viewBox="0.00 0.00 694.00 251.00" xmlns="http://www.w3.org/2000/svg" xmlns:xlink="http://www.w3.org/1999/xlink">
<g id="graph0" class="graph" transform="scale(1 1) rotate(0) translate(4 247)">
<title>modbusParseRequest01020304</title>
<!-- Node1 -->
<g id="node1" class="node">
<title>Node1</title>
<g id="a_node1"><a xlink:title="Handles requests 01, 02, 03 and 04 (Read Multiple XX) and generates response.">
<polygon fill="#999999" stroke="#666666" points="155,-130 0,-130 0,-111 155,-111 155,-130"/>
<text text-anchor="middle" x="77.5" y="-118" font-family="Helvetica,sans-Serif" font-size="10.00">modbusParseRequest01020304</text>
</a>
</g>
</g>
<!-- Node2 -->
<g id="node2" class="node">
<title>Node2</title>
<g id="a_node2"><a xlink:href="base_8h.html#af23a50b36bef9c09ac82214a52ff4d58" target="_top" xlink:title="Returns number of bytes necessary to hold given number of bits.">
<polygon fill="white" stroke="#666666" points="305.5,-243 201.5,-243 201.5,-224 305.5,-224 305.5,-243"/>
<text text-anchor="middle" x="253.5" y="-231" font-family="Helvetica,sans-Serif" font-size="10.00">modbusBitsToBytes</text>
</a>
</g>
</g>
<!-- Node1&#45;&gt;Node2 -->
<g id="edge1" class="edge">
<title>Node1&#45;&gt;Node2</title>
<path fill="none" stroke="#63b8ff" d="M87.41,-130.39C105.23,-149.57 147.31,-192.03 191,-215.5 193.66,-216.93 196.46,-218.26 199.32,-219.5"/>
<polygon fill="#63b8ff" stroke="#63b8ff" points="197.89,-222.7 208.48,-223.02 200.4,-216.16 197.89,-222.7"/>
</g>
<!-- Node3 -->
<g id="node3" class="node">
<title>Node3</title>
<g id="a_node3"><a xlink:href="slave_8impl_8h.html#a58243ce1e1adaffd0a3260edc2d03603" target="_top" xlink:title="Builds an exception response frame.">
<polygon fill="white" stroke="#666666" points="311,-206 196,-206 196,-187 311,-187 311,-206"/>
<text text-anchor="middle" x="253.5" y="-194" font-family="Helvetica,sans-Serif" font-size="10.00">modbusBuildException</text>
</a>
</g>
</g>
<!-- Node1&#45;&gt;Node3 -->
<g id="edge2" class="edge">
<title>Node1&#45;&gt;Node3</title>
<path fill="none" stroke="#63b8ff" d="M99.07,-130.46C121.49,-141.22 158.53,-158.68 191,-172.5 198.83,-175.83 207.29,-179.25 215.36,-182.43"/>
<polygon fill="#63b8ff" stroke="#63b8ff" points="214.02,-185.66 224.61,-186.02 216.56,-179.14 214.02,-185.66"/>
</g>
<!-- Node4 -->
<g id="node4" class="node">
<title>Node4</title>
<g id="a_node4"><a xlink:href="slave_8h.html#ad1165bb6d12af1db502a05df5da55aed" target="_top" xlink:title="Allocates memory for slave&#39;s response frame.">
<polygon fill="white" stroke="#666666" points="507,-187 352,-187 352,-168 507,-168 507,-187"/>
<text text-anchor="middle" x="429.5" y="-175" font-family="Helvetica,sans-Serif" font-size="10.00">modbusSlaveAllocateResponse</text>
</a>
</g>
</g>
<!-- Node1&#45;&gt;Node4 -->
<g id="edge9" class="edge">
<title>Node1&#45;&gt;Node4</title>
<path fill="none" stroke="#63b8ff" d="M136.87,-130.46C154.28,-133.4 173.41,-136.61 191,-139.5 245.53,-148.47 307.15,-158.32 353.96,-165.74"/>
<polygon fill="#63b8ff" stroke="#63b8ff" points="353.3,-169.18 363.72,-167.29 354.4,-162.27 353.3,-169.18"/>
</g>
<!-- Node7 -->
<g id="node7" class="node">
<title>Node7</title>
<g id="a_node7"><a xlink:href="base_8h.html#a61619958551d902c14ab6e51fb842ea0" target="_top" xlink:title="Checks whether provided address range causes an uint16_t overflow.">
<polygon fill="white" stroke="#666666" points="316,-130 191,-130 191,-111 316,-111 316,-130"/>
<text text-anchor="middle" x="253.5" y="-118" font-family="Helvetica,sans-Serif" font-size="10.00">modbusCheckRangeU16</text>
</a>
</g>
</g>
<!-- Node1&#45;&gt;Node7 -->
<g id="edge6" class="edge">
<title>Node1&#45;&gt;Node7</title>
<path fill="none" stroke="#63b8ff" d="M155.33,-120.5C163.28,-120.5 171.34,-120.5 179.25,-120.5"/>
<polygon fill="#63b8ff" stroke="#63b8ff" points="179.19,-124 189.19,-120.5 179.19,-117 179.19,-124"/>
</g>
<!-- Node8 -->
<g id="node8" class="node">
<title>Node8</title>
<g id="a_node8"><a xlink:href="base_8h.html#a5d9947eb500e2d0c87491a0adce53c2a" target="_top" xlink:title="Writes n&#45;th bit in an array.">
<polygon fill="white" stroke="#666666" points="302.5,-93 204.5,-93 204.5,-74 302.5,-74 302.5,-93"/>
<text text-anchor="middle" x="253.5" y="-81" font-family="Helvetica,sans-Serif" font-size="10.00">modbusMaskWrite</text>
</a>
</g>
</g>
<!-- Node1&#45;&gt;Node8 -->
<g id="edge7" class="edge">
<title>Node1&#45;&gt;Node8</title>
<path fill="none" stroke="#63b8ff" d="M125.13,-110.58C146.49,-106.04 172.01,-100.62 194.59,-95.81"/>
<polygon fill="#63b8ff" stroke="#63b8ff" points="195.21,-99.26 204.26,-93.76 193.75,-92.41 195.21,-99.26"/>
</g>
<!-- Node9 -->
<g id="node9" class="node">
<title>Node9</title>
<g id="a_node9"><a xlink:href="base_8h.html#ace96da9afdf1e1796a6e2d7ac1f6c81a" target="_top" xlink:title="Safely reads a big&#45;endian 16&#45;bit word from provided pointer.">
<polygon fill="white" stroke="#666666" points="289,-56 218,-56 218,-37 289,-37 289,-56"/>
<text text-anchor="middle" x="253.5" y="-44" font-family="Helvetica,sans-Serif" font-size="10.00">modbusRBE</text>
</a>
</g>
</g>
<!-- Node1&#45;&gt;Node9 -->
<g id="edge8" class="edge">
<title>Node1&#45;&gt;Node9</title>
<path fill="none" stroke="#63b8ff" d="M96.42,-110.66C118.3,-98.9 156.64,-79.11 191,-65.5 196.06,-63.5 201.42,-61.57 206.78,-59.76"/>
<polygon fill="#63b8ff" stroke="#63b8ff" points="207.82,-63.1 216.25,-56.69 205.66,-56.44 207.82,-63.1"/>
</g>
<!-- Node10 -->
<g id="node10" class="node">
<title>Node10</title>
<g id="a_node10"><a xlink:href="base_8h.html#a73b9f793bbe67a1968cc8c53a22d4c4b" target="_top" xlink:title="Safely writes a big&#45;endian 16&#45;bit word to provided pointer.">
<polygon fill="white" stroke="#666666" points="290,-19 217,-19 217,0 290,0 290,-19"/>
<text text-anchor="middle" x="253.5" y="-7" font-family="Helvetica,sans-Serif" font-size="10.00">modbusWBE</text>
</a>
</g>
</g>
<!-- Node1&#45;&gt;Node10 -->
<g id="edge10" class="edge">
<title>Node1&#45;&gt;Node10</title>
<path fill="none" stroke="#63b8ff" d="M87.79,-110.71C105.94,-92.12 148.09,-51.53 191,-28.5 195.74,-25.96 200.86,-23.7 206.07,-21.71"/>
<polygon fill="#63b8ff" stroke="#63b8ff" points="207.03,-25.08 215.33,-18.49 204.73,-18.47 207.03,-25.08"/>
</g>
<!-- Node3&#45;&gt;Node4 -->
<g id="edge3" class="edge">
<title>Node3&#45;&gt;Node4</title>
<path fill="none" stroke="#63b8ff" d="M311.47,-190.28C320.84,-189.26 330.73,-188.18 340.63,-187.09"/>
<polygon fill="#63b8ff" stroke="#63b8ff" points="340.73,-190.61 350.29,-186.04 339.97,-183.65 340.73,-190.61"/>
</g>
<!-- Node5 -->
<g id="node5" class="node">
<title>Node5</title>
<g id="a_node5"><a xlink:href="base_8impl_8h.html#a54f7d1db7f58ffd329b1955ad1a66f37" target="_top" xlink:title="Allocates memory to hold Modbus ADU.">
<polygon fill="white" stroke="#666666" points="681,-206 548,-206 548,-187 681,-187 681,-206"/>
<text text-anchor="middle" x="614.5" y="-194" font-family="Helvetica,sans-Serif" font-size="10.00">modbusBufferAllocateADU</text>
</a>
</g>
</g>
<!-- Node4&#45;&gt;Node5 -->
<g id="edge4" class="edge">
<title>Node4&#45;&gt;Node5</title>
<path fill="none" stroke="#63b8ff" d="M507.31,-185.48C516.94,-186.48 526.8,-187.5 536.43,-188.5"/>
<polygon fill="#63b8ff" stroke="#63b8ff" points="535.8,-191.95 546.11,-189.5 536.53,-184.99 535.8,-191.95"/>
</g>
<!-- Node6 -->
<g id="node6" class="node">
<title>Node6</title>
<g id="a_node6"><a xlink:href="slave_8h.html#a6517cff5567f0f07444d140edc7dfafd" target="_top" xlink:title="Retreieves the custom context pointer.">
<polygon fill="white" stroke="#666666" points="686,-169 543,-169 543,-150 686,-150 686,-169"/>
<text text-anchor="middle" x="614.5" y="-157" font-family="Helvetica,sans-Serif" font-size="10.00">modbusSlaveGetUserPointer</text>
</a>
</g>
</g>
<!-- Node4&#45;&gt;Node6 -->
<g id="edge5" class="edge">
<title>Node4&#45;&gt;Node6</title>
<path fill="none" stroke="#63b8ff" d="M507.31,-169.94C515.29,-169.16 523.42,-168.36 531.45,-167.57"/>
<polygon fill="#63b8ff" stroke="#63b8ff" points="531.6,-171.07 541.21,-166.61 530.92,-164.11 531.6,-171.07"/>
</g>
</g>
</svg>
