<?xml version="1.0" encoding="UTF-8" standalone="no"?>
<!DOCTYPE svg PUBLIC "-//W3C//DTD SVG 1.1//EN"
 "http://www.w3.org/Graphics/SVG/1.1/DTD/svg11.dtd">
<!-- Generated by graphviz version 7.0.5 (20221223.1930)
 -->
<!-- Title: modbusParseRequest1516 Pages: 1 -->
<svg width="673pt" height="251pt"
 viewBox="0.00 0.00 673.00 251.00" xmlns="http://www.w3.org/2000/svg" xmlns:xlink="http://www.w3.org/1999/xlink">
<g id="graph0" class="graph" transform="scale(1 1) rotate(0) translate(4 247)">
<title>modbusParseRequest1516</title>
<!-- Node1 -->
<g id="node1" class="node">
<title>Node1</title>
<g id="a_node1"><a xlink:title="Handles requests 15 and 16 (Write Multiple XX) and generates response.">
<polygon fill="#999999" stroke="#666666" points="134,-130 0,-130 0,-111 134,-111 134,-130"/>
<text text-anchor="middle" x="67" y="-118" font-family="Helvetica,sans-Serif" font-size="10.00">modbusParseRequest1516</text>
</a>
</g>
</g>
<!-- Node2 -->
<g id="node2" class="node">
<title>Node2</title>
<g id="a_node2"><a xlink:href="base_8h.html#af23a50b36bef9c09ac82214a52ff4d58" target="_top" xlink:title="Returns number of bytes necessary to hold given number of bits.">
<polygon fill="white" stroke="#666666" points="284.5,-243 180.5,-243 180.5,-224 284.5,-224 284.5,-243"/>
<text text-anchor="middle" x="232.5" y="-231" font-family="Helvetica,sans-Serif" font-size="10.00">modbusBitsToBytes</text>
</a>
</g>
</g>
<!-- Node1&#45;&gt;Node2 -->
<g id="edge1" class="edge">
<title>Node1&#45;&gt;Node2</title>
<path fill="none" stroke="#63b8ff" d="M75.87,-130.43C91.66,-149.7 129.2,-192.28 170,-215.5 172.45,-216.9 175.03,-218.19 177.67,-219.39"/>
<polygon fill="#63b8ff" stroke="#63b8ff" points="176.12,-222.54 186.7,-223.02 178.72,-216.05 176.12,-222.54"/>
</g>
<!-- Node3 -->
<g id="node3" class="node">
<title>Node3</title>
<g id="a_node3"><a xlink:href="slave_8impl_8h.html#a58243ce1e1adaffd0a3260edc2d03603" target="_top" xlink:title="Builds an exception response frame.">
<polygon fill="white" stroke="#666666" points="290,-206 175,-206 175,-187 290,-187 290,-206"/>
<text text-anchor="middle" x="232.5" y="-194" font-family="Helvetica,sans-Serif" font-size="10.00">modbusBuildException</text>
</a>
</g>
</g>
<!-- Node1&#45;&gt;Node3 -->
<g id="edge2" class="edge">
<title>Node1&#45;&gt;Node3</title>
<path fill="none" stroke="#63b8ff" d="M86.16,-130.45C106.35,-141.35 140.08,-159.07 170,-172.5 177.62,-175.92 185.89,-179.34 193.81,-182.48"/>
<polygon fill="#63b8ff" stroke="#63b8ff" points="192.32,-185.65 202.91,-186.01 194.85,-179.13 192.32,-185.65"/>
</g>
<!-- Node4 -->
<g id="node4" class="node">
<title>Node4</title>
<g id="a_node4"><a xlink:href="slave_8h.html#ad1165bb6d12af1db502a05df5da55aed" target="_top" xlink:title="Allocates memory for slave&#39;s response frame.">
<polygon fill="white" stroke="#666666" points="486,-187 331,-187 331,-168 486,-168 486,-187"/>
<text text-anchor="middle" x="408.5" y="-175" font-family="Helvetica,sans-Serif" font-size="10.00">modbusSlaveAllocateResponse</text>
</a>
</g>
</g>
<!-- Node1&#45;&gt;Node4 -->
<g id="edge9" class="edge">
<title>Node1&#45;&gt;Node4</title>
<path fill="none" stroke="#63b8ff" d="M120.11,-130.47C136.1,-133.46 153.76,-136.69 170,-139.5 223.69,-148.79 284.35,-158.49 330.93,-165.76"/>
<polygon fill="#63b8ff" stroke="#63b8ff" points="330.24,-169.19 340.66,-167.27 331.32,-162.27 330.24,-169.19"/>
</g>
<!-- Node7 -->
<g id="node7" class="node">
<title>Node7</title>
<g id="a_node7"><a xlink:href="base_8h.html#a61619958551d902c14ab6e51fb842ea0" target="_top" xlink:title="Checks whether provided address range causes an uint16_t overflow.">
<polygon fill="white" stroke="#666666" points="295,-130 170,-130 170,-111 295,-111 295,-130"/>
<text text-anchor="middle" x="232.5" y="-118" font-family="Helvetica,sans-Serif" font-size="10.00">modbusCheckRangeU16</text>
</a>
</g>
</g>
<!-- Node1&#45;&gt;Node7 -->
<g id="edge6" class="edge">
<title>Node1&#45;&gt;Node7</title>
<path fill="none" stroke="#63b8ff" d="M134.03,-120.5C142.04,-120.5 150.26,-120.5 158.37,-120.5"/>
<polygon fill="#63b8ff" stroke="#63b8ff" points="158.21,-124 168.21,-120.5 158.21,-117 158.21,-124"/>
</g>
<!-- Node8 -->
<g id="node8" class="node">
<title>Node8</title>
<g id="a_node8"><a xlink:href="base_8h.html#aff2248343762719cdacf818e4dae3709" target="_top" xlink:title="Reads n&#45;th bit from an array.">
<polygon fill="white" stroke="#666666" points="281.5,-93 183.5,-93 183.5,-74 281.5,-74 281.5,-93"/>
<text text-anchor="middle" x="232.5" y="-81" font-family="Helvetica,sans-Serif" font-size="10.00">modbusMaskRead</text>
</a>
</g>
</g>
<!-- Node1&#45;&gt;Node8 -->
<g id="edge7" class="edge">
<title>Node1&#45;&gt;Node8</title>
<path fill="none" stroke="#63b8ff" d="M111.81,-110.58C131.7,-106.08 155.43,-100.71 176.5,-95.95"/>
<polygon fill="#63b8ff" stroke="#63b8ff" points="177.11,-99.4 186.09,-93.78 175.56,-92.57 177.11,-99.4"/>
</g>
<!-- Node9 -->
<g id="node9" class="node">
<title>Node9</title>
<g id="a_node9"><a xlink:href="base_8h.html#ace96da9afdf1e1796a6e2d7ac1f6c81a" target="_top" xlink:title="Safely reads a big&#45;endian 16&#45;bit word from provided pointer.">
<polygon fill="white" stroke="#666666" points="268,-56 197,-56 197,-37 268,-37 268,-56"/>
<text text-anchor="middle" x="232.5" y="-44" font-family="Helvetica,sans-Serif" font-size="10.00">modbusRBE</text>
</a>
</g>
</g>
<!-- Node1&#45;&gt;Node9 -->
<g id="edge8" class="edge">
<title>Node1&#45;&gt;Node9</title>
<path fill="none" stroke="#63b8ff" d="M84.12,-110.53C103.83,-98.64 138.46,-78.73 170,-65.5 175.02,-63.4 180.35,-61.4 185.7,-59.56"/>
<polygon fill="#63b8ff" stroke="#63b8ff" points="186.75,-62.9 195.16,-56.46 184.57,-56.25 186.75,-62.9"/>
</g>
<!-- Node10 -->
<g id="node10" class="node">
<title>Node10</title>
<g id="a_node10"><a xlink:href="base_8h.html#a73b9f793bbe67a1968cc8c53a22d4c4b" target="_top" xlink:title="Safely writes a big&#45;endian 16&#45;bit word to provided pointer.">
<polygon fill="white" stroke="#666666" points="269,-19 196,-19 196,0 269,0 269,-19"/>
<text text-anchor="middle" x="232.5" y="-7" font-family="Helvetica,sans-Serif" font-size="10.00">modbusWBE</text>
</a>
</g>
</g>
<!-- Node1&#45;&gt;Node10 -->
<g id="edge10" class="edge">
<title>Node1&#45;&gt;Node10</title>
<path fill="none" stroke="#63b8ff" d="M76.22,-110.66C92.33,-91.98 129.98,-51.24 170,-28.5 174.67,-25.84 179.76,-23.52 184.94,-21.49"/>
<polygon fill="#63b8ff" stroke="#63b8ff" points="185.91,-24.86 194.18,-18.23 183.58,-18.25 185.91,-24.86"/>
</g>
<!-- Node3&#45;&gt;Node4 -->
<g id="edge3" class="edge">
<title>Node3&#45;&gt;Node4</title>
<path fill="none" stroke="#63b8ff" d="M290.47,-190.28C299.84,-189.26 309.73,-188.18 319.63,-187.09"/>
<polygon fill="#63b8ff" stroke="#63b8ff" points="319.73,-190.61 329.29,-186.04 318.97,-183.65 319.73,-190.61"/>
</g>
<!-- Node5 -->
<g id="node5" class="node">
<title>Node5</title>
<g id="a_node5"><a xlink:href="base_8impl_8h.html#a54f7d1db7f58ffd329b1955ad1a66f37" target="_top" xlink:title="Allocates memory to hold Modbus ADU.">
<polygon fill="white" stroke="#666666" points="660,-206 527,-206 527,-187 660,-187 660,-206"/>
<text text-anchor="middle" x="593.5" y="-194" font-family="Helvetica,sans-Serif" font-size="10.00">modbusBufferAllocateADU</text>
</a>
</g>
</g>
<!-- Node4&#45;&gt;Node5 -->
<g id="edge4" class="edge">
<title>Node4&#45;&gt;Node5</title>
<path fill="none" stroke="#63b8ff" d="M486.31,-185.48C495.94,-186.48 505.8,-187.5 515.43,-188.5"/>
<polygon fill="#63b8ff" stroke="#63b8ff" points="514.8,-191.95 525.11,-189.5 515.53,-184.99 514.8,-191.95"/>
</g>
<!-- Node6 -->
<g id="node6" class="node">
<title>Node6</title>
<g id="a_node6"><a xlink:href="slave_8h.html#a6517cff5567f0f07444d140edc7dfafd" target="_top" xlink:title="Retreieves the custom context pointer.">
<polygon fill="white" stroke="#666666" points="665,-169 522,-169 522,-150 665,-150 665,-169"/>
<text text-anchor="middle" x="593.5" y="-157" font-family="Helvetica,sans-Serif" font-size="10.00">modbusSlaveGetUserPointer</text>
</a>
</g>
</g>
<!-- Node4&#45;&gt;Node6 -->
<g id="edge5" class="edge">
<title>Node4&#45;&gt;Node6</title>
<path fill="none" stroke="#63b8ff" d="M486.31,-169.94C494.29,-169.16 502.42,-168.36 510.45,-167.57"/>
<polygon fill="#63b8ff" stroke="#63b8ff" points="510.6,-171.07 520.21,-166.61 509.92,-164.11 510.6,-171.07"/>
</g>
</g>
</svg>
