<?xml version="1.0" encoding="UTF-8" standalone="no"?>
<!DOCTYPE svg PUBLIC "-//W3C//DTD SVG 1.1//EN"
 "http://www.w3.org/Graphics/SVG/1.1/DTD/svg11.dtd">
<!-- Generated by graphviz version 7.0.5 (20221223.1930)
 -->
<!-- Title: modbusParseRequestPDU Pages: 1 -->
<svg width="821pt" height="82pt"
 viewBox="0.00 0.00 821.00 82.00" xmlns="http://www.w3.org/2000/svg" xmlns:xlink="http://www.w3.org/1999/xlink">
<g id="graph0" class="graph" transform="scale(1 1) rotate(0) translate(4 78)">
<title>modbusParseRequestPDU</title>
<!-- Node1 -->
<g id="node1" class="node">
<title>Node1</title>
<g id="a_node1"><a xlink:title="Parses provided PDU and generates PDU for the response frame.">
<polygon fill="#999999" stroke="#666666" points="134,-55 0,-55 0,-36 134,-36 134,-55"/>
<text text-anchor="middle" x="67" y="-43" font-family="Helvetica,sans-Serif" font-size="10.00">modbusParseRequestPDU</text>
</a>
</g>
</g>
<!-- Node2 -->
<g id="node2" class="node">
<title>Node2</title>
<g id="a_node2"><a xlink:href="base_8h.html#a6574e0a670ec60b09a3f2e8bbd6ad827" target="_top" xlink:title="Prepares buffer to only store a Modbus PDU.">
<polygon fill="white" stroke="#666666" points="292,-74 170,-74 170,-55 292,-55 292,-74"/>
<text text-anchor="middle" x="231" y="-62" font-family="Helvetica,sans-Serif" font-size="10.00">modbusBufferModePDU</text>
</a>
</g>
</g>
<!-- Node1&#45;&gt;Node2 -->
<g id="edge1" class="edge">
<title>Node1&#45;&gt;Node2</title>
<path fill="none" stroke="#63b8ff" d="M134.36,-53.28C142.32,-54.22 150.47,-55.17 158.5,-56.11"/>
<polygon fill="#63b8ff" stroke="#63b8ff" points="157.89,-59.57 168.23,-57.25 158.7,-52.61 157.89,-59.57"/>
</g>
<!-- Node3 -->
<g id="node3" class="node">
<title>Node3</title>
<g id="a_node3"><a xlink:href="slave_8impl_8h.html#aff0a9164a0e37aa619232ae86e3ff97a" target="_top" xlink:title="Parses provided PDU and generates response honorinng pduOffset and padding set in ModbusSlave during ...">
<polygon fill="white" stroke="#666666" points="287.5,-37 174.5,-37 174.5,-18 287.5,-18 287.5,-37"/>
<text text-anchor="middle" x="231" y="-25" font-family="Helvetica,sans-Serif" font-size="10.00">modbusParseRequest</text>
</a>
</g>
</g>
<!-- Node1&#45;&gt;Node3 -->
<g id="edge2" class="edge">
<title>Node1&#45;&gt;Node3</title>
<path fill="none" stroke="#63b8ff" d="M134.36,-38.13C143.74,-37.08 153.39,-36.01 162.79,-34.97"/>
<polygon fill="#63b8ff" stroke="#63b8ff" points="163.03,-38.46 172.58,-33.88 162.26,-31.51 163.03,-38.46"/>
</g>
<!-- Node4 -->
<g id="node4" class="node">
<title>Node4</title>
<g id="a_node4"><a xlink:href="slave_8impl_8h.html#a58243ce1e1adaffd0a3260edc2d03603" target="_top" xlink:title="Builds an exception response frame.">
<polygon fill="white" stroke="#666666" points="443,-37 328,-37 328,-18 443,-18 443,-37"/>
<text text-anchor="middle" x="385.5" y="-25" font-family="Helvetica,sans-Serif" font-size="10.00">modbusBuildException</text>
</a>
</g>
</g>
<!-- Node3&#45;&gt;Node4 -->
<g id="edge3" class="edge">
<title>Node3&#45;&gt;Node4</title>
<path fill="none" stroke="#63b8ff" d="M287.92,-27.5C297.11,-27.5 306.72,-27.5 316.16,-27.5"/>
<polygon fill="#63b8ff" stroke="#63b8ff" points="316.05,-31 326.05,-27.5 316.05,-24 316.05,-31"/>
</g>
<!-- Node5 -->
<g id="node5" class="node">
<title>Node5</title>
<g id="a_node5"><a xlink:href="slave_8h.html#ad1165bb6d12af1db502a05df5da55aed" target="_top" xlink:title="Allocates memory for slave&#39;s response frame.">
<polygon fill="white" stroke="#666666" points="634,-37 479,-37 479,-18 634,-18 634,-37"/>
<text text-anchor="middle" x="556.5" y="-25" font-family="Helvetica,sans-Serif" font-size="10.00">modbusSlaveAllocateResponse</text>
</a>
</g>
</g>
<!-- Node4&#45;&gt;Node5 -->
<g id="edge4" class="edge">
<title>Node4&#45;&gt;Node5</title>
<path fill="none" stroke="#63b8ff" d="M443.24,-27.5C451.09,-27.5 459.29,-27.5 467.54,-27.5"/>
<polygon fill="#63b8ff" stroke="#63b8ff" points="467.27,-31 477.27,-27.5 467.27,-24 467.27,-31"/>
</g>
<!-- Node6 -->
<g id="node6" class="node">
<title>Node6</title>
<g id="a_node6"><a xlink:href="base_8impl_8h.html#a54f7d1db7f58ffd329b1955ad1a66f37" target="_top" xlink:title="Allocates memory to hold Modbus ADU.">
<polygon fill="white" stroke="#666666" points="808,-56 675,-56 675,-37 808,-37 808,-56"/>
<text text-anchor="middle" x="741.5" y="-44" font-family="Helvetica,sans-Serif" font-size="10.00">modbusBufferAllocateADU</text>
</a>
</g>
</g>
<!-- Node5&#45;&gt;Node6 -->
<g id="edge5" class="edge">
<title>Node5&#45;&gt;Node6</title>
<path fill="none" stroke="#63b8ff" d="M634.31,-35.48C643.94,-36.48 653.8,-37.5 663.43,-38.5"/>
<polygon fill="#63b8ff" stroke="#63b8ff" points="662.8,-41.95 673.11,-39.5 663.53,-34.99 662.8,-41.95"/>
</g>
<!-- Node7 -->
<g id="node7" class="node">
<title>Node7</title>
<g id="a_node7"><a xlink:href="slave_8h.html#a6517cff5567f0f07444d140edc7dfafd" target="_top" xlink:title="Retreieves the custom context pointer.">
<polygon fill="white" stroke="#666666" points="813,-19 670,-19 670,0 813,0 813,-19"/>
<text text-anchor="middle" x="741.5" y="-7" font-family="Helvetica,sans-Serif" font-size="10.00">modbusSlaveGetUserPointer</text>
</a>
</g>
</g>
<!-- Node5&#45;&gt;Node7 -->
<g id="edge6" class="edge">
<title>Node5&#45;&gt;Node7</title>
<path fill="none" stroke="#63b8ff" d="M634.31,-19.94C642.29,-19.16 650.42,-18.36 658.45,-17.57"/>
<polygon fill="#63b8ff" stroke="#63b8ff" points="658.6,-21.07 668.21,-16.61 657.92,-14.11 658.6,-21.07"/>
</g>
</g>
</svg>
