<?xml version="1.0" encoding="UTF-8" standalone="no"?>
<!DOCTYPE svg PUBLIC "-//W3C//DTD SVG 1.1//EN"
 "http://www.w3.org/Graphics/SVG/1.1/DTD/svg11.dtd">
<!-- Generated by graphviz version 7.0.5 (20221223.1930)
 -->
<!-- Title: modbusParseRequestRTU Pages: 1 -->
<svg width="843pt" height="249pt"
 viewBox="0.00 0.00 843.00 249.00" xmlns="http://www.w3.org/2000/svg" xmlns:xlink="http://www.w3.org/1999/xlink">
<g id="graph0" class="graph" transform="scale(1 1) rotate(0) translate(4 245)">
<title>modbusParseRequestRTU</title>
<!-- Node1 -->
<g id="node1" class="node">
<title>Node1</title>
<g id="a_node1"><a xlink:title="Parses provided Modbus RTU request frame and generates a Modbus RTU response.">
<polygon fill="#999999" stroke="#666666" points="133,-143 0,-143 0,-124 133,-124 133,-143"/>
<text text-anchor="middle" x="66.5" y="-131" font-family="Helvetica,sans-Serif" font-size="10.00">modbusParseRequestRTU</text>
</a>
</g>
</g>
<!-- Node2 -->
<g id="node2" class="node">
<title>Node2</title>
<g id="a_node2"><a xlink:href="base_8h.html#ad274c6156d4373b79930b577e373692a" target="_top" xlink:title="Prepares buffer to store a Modbus RTU message.">
<polygon fill="white" stroke="#666666" points="290,-238 169,-238 169,-219 290,-219 290,-238"/>
<text text-anchor="middle" x="229.5" y="-226" font-family="Helvetica,sans-Serif" font-size="10.00">modbusBufferModeRTU</text>
</a>
</g>
</g>
<!-- Node1&#45;&gt;Node2 -->
<g id="edge1" class="edge">
<title>Node1&#45;&gt;Node2</title>
<path fill="none" stroke="#63b8ff" d="M77.9,-143.43C95.37,-159.64 132.35,-191.82 169,-210.5 171.88,-211.97 174.91,-213.34 178,-214.62"/>
<polygon fill="#63b8ff" stroke="#63b8ff" points="176.67,-217.86 187.26,-218.08 179.12,-211.3 176.67,-217.86"/>
</g>
<!-- Node3 -->
<g id="node3" class="node">
<title>Node3</title>
<g id="a_node3"><a xlink:href="base_8h.html#a64880e7075f445881485396f3aa869c5" target="_top" xlink:title="Checks if ModbusErrorInfo contains an error.">
<polygon fill="white" stroke="#666666" points="265.5,-201 193.5,-201 193.5,-182 265.5,-182 265.5,-201"/>
<text text-anchor="middle" x="229.5" y="-189" font-family="Helvetica,sans-Serif" font-size="10.00">modbusIsOk</text>
</a>
</g>
</g>
<!-- Node1&#45;&gt;Node3 -->
<g id="edge2" class="edge">
<title>Node1&#45;&gt;Node3</title>
<path fill="none" stroke="#63b8ff" d="M93.28,-143.43C113.74,-151.24 143.11,-162.31 169,-171.5 174.9,-173.6 181.16,-175.76 187.31,-177.86"/>
<polygon fill="#63b8ff" stroke="#63b8ff" points="186.13,-181.15 196.73,-181.04 188.37,-174.52 186.13,-181.15"/>
</g>
<!-- Node6 -->
<g id="node6" class="node">
<title>Node6</title>
<g id="a_node6"><a xlink:href="base_8h.html#af2cafe9debf86bea7042b4c40bb288cd" target="_top" xlink:title="Sets up address and CRC in a Modbus RTU frame.">
<polygon fill="white" stroke="#666666" points="276.5,-125 182.5,-125 182.5,-106 276.5,-106 276.5,-125"/>
<text text-anchor="middle" x="229.5" y="-113" font-family="Helvetica,sans-Serif" font-size="10.00">modbusPackRTU</text>
</a>
</g>
</g>
<!-- Node1&#45;&gt;Node6 -->
<g id="edge5" class="edge">
<title>Node1&#45;&gt;Node6</title>
<path fill="none" stroke="#63b8ff" d="M133.45,-126.13C145.82,-124.74 158.67,-123.31 170.77,-121.95"/>
<polygon fill="#63b8ff" stroke="#63b8ff" points="171.04,-125.45 180.59,-120.86 170.27,-118.49 171.04,-125.45"/>
</g>
<!-- Node9 -->
<g id="node9" class="node">
<title>Node9</title>
<g id="a_node9"><a xlink:href="slave_8impl_8h.html#aff0a9164a0e37aa619232ae86e3ff97a" target="_top" xlink:title="Parses provided PDU and generates response honorinng pduOffset and padding set in ModbusSlave during ...">
<polygon fill="white" stroke="#666666" points="286,-36 173,-36 173,-17 286,-17 286,-36"/>
<text text-anchor="middle" x="229.5" y="-24" font-family="Helvetica,sans-Serif" font-size="10.00">modbusParseRequest</text>
</a>
</g>
</g>
<!-- Node1&#45;&gt;Node9 -->
<g id="edge8" class="edge">
<title>Node1&#45;&gt;Node9</title>
<path fill="none" stroke="#63b8ff" d="M79.96,-123.64C98.77,-108.94 135.73,-80.74 169,-59.5 178.58,-53.39 189.36,-47.21 199.09,-41.87"/>
<polygon fill="#63b8ff" stroke="#63b8ff" points="200.65,-45.01 207.79,-37.18 197.33,-38.85 200.65,-45.01"/>
</g>
<!-- Node14 -->
<g id="node14" class="node">
<title>Node14</title>
<g id="a_node14"><a xlink:href="slave_8h.html#aac289ce160ea61287c98e8a1ee4353d5" target="_top" xlink:title="Frees memory allocated for slave&#39;s response frame.">
<polygon fill="white" stroke="#666666" points="465,-56 326,-56 326,-37 465,-37 465,-56"/>
<text text-anchor="middle" x="395.5" y="-44" font-family="Helvetica,sans-Serif" font-size="10.00">modbusSlaveFreeResponse</text>
</a>
</g>
</g>
<!-- Node1&#45;&gt;Node14 -->
<g id="edge13" class="edge">
<title>Node1&#45;&gt;Node14</title>
<path fill="none" stroke="#63b8ff" d="M92.67,-123.63C113.05,-115.87 142.6,-105.14 169,-97.5 223.21,-81.82 285.88,-67.98 331.38,-58.69"/>
<polygon fill="#63b8ff" stroke="#63b8ff" points="331.97,-62.14 341.08,-56.73 330.58,-55.28 331.97,-62.14"/>
</g>
<!-- Node16 -->
<g id="node16" class="node">
<title>Node16</title>
<g id="a_node16"><a xlink:href="base_8h.html#a4dba88e9baf690b8dafa0fad81eb7d07" target="_top" xlink:title="Unpacks data from a Modbus RTU frame and optionally checks CRC.">
<polygon fill="white" stroke="#666666" points="282,-162 177,-162 177,-143 282,-143 282,-162"/>
<text text-anchor="middle" x="229.5" y="-150" font-family="Helvetica,sans-Serif" font-size="10.00">modbusUnpackRTU</text>
</a>
</g>
</g>
<!-- Node1&#45;&gt;Node16 -->
<g id="edge17" class="edge">
<title>Node1&#45;&gt;Node16</title>
<path fill="none" stroke="#63b8ff" d="M133.45,-141.28C144.04,-142.53 154.97,-143.82 165.48,-145.06"/>
<polygon fill="#63b8ff" stroke="#63b8ff" points="164.85,-148.51 175.19,-146.21 165.67,-141.56 164.85,-148.51"/>
</g>
<!-- Node4 -->
<g id="node4" class="node">
<title>Node4</title>
<g id="a_node4"><a xlink:href="base_8h.html#a29d2a7853b328113e4fcddae85fd3ce5" target="_top" xlink:title="Returns ModbusError contained in ModbusErrorInfo.">
<polygon fill="white" stroke="#666666" points="450.5,-204 340.5,-204 340.5,-185 450.5,-185 450.5,-204"/>
<text text-anchor="middle" x="395.5" y="-192" font-family="Helvetica,sans-Serif" font-size="10.00">modbusGetErrorCode</text>
</a>
</g>
</g>
<!-- Node3&#45;&gt;Node4 -->
<g id="edge3" class="edge">
<title>Node3&#45;&gt;Node4</title>
<path fill="none" stroke="#63b8ff" d="M265.68,-192.14C284.03,-192.48 307.08,-192.9 328.6,-193.29"/>
<polygon fill="#63b8ff" stroke="#63b8ff" points="328.44,-196.79 338.5,-193.48 328.57,-189.79 328.44,-196.79"/>
</g>
<!-- Node5 -->
<g id="node5" class="node">
<title>Node5</title>
<g id="a_node5"><a xlink:href="base_8h.html#a9ee4c2e633c7a42f88acc09b95f8171e" target="_top" xlink:title="Returns uint8_t describing error source of ModbusErrorInfo.">
<polygon fill="white" stroke="#666666" points="454.5,-241 336.5,-241 336.5,-222 454.5,-222 454.5,-241"/>
<text text-anchor="middle" x="395.5" y="-229" font-family="Helvetica,sans-Serif" font-size="10.00">modbusGetErrorSource</text>
</a>
</g>
</g>
<!-- Node3&#45;&gt;Node5 -->
<g id="edge4" class="edge">
<title>Node3&#45;&gt;Node5</title>
<path fill="none" stroke="#63b8ff" d="M265.68,-200.08C288.05,-205.54 317.4,-212.69 342.43,-218.8"/>
<polygon fill="#63b8ff" stroke="#63b8ff" points="341.58,-222.19 352.12,-221.16 343.23,-215.39 341.58,-222.19"/>
</g>
<!-- Node7 -->
<g id="node7" class="node">
<title>Node7</title>
<g id="a_node7"><a xlink:href="base_8impl_8h.html#a11346a546b84663cd92cb30f4ffd1393" target="_top" xlink:title="Calculates 16&#45;bit Modbus CRC of provided data.">
<polygon fill="white" stroke="#666666" points="431,-130 360,-130 360,-111 431,-111 431,-130"/>
<text text-anchor="middle" x="395.5" y="-118" font-family="Helvetica,sans-Serif" font-size="10.00">modbusCRC</text>
</a>
</g>
</g>
<!-- Node6&#45;&gt;Node7 -->
<g id="edge6" class="edge">
<title>Node6&#45;&gt;Node7</title>
<path fill="none" stroke="#63b8ff" d="M276.62,-116.91C299.05,-117.59 325.94,-118.41 348.37,-119.09"/>
<polygon fill="#63b8ff" stroke="#63b8ff" points="348.03,-122.58 358.13,-119.39 348.24,-115.59 348.03,-122.58"/>
</g>
<!-- Node8 -->
<g id="node8" class="node">
<title>Node8</title>
<g id="a_node8"><a xlink:href="base_8h.html#af718da7da634f311c2ae8db6be3d9027" target="_top" xlink:title="Safely writes a little&#45;endian 16&#45;bit word to provided pointer.">
<polygon fill="white" stroke="#666666" points="431.5,-93 359.5,-93 359.5,-74 431.5,-74 431.5,-93"/>
<text text-anchor="middle" x="395.5" y="-81" font-family="Helvetica,sans-Serif" font-size="10.00">modbusWLE</text>
</a>
</g>
</g>
<!-- Node6&#45;&gt;Node8 -->
<g id="edge7" class="edge">
<title>Node6&#45;&gt;Node8</title>
<path fill="none" stroke="#63b8ff" d="M276.62,-106.5C298.89,-102.16 325.55,-96.95 347.88,-92.6"/>
<polygon fill="#63b8ff" stroke="#63b8ff" points="348.49,-96.04 357.63,-90.69 347.15,-89.17 348.49,-96.04"/>
</g>
<!-- Node10 -->
<g id="node10" class="node">
<title>Node10</title>
<g id="a_node10"><a xlink:href="slave_8impl_8h.html#a58243ce1e1adaffd0a3260edc2d03603" target="_top" xlink:title="Builds an exception response frame.">
<polygon fill="white" stroke="#666666" points="453,-19 338,-19 338,0 453,0 453,-19"/>
<text text-anchor="middle" x="395.5" y="-7" font-family="Helvetica,sans-Serif" font-size="10.00">modbusBuildException</text>
</a>
</g>
</g>
<!-- Node9&#45;&gt;Node10 -->
<g id="edge9" class="edge">
<title>Node9&#45;&gt;Node10</title>
<path fill="none" stroke="#63b8ff" d="M286.48,-20.7C299.38,-19.36 313.25,-17.92 326.6,-16.54"/>
<polygon fill="#63b8ff" stroke="#63b8ff" points="326.57,-20.06 336.15,-15.55 325.84,-13.1 326.57,-20.06"/>
</g>
<!-- Node11 -->
<g id="node11" class="node">
<title>Node11</title>
<g id="a_node11"><a xlink:href="slave_8h.html#ad1165bb6d12af1db502a05df5da55aed" target="_top" xlink:title="Allocates memory for slave&#39;s response frame.">
<polygon fill="white" stroke="#666666" points="656,-19 501,-19 501,0 656,0 656,-19"/>
<text text-anchor="middle" x="578.5" y="-7" font-family="Helvetica,sans-Serif" font-size="10.00">modbusSlaveAllocateResponse</text>
</a>
</g>
</g>
<!-- Node10&#45;&gt;Node11 -->
<g id="edge10" class="edge">
<title>Node10&#45;&gt;Node11</title>
<path fill="none" stroke="#63b8ff" d="M453.27,-9.5C464.78,-9.5 477.14,-9.5 489.44,-9.5"/>
<polygon fill="#63b8ff" stroke="#63b8ff" points="489.18,-13 499.18,-9.5 489.18,-6 489.18,-13"/>
</g>
<!-- Node12 -->
<g id="node12" class="node">
<title>Node12</title>
<g id="a_node12"><a xlink:href="base_8impl_8h.html#a54f7d1db7f58ffd329b1955ad1a66f37" target="_top" xlink:title="Allocates memory to hold Modbus ADU.">
<polygon fill="white" stroke="#666666" points="830,-37 697,-37 697,-18 830,-18 830,-37"/>
<text text-anchor="middle" x="763.5" y="-25" font-family="Helvetica,sans-Serif" font-size="10.00">modbusBufferAllocateADU</text>
</a>
</g>
</g>
<!-- Node11&#45;&gt;Node12 -->
<g id="edge11" class="edge">
<title>Node11&#45;&gt;Node12</title>
<path fill="none" stroke="#63b8ff" d="M656.31,-17.06C665.94,-18 675.8,-18.97 685.43,-19.92"/>
<polygon fill="#63b8ff" stroke="#63b8ff" points="684.82,-23.38 695.11,-20.87 685.5,-16.41 684.82,-23.38"/>
</g>
<!-- Node13 -->
<g id="node13" class="node">
<title>Node13</title>
<g id="a_node13"><a xlink:href="slave_8h.html#a6517cff5567f0f07444d140edc7dfafd" target="_top" xlink:title="Retreieves the custom context pointer.">
<polygon fill="white" stroke="#666666" points="835,-84 692,-84 692,-65 835,-65 835,-84"/>
<text text-anchor="middle" x="763.5" y="-72" font-family="Helvetica,sans-Serif" font-size="10.00">modbusSlaveGetUserPointer</text>
</a>
</g>
</g>
<!-- Node11&#45;&gt;Node13 -->
<g id="edge12" class="edge">
<title>Node11&#45;&gt;Node13</title>
<path fill="none" stroke="#63b8ff" d="M629.84,-19.41C638.68,-21.7 647.69,-24.39 656,-27.5 672.94,-33.85 675.57,-38.93 692,-46.5 702.47,-51.33 714.03,-56.13 724.71,-60.36"/>
<polygon fill="#63b8ff" stroke="#63b8ff" points="723.43,-63.62 734.02,-63.98 725.97,-57.09 723.43,-63.62"/>
</g>
<!-- Node14&#45;&gt;Node13 -->
<g id="edge16" class="edge">
<title>Node14&#45;&gt;Node13</title>
<path fill="none" stroke="#63b8ff" d="M443.11,-56.47C461.11,-59.93 481.93,-63.45 501,-65.5 560.73,-71.92 628.53,-74.11 680.13,-74.73"/>
<polygon fill="#63b8ff" stroke="#63b8ff" points="680,-78.23 690.04,-74.83 680.07,-71.23 680,-78.23"/>
</g>
<!-- Node15 -->
<g id="node15" class="node">
<title>Node15</title>
<g id="a_node15"><a xlink:href="base_8impl_8h.html#a00605b5ebcf90f8035bfaa7a7c039776" target="_top" xlink:title="Frees memory allocated inside the buffer.">
<polygon fill="white" stroke="#666666" points="626.5,-56 530.5,-56 530.5,-37 626.5,-37 626.5,-56"/>
<text text-anchor="middle" x="578.5" y="-44" font-family="Helvetica,sans-Serif" font-size="10.00">modbusBufferFree</text>
</a>
</g>
</g>
<!-- Node14&#45;&gt;Node15 -->
<g id="edge14" class="edge">
<title>Node14&#45;&gt;Node15</title>
<path fill="none" stroke="#63b8ff" d="M465.44,-46.5C482.98,-46.5 501.66,-46.5 518.64,-46.5"/>
<polygon fill="#63b8ff" stroke="#63b8ff" points="518.57,-50 528.57,-46.5 518.57,-43 518.57,-50"/>
</g>
<!-- Node15&#45;&gt;Node12 -->
<g id="edge15" class="edge">
<title>Node15&#45;&gt;Node12</title>
<path fill="none" stroke="#63b8ff" d="M626.63,-41.61C644.5,-39.75 665.36,-37.59 685.29,-35.52"/>
<polygon fill="#63b8ff" stroke="#63b8ff" points="685.48,-39.02 695.06,-34.5 684.75,-32.05 685.48,-39.02"/>
</g>
<!-- Node16&#45;&gt;Node7 -->
<g id="edge18" class="edge">
<title>Node16&#45;&gt;Node7</title>
<path fill="none" stroke="#63b8ff" d="M281.49,-142.55C302.91,-138.37 327.64,-133.55 348.5,-129.48"/>
<polygon fill="#63b8ff" stroke="#63b8ff" points="349.01,-132.94 358.16,-127.59 347.67,-126.07 349.01,-132.94"/>
</g>
<!-- Node17 -->
<g id="node17" class="node">
<title>Node17</title>
<g id="a_node17"><a xlink:href="base_8h.html#a0fc3f293c746d39a93e4c1158f792404" target="_top" xlink:title="Safely reads a little&#45;endian 16&#45;bit word from provided pointer.">
<polygon fill="white" stroke="#666666" points="430.5,-167 360.5,-167 360.5,-148 430.5,-148 430.5,-167"/>
<text text-anchor="middle" x="395.5" y="-155" font-family="Helvetica,sans-Serif" font-size="10.00">modbusRLE</text>
</a>
</g>
</g>
<!-- Node16&#45;&gt;Node17 -->
<g id="edge19" class="edge">
<title>Node16&#45;&gt;Node17</title>
<path fill="none" stroke="#63b8ff" d="M282.39,-154.08C303.67,-154.73 328.09,-155.48 348.7,-156.1"/>
<polygon fill="#63b8ff" stroke="#63b8ff" points="348.41,-159.6 358.51,-156.4 348.62,-152.6 348.41,-159.6"/>
</g>
</g>
</svg>
