<?xml version="1.0" encoding="UTF-8" standalone="no"?>
<!DOCTYPE svg PUBLIC "-//W3C//DTD SVG 1.1//EN"
 "http://www.w3.org/Graphics/SVG/1.1/DTD/svg11.dtd">
<!-- Generated by graphviz version 7.0.5 (20221223.1930)
 -->
<!-- Title: include/lightmodbus/slave_func.impl.h Pages: 1 -->
<svg width="174pt" height="258pt"
 viewBox="0.00 0.00 174.00 258.00" xmlns="http://www.w3.org/2000/svg" xmlns:xlink="http://www.w3.org/1999/xlink">
<g id="graph0" class="graph" transform="scale(1 1) rotate(0) translate(4 254)">
<title>include/lightmodbus/slave_func.impl.h</title>
<!-- Node1 -->
<g id="node1" class="node">
<title>Node1</title>
<g id="a_node1"><a xlink:title="Slave&#39;s functions for parsing requests (implementation)">
<polygon fill="#999999" stroke="#666666" points="119,-250 16,-250 16,-220 119,-220 119,-250"/>
<text text-anchor="start" x="24" y="-238" font-family="Helvetica,sans-Serif" font-size="10.00">include/lightmodbus</text>
<text text-anchor="middle" x="67.5" y="-227" font-family="Helvetica,sans-Serif" font-size="10.00">/slave_func.impl.h</text>
</a>
</g>
</g>
<!-- Node2 -->
<g id="node2" class="node">
<title>Node2</title>
<g id="a_node2"><a xlink:href="slave__func_8h.html" target="_top" xlink:title="Slave&#39;s functions for parsing requests (header)">
<polygon fill="white" stroke="#666666" points="71,-184 0,-184 0,-165 71,-165 71,-184"/>
<text text-anchor="middle" x="35.5" y="-172" font-family="Helvetica,sans-Serif" font-size="10.00">slave_func.h</text>
</a>
</g>
</g>
<!-- Node1&#45;&gt;Node2 -->
<g id="edge1" class="edge">
<title>Node1&#45;&gt;Node2</title>
<path fill="none" stroke="#63b8ff" d="M59.59,-219.54C55.42,-211.91 50.25,-202.46 45.77,-194.27"/>
<polygon fill="#63b8ff" stroke="#63b8ff" points="48.84,-192.6 40.97,-185.5 42.7,-195.96 48.84,-192.6"/>
</g>
<!-- Node5 -->
<g id="node5" class="node">
<title>Node5</title>
<g id="a_node5"><a xlink:href="slave_8h.html" target="_top" xlink:title="Slave&#39;s types and basic functions (header)">
<polygon fill="white" stroke="#666666" points="111,-129 64,-129 64,-110 111,-110 111,-129"/>
<text text-anchor="middle" x="87.5" y="-117" font-family="Helvetica,sans-Serif" font-size="10.00">slave.h</text>
</a>
</g>
</g>
<!-- Node1&#45;&gt;Node5 -->
<g id="edge8" class="edge">
<title>Node1&#45;&gt;Node5</title>
<path fill="none" stroke="#63b8ff" d="M71.39,-219.65C73.97,-209.7 77.29,-196.12 79.5,-184 82.13,-169.56 84.18,-153.11 85.54,-140.58"/>
<polygon fill="#63b8ff" stroke="#63b8ff" points="89.02,-140.98 86.56,-130.68 82.06,-140.27 89.02,-140.98"/>
</g>
<!-- Node3 -->
<g id="node3" class="node">
<title>Node3</title>
<g id="a_node3"><a xlink:href="base_8h.html" target="_top" xlink:title="Common types and functions (header)">
<polygon fill="white" stroke="#666666" points="58,-74 13,-74 13,-55 58,-55 58,-74"/>
<text text-anchor="middle" x="35.5" y="-62" font-family="Helvetica,sans-Serif" font-size="10.00">base.h</text>
</a>
</g>
</g>
<!-- Node2&#45;&gt;Node3 -->
<g id="edge2" class="edge">
<title>Node2&#45;&gt;Node3</title>
<path fill="none" stroke="#63b8ff" d="M35.5,-164.66C35.5,-147.57 35.5,-109.61 35.5,-85.92"/>
<polygon fill="#63b8ff" stroke="#63b8ff" points="39,-85.97 35.5,-75.97 32,-85.97 39,-85.97"/>
</g>
<!-- Node2&#45;&gt;Node5 -->
<g id="edge4" class="edge">
<title>Node2&#45;&gt;Node5</title>
<path fill="none" stroke="#63b8ff" d="M44.09,-164.75C51.34,-157.35 61.95,-146.54 70.87,-137.45"/>
<polygon fill="#63b8ff" stroke="#63b8ff" points="73.16,-140.11 77.67,-130.52 68.16,-135.21 73.16,-140.11"/>
</g>
<!-- Node4 -->
<g id="node4" class="node">
<title>Node4</title>
<g id="a_node4"><a xlink:title=" ">
<polygon fill="#e0e0e0" stroke="#999999" points="84.5,-19 36.5,-19 36.5,0 84.5,0 84.5,-19"/>
<text text-anchor="middle" x="60.5" y="-7" font-family="Helvetica,sans-Serif" font-size="10.00">stdint.h</text>
</a>
</g>
</g>
<!-- Node3&#45;&gt;Node4 -->
<g id="edge3" class="edge">
<title>Node3&#45;&gt;Node4</title>
<path fill="none" stroke="#63b8ff" d="M39.63,-54.75C42.83,-47.96 47.39,-38.3 51.43,-29.73"/>
<polygon fill="#63b8ff" stroke="#63b8ff" points="54.54,-31.35 55.64,-20.81 48.2,-28.36 54.54,-31.35"/>
</g>
<!-- Node5&#45;&gt;Node3 -->
<g id="edge7" class="edge">
<title>Node5&#45;&gt;Node3</title>
<path fill="none" stroke="#63b8ff" d="M78.91,-109.75C71.66,-102.35 61.05,-91.54 52.13,-82.45"/>
<polygon fill="#63b8ff" stroke="#63b8ff" points="54.84,-80.21 45.33,-75.52 49.84,-85.11 54.84,-80.21"/>
</g>
<!-- Node5&#45;&gt;Node4 -->
<g id="edge5" class="edge">
<title>Node5&#45;&gt;Node4</title>
<path fill="none" stroke="#63b8ff" d="M85.29,-109.66C81,-92.5 71.44,-54.26 65.52,-30.6"/>
<polygon fill="#63b8ff" stroke="#63b8ff" points="68.93,-29.78 63.11,-20.93 62.14,-31.48 68.93,-29.78"/>
</g>
<!-- Node6 -->
<g id="node6" class="node">
<title>Node6</title>
<g id="a_node6"><a xlink:title=" ">
<polygon fill="#e0e0e0" stroke="#999999" points="166,-74 115,-74 115,-55 166,-55 166,-74"/>
<text text-anchor="middle" x="140.5" y="-62" font-family="Helvetica,sans-Serif" font-size="10.00">stddef.h</text>
</a>
</g>
</g>
<!-- Node5&#45;&gt;Node6 -->
<g id="edge6" class="edge">
<title>Node5&#45;&gt;Node6</title>
<path fill="none" stroke="#63b8ff" d="M96.25,-109.75C103.65,-102.35 114.46,-91.54 123.55,-82.45"/>
<polygon fill="#63b8ff" stroke="#63b8ff" points="125.89,-85.06 130.49,-75.51 120.94,-80.11 125.89,-85.06"/>
</g>
</g>
</svg>
