<?xml version="1.0" encoding="UTF-8" standalone="no"?>
<!DOCTYPE svg PUBLIC "-//W3C//DTD SVG 1.1//EN"
 "http://www.w3.org/Graphics/SVG/1.1/DTD/svg11.dtd">
<!-- Generated by graphviz version 7.0.5 (20221223.1930)
 -->
<!-- Title: modbusSlaveGetUserPointer Pages: 1 -->
<svg width="1054pt" height="348pt"
 viewBox="0.00 0.00 1054.00 348.01" xmlns="http://www.w3.org/2000/svg" xmlns:xlink="http://www.w3.org/1999/xlink">
<g id="graph0" class="graph" transform="scale(1 1) rotate(0) translate(4 344.01)">
<title>modbusSlaveGetUserPointer</title>
<!-- Node1 -->
<g id="node1" class="node">
<title>Node1</title>
<g id="a_node1"><a xlink:title="Retreieves the custom context pointer.">
<polygon fill="#999999" stroke="#666666" points="1046,-239 903,-239 903,-220 1046,-220 1046,-239"/>
<text text-anchor="middle" x="974.5" y="-227" font-family="Helvetica,sans-Serif" font-size="10.00">modbusSlaveGetUserPointer</text>
</a>
</g>
</g>
<!-- Node2 -->
<g id="node2" class="node">
<title>Node2</title>
<g id="a_node2"><a xlink:href="classllm_1_1Slave.html#aed386c714ccc44c9f3151ba18826a9d5" target="_top" xlink:title=" ">
<polygon fill="white" stroke="#666666" points="853.5,-333 725.5,-333 725.5,-314 853.5,-314 853.5,-333"/>
<text text-anchor="middle" x="789.5" y="-321" font-family="Helvetica,sans-Serif" font-size="10.00">llm::Slave::getUserPointer</text>
</a>
</g>
</g>
<!-- Node1&#45;&gt;Node2 -->
<g id="edge1" class="edge">
<title>Node1&#45;&gt;Node2</title>
<path fill="none" stroke="#63b8ff" d="M954.31,-246.75C934.03,-264.1 900.4,-290.37 867,-305.5 859.92,-308.71 852.19,-311.38 844.47,-313.6"/>
<polygon fill="#63b8ff" stroke="#63b8ff" points="956.52,-249.47 961.75,-240.26 951.92,-244.2 956.52,-249.47"/>
</g>
<!-- Node3 -->
<g id="node3" class="node">
<title>Node3</title>
<g id="a_node3"><a xlink:href="slave_8h.html#ad1165bb6d12af1db502a05df5da55aed" target="_top" xlink:title="Allocates memory for slave&#39;s response frame.">
<polygon fill="white" stroke="#666666" points="867,-221 712,-221 712,-202 867,-202 867,-221"/>
<text text-anchor="middle" x="789.5" y="-209" font-family="Helvetica,sans-Serif" font-size="10.00">modbusSlaveAllocateResponse</text>
</a>
</g>
</g>
<!-- Node1&#45;&gt;Node3 -->
<g id="edge2" class="edge">
<title>Node1&#45;&gt;Node3</title>
<path fill="none" stroke="#63b8ff" d="M891.52,-221.44C883.51,-220.65 875.4,-219.85 867.44,-219.07"/>
<polygon fill="#63b8ff" stroke="#63b8ff" points="890.95,-224.9 901.24,-222.39 891.63,-217.93 890.95,-224.9"/>
</g>
<!-- Node22 -->
<g id="node22" class="node">
<title>Node22</title>
<g id="a_node22"><a xlink:href="slave_8impl_8h.html#a70695c3b7355bc0a3e6d49c46a4eef1f" target="_top" xlink:title="Frees memory allocated in the ModbusSlave struct.">
<polygon fill="white" stroke="#666666" points="844,-146 735,-146 735,-127 844,-127 844,-146"/>
<text text-anchor="middle" x="789.5" y="-134" font-family="Helvetica,sans-Serif" font-size="10.00">modbusSlaveDestroy</text>
</a>
</g>
</g>
<!-- Node1&#45;&gt;Node22 -->
<g id="edge25" class="edge">
<title>Node1&#45;&gt;Node22</title>
<path fill="none" stroke="#63b8ff" d="M944.03,-214.52C906.32,-195.36 842.04,-162.69 809.94,-146.38"/>
<polygon fill="#63b8ff" stroke="#63b8ff" points="942.07,-217.45 952.57,-218.86 945.24,-211.21 942.07,-217.45"/>
</g>
<!-- Node24 -->
<g id="node24" class="node">
<title>Node24</title>
<g id="a_node24"><a xlink:href="slave_8h.html#aac289ce160ea61287c98e8a1ee4353d5" target="_top" xlink:title="Frees memory allocated for slave&#39;s response frame.">
<polygon fill="white" stroke="#666666" points="859,-296 720,-296 720,-277 859,-277 859,-296"/>
<text text-anchor="middle" x="789.5" y="-284" font-family="Helvetica,sans-Serif" font-size="10.00">modbusSlaveFreeResponse</text>
</a>
</g>
</g>
<!-- Node1&#45;&gt;Node24 -->
<g id="edge27" class="edge">
<title>Node1&#45;&gt;Node24</title>
<path fill="none" stroke="#63b8ff" d="M930.88,-242.78C897.7,-253.11 852.38,-267.23 822.32,-276.59"/>
<polygon fill="#63b8ff" stroke="#63b8ff" points="931.67,-246.19 940.18,-239.88 929.59,-239.51 931.67,-246.19"/>
</g>
<!-- Node4 -->
<g id="node4" class="node">
<title>Node4</title>
<g id="a_node4"><a xlink:href="slave_8impl_8h.html#a58243ce1e1adaffd0a3260edc2d03603" target="_top" xlink:title="Builds an exception response frame.">
<polygon fill="white" stroke="#666666" points="672,-164 557,-164 557,-145 672,-145 672,-164"/>
<text text-anchor="middle" x="614.5" y="-152" font-family="Helvetica,sans-Serif" font-size="10.00">modbusBuildException</text>
</a>
</g>
</g>
<!-- Node3&#45;&gt;Node4 -->
<g id="edge3" class="edge">
<title>Node3&#45;&gt;Node4</title>
<path fill="none" stroke="#63b8ff" d="M747.8,-198.09C716.47,-187.77 673.88,-173.73 645.58,-164.41"/>
<polygon fill="#63b8ff" stroke="#63b8ff" points="746.34,-201.29 756.93,-201.1 748.53,-194.64 746.34,-201.29"/>
</g>
<!-- Node18 -->
<g id="node18" class="node">
<title>Node18</title>
<g id="a_node18"><a xlink:href="slave__func_8impl_8h.html#aaff57f2a5c6a8e6c77d36c5dc7e48cfa" target="_top" xlink:title="Handles requests 01, 02, 03 and 04 (Read Multiple XX) and generates response.">
<polygon fill="white" stroke="#666666" points="517,-19 362,-19 362,0 517,0 517,-19"/>
<text text-anchor="middle" x="439.5" y="-7" font-family="Helvetica,sans-Serif" font-size="10.00">modbusParseRequest01020304</text>
</a>
</g>
</g>
<!-- Node3&#45;&gt;Node18 -->
<g id="edge21" class="edge">
<title>Node3&#45;&gt;Node18</title>
<path fill="none" stroke="#63b8ff" d="M767.4,-194.52C745.6,-177.64 710.04,-151.97 676,-135.5 624.38,-110.52 596.92,-133.38 553,-96.5 526.51,-74.26 544.31,-48.72 517,-27.5 512.8,-24.24 508.1,-21.55 503.16,-19.34"/>
<polygon fill="#63b8ff" stroke="#63b8ff" points="765.18,-197.22 775.21,-200.65 769.51,-191.72 765.18,-197.22"/>
</g>
<!-- Node19 -->
<g id="node19" class="node">
<title>Node19</title>
<g id="a_node19"><a xlink:href="slave__func_8impl_8h.html#a236881fe30a95d4cc9b031a9e24ae2a8" target="_top" xlink:title="Handles requests 05 and 06 (Write Single XX) and generates response.">
<polygon fill="white" stroke="#666666" points="506.5,-278 372.5,-278 372.5,-259 506.5,-259 506.5,-278"/>
<text text-anchor="middle" x="439.5" y="-266" font-family="Helvetica,sans-Serif" font-size="10.00">modbusParseRequest0506</text>
</a>
</g>
</g>
<!-- Node3&#45;&gt;Node19 -->
<g id="edge22" class="edge">
<title>Node3&#45;&gt;Node19</title>
<path fill="none" stroke="#63b8ff" d="M734.23,-223.89C715.8,-227.88 695.06,-232.14 676,-235.5 619.18,-245.53 554.22,-254.44 506.93,-260.47"/>
<polygon fill="#63b8ff" stroke="#63b8ff" points="734.87,-227.33 743.89,-221.77 733.37,-220.5 734.87,-227.33"/>
</g>
<!-- Node20 -->
<g id="node20" class="node">
<title>Node20</title>
<g id="a_node20"><a xlink:href="slave__func_8impl_8h.html#a0cb2a7bf59d4014088e1ce1c61523071" target="_top" xlink:title="Handles requests 15 and 16 (Write Multiple XX) and generates response.">
<polygon fill="white" stroke="#666666" points="506.5,-241 372.5,-241 372.5,-222 506.5,-222 506.5,-241"/>
<text text-anchor="middle" x="439.5" y="-229" font-family="Helvetica,sans-Serif" font-size="10.00">modbusParseRequest1516</text>
</a>
</g>
</g>
<!-- Node3&#45;&gt;Node20 -->
<g id="edge23" class="edge">
<title>Node3&#45;&gt;Node20</title>
<path fill="none" stroke="#63b8ff" d="M700.31,-216.57C640.14,-220.03 561.73,-224.53 506.85,-227.69"/>
<polygon fill="#63b8ff" stroke="#63b8ff" points="700.41,-220.07 710.19,-216 700,-213.08 700.41,-220.07"/>
</g>
<!-- Node21 -->
<g id="node21" class="node">
<title>Node21</title>
<g id="a_node21"><a xlink:href="slave__func_8impl_8h.html#a814f041d9acfa578998b8ce8fe53815c" target="_top" xlink:title="Handles request 22 (Mask Write Register) and generates response.">
<polygon fill="white" stroke="#666666" points="501,-204 378,-204 378,-185 501,-185 501,-204"/>
<text text-anchor="middle" x="439.5" y="-192" font-family="Helvetica,sans-Serif" font-size="10.00">modbusParseRequest22</text>
</a>
</g>
</g>
<!-- Node3&#45;&gt;Node21 -->
<g id="edge24" class="edge">
<title>Node3&#45;&gt;Node21</title>
<path fill="none" stroke="#63b8ff" d="M700.33,-207.19C638.18,-204.16 556.54,-200.17 501.49,-197.48"/>
<polygon fill="#63b8ff" stroke="#63b8ff" points="700.03,-210.68 710.19,-207.67 700.37,-203.69 700.03,-210.68"/>
</g>
<!-- Node5 -->
<g id="node5" class="node">
<title>Node5</title>
<g id="a_node5"><a xlink:href="slave_8impl_8h.html#a384f75966903cc0c249eb68a6a20180e" target="_top" xlink:title="Builds an exception PDU.">
<polygon fill="white" stroke="#666666" points="507.5,-130 371.5,-130 371.5,-111 507.5,-111 507.5,-130"/>
<text text-anchor="middle" x="439.5" y="-118" font-family="Helvetica,sans-Serif" font-size="10.00">modbusBuildExceptionPDU</text>
</a>
</g>
</g>
<!-- Node4&#45;&gt;Node5 -->
<g id="edge4" class="edge">
<title>Node4&#45;&gt;Node5</title>
<path fill="none" stroke="#63b8ff" d="M551.89,-142.39C532.07,-138.5 510.33,-134.22 491.37,-130.5"/>
<polygon fill="#63b8ff" stroke="#63b8ff" points="551.02,-145.79 561.51,-144.28 552.37,-138.92 551.02,-145.79"/>
</g>
<!-- Node7 -->
<g id="node7" class="node">
<title>Node7</title>
<g id="a_node7"><a xlink:href="slave_8impl_8h.html#a1da09df8858b91c61fe02c25783c2946" target="_top" xlink:title="Builds a Modbus RTU exception.">
<polygon fill="white" stroke="#666666" points="507,-93 372,-93 372,-74 507,-74 507,-93"/>
<text text-anchor="middle" x="439.5" y="-81" font-family="Helvetica,sans-Serif" font-size="10.00">modbusBuildExceptionRTU</text>
</a>
</g>
</g>
<!-- Node4&#45;&gt;Node7 -->
<g id="edge6" class="edge">
<title>Node4&#45;&gt;Node7</title>
<path fill="none" stroke="#63b8ff" d="M572.89,-140.35C566.08,-137.43 559.21,-134.12 553,-130.5 535.25,-120.15 535.46,-110.52 517,-101.5 510.38,-98.26 503.15,-95.59 495.86,-93.39"/>
<polygon fill="#63b8ff" stroke="#63b8ff" points="571.45,-143.54 582.03,-144.05 574.07,-137.05 571.45,-143.54"/>
</g>
<!-- Node9 -->
<g id="node9" class="node">
<title>Node9</title>
<g id="a_node9"><a xlink:href="slave_8impl_8h.html#a778e65356f7da66831f18ec53b975383" target="_top" xlink:title="Builds a Modbus TCP exception.">
<polygon fill="white" stroke="#666666" points="506.5,-56 372.5,-56 372.5,-37 506.5,-37 506.5,-56"/>
<text text-anchor="middle" x="439.5" y="-44" font-family="Helvetica,sans-Serif" font-size="10.00">modbusBuildExceptionTCP</text>
</a>
</g>
</g>
<!-- Node4&#45;&gt;Node9 -->
<g id="edge8" class="edge">
<title>Node4&#45;&gt;Node9</title>
<path fill="none" stroke="#63b8ff" d="M566.47,-139.75C561.63,-137.12 557.02,-134.06 553,-130.5 527.98,-108.35 543.57,-84.76 517,-64.5 512.77,-61.27 508.05,-58.61 503.09,-56.42"/>
<polygon fill="#63b8ff" stroke="#63b8ff" points="564.73,-142.8 575.26,-143.91 567.72,-136.47 564.73,-142.8"/>
</g>
<!-- Node11 -->
<g id="node11" class="node">
<title>Node11</title>
<g id="a_node11"><a xlink:href="slave_8impl_8h.html#aff0a9164a0e37aa619232ae86e3ff97a" target="_top" xlink:title="Parses provided PDU and generates response honorinng pduOffset and padding set in ModbusSlave during ...">
<polygon fill="white" stroke="#666666" points="496,-167 383,-167 383,-148 496,-148 496,-167"/>
<text text-anchor="middle" x="439.5" y="-155" font-family="Helvetica,sans-Serif" font-size="10.00">modbusParseRequest</text>
</a>
</g>
</g>
<!-- Node4&#45;&gt;Node11 -->
<g id="edge10" class="edge">
<title>Node4&#45;&gt;Node11</title>
<path fill="none" stroke="#63b8ff" d="M545.72,-155.68C529.39,-155.96 512.11,-156.26 496.39,-156.53"/>
<polygon fill="#63b8ff" stroke="#63b8ff" points="545.4,-159.18 555.34,-155.51 545.28,-152.18 545.4,-159.18"/>
</g>
<!-- Node4&#45;&gt;Node18 -->
<g id="edge17" class="edge">
<title>Node4&#45;&gt;Node18</title>
<path fill="none" stroke="#63b8ff" d="M564.13,-139.34C560.05,-136.82 556.26,-133.89 553,-130.5 519.43,-95.51 553.04,-59.94 517,-27.5 513.45,-24.31 509.44,-21.65 505.17,-19.44"/>
<polygon fill="#63b8ff" stroke="#63b8ff" points="562.2,-142.28 572.68,-143.8 565.44,-136.07 562.2,-142.28"/>
</g>
<!-- Node4&#45;&gt;Node19 -->
<g id="edge18" class="edge">
<title>Node4&#45;&gt;Node19</title>
<path fill="none" stroke="#63b8ff" d="M599.77,-173.47C582.82,-195.44 551.94,-231.1 517,-250.5 511.16,-253.75 504.75,-256.41 498.2,-258.59"/>
<polygon fill="#63b8ff" stroke="#63b8ff" points="602.43,-175.75 605.63,-165.65 596.83,-171.55 602.43,-175.75"/>
</g>
<!-- Node4&#45;&gt;Node20 -->
<g id="edge19" class="edge">
<title>Node4&#45;&gt;Node20</title>
<path fill="none" stroke="#63b8ff" d="M591.27,-170.93C572.38,-184.17 544.1,-202.36 517,-213.5 509.3,-216.66 500.93,-219.34 492.64,-221.59"/>
<polygon fill="#63b8ff" stroke="#63b8ff" points="593.16,-173.88 599.25,-165.22 589.08,-168.19 593.16,-173.88"/>
</g>
<!-- Node4&#45;&gt;Node21 -->
<g id="edge20" class="edge">
<title>Node4&#45;&gt;Node21</title>
<path fill="none" stroke="#63b8ff" d="M559.37,-167.02C534.91,-172.67 506.42,-179.26 483.46,-184.57"/>
<polygon fill="#63b8ff" stroke="#63b8ff" points="559.86,-170.49 568.82,-164.83 558.28,-163.67 559.86,-170.49"/>
</g>
<!-- Node6 -->
<g id="node6" class="node">
<title>Node6</title>
<g id="a_node6"><a xlink:href="classllm_1_1Slave.html#ac915e0947f733a784a9069f5ff5b9737" target="_top" xlink:title=" ">
<polygon fill="white" stroke="#666666" points="326,-130 180,-130 180,-111 326,-111 326,-130"/>
<text text-anchor="middle" x="253" y="-118" font-family="Helvetica,sans-Serif" font-size="10.00">llm::Slave::buildExceptionPDU</text>
</a>
</g>
</g>
<!-- Node5&#45;&gt;Node6 -->
<g id="edge5" class="edge">
<title>Node5&#45;&gt;Node6</title>
<path fill="none" stroke="#63b8ff" d="M359.73,-120.5C348.7,-120.5 337.4,-120.5 326.49,-120.5"/>
<polygon fill="#63b8ff" stroke="#63b8ff" points="359.59,-124 369.59,-120.5 359.59,-117 359.59,-124"/>
</g>
<!-- Node8 -->
<g id="node8" class="node">
<title>Node8</title>
<g id="a_node8"><a xlink:href="classllm_1_1Slave.html#a10e79600053c725e639225264d966e63" target="_top" xlink:title=" ">
<polygon fill="white" stroke="#666666" points="326,-93 180,-93 180,-74 326,-74 326,-93"/>
<text text-anchor="middle" x="253" y="-81" font-family="Helvetica,sans-Serif" font-size="10.00">llm::Slave::buildExceptionRTU</text>
</a>
</g>
</g>
<!-- Node7&#45;&gt;Node8 -->
<g id="edge7" class="edge">
<title>Node7&#45;&gt;Node8</title>
<path fill="none" stroke="#63b8ff" d="M360.42,-83.5C349.09,-83.5 337.46,-83.5 326.25,-83.5"/>
<polygon fill="#63b8ff" stroke="#63b8ff" points="360.12,-87 370.12,-83.5 360.12,-80 360.12,-87"/>
</g>
<!-- Node10 -->
<g id="node10" class="node">
<title>Node10</title>
<g id="a_node10"><a xlink:href="classllm_1_1Slave.html#a844c37870a4e98bffc091ddfafb8f959" target="_top" xlink:title=" ">
<polygon fill="white" stroke="#666666" points="325.5,-56 180.5,-56 180.5,-37 325.5,-37 325.5,-56"/>
<text text-anchor="middle" x="253" y="-44" font-family="Helvetica,sans-Serif" font-size="10.00">llm::Slave::buildExceptionTCP</text>
</a>
</g>
</g>
<!-- Node9&#45;&gt;Node10 -->
<g id="edge9" class="edge">
<title>Node9&#45;&gt;Node10</title>
<path fill="none" stroke="#63b8ff" d="M360.68,-46.5C349.07,-46.5 337.16,-46.5 325.69,-46.5"/>
<polygon fill="#63b8ff" stroke="#63b8ff" points="360.64,-50 370.64,-46.5 360.64,-43 360.64,-50"/>
</g>
<!-- Node12 -->
<g id="node12" class="node">
<title>Node12</title>
<g id="a_node12"><a xlink:href="slave_8impl_8h.html#ab5c5f3146a46cf8d221aca22e9c8a052" target="_top" xlink:title="Parses provided PDU and generates PDU for the response frame.">
<polygon fill="white" stroke="#666666" points="320,-167 186,-167 186,-148 320,-148 320,-167"/>
<text text-anchor="middle" x="253" y="-155" font-family="Helvetica,sans-Serif" font-size="10.00">modbusParseRequestPDU</text>
</a>
</g>
</g>
<!-- Node11&#45;&gt;Node12 -->
<g id="edge11" class="edge">
<title>Node11&#45;&gt;Node12</title>
<path fill="none" stroke="#63b8ff" d="M371.36,-157.5C354.75,-157.5 336.96,-157.5 320.38,-157.5"/>
<polygon fill="#63b8ff" stroke="#63b8ff" points="371.13,-161 381.13,-157.5 371.13,-154 371.13,-161"/>
</g>
<!-- Node14 -->
<g id="node14" class="node">
<title>Node14</title>
<g id="a_node14"><a xlink:href="slave_8impl_8h.html#a6a1e63faa64b7ca4b91d1ce7988be850" target="_top" xlink:title="Parses provided Modbus RTU request frame and generates a Modbus RTU response.">
<polygon fill="white" stroke="#666666" points="319.5,-297 186.5,-297 186.5,-278 319.5,-278 319.5,-297"/>
<text text-anchor="middle" x="253" y="-285" font-family="Helvetica,sans-Serif" font-size="10.00">modbusParseRequestRTU</text>
</a>
</g>
</g>
<!-- Node11&#45;&gt;Node14 -->
<g id="edge13" class="edge">
<title>Node11&#45;&gt;Node14</title>
<path fill="none" stroke="#63b8ff" d="M372.04,-170.53C368.56,-172.01 365.19,-173.66 362,-175.5 341.83,-187.1 342.11,-196.72 326,-213.5 303.65,-236.77 277.14,-263.9 263.36,-277.96"/>
<polygon fill="#63b8ff" stroke="#63b8ff" points="373.13,-173.86 381.29,-167.1 370.69,-167.3 373.13,-173.86"/>
</g>
<!-- Node16 -->
<g id="node16" class="node">
<title>Node16</title>
<g id="a_node16"><a xlink:href="slave_8impl_8h.html#a5ad3fe86aa14f8982d7c459c68cd8b3e" target="_top" xlink:title="Parses provided Modbus TCP request frame and generates a Modbus TCP response.">
<polygon fill="white" stroke="#666666" points="319,-204 187,-204 187,-185 319,-185 319,-204"/>
<text text-anchor="middle" x="253" y="-192" font-family="Helvetica,sans-Serif" font-size="10.00">modbusParseRequestTCP</text>
</a>
</g>
</g>
<!-- Node11&#45;&gt;Node16 -->
<g id="edge15" class="edge">
<title>Node11&#45;&gt;Node16</title>
<path fill="none" stroke="#63b8ff" d="M377.89,-169.65C353.81,-174.48 326.45,-179.97 303.58,-184.56"/>
<polygon fill="#63b8ff" stroke="#63b8ff" points="378.46,-173.11 387.57,-167.71 377.08,-166.25 378.46,-173.11"/>
</g>
<!-- Node13 -->
<g id="node13" class="node">
<title>Node13</title>
<g id="a_node13"><a xlink:href="classllm_1_1Slave.html#af8cc9d8d58bf7f632f3f3cf7e6b9c84b" target="_top" xlink:title=" ">
<polygon fill="white" stroke="#666666" points="144,-167 0,-167 0,-148 144,-148 144,-167"/>
<text text-anchor="middle" x="72" y="-155" font-family="Helvetica,sans-Serif" font-size="10.00">llm::Slave::parseRequestPDU</text>
</a>
</g>
</g>
<!-- Node12&#45;&gt;Node13 -->
<g id="edge12" class="edge">
<title>Node12&#45;&gt;Node13</title>
<path fill="none" stroke="#63b8ff" d="M174.12,-157.5C164.24,-157.5 154.17,-157.5 144.4,-157.5"/>
<polygon fill="#63b8ff" stroke="#63b8ff" points="174.09,-161 184.09,-157.5 174.09,-154 174.09,-161"/>
</g>
<!-- Node15 -->
<g id="node15" class="node">
<title>Node15</title>
<g id="a_node15"><a xlink:href="classllm_1_1Slave.html#a001591b9a38b69cf29adc853872a09fe" target="_top" xlink:title=" ">
<polygon fill="white" stroke="#666666" points="143.5,-297 0.5,-297 0.5,-278 143.5,-278 143.5,-297"/>
<text text-anchor="middle" x="72" y="-285" font-family="Helvetica,sans-Serif" font-size="10.00">llm::Slave::parseRequestRTU</text>
</a>
</g>
</g>
<!-- Node14&#45;&gt;Node15 -->
<g id="edge14" class="edge">
<title>Node14&#45;&gt;Node15</title>
<path fill="none" stroke="#63b8ff" d="M174.67,-287.5C164.44,-287.5 153.99,-287.5 143.87,-287.5"/>
<polygon fill="#63b8ff" stroke="#63b8ff" points="174.6,-291 184.6,-287.5 174.6,-284 174.6,-291"/>
</g>
<!-- Node17 -->
<g id="node17" class="node">
<title>Node17</title>
<g id="a_node17"><a xlink:href="classllm_1_1Slave.html#a05169339916c3727c780c75157b399b9" target="_top" xlink:title=" ">
<polygon fill="white" stroke="#666666" points="143.5,-204 0.5,-204 0.5,-185 143.5,-185 143.5,-204"/>
<text text-anchor="middle" x="72" y="-192" font-family="Helvetica,sans-Serif" font-size="10.00">llm::Slave::parseRequestTCP</text>
</a>
</g>
</g>
<!-- Node16&#45;&gt;Node17 -->
<g id="edge16" class="edge">
<title>Node16&#45;&gt;Node17</title>
<path fill="none" stroke="#63b8ff" d="M175.41,-194.5C164.96,-194.5 154.28,-194.5 143.94,-194.5"/>
<polygon fill="#63b8ff" stroke="#63b8ff" points="175.1,-198 185.1,-194.5 175.1,-191 175.1,-198"/>
</g>
<!-- Node23 -->
<g id="node23" class="node">
<title>Node23</title>
<g id="a_node23"><a xlink:href="classllm_1_1Slave.html#a46b8ac6f2b8dee5550d18bd7f1dd355d" target="_top" xlink:title=" ">
<polygon fill="white" stroke="#666666" points="661,-88 568,-88 568,-69 661,-69 661,-88"/>
<text text-anchor="middle" x="614.5" y="-76" font-family="Helvetica,sans-Serif" font-size="10.00">llm::Slave::~Slave</text>
</a>
</g>
</g>
<!-- Node22&#45;&gt;Node23 -->
<g id="edge26" class="edge">
<title>Node22&#45;&gt;Node23</title>
<path fill="none" stroke="#63b8ff" d="M748.14,-122.97C716.61,-112.4 673.54,-97.96 645.14,-88.44"/>
<polygon fill="#63b8ff" stroke="#63b8ff" points="746.73,-126.19 757.33,-126.05 748.96,-119.55 746.73,-126.19"/>
</g>
<!-- Node24&#45;&gt;Node14 -->
<g id="edge29" class="edge">
<title>Node24&#45;&gt;Node14</title>
<path fill="none" stroke="#63b8ff" d="M729.43,-299.5C723.47,-301.31 717.57,-303.31 712,-305.5 694.97,-312.21 693.72,-320.91 676,-325.5 533.58,-362.4 356.12,-318.45 285.3,-297.46"/>
<polygon fill="#63b8ff" stroke="#63b8ff" points="730.03,-302.97 738.69,-296.87 728.11,-296.23 730.03,-302.97"/>
</g>
<!-- Node25 -->
<g id="node25" class="node">
<title>Node25</title>
<g id="a_node25"><a xlink:href="classllm_1_1Slave.html#aadbd0a4dc7769b5c393d6dfe5a344b8a" target="_top" xlink:title=" ">
<polygon fill="white" stroke="#666666" points="676,-316 553,-316 553,-297 676,-297 676,-316"/>
<text text-anchor="middle" x="614.5" y="-304" font-family="Helvetica,sans-Serif" font-size="10.00">llm::Slave::freeResponse</text>
</a>
</g>
</g>
<!-- Node24&#45;&gt;Node25 -->
<g id="edge28" class="edge">
<title>Node24&#45;&gt;Node25</title>
<path fill="none" stroke="#63b8ff" d="M708.45,-295.75C697.64,-297 686.7,-298.27 676.3,-299.47"/>
<polygon fill="#63b8ff" stroke="#63b8ff" points="708.59,-299.26 718.13,-294.64 707.79,-292.31 708.59,-299.26"/>
</g>
</g>
</svg>
