<?xml version="1.0" encoding="UTF-8" standalone="no"?>
<!DOCTYPE svg PUBLIC "-//W3C//DTD SVG 1.1//EN"
 "http://www.w3.org/Graphics/SVG/1.1/DTD/svg11.dtd">
<!-- Generated by graphviz version 7.0.5 (20221223.1930)
 -->
<!-- Title: modbusParseRequest22 Pages: 1 -->
<svg width="652pt" height="140pt"
 viewBox="0.00 0.00 652.00 140.00" xmlns="http://www.w3.org/2000/svg" xmlns:xlink="http://www.w3.org/1999/xlink">
<g id="graph0" class="graph" transform="scale(1 1) rotate(0) translate(4 136)">
<title>modbusParseRequest22</title>
<!-- Node1 -->
<g id="node1" class="node">
<title>Node1</title>
<g id="a_node1"><a xlink:title="Handles request 22 (Mask Write Register) and generates response.">
<polygon fill="#999999" stroke="#666666" points="123,-75 0,-75 0,-56 123,-56 123,-75"/>
<text text-anchor="middle" x="61.5" y="-63" font-family="Helvetica,sans-Serif" font-size="10.00">modbusParseRequest22</text>
</a>
</g>
</g>
<!-- Node2 -->
<g id="node2" class="node">
<title>Node2</title>
<g id="a_node2"><a xlink:href="slave_8impl_8h.html#a58243ce1e1adaffd0a3260edc2d03603" target="_top" xlink:title="Builds an exception response frame.">
<polygon fill="white" stroke="#666666" points="274,-132 159,-132 159,-113 274,-113 274,-132"/>
<text text-anchor="middle" x="216.5" y="-120" font-family="Helvetica,sans-Serif" font-size="10.00">modbusBuildException</text>
</a>
</g>
</g>
<!-- Node1&#45;&gt;Node2 -->
<g id="edge1" class="edge">
<title>Node1&#45;&gt;Node2</title>
<path fill="none" stroke="#63b8ff" d="M89.15,-75.43C113.87,-84.64 150.88,-98.43 178.46,-108.7"/>
<polygon fill="#63b8ff" stroke="#63b8ff" points="176.89,-111.85 187.48,-112.06 179.33,-105.29 176.89,-111.85"/>
</g>
<!-- Node3 -->
<g id="node3" class="node">
<title>Node3</title>
<g id="a_node3"><a xlink:href="slave_8h.html#ad1165bb6d12af1db502a05df5da55aed" target="_top" xlink:title="Allocates memory for slave&#39;s response frame.">
<polygon fill="white" stroke="#666666" points="465,-113 310,-113 310,-94 465,-94 465,-113"/>
<text text-anchor="middle" x="387.5" y="-101" font-family="Helvetica,sans-Serif" font-size="10.00">modbusSlaveAllocateResponse</text>
</a>
</g>
</g>
<!-- Node1&#45;&gt;Node3 -->
<g id="edge6" class="edge">
<title>Node1&#45;&gt;Node3</title>
<path fill="none" stroke="#63b8ff" d="M123.44,-72.65C172.75,-78.43 242.85,-86.65 298.28,-93.15"/>
<polygon fill="#63b8ff" stroke="#63b8ff" points="297.68,-96.61 308.02,-94.3 298.49,-89.65 297.68,-96.61"/>
</g>
<!-- Node6 -->
<g id="node6" class="node">
<title>Node6</title>
<g id="a_node6"><a xlink:href="base_8h.html#ace96da9afdf1e1796a6e2d7ac1f6c81a" target="_top" xlink:title="Safely reads a big&#45;endian 16&#45;bit word from provided pointer.">
<polygon fill="white" stroke="#666666" points="252,-56 181,-56 181,-37 252,-37 252,-56"/>
<text text-anchor="middle" x="216.5" y="-44" font-family="Helvetica,sans-Serif" font-size="10.00">modbusRBE</text>
</a>
</g>
</g>
<!-- Node1&#45;&gt;Node6 -->
<g id="edge5" class="edge">
<title>Node1&#45;&gt;Node6</title>
<path fill="none" stroke="#63b8ff" d="M123.41,-57.94C138.8,-56.03 155.06,-54.01 169.57,-52.2"/>
<polygon fill="#63b8ff" stroke="#63b8ff" points="169.79,-55.7 179.28,-51 168.92,-48.76 169.79,-55.7"/>
</g>
<!-- Node7 -->
<g id="node7" class="node">
<title>Node7</title>
<g id="a_node7"><a xlink:href="base_8h.html#a73b9f793bbe67a1968cc8c53a22d4c4b" target="_top" xlink:title="Safely writes a big&#45;endian 16&#45;bit word to provided pointer.">
<polygon fill="white" stroke="#666666" points="253,-19 180,-19 180,0 253,0 253,-19"/>
<text text-anchor="middle" x="216.5" y="-7" font-family="Helvetica,sans-Serif" font-size="10.00">modbusWBE</text>
</a>
</g>
</g>
<!-- Node1&#45;&gt;Node7 -->
<g id="edge7" class="edge">
<title>Node1&#45;&gt;Node7</title>
<path fill="none" stroke="#63b8ff" d="M87.39,-55.63C106.81,-48.01 134.52,-37.31 159,-28.5 164.03,-26.69 169.33,-24.84 174.59,-23.03"/>
<polygon fill="#63b8ff" stroke="#63b8ff" points="175.44,-26.44 183.78,-19.91 173.19,-19.81 175.44,-26.44"/>
</g>
<!-- Node2&#45;&gt;Node3 -->
<g id="edge2" class="edge">
<title>Node2&#45;&gt;Node3</title>
<path fill="none" stroke="#63b8ff" d="M274.24,-116.12C282.09,-115.24 290.29,-114.32 298.54,-113.39"/>
<polygon fill="#63b8ff" stroke="#63b8ff" points="298.74,-116.89 308.28,-112.29 297.95,-109.93 298.74,-116.89"/>
</g>
<!-- Node4 -->
<g id="node4" class="node">
<title>Node4</title>
<g id="a_node4"><a xlink:href="base_8impl_8h.html#a54f7d1db7f58ffd329b1955ad1a66f37" target="_top" xlink:title="Allocates memory to hold Modbus ADU.">
<polygon fill="white" stroke="#666666" points="639,-132 506,-132 506,-113 639,-113 639,-132"/>
<text text-anchor="middle" x="572.5" y="-120" font-family="Helvetica,sans-Serif" font-size="10.00">modbusBufferAllocateADU</text>
</a>
</g>
</g>
<!-- Node3&#45;&gt;Node4 -->
<g id="edge3" class="edge">
<title>Node3&#45;&gt;Node4</title>
<path fill="none" stroke="#63b8ff" d="M465.31,-111.48C474.94,-112.48 484.8,-113.5 494.43,-114.5"/>
<polygon fill="#63b8ff" stroke="#63b8ff" points="493.8,-117.95 504.11,-115.5 494.53,-110.99 493.8,-117.95"/>
</g>
<!-- Node5 -->
<g id="node5" class="node">
<title>Node5</title>
<g id="a_node5"><a xlink:href="slave_8h.html#a6517cff5567f0f07444d140edc7dfafd" target="_top" xlink:title="Retreieves the custom context pointer.">
<polygon fill="white" stroke="#666666" points="644,-95 501,-95 501,-76 644,-76 644,-95"/>
<text text-anchor="middle" x="572.5" y="-83" font-family="Helvetica,sans-Serif" font-size="10.00">modbusSlaveGetUserPointer</text>
</a>
</g>
</g>
<!-- Node3&#45;&gt;Node5 -->
<g id="edge4" class="edge">
<title>Node3&#45;&gt;Node5</title>
<path fill="none" stroke="#63b8ff" d="M465.31,-95.94C473.29,-95.16 481.42,-94.36 489.45,-93.57"/>
<polygon fill="#63b8ff" stroke="#63b8ff" points="489.6,-97.07 499.21,-92.61 488.92,-90.11 489.6,-97.07"/>
</g>
</g>
</svg>
