<?xml version="1.0" encoding="UTF-8" standalone="no"?>
<!DOCTYPE svg PUBLIC "-//W3C//DTD SVG 1.1//EN"
 "http://www.w3.org/Graphics/SVG/1.1/DTD/svg11.dtd">
<!-- Generated by graphviz version 7.0.5 (20221223.1930)
 -->
<!-- Title: include/lightmodbus/slave_func.h Pages: 1 -->
<svg width="246pt" height="236pt"
 viewBox="0.00 0.00 245.78 236.00" xmlns="http://www.w3.org/2000/svg" xmlns:xlink="http://www.w3.org/1999/xlink">
<g id="graph0" class="graph" transform="scale(1 1) rotate(0) translate(4 232)">
<title>include/lightmodbus/slave_func.h</title>
<!-- Node1 -->
<g id="node1" class="node">
<title>Node1</title>
<g id="a_node1"><a xlink:title="Slave&#39;s functions for parsing requests (header)">
<polygon fill="#999999" stroke="#666666" points="116.78,-228 13.78,-228 13.78,-198 116.78,-198 116.78,-228"/>
<text text-anchor="start" x="21.78" y="-216" font-family="Helvetica,sans-Serif" font-size="10.00">include/lightmodbus</text>
<text text-anchor="middle" x="65.28" y="-205" font-family="Helvetica,sans-Serif" font-size="10.00">/slave_func.h</text>
</a>
</g>
</g>
<!-- Node2 -->
<g id="node2" class="node">
<title>Node2</title>
<g id="a_node2"><a xlink:href="lightmodbus_8h.html" target="_top" xlink:title="The main library header file (include this one)">
<polygon fill="white" stroke="#666666" points="116.78,-96 13.78,-96 13.78,-66 116.78,-66 116.78,-96"/>
<text text-anchor="start" x="21.78" y="-84" font-family="Helvetica,sans-Serif" font-size="10.00">include/lightmodbus</text>
<text text-anchor="middle" x="65.28" y="-73" font-family="Helvetica,sans-Serif" font-size="10.00">/lightmodbus.h</text>
</a>
</g>
</g>
<!-- Node1&#45;&gt;Node2 -->
<g id="edge1" class="edge">
<title>Node1&#45;&gt;Node2</title>
<path fill="none" stroke="#63b8ff" d="M29.34,-191.1C19.35,-183.34 9.75,-173.56 4.28,-162 -1.43,-149.95 -1.43,-144.05 4.28,-132 11.43,-116.9 25.61,-104.84 38.51,-96.35"/>
<polygon fill="#63b8ff" stroke="#63b8ff" points="27.11,-193.81 37.28,-196.78 31.18,-188.11 27.11,-193.81"/>
</g>
<!-- Node4 -->
<g id="node4" class="node">
<title>Node4</title>
<g id="a_node4"><a xlink:href="slave_8impl_8h.html" target="_top" xlink:title="Slave&#39;s types and basic functions (implementation)">
<polygon fill="white" stroke="#666666" points="116.78,-162 13.78,-162 13.78,-132 116.78,-132 116.78,-162"/>
<text text-anchor="start" x="21.78" y="-150" font-family="Helvetica,sans-Serif" font-size="10.00">include/lightmodbus</text>
<text text-anchor="middle" x="65.28" y="-139" font-family="Helvetica,sans-Serif" font-size="10.00">/slave.impl.h</text>
</a>
</g>
</g>
<!-- Node1&#45;&gt;Node4 -->
<g id="edge3" class="edge">
<title>Node1&#45;&gt;Node4</title>
<path fill="none" stroke="#63b8ff" d="M65.28,-186.39C65.28,-178.13 65.28,-169.28 65.28,-162.16"/>
<polygon fill="#63b8ff" stroke="#63b8ff" points="61.78,-186.28 65.28,-196.28 68.78,-186.28 61.78,-186.28"/>
</g>
<!-- Node5 -->
<g id="node5" class="node">
<title>Node5</title>
<g id="a_node5"><a xlink:href="slave__func_8impl_8h.html" target="_top" xlink:title="Slave&#39;s functions for parsing requests (implementation)">
<polygon fill="white" stroke="#666666" points="237.78,-162 134.78,-162 134.78,-132 237.78,-132 237.78,-162"/>
<text text-anchor="start" x="142.78" y="-150" font-family="Helvetica,sans-Serif" font-size="10.00">include/lightmodbus</text>
<text text-anchor="middle" x="186.28" y="-139" font-family="Helvetica,sans-Serif" font-size="10.00">/slave_func.impl.h</text>
</a>
</g>
</g>
<!-- Node1&#45;&gt;Node5 -->
<g id="edge5" class="edge">
<title>Node1&#45;&gt;Node5</title>
<path fill="none" stroke="#63b8ff" d="M102.49,-192.32C120.81,-182.63 142.5,-171.16 159.21,-162.31"/>
<polygon fill="#63b8ff" stroke="#63b8ff" points="100.97,-189.16 93.77,-196.93 104.25,-195.35 100.97,-189.16"/>
</g>
<!-- Node3 -->
<g id="node3" class="node">
<title>Node3</title>
<g id="a_node3"><a xlink:href="lightmodbus_8hpp.html" target="_top" xlink:title="(Very) experimental liblightmodbus C++ interface">
<polygon fill="white" stroke="#666666" points="116.78,-30 13.78,-30 13.78,0 116.78,0 116.78,-30"/>
<text text-anchor="start" x="21.78" y="-18" font-family="Helvetica,sans-Serif" font-size="10.00">include/lightmodbus</text>
<text text-anchor="middle" x="65.28" y="-7" font-family="Helvetica,sans-Serif" font-size="10.00">/lightmodbus.hpp</text>
</a>
</g>
</g>
<!-- Node2&#45;&gt;Node3 -->
<g id="edge2" class="edge">
<title>Node2&#45;&gt;Node3</title>
<path fill="none" stroke="#63b8ff" d="M65.28,-54.39C65.28,-46.13 65.28,-37.28 65.28,-30.16"/>
<polygon fill="#63b8ff" stroke="#63b8ff" points="61.78,-54.28 65.28,-64.28 68.78,-54.28 61.78,-54.28"/>
</g>
<!-- Node4&#45;&gt;Node2 -->
<g id="edge4" class="edge">
<title>Node4&#45;&gt;Node2</title>
<path fill="none" stroke="#63b8ff" d="M65.28,-120.39C65.28,-112.13 65.28,-103.28 65.28,-96.16"/>
<polygon fill="#63b8ff" stroke="#63b8ff" points="61.78,-120.28 65.28,-130.28 68.78,-120.28 61.78,-120.28"/>
</g>
<!-- Node5&#45;&gt;Node2 -->
<g id="edge6" class="edge">
<title>Node5&#45;&gt;Node2</title>
<path fill="none" stroke="#63b8ff" d="M149.07,-126.32C130.74,-116.63 109.06,-105.16 92.34,-96.31"/>
<polygon fill="#63b8ff" stroke="#63b8ff" points="147.31,-129.35 157.79,-130.93 150.58,-123.16 147.31,-129.35"/>
</g>
</g>
</svg>
