<?xml version="1.0" encoding="UTF-8" standalone="no"?>
<!DOCTYPE svg PUBLIC "-//W3C//DTD SVG 1.1//EN"
 "http://www.w3.org/Graphics/SVG/1.1/DTD/svg11.dtd">
<!-- Generated by graphviz version 7.0.5 (20221223.1930)
 -->
<!-- Title: modbusSlaveAllocateResponse Pages: 1 -->
<svg width="867pt" height="287pt"
 viewBox="0.00 0.00 867.00 287.00" xmlns="http://www.w3.org/2000/svg" xmlns:xlink="http://www.w3.org/1999/xlink">
<g id="graph0" class="graph" transform="scale(1 1) rotate(0) translate(4 283)">
<title>modbusSlaveAllocateResponse</title>
<!-- Node1 -->
<g id="node1" class="node">
<title>Node1</title>
<g id="a_node1"><a xlink:title="Allocates memory for slave&#39;s response frame.">
<polygon fill="#999999" stroke="#666666" points="859,-94 704,-94 704,-75 859,-75 859,-94"/>
<text text-anchor="middle" x="781.5" y="-82" font-family="Helvetica,sans-Serif" font-size="10.00">modbusSlaveAllocateResponse</text>
</a>
</g>
</g>
<!-- Node2 -->
<g id="node2" class="node">
<title>Node2</title>
<g id="a_node2"><a xlink:href="slave_8impl_8h.html#a58243ce1e1adaffd0a3260edc2d03603" target="_top" xlink:title="Builds an exception response frame.">
<polygon fill="white" stroke="#666666" points="668,-170 553,-170 553,-151 668,-151 668,-170"/>
<text text-anchor="middle" x="610.5" y="-158" font-family="Helvetica,sans-Serif" font-size="10.00">modbusBuildException</text>
</a>
</g>
</g>
<!-- Node1&#45;&gt;Node2 -->
<g id="edge1" class="edge">
<title>Node1&#45;&gt;Node2</title>
<path fill="none" stroke="#63b8ff" d="M749.14,-99.32C726.64,-109.87 695.55,-124.28 668,-136.5 657.38,-141.21 645.56,-146.26 635.49,-150.51"/>
<polygon fill="#63b8ff" stroke="#63b8ff" points="750.51,-102.54 758.07,-95.12 747.53,-96.2 750.51,-102.54"/>
</g>
<!-- Node16 -->
<g id="node16" class="node">
<title>Node16</title>
<g id="a_node16"><a xlink:href="slave__func_8impl_8h.html#aaff57f2a5c6a8e6c77d36c5dc7e48cfa" target="_top" xlink:title="Handles requests 01, 02, 03 and 04 (Read Multiple XX) and generates response.">
<polygon fill="white" stroke="#666666" points="517,-131 362,-131 362,-112 517,-112 517,-131"/>
<text text-anchor="middle" x="439.5" y="-119" font-family="Helvetica,sans-Serif" font-size="10.00">modbusParseRequest01020304</text>
</a>
</g>
</g>
<!-- Node1&#45;&gt;Node16 -->
<g id="edge19" class="edge">
<title>Node1&#45;&gt;Node16</title>
<path fill="none" stroke="#63b8ff" d="M692.43,-95.66C684.18,-96.64 675.93,-97.61 668,-98.5 617.9,-104.15 561.52,-109.85 517.42,-114.17"/>
<polygon fill="#63b8ff" stroke="#63b8ff" points="692.66,-99.15 702.17,-94.48 691.82,-92.2 692.66,-99.15"/>
</g>
<!-- Node17 -->
<g id="node17" class="node">
<title>Node17</title>
<g id="a_node17"><a xlink:href="slave__func_8impl_8h.html#a236881fe30a95d4cc9b031a9e24ae2a8" target="_top" xlink:title="Handles requests 05 and 06 (Write Single XX) and generates response.">
<polygon fill="white" stroke="#666666" points="506.5,-94 372.5,-94 372.5,-75 506.5,-75 506.5,-94"/>
<text text-anchor="middle" x="439.5" y="-82" font-family="Helvetica,sans-Serif" font-size="10.00">modbusParseRequest0506</text>
</a>
</g>
</g>
<!-- Node1&#45;&gt;Node17 -->
<g id="edge20" class="edge">
<title>Node1&#45;&gt;Node17</title>
<path fill="none" stroke="#63b8ff" d="M692.42,-84.5C634.48,-84.5 559.86,-84.5 506.91,-84.5"/>
<polygon fill="#63b8ff" stroke="#63b8ff" points="692.26,-88 702.26,-84.5 692.26,-81 692.26,-88"/>
</g>
<!-- Node18 -->
<g id="node18" class="node">
<title>Node18</title>
<g id="a_node18"><a xlink:href="slave__func_8impl_8h.html#a0cb2a7bf59d4014088e1ce1c61523071" target="_top" xlink:title="Handles requests 15 and 16 (Write Multiple XX) and generates response.">
<polygon fill="white" stroke="#666666" points="506.5,-56 372.5,-56 372.5,-37 506.5,-37 506.5,-56"/>
<text text-anchor="middle" x="439.5" y="-44" font-family="Helvetica,sans-Serif" font-size="10.00">modbusParseRequest1516</text>
</a>
</g>
</g>
<!-- Node1&#45;&gt;Node18 -->
<g id="edge21" class="edge">
<title>Node1&#45;&gt;Node18</title>
<path fill="none" stroke="#63b8ff" d="M692.42,-74.66C634.48,-68.18 559.86,-59.84 506.91,-53.92"/>
<polygon fill="#63b8ff" stroke="#63b8ff" points="691.94,-78.12 702.27,-75.76 692.72,-71.17 691.94,-78.12"/>
</g>
<!-- Node19 -->
<g id="node19" class="node">
<title>Node19</title>
<g id="a_node19"><a xlink:href="slave__func_8impl_8h.html#a814f041d9acfa578998b8ce8fe53815c" target="_top" xlink:title="Handles request 22 (Mask Write Register) and generates response.">
<polygon fill="white" stroke="#666666" points="501,-19 378,-19 378,0 501,0 501,-19"/>
<text text-anchor="middle" x="439.5" y="-7" font-family="Helvetica,sans-Serif" font-size="10.00">modbusParseRequest22</text>
</a>
</g>
</g>
<!-- Node1&#45;&gt;Node19 -->
<g id="edge22" class="edge">
<title>Node1&#45;&gt;Node19</title>
<path fill="none" stroke="#63b8ff" d="M732.88,-71.63C712.9,-66.39 689.38,-60.41 668,-55.5 608.7,-41.87 540.2,-28.32 493.99,-19.49"/>
<polygon fill="#63b8ff" stroke="#63b8ff" points="731.86,-74.98 742.42,-74.15 733.65,-68.21 731.86,-74.98"/>
</g>
<!-- Node3 -->
<g id="node3" class="node">
<title>Node3</title>
<g id="a_node3"><a xlink:href="slave_8impl_8h.html#a384f75966903cc0c249eb68a6a20180e" target="_top" xlink:title="Builds an exception PDU.">
<polygon fill="white" stroke="#666666" points="507.5,-279 371.5,-279 371.5,-260 507.5,-260 507.5,-279"/>
<text text-anchor="middle" x="439.5" y="-267" font-family="Helvetica,sans-Serif" font-size="10.00">modbusBuildExceptionPDU</text>
</a>
</g>
</g>
<!-- Node2&#45;&gt;Node3 -->
<g id="edge2" class="edge">
<title>Node2&#45;&gt;Node3</title>
<path fill="none" stroke="#63b8ff" d="M595.82,-179.08C579.43,-199.95 550.03,-233.27 517,-251.5 511.15,-254.73 504.73,-257.38 498.18,-259.56"/>
<polygon fill="#63b8ff" stroke="#63b8ff" points="598.38,-181.49 601.67,-171.42 592.82,-177.24 598.38,-181.49"/>
</g>
<!-- Node5 -->
<g id="node5" class="node">
<title>Node5</title>
<g id="a_node5"><a xlink:href="slave_8impl_8h.html#a1da09df8858b91c61fe02c25783c2946" target="_top" xlink:title="Builds a Modbus RTU exception.">
<polygon fill="white" stroke="#666666" points="507,-242 372,-242 372,-223 507,-223 507,-242"/>
<text text-anchor="middle" x="439.5" y="-230" font-family="Helvetica,sans-Serif" font-size="10.00">modbusBuildExceptionRTU</text>
</a>
</g>
</g>
<!-- Node2&#45;&gt;Node5 -->
<g id="edge4" class="edge">
<title>Node2&#45;&gt;Node5</title>
<path fill="none" stroke="#63b8ff" d="M586.33,-176.65C568.19,-188.63 541.95,-204.54 517,-214.5 509.14,-217.64 500.61,-220.31 492.18,-222.56"/>
<polygon fill="#63b8ff" stroke="#63b8ff" points="588.16,-179.64 594.5,-171.14 584.25,-173.83 588.16,-179.64"/>
</g>
<!-- Node7 -->
<g id="node7" class="node">
<title>Node7</title>
<g id="a_node7"><a xlink:href="slave_8impl_8h.html#a778e65356f7da66831f18ec53b975383" target="_top" xlink:title="Builds a Modbus TCP exception.">
<polygon fill="white" stroke="#666666" points="506.5,-205 372.5,-205 372.5,-186 506.5,-186 506.5,-205"/>
<text text-anchor="middle" x="439.5" y="-193" font-family="Helvetica,sans-Serif" font-size="10.00">modbusBuildExceptionTCP</text>
</a>
</g>
</g>
<!-- Node2&#45;&gt;Node7 -->
<g id="edge6" class="edge">
<title>Node2&#45;&gt;Node7</title>
<path fill="none" stroke="#63b8ff" d="M550.53,-172.71C530.28,-176.91 507.88,-181.55 488.6,-185.54"/>
<polygon fill="#63b8ff" stroke="#63b8ff" points="550.96,-176.2 560.04,-170.74 549.54,-169.34 550.96,-176.2"/>
</g>
<!-- Node9 -->
<g id="node9" class="node">
<title>Node9</title>
<g id="a_node9"><a xlink:href="slave_8impl_8h.html#aff0a9164a0e37aa619232ae86e3ff97a" target="_top" xlink:title="Parses provided PDU and generates response honorinng pduOffset and padding set in ModbusSlave during ...">
<polygon fill="white" stroke="#666666" points="496,-168 383,-168 383,-149 496,-149 496,-168"/>
<text text-anchor="middle" x="439.5" y="-156" font-family="Helvetica,sans-Serif" font-size="10.00">modbusParseRequest</text>
</a>
</g>
</g>
<!-- Node2&#45;&gt;Node9 -->
<g id="edge8" class="edge">
<title>Node2&#45;&gt;Node9</title>
<path fill="none" stroke="#63b8ff" d="M541.45,-159.69C526.43,-159.52 510.69,-159.33 496.23,-159.16"/>
<polygon fill="#63b8ff" stroke="#63b8ff" points="541.2,-163.19 551.24,-159.81 541.28,-156.19 541.2,-163.19"/>
</g>
<!-- Node2&#45;&gt;Node16 -->
<g id="edge15" class="edge">
<title>Node2&#45;&gt;Node16</title>
<path fill="none" stroke="#63b8ff" d="M555.38,-148.01C532.24,-142.67 505.6,-136.52 483.8,-131.49"/>
<polygon fill="#63b8ff" stroke="#63b8ff" points="554.41,-151.38 564.94,-150.22 555.99,-144.56 554.41,-151.38"/>
</g>
<!-- Node2&#45;&gt;Node17 -->
<g id="edge16" class="edge">
<title>Node2&#45;&gt;Node17</title>
<path fill="none" stroke="#63b8ff" d="M587.31,-144.09C569.2,-131.4 542.53,-114.23 517,-103.5 508.55,-99.95 499.28,-96.95 490.2,-94.47"/>
<polygon fill="#63b8ff" stroke="#63b8ff" points="585.02,-146.76 595.19,-149.74 589.1,-141.07 585.02,-146.76"/>
</g>
<!-- Node2&#45;&gt;Node18 -->
<g id="edge17" class="edge">
<title>Node2&#45;&gt;Node18</title>
<path fill="none" stroke="#63b8ff" d="M595.87,-141.44C579.54,-120.01 550.19,-85.71 517,-66.5 509.87,-62.37 501.88,-59.08 493.83,-56.46"/>
<polygon fill="#63b8ff" stroke="#63b8ff" points="592.95,-143.38 601.72,-149.33 598.57,-139.21 592.95,-143.38"/>
</g>
<!-- Node2&#45;&gt;Node19 -->
<g id="edge18" class="edge">
<title>Node2&#45;&gt;Node19</title>
<path fill="none" stroke="#63b8ff" d="M601.17,-140.3C587.9,-110.74 559.09,-56.12 517,-27.5 512.15,-24.2 506.77,-21.5 501.17,-19.3"/>
<polygon fill="#63b8ff" stroke="#63b8ff" points="597.85,-141.44 605.03,-149.24 604.28,-138.67 597.85,-141.44"/>
</g>
<!-- Node4 -->
<g id="node4" class="node">
<title>Node4</title>
<g id="a_node4"><a xlink:href="classllm_1_1Slave.html#ac915e0947f733a784a9069f5ff5b9737" target="_top" xlink:title=" ">
<polygon fill="white" stroke="#666666" points="326,-279 180,-279 180,-260 326,-260 326,-279"/>
<text text-anchor="middle" x="253" y="-267" font-family="Helvetica,sans-Serif" font-size="10.00">llm::Slave::buildExceptionPDU</text>
</a>
</g>
</g>
<!-- Node3&#45;&gt;Node4 -->
<g id="edge3" class="edge">
<title>Node3&#45;&gt;Node4</title>
<path fill="none" stroke="#63b8ff" d="M359.73,-269.5C348.7,-269.5 337.4,-269.5 326.49,-269.5"/>
<polygon fill="#63b8ff" stroke="#63b8ff" points="359.59,-273 369.59,-269.5 359.59,-266 359.59,-273"/>
</g>
<!-- Node6 -->
<g id="node6" class="node">
<title>Node6</title>
<g id="a_node6"><a xlink:href="classllm_1_1Slave.html#a10e79600053c725e639225264d966e63" target="_top" xlink:title=" ">
<polygon fill="white" stroke="#666666" points="326,-242 180,-242 180,-223 326,-223 326,-242"/>
<text text-anchor="middle" x="253" y="-230" font-family="Helvetica,sans-Serif" font-size="10.00">llm::Slave::buildExceptionRTU</text>
</a>
</g>
</g>
<!-- Node5&#45;&gt;Node6 -->
<g id="edge5" class="edge">
<title>Node5&#45;&gt;Node6</title>
<path fill="none" stroke="#63b8ff" d="M360.42,-232.5C349.09,-232.5 337.46,-232.5 326.25,-232.5"/>
<polygon fill="#63b8ff" stroke="#63b8ff" points="360.12,-236 370.12,-232.5 360.12,-229 360.12,-236"/>
</g>
<!-- Node8 -->
<g id="node8" class="node">
<title>Node8</title>
<g id="a_node8"><a xlink:href="classllm_1_1Slave.html#a844c37870a4e98bffc091ddfafb8f959" target="_top" xlink:title=" ">
<polygon fill="white" stroke="#666666" points="325.5,-205 180.5,-205 180.5,-186 325.5,-186 325.5,-205"/>
<text text-anchor="middle" x="253" y="-193" font-family="Helvetica,sans-Serif" font-size="10.00">llm::Slave::buildExceptionTCP</text>
</a>
</g>
</g>
<!-- Node7&#45;&gt;Node8 -->
<g id="edge7" class="edge">
<title>Node7&#45;&gt;Node8</title>
<path fill="none" stroke="#63b8ff" d="M360.68,-195.5C349.07,-195.5 337.16,-195.5 325.69,-195.5"/>
<polygon fill="#63b8ff" stroke="#63b8ff" points="360.64,-199 370.64,-195.5 360.64,-192 360.64,-199"/>
</g>
<!-- Node10 -->
<g id="node10" class="node">
<title>Node10</title>
<g id="a_node10"><a xlink:href="slave_8impl_8h.html#ab5c5f3146a46cf8d221aca22e9c8a052" target="_top" xlink:title="Parses provided PDU and generates PDU for the response frame.">
<polygon fill="white" stroke="#666666" points="320,-168 186,-168 186,-149 320,-149 320,-168"/>
<text text-anchor="middle" x="253" y="-156" font-family="Helvetica,sans-Serif" font-size="10.00">modbusParseRequestPDU</text>
</a>
</g>
</g>
<!-- Node9&#45;&gt;Node10 -->
<g id="edge9" class="edge">
<title>Node9&#45;&gt;Node10</title>
<path fill="none" stroke="#63b8ff" d="M371.36,-158.5C354.75,-158.5 336.96,-158.5 320.38,-158.5"/>
<polygon fill="#63b8ff" stroke="#63b8ff" points="371.13,-162 381.13,-158.5 371.13,-155 371.13,-162"/>
</g>
<!-- Node12 -->
<g id="node12" class="node">
<title>Node12</title>
<g id="a_node12"><a xlink:href="slave_8impl_8h.html#a6a1e63faa64b7ca4b91d1ce7988be850" target="_top" xlink:title="Parses provided Modbus RTU request frame and generates a Modbus RTU response.">
<polygon fill="white" stroke="#666666" points="319.5,-131 186.5,-131 186.5,-112 319.5,-112 319.5,-131"/>
<text text-anchor="middle" x="253" y="-119" font-family="Helvetica,sans-Serif" font-size="10.00">modbusParseRequestRTU</text>
</a>
</g>
</g>
<!-- Node9&#45;&gt;Node12 -->
<g id="edge11" class="edge">
<title>Node9&#45;&gt;Node12</title>
<path fill="none" stroke="#63b8ff" d="M377.89,-146.35C353.81,-141.52 326.45,-136.03 303.58,-131.44"/>
<polygon fill="#63b8ff" stroke="#63b8ff" points="377.08,-149.75 387.57,-148.29 378.46,-142.89 377.08,-149.75"/>
</g>
<!-- Node14 -->
<g id="node14" class="node">
<title>Node14</title>
<g id="a_node14"><a xlink:href="slave_8impl_8h.html#a5ad3fe86aa14f8982d7c459c68cd8b3e" target="_top" xlink:title="Parses provided Modbus TCP request frame and generates a Modbus TCP response.">
<polygon fill="white" stroke="#666666" points="319,-94 187,-94 187,-75 319,-75 319,-94"/>
<text text-anchor="middle" x="253" y="-82" font-family="Helvetica,sans-Serif" font-size="10.00">modbusParseRequestTCP</text>
</a>
</g>
</g>
<!-- Node9&#45;&gt;Node14 -->
<g id="edge13" class="edge">
<title>Node9&#45;&gt;Node14</title>
<path fill="none" stroke="#63b8ff" d="M372.07,-145.41C368.59,-143.95 365.21,-142.31 362,-140.5 342.03,-129.2 345.81,-115.07 326,-103.5 319.75,-99.85 312.79,-96.89 305.72,-94.49"/>
<polygon fill="#63b8ff" stroke="#63b8ff" points="370.74,-148.65 381.33,-148.82 373.15,-142.08 370.74,-148.65"/>
</g>
<!-- Node11 -->
<g id="node11" class="node">
<title>Node11</title>
<g id="a_node11"><a xlink:href="classllm_1_1Slave.html#af8cc9d8d58bf7f632f3f3cf7e6b9c84b" target="_top" xlink:title=" ">
<polygon fill="white" stroke="#666666" points="144,-168 0,-168 0,-149 144,-149 144,-168"/>
<text text-anchor="middle" x="72" y="-156" font-family="Helvetica,sans-Serif" font-size="10.00">llm::Slave::parseRequestPDU</text>
</a>
</g>
</g>
<!-- Node10&#45;&gt;Node11 -->
<g id="edge10" class="edge">
<title>Node10&#45;&gt;Node11</title>
<path fill="none" stroke="#63b8ff" d="M174.12,-158.5C164.24,-158.5 154.17,-158.5 144.4,-158.5"/>
<polygon fill="#63b8ff" stroke="#63b8ff" points="174.09,-162 184.09,-158.5 174.09,-155 174.09,-162"/>
</g>
<!-- Node13 -->
<g id="node13" class="node">
<title>Node13</title>
<g id="a_node13"><a xlink:href="classllm_1_1Slave.html#a001591b9a38b69cf29adc853872a09fe" target="_top" xlink:title=" ">
<polygon fill="white" stroke="#666666" points="143.5,-131 0.5,-131 0.5,-112 143.5,-112 143.5,-131"/>
<text text-anchor="middle" x="72" y="-119" font-family="Helvetica,sans-Serif" font-size="10.00">llm::Slave::parseRequestRTU</text>
</a>
</g>
</g>
<!-- Node12&#45;&gt;Node13 -->
<g id="edge12" class="edge">
<title>Node12&#45;&gt;Node13</title>
<path fill="none" stroke="#63b8ff" d="M174.67,-121.5C164.44,-121.5 153.99,-121.5 143.87,-121.5"/>
<polygon fill="#63b8ff" stroke="#63b8ff" points="174.6,-125 184.6,-121.5 174.6,-118 174.6,-125"/>
</g>
<!-- Node15 -->
<g id="node15" class="node">
<title>Node15</title>
<g id="a_node15"><a xlink:href="classllm_1_1Slave.html#a05169339916c3727c780c75157b399b9" target="_top" xlink:title=" ">
<polygon fill="white" stroke="#666666" points="143.5,-94 0.5,-94 0.5,-75 143.5,-75 143.5,-94"/>
<text text-anchor="middle" x="72" y="-82" font-family="Helvetica,sans-Serif" font-size="10.00">llm::Slave::parseRequestTCP</text>
</a>
</g>
</g>
<!-- Node14&#45;&gt;Node15 -->
<g id="edge14" class="edge">
<title>Node14&#45;&gt;Node15</title>
<path fill="none" stroke="#63b8ff" d="M175.41,-84.5C164.96,-84.5 154.28,-84.5 143.94,-84.5"/>
<polygon fill="#63b8ff" stroke="#63b8ff" points="175.1,-88 185.1,-84.5 175.1,-81 175.1,-88"/>
</g>
</g>
</svg>
