<?xml version="1.0" encoding="UTF-8" standalone="no"?>
<!DOCTYPE svg PUBLIC "-//W3C//DTD SVG 1.1//EN"
 "http://www.w3.org/Graphics/SVG/1.1/DTD/svg11.dtd">
<!-- Generated by graphviz version 7.0.5 (20221223.1930)
 -->
<!-- Title: modbusBuildException Pages: 1 -->
<svg width="676pt" height="286pt"
 viewBox="0.00 0.00 676.00 286.00" xmlns="http://www.w3.org/2000/svg" xmlns:xlink="http://www.w3.org/1999/xlink">
<g id="graph0" class="graph" transform="scale(1 1) rotate(0) translate(4 282)">
<title>modbusBuildException</title>
<!-- Node1 -->
<g id="node1" class="node">
<title>Node1</title>
<g id="a_node1"><a xlink:title="Builds an exception response frame.">
<polygon fill="#999999" stroke="#666666" points="668,-148 553,-148 553,-129 668,-129 668,-148"/>
<text text-anchor="middle" x="610.5" y="-136" font-family="Helvetica,sans-Serif" font-size="10.00">modbusBuildException</text>
</a>
</g>
</g>
<!-- Node2 -->
<g id="node2" class="node">
<title>Node2</title>
<g id="a_node2"><a xlink:href="slave_8impl_8h.html#a384f75966903cc0c249eb68a6a20180e" target="_top" xlink:title="Builds an exception PDU.">
<polygon fill="white" stroke="#666666" points="507.5,-278 371.5,-278 371.5,-259 507.5,-259 507.5,-278"/>
<text text-anchor="middle" x="439.5" y="-266" font-family="Helvetica,sans-Serif" font-size="10.00">modbusBuildExceptionPDU</text>
</a>
</g>
</g>
<!-- Node1&#45;&gt;Node2 -->
<g id="edge1" class="edge">
<title>Node1&#45;&gt;Node2</title>
<path fill="none" stroke="#63b8ff" d="M598.64,-158.39C583.69,-183.82 554.32,-227.32 517,-250.5 511.78,-253.74 506.04,-256.4 500.11,-258.57"/>
<polygon fill="#63b8ff" stroke="#63b8ff" points="601.66,-160.15 603.56,-149.73 595.58,-156.69 601.66,-160.15"/>
</g>
<!-- Node4 -->
<g id="node4" class="node">
<title>Node4</title>
<g id="a_node4"><a xlink:href="slave_8impl_8h.html#a1da09df8858b91c61fe02c25783c2946" target="_top" xlink:title="Builds a Modbus RTU exception.">
<polygon fill="white" stroke="#666666" points="507,-241 372,-241 372,-222 507,-222 507,-241"/>
<text text-anchor="middle" x="439.5" y="-229" font-family="Helvetica,sans-Serif" font-size="10.00">modbusBuildExceptionRTU</text>
</a>
</g>
</g>
<!-- Node1&#45;&gt;Node4 -->
<g id="edge3" class="edge">
<title>Node1&#45;&gt;Node4</title>
<path fill="none" stroke="#63b8ff" d="M592.23,-156.6C574.83,-173.79 546.4,-199.07 517,-213.5 510.51,-216.69 503.43,-219.32 496.27,-221.5"/>
<polygon fill="#63b8ff" stroke="#63b8ff" points="594.68,-159.11 599.21,-149.53 589.7,-154.19 594.68,-159.11"/>
</g>
<!-- Node6 -->
<g id="node6" class="node">
<title>Node6</title>
<g id="a_node6"><a xlink:href="slave_8impl_8h.html#a778e65356f7da66831f18ec53b975383" target="_top" xlink:title="Builds a Modbus TCP exception.">
<polygon fill="white" stroke="#666666" points="506.5,-204 372.5,-204 372.5,-185 506.5,-185 506.5,-204"/>
<text text-anchor="middle" x="439.5" y="-192" font-family="Helvetica,sans-Serif" font-size="10.00">modbusBuildExceptionTCP</text>
</a>
</g>
</g>
<!-- Node1&#45;&gt;Node6 -->
<g id="edge5" class="edge">
<title>Node1&#45;&gt;Node6</title>
<path fill="none" stroke="#63b8ff" d="M577.88,-152.95C560.22,-160.65 537.67,-169.87 517,-176.5 507.78,-179.46 497.78,-182.16 488.16,-184.52"/>
<polygon fill="#63b8ff" stroke="#63b8ff" points="579.07,-156.25 586.8,-149 576.23,-149.85 579.07,-156.25"/>
</g>
<!-- Node8 -->
<g id="node8" class="node">
<title>Node8</title>
<g id="a_node8"><a xlink:href="slave_8impl_8h.html#aff0a9164a0e37aa619232ae86e3ff97a" target="_top" xlink:title="Parses provided PDU and generates response honorinng pduOffset and padding set in ModbusSlave during ...">
<polygon fill="white" stroke="#666666" points="496,-167 383,-167 383,-148 496,-148 496,-167"/>
<text text-anchor="middle" x="439.5" y="-155" font-family="Helvetica,sans-Serif" font-size="10.00">modbusParseRequest</text>
</a>
</g>
</g>
<!-- Node1&#45;&gt;Node8 -->
<g id="edge7" class="edge">
<title>Node1&#45;&gt;Node8</title>
<path fill="none" stroke="#63b8ff" d="M541.45,-146.15C526.43,-147.84 510.69,-149.61 496.23,-151.23"/>
<polygon fill="#63b8ff" stroke="#63b8ff" points="541.7,-149.64 551.25,-145.05 540.92,-142.69 541.7,-149.64"/>
</g>
<!-- Node15 -->
<g id="node15" class="node">
<title>Node15</title>
<g id="a_node15"><a xlink:href="slave__func_8impl_8h.html#aaff57f2a5c6a8e6c77d36c5dc7e48cfa" target="_top" xlink:title="Handles requests 01, 02, 03 and 04 (Read Multiple XX) and generates response.">
<polygon fill="white" stroke="#666666" points="517,-130 362,-130 362,-111 517,-111 517,-130"/>
<text text-anchor="middle" x="439.5" y="-118" font-family="Helvetica,sans-Serif" font-size="10.00">modbusParseRequest01020304</text>
</a>
</g>
</g>
<!-- Node1&#45;&gt;Node15 -->
<g id="edge14" class="edge">
<title>Node1&#45;&gt;Node15</title>
<path fill="none" stroke="#63b8ff" d="M541.31,-131.24C533.38,-130.39 525.25,-129.53 517.21,-128.67"/>
<polygon fill="#63b8ff" stroke="#63b8ff" points="540.94,-134.72 551.25,-132.3 541.68,-127.76 540.94,-134.72"/>
</g>
<!-- Node16 -->
<g id="node16" class="node">
<title>Node16</title>
<g id="a_node16"><a xlink:href="slave__func_8impl_8h.html#a236881fe30a95d4cc9b031a9e24ae2a8" target="_top" xlink:title="Handles requests 05 and 06 (Write Single XX) and generates response.">
<polygon fill="white" stroke="#666666" points="506.5,-93 372.5,-93 372.5,-74 506.5,-74 506.5,-93"/>
<text text-anchor="middle" x="439.5" y="-81" font-family="Helvetica,sans-Serif" font-size="10.00">modbusParseRequest0506</text>
</a>
</g>
</g>
<!-- Node1&#45;&gt;Node16 -->
<g id="edge15" class="edge">
<title>Node1&#45;&gt;Node16</title>
<path fill="none" stroke="#63b8ff" d="M576.36,-124.42C558.89,-117.3 537,-108.85 517,-102.5 506.7,-99.23 495.47,-96.17 484.86,-93.5"/>
<polygon fill="#63b8ff" stroke="#63b8ff" points="574.63,-127.49 585.2,-128.07 577.3,-121.02 574.63,-127.49"/>
</g>
<!-- Node17 -->
<g id="node17" class="node">
<title>Node17</title>
<g id="a_node17"><a xlink:href="slave__func_8impl_8h.html#a0cb2a7bf59d4014088e1ce1c61523071" target="_top" xlink:title="Handles requests 15 and 16 (Write Multiple XX) and generates response.">
<polygon fill="white" stroke="#666666" points="506.5,-56 372.5,-56 372.5,-37 506.5,-37 506.5,-56"/>
<text text-anchor="middle" x="439.5" y="-44" font-family="Helvetica,sans-Serif" font-size="10.00">modbusParseRequest1516</text>
</a>
</g>
</g>
<!-- Node1&#45;&gt;Node17 -->
<g id="edge16" class="edge">
<title>Node1&#45;&gt;Node17</title>
<path fill="none" stroke="#63b8ff" d="M591.82,-120.71C574.29,-104.06 545.94,-79.69 517,-65.5 509.5,-61.83 501.24,-58.82 492.99,-56.38"/>
<polygon fill="#63b8ff" stroke="#63b8ff" points="589.25,-123.09 598.86,-127.56 594.13,-118.08 589.25,-123.09"/>
</g>
<!-- Node18 -->
<g id="node18" class="node">
<title>Node18</title>
<g id="a_node18"><a xlink:href="slave__func_8impl_8h.html#a814f041d9acfa578998b8ce8fe53815c" target="_top" xlink:title="Handles request 22 (Mask Write Register) and generates response.">
<polygon fill="white" stroke="#666666" points="501,-19 378,-19 378,0 501,0 501,-19"/>
<text text-anchor="middle" x="439.5" y="-7" font-family="Helvetica,sans-Serif" font-size="10.00">modbusParseRequest22</text>
</a>
</g>
</g>
<!-- Node1&#45;&gt;Node18 -->
<g id="edge17" class="edge">
<title>Node1&#45;&gt;Node18</title>
<path fill="none" stroke="#63b8ff" d="M598.51,-119.04C583.41,-94.14 553.89,-51.5 517,-28.5 511.08,-24.81 504.48,-21.83 497.71,-19.43"/>
<polygon fill="#63b8ff" stroke="#63b8ff" points="595.39,-120.64 603.47,-127.5 601.43,-117.1 595.39,-120.64"/>
</g>
<!-- Node3 -->
<g id="node3" class="node">
<title>Node3</title>
<g id="a_node3"><a xlink:href="classllm_1_1Slave.html#ac915e0947f733a784a9069f5ff5b9737" target="_top" xlink:title=" ">
<polygon fill="white" stroke="#666666" points="326,-278 180,-278 180,-259 326,-259 326,-278"/>
<text text-anchor="middle" x="253" y="-266" font-family="Helvetica,sans-Serif" font-size="10.00">llm::Slave::buildExceptionPDU</text>
</a>
</g>
</g>
<!-- Node2&#45;&gt;Node3 -->
<g id="edge2" class="edge">
<title>Node2&#45;&gt;Node3</title>
<path fill="none" stroke="#63b8ff" d="M359.73,-268.5C348.7,-268.5 337.4,-268.5 326.49,-268.5"/>
<polygon fill="#63b8ff" stroke="#63b8ff" points="359.59,-272 369.59,-268.5 359.59,-265 359.59,-272"/>
</g>
<!-- Node5 -->
<g id="node5" class="node">
<title>Node5</title>
<g id="a_node5"><a xlink:href="classllm_1_1Slave.html#a10e79600053c725e639225264d966e63" target="_top" xlink:title=" ">
<polygon fill="white" stroke="#666666" points="326,-241 180,-241 180,-222 326,-222 326,-241"/>
<text text-anchor="middle" x="253" y="-229" font-family="Helvetica,sans-Serif" font-size="10.00">llm::Slave::buildExceptionRTU</text>
</a>
</g>
</g>
<!-- Node4&#45;&gt;Node5 -->
<g id="edge4" class="edge">
<title>Node4&#45;&gt;Node5</title>
<path fill="none" stroke="#63b8ff" d="M360.42,-231.5C349.09,-231.5 337.46,-231.5 326.25,-231.5"/>
<polygon fill="#63b8ff" stroke="#63b8ff" points="360.12,-235 370.12,-231.5 360.12,-228 360.12,-235"/>
</g>
<!-- Node7 -->
<g id="node7" class="node">
<title>Node7</title>
<g id="a_node7"><a xlink:href="classllm_1_1Slave.html#a844c37870a4e98bffc091ddfafb8f959" target="_top" xlink:title=" ">
<polygon fill="white" stroke="#666666" points="325.5,-204 180.5,-204 180.5,-185 325.5,-185 325.5,-204"/>
<text text-anchor="middle" x="253" y="-192" font-family="Helvetica,sans-Serif" font-size="10.00">llm::Slave::buildExceptionTCP</text>
</a>
</g>
</g>
<!-- Node6&#45;&gt;Node7 -->
<g id="edge6" class="edge">
<title>Node6&#45;&gt;Node7</title>
<path fill="none" stroke="#63b8ff" d="M360.68,-194.5C349.07,-194.5 337.16,-194.5 325.69,-194.5"/>
<polygon fill="#63b8ff" stroke="#63b8ff" points="360.64,-198 370.64,-194.5 360.64,-191 360.64,-198"/>
</g>
<!-- Node9 -->
<g id="node9" class="node">
<title>Node9</title>
<g id="a_node9"><a xlink:href="slave_8impl_8h.html#ab5c5f3146a46cf8d221aca22e9c8a052" target="_top" xlink:title="Parses provided PDU and generates PDU for the response frame.">
<polygon fill="white" stroke="#666666" points="320,-167 186,-167 186,-148 320,-148 320,-167"/>
<text text-anchor="middle" x="253" y="-155" font-family="Helvetica,sans-Serif" font-size="10.00">modbusParseRequestPDU</text>
</a>
</g>
</g>
<!-- Node8&#45;&gt;Node9 -->
<g id="edge8" class="edge">
<title>Node8&#45;&gt;Node9</title>
<path fill="none" stroke="#63b8ff" d="M371.36,-157.5C354.75,-157.5 336.96,-157.5 320.38,-157.5"/>
<polygon fill="#63b8ff" stroke="#63b8ff" points="371.13,-161 381.13,-157.5 371.13,-154 371.13,-161"/>
</g>
<!-- Node11 -->
<g id="node11" class="node">
<title>Node11</title>
<g id="a_node11"><a xlink:href="slave_8impl_8h.html#a6a1e63faa64b7ca4b91d1ce7988be850" target="_top" xlink:title="Parses provided Modbus RTU request frame and generates a Modbus RTU response.">
<polygon fill="white" stroke="#666666" points="319.5,-130 186.5,-130 186.5,-111 319.5,-111 319.5,-130"/>
<text text-anchor="middle" x="253" y="-118" font-family="Helvetica,sans-Serif" font-size="10.00">modbusParseRequestRTU</text>
</a>
</g>
</g>
<!-- Node8&#45;&gt;Node11 -->
<g id="edge10" class="edge">
<title>Node8&#45;&gt;Node11</title>
<path fill="none" stroke="#63b8ff" d="M377.89,-145.35C353.81,-140.52 326.45,-135.03 303.58,-130.44"/>
<polygon fill="#63b8ff" stroke="#63b8ff" points="377.08,-148.75 387.57,-147.29 378.46,-141.89 377.08,-148.75"/>
</g>
<!-- Node13 -->
<g id="node13" class="node">
<title>Node13</title>
<g id="a_node13"><a xlink:href="slave_8impl_8h.html#a5ad3fe86aa14f8982d7c459c68cd8b3e" target="_top" xlink:title="Parses provided Modbus TCP request frame and generates a Modbus TCP response.">
<polygon fill="white" stroke="#666666" points="319,-93 187,-93 187,-74 319,-74 319,-93"/>
<text text-anchor="middle" x="253" y="-81" font-family="Helvetica,sans-Serif" font-size="10.00">modbusParseRequestTCP</text>
</a>
</g>
</g>
<!-- Node8&#45;&gt;Node13 -->
<g id="edge12" class="edge">
<title>Node8&#45;&gt;Node13</title>
<path fill="none" stroke="#63b8ff" d="M372.07,-144.41C368.59,-142.95 365.21,-141.31 362,-139.5 342.03,-128.2 345.81,-114.07 326,-102.5 319.75,-98.85 312.79,-95.89 305.72,-93.49"/>
<polygon fill="#63b8ff" stroke="#63b8ff" points="370.74,-147.65 381.33,-147.82 373.15,-141.08 370.74,-147.65"/>
</g>
<!-- Node10 -->
<g id="node10" class="node">
<title>Node10</title>
<g id="a_node10"><a xlink:href="classllm_1_1Slave.html#af8cc9d8d58bf7f632f3f3cf7e6b9c84b" target="_top" xlink:title=" ">
<polygon fill="white" stroke="#666666" points="144,-167 0,-167 0,-148 144,-148 144,-167"/>
<text text-anchor="middle" x="72" y="-155" font-family="Helvetica,sans-Serif" font-size="10.00">llm::Slave::parseRequestPDU</text>
</a>
</g>
</g>
<!-- Node9&#45;&gt;Node10 -->
<g id="edge9" class="edge">
<title>Node9&#45;&gt;Node10</title>
<path fill="none" stroke="#63b8ff" d="M174.12,-157.5C164.24,-157.5 154.17,-157.5 144.4,-157.5"/>
<polygon fill="#63b8ff" stroke="#63b8ff" points="174.09,-161 184.09,-157.5 174.09,-154 174.09,-161"/>
</g>
<!-- Node12 -->
<g id="node12" class="node">
<title>Node12</title>
<g id="a_node12"><a xlink:href="classllm_1_1Slave.html#a001591b9a38b69cf29adc853872a09fe" target="_top" xlink:title=" ">
<polygon fill="white" stroke="#666666" points="143.5,-130 0.5,-130 0.5,-111 143.5,-111 143.5,-130"/>
<text text-anchor="middle" x="72" y="-118" font-family="Helvetica,sans-Serif" font-size="10.00">llm::Slave::parseRequestRTU</text>
</a>
</g>
</g>
<!-- Node11&#45;&gt;Node12 -->
<g id="edge11" class="edge">
<title>Node11&#45;&gt;Node12</title>
<path fill="none" stroke="#63b8ff" d="M174.67,-120.5C164.44,-120.5 153.99,-120.5 143.87,-120.5"/>
<polygon fill="#63b8ff" stroke="#63b8ff" points="174.6,-124 184.6,-120.5 174.6,-117 174.6,-124"/>
</g>
<!-- Node14 -->
<g id="node14" class="node">
<title>Node14</title>
<g id="a_node14"><a xlink:href="classllm_1_1Slave.html#a05169339916c3727c780c75157b399b9" target="_top" xlink:title=" ">
<polygon fill="white" stroke="#666666" points="143.5,-93 0.5,-93 0.5,-74 143.5,-74 143.5,-93"/>
<text text-anchor="middle" x="72" y="-81" font-family="Helvetica,sans-Serif" font-size="10.00">llm::Slave::parseRequestTCP</text>
</a>
</g>
</g>
<!-- Node13&#45;&gt;Node14 -->
<g id="edge13" class="edge">
<title>Node13&#45;&gt;Node14</title>
<path fill="none" stroke="#63b8ff" d="M175.41,-83.5C164.96,-83.5 154.28,-83.5 143.94,-83.5"/>
<polygon fill="#63b8ff" stroke="#63b8ff" points="175.1,-87 185.1,-83.5 175.1,-80 175.1,-87"/>
</g>
</g>
</svg>
