<?xml version="1.0" encoding="UTF-8" standalone="no"?>
<!DOCTYPE svg PUBLIC "-//W3C//DTD SVG 1.1//EN"
 "http://www.w3.org/Graphics/SVG/1.1/DTD/svg11.dtd">
<!-- Generated by graphviz version 7.0.5 (20221223.1930)
 -->
<!-- Title: include/lightmodbus/slave_func.h Pages: 1 -->
<svg width="164pt" height="203pt"
 viewBox="0.00 0.00 164.00 203.00" xmlns="http://www.w3.org/2000/svg" xmlns:xlink="http://www.w3.org/1999/xlink">
<g id="graph0" class="graph" transform="scale(1 1) rotate(0) translate(4 199)">
<title>include/lightmodbus/slave_func.h</title>
<!-- Node1 -->
<g id="node1" class="node">
<title>Node1</title>
<g id="a_node1"><a xlink:title="Slave&#39;s functions for parsing requests (header)">
<polygon fill="#999999" stroke="#666666" points="103,-195 0,-195 0,-165 103,-165 103,-195"/>
<text text-anchor="start" x="8" y="-183" font-family="Helvetica,sans-Serif" font-size="10.00">include/lightmodbus</text>
<text text-anchor="middle" x="51.5" y="-172" font-family="Helvetica,sans-Serif" font-size="10.00">/slave_func.h</text>
</a>
</g>
</g>
<!-- Node2 -->
<g id="node2" class="node">
<title>Node2</title>
<g id="a_node2"><a xlink:href="base_8h.html" target="_top" xlink:title="Common types and functions (header)">
<polygon fill="white" stroke="#666666" points="48,-74 3,-74 3,-55 48,-55 48,-74"/>
<text text-anchor="middle" x="25.5" y="-62" font-family="Helvetica,sans-Serif" font-size="10.00">base.h</text>
</a>
</g>
</g>
<!-- Node1&#45;&gt;Node2 -->
<g id="edge1" class="edge">
<title>Node1&#45;&gt;Node2</title>
<path fill="none" stroke="#63b8ff" d="M48.21,-164.63C43.6,-144.49 35.2,-107.83 30.01,-85.18"/>
<polygon fill="#63b8ff" stroke="#63b8ff" points="33.48,-84.67 27.84,-75.7 26.66,-86.23 33.48,-84.67"/>
</g>
<!-- Node4 -->
<g id="node4" class="node">
<title>Node4</title>
<g id="a_node4"><a xlink:href="slave_8h.html" target="_top" xlink:title="Slave&#39;s types and basic functions (header)">
<polygon fill="white" stroke="#666666" points="101,-129 54,-129 54,-110 101,-110 101,-129"/>
<text text-anchor="middle" x="77.5" y="-117" font-family="Helvetica,sans-Serif" font-size="10.00">slave.h</text>
</a>
</g>
</g>
<!-- Node1&#45;&gt;Node4 -->
<g id="edge3" class="edge">
<title>Node1&#45;&gt;Node4</title>
<path fill="none" stroke="#63b8ff" d="M57.93,-164.54C61.28,-157 65.42,-147.67 69.03,-139.55"/>
<polygon fill="#63b8ff" stroke="#63b8ff" points="72.17,-141.12 73.03,-130.56 65.77,-138.27 72.17,-141.12"/>
</g>
<!-- Node3 -->
<g id="node3" class="node">
<title>Node3</title>
<g id="a_node3"><a xlink:title=" ">
<polygon fill="#e0e0e0" stroke="#999999" points="74.5,-19 26.5,-19 26.5,0 74.5,0 74.5,-19"/>
<text text-anchor="middle" x="50.5" y="-7" font-family="Helvetica,sans-Serif" font-size="10.00">stdint.h</text>
</a>
</g>
</g>
<!-- Node2&#45;&gt;Node3 -->
<g id="edge2" class="edge">
<title>Node2&#45;&gt;Node3</title>
<path fill="none" stroke="#63b8ff" d="M29.63,-54.75C32.83,-47.96 37.39,-38.3 41.43,-29.73"/>
<polygon fill="#63b8ff" stroke="#63b8ff" points="44.54,-31.35 45.64,-20.81 38.2,-28.36 44.54,-31.35"/>
</g>
<!-- Node4&#45;&gt;Node2 -->
<g id="edge6" class="edge">
<title>Node4&#45;&gt;Node2</title>
<path fill="none" stroke="#63b8ff" d="M68.91,-109.75C61.66,-102.35 51.05,-91.54 42.13,-82.45"/>
<polygon fill="#63b8ff" stroke="#63b8ff" points="44.84,-80.21 35.33,-75.52 39.84,-85.11 44.84,-80.21"/>
</g>
<!-- Node4&#45;&gt;Node3 -->
<g id="edge4" class="edge">
<title>Node4&#45;&gt;Node3</title>
<path fill="none" stroke="#63b8ff" d="M75.29,-109.66C71,-92.5 61.44,-54.26 55.52,-30.6"/>
<polygon fill="#63b8ff" stroke="#63b8ff" points="58.93,-29.78 53.11,-20.93 52.14,-31.48 58.93,-29.78"/>
</g>
<!-- Node5 -->
<g id="node5" class="node">
<title>Node5</title>
<g id="a_node5"><a xlink:title=" ">
<polygon fill="#e0e0e0" stroke="#999999" points="156,-74 105,-74 105,-55 156,-55 156,-74"/>
<text text-anchor="middle" x="130.5" y="-62" font-family="Helvetica,sans-Serif" font-size="10.00">stddef.h</text>
</a>
</g>
</g>
<!-- Node4&#45;&gt;Node5 -->
<g id="edge5" class="edge">
<title>Node4&#45;&gt;Node5</title>
<path fill="none" stroke="#63b8ff" d="M86.25,-109.75C93.65,-102.35 104.46,-91.54 113.55,-82.45"/>
<polygon fill="#63b8ff" stroke="#63b8ff" points="115.89,-85.06 120.49,-75.51 110.94,-80.11 115.89,-85.06"/>
</g>
</g>
</svg>
