<?xml version="1.0" encoding="UTF-8" standalone="no"?>
<!DOCTYPE svg PUBLIC "-//W3C//DTD SVG 1.1//EN"
 "http://www.w3.org/Graphics/SVG/1.1/DTD/svg11.dtd">
<!-- Generated by graphviz version 7.0.5 (20221223.1930)
 -->
<!-- Title: include/lightmodbus/slave.impl.h Pages: 1 -->
<svg width="146pt" height="258pt"
 viewBox="0.00 0.00 145.80 258.00" xmlns="http://www.w3.org/2000/svg" xmlns:xlink="http://www.w3.org/1999/xlink">
<g id="graph0" class="graph" transform="scale(1 1) rotate(0) translate(4 254)">
<title>include/lightmodbus/slave.impl.h</title>
<!-- Node1 -->
<g id="node1" class="node">
<title>Node1</title>
<g id="a_node1"><a xlink:title="Slave&#39;s types and basic functions (implementation)">
<polygon fill="#999999" stroke="#666666" points="121.8,-250 18.8,-250 18.8,-220 121.8,-220 121.8,-250"/>
<text text-anchor="start" x="26.8" y="-238" font-family="Helvetica,sans-Serif" font-size="10.00">include/lightmodbus</text>
<text text-anchor="middle" x="70.3" y="-227" font-family="Helvetica,sans-Serif" font-size="10.00">/slave.impl.h</text>
</a>
</g>
</g>
<!-- Node2 -->
<g id="node2" class="node">
<title>Node2</title>
<g id="a_node2"><a xlink:href="slave_8h.html" target="_top" xlink:title="Slave&#39;s types and basic functions (header)">
<polygon fill="white" stroke="#666666" points="61.8,-129 14.8,-129 14.8,-110 61.8,-110 61.8,-129"/>
<text text-anchor="middle" x="38.3" y="-117" font-family="Helvetica,sans-Serif" font-size="10.00">slave.h</text>
</a>
</g>
</g>
<!-- Node1&#45;&gt;Node2 -->
<g id="edge1" class="edge">
<title>Node1&#45;&gt;Node2</title>
<path fill="none" stroke="#63b8ff" d="M66.24,-219.63C60.57,-199.49 50.23,-162.83 43.84,-140.18"/>
<polygon fill="#63b8ff" stroke="#63b8ff" points="47.25,-139.36 41.17,-130.69 40.51,-141.26 47.25,-139.36"/>
</g>
<!-- Node6 -->
<g id="node6" class="node">
<title>Node6</title>
<g id="a_node6"><a xlink:href="slave__func_8h.html" target="_top" xlink:title="Slave&#39;s functions for parsing requests (header)">
<polygon fill="white" stroke="#666666" points="137.8,-184 66.8,-184 66.8,-165 137.8,-165 137.8,-184"/>
<text text-anchor="middle" x="102.3" y="-172" font-family="Helvetica,sans-Serif" font-size="10.00">slave_func.h</text>
</a>
</g>
</g>
<!-- Node1&#45;&gt;Node6 -->
<g id="edge6" class="edge">
<title>Node1&#45;&gt;Node6</title>
<path fill="none" stroke="#63b8ff" d="M78.21,-219.54C82.38,-211.91 87.55,-202.46 92.03,-194.27"/>
<polygon fill="#63b8ff" stroke="#63b8ff" points="95.1,-195.96 96.82,-185.5 88.95,-192.6 95.1,-195.96"/>
</g>
<!-- Node3 -->
<g id="node3" class="node">
<title>Node3</title>
<g id="a_node3"><a xlink:title=" ">
<polygon fill="#e0e0e0" stroke="#999999" points="67.3,-19 19.3,-19 19.3,0 67.3,0 67.3,-19"/>
<text text-anchor="middle" x="43.3" y="-7" font-family="Helvetica,sans-Serif" font-size="10.00">stdint.h</text>
</a>
</g>
</g>
<!-- Node2&#45;&gt;Node3 -->
<g id="edge2" class="edge">
<title>Node2&#45;&gt;Node3</title>
<path fill="none" stroke="#63b8ff" d="M27.57,-109.86C14.24,-98 -5.82,-75.78 2.3,-55 6.56,-44.08 14.9,-34.22 22.95,-26.57"/>
<polygon fill="#63b8ff" stroke="#63b8ff" points="25.01,-29.42 30.23,-20.2 20.4,-24.16 25.01,-29.42"/>
</g>
<!-- Node4 -->
<g id="node4" class="node">
<title>Node4</title>
<g id="a_node4"><a xlink:title=" ">
<polygon fill="#e0e0e0" stroke="#999999" points="62.8,-74 11.8,-74 11.8,-55 62.8,-55 62.8,-74"/>
<text text-anchor="middle" x="37.3" y="-62" font-family="Helvetica,sans-Serif" font-size="10.00">stddef.h</text>
</a>
</g>
</g>
<!-- Node2&#45;&gt;Node4 -->
<g id="edge3" class="edge">
<title>Node2&#45;&gt;Node4</title>
<path fill="none" stroke="#63b8ff" d="M38.13,-109.75C38.01,-103.27 37.84,-94.16 37.68,-85.9"/>
<polygon fill="#63b8ff" stroke="#63b8ff" points="41.18,-85.89 37.49,-75.96 34.18,-86.02 41.18,-85.89"/>
</g>
<!-- Node5 -->
<g id="node5" class="node">
<title>Node5</title>
<g id="a_node5"><a xlink:href="base_8h.html" target="_top" xlink:title="Common types and functions (header)">
<polygon fill="white" stroke="#666666" points="125.8,-74 80.8,-74 80.8,-55 125.8,-55 125.8,-74"/>
<text text-anchor="middle" x="103.3" y="-62" font-family="Helvetica,sans-Serif" font-size="10.00">base.h</text>
</a>
</g>
</g>
<!-- Node2&#45;&gt;Node5 -->
<g id="edge4" class="edge">
<title>Node2&#45;&gt;Node5</title>
<path fill="none" stroke="#63b8ff" d="M49.32,-109.51C58.72,-101.85 72.44,-90.66 83.7,-81.47"/>
<polygon fill="#63b8ff" stroke="#63b8ff" points="85.72,-84.35 91.26,-75.31 81.3,-78.92 85.72,-84.35"/>
</g>
<!-- Node5&#45;&gt;Node3 -->
<g id="edge5" class="edge">
<title>Node5&#45;&gt;Node3</title>
<path fill="none" stroke="#63b8ff" d="M93.12,-54.51C84.53,-46.93 72.03,-35.88 61.69,-26.75"/>
<polygon fill="#63b8ff" stroke="#63b8ff" points="64.27,-24.36 54.46,-20.36 59.64,-29.6 64.27,-24.36"/>
</g>
<!-- Node6&#45;&gt;Node2 -->
<g id="edge8" class="edge">
<title>Node6&#45;&gt;Node2</title>
<path fill="none" stroke="#63b8ff" d="M91.44,-164.51C82.19,-156.85 68.67,-145.66 57.59,-136.47"/>
<polygon fill="#63b8ff" stroke="#63b8ff" points="60.09,-134.01 50.16,-130.32 55.63,-139.4 60.09,-134.01"/>
</g>
<!-- Node6&#45;&gt;Node5 -->
<g id="edge7" class="edge">
<title>Node6&#45;&gt;Node5</title>
<path fill="none" stroke="#63b8ff" d="M102.38,-164.66C102.54,-147.57 102.89,-109.61 103.11,-85.92"/>
<polygon fill="#63b8ff" stroke="#63b8ff" points="106.61,-86.01 103.2,-75.97 99.61,-85.94 106.61,-86.01"/>
</g>
</g>
</svg>
