<?xml version="1.0" encoding="UTF-8" standalone="no"?>
<!DOCTYPE svg PUBLIC "-//W3C//DTD SVG 1.1//EN"
 "http://www.w3.org/Graphics/SVG/1.1/DTD/svg11.dtd">
<!-- Generated by graphviz version 7.0.5 (20221223.1930)
 -->
<!-- Title: modbusParseRequestTCP Pages: 1 -->
<svg width="820pt" height="175pt"
 viewBox="0.00 0.00 820.00 175.00" xmlns="http://www.w3.org/2000/svg" xmlns:xlink="http://www.w3.org/1999/xlink">
<g id="graph0" class="graph" transform="scale(1 1) rotate(0) translate(4 171)">
<title>modbusParseRequestTCP</title>
<!-- Node1 -->
<g id="node1" class="node">
<title>Node1</title>
<g id="a_node1"><a xlink:title="Parses provided Modbus TCP request frame and generates a Modbus TCP response.">
<polygon fill="#999999" stroke="#666666" points="132,-93 0,-93 0,-74 132,-74 132,-93"/>
<text text-anchor="middle" x="66" y="-81" font-family="Helvetica,sans-Serif" font-size="10.00">modbusParseRequestTCP</text>
</a>
</g>
</g>
<!-- Node2 -->
<g id="node2" class="node">
<title>Node2</title>
<g id="a_node2"><a xlink:href="base_8h.html#ae82c3ced0b1698622b222761851d02c0" target="_top" xlink:title="Prepares buffer to store a Modbus TCP message.">
<polygon fill="white" stroke="#666666" points="288,-167 168,-167 168,-148 288,-148 288,-167"/>
<text text-anchor="middle" x="228" y="-155" font-family="Helvetica,sans-Serif" font-size="10.00">modbusBufferModeTCP</text>
</a>
</g>
</g>
<!-- Node1&#45;&gt;Node2 -->
<g id="edge1" class="edge">
<title>Node1&#45;&gt;Node2</title>
<path fill="none" stroke="#63b8ff" d="M82.57,-93.49C101.98,-105.62 136.44,-126.11 168,-139.5 171.61,-141.03 175.39,-142.49 179.23,-143.87"/>
<polygon fill="#63b8ff" stroke="#63b8ff" points="178.04,-147.16 188.63,-147.05 180.28,-140.53 178.04,-147.16"/>
</g>
<!-- Node3 -->
<g id="node3" class="node">
<title>Node3</title>
<g id="a_node3"><a xlink:href="base_8h.html#a64880e7075f445881485396f3aa869c5" target="_top" xlink:title="Checks if ModbusErrorInfo contains an error.">
<polygon fill="white" stroke="#666666" points="264,-130 192,-130 192,-111 264,-111 264,-130"/>
<text text-anchor="middle" x="228" y="-118" font-family="Helvetica,sans-Serif" font-size="10.00">modbusIsOk</text>
</a>
</g>
</g>
<!-- Node1&#45;&gt;Node3 -->
<g id="edge2" class="edge">
<title>Node1&#45;&gt;Node3</title>
<path fill="none" stroke="#63b8ff" d="M109.88,-93.42C131.63,-98.45 158.1,-104.57 180.36,-109.71"/>
<polygon fill="#63b8ff" stroke="#63b8ff" points="179.57,-113.12 190.1,-111.97 181.14,-106.3 179.57,-113.12"/>
</g>
<!-- Node6 -->
<g id="node6" class="node">
<title>Node6</title>
<g id="a_node6"><a xlink:href="base_8h.html#a39dcd3aad118a779b7e1775fea3e5d77" target="_top" xlink:title="Sets up the MBAP header in a Modbus TCP frame.">
<polygon fill="white" stroke="#666666" points="274.5,-93 181.5,-93 181.5,-74 274.5,-74 274.5,-93"/>
<text text-anchor="middle" x="228" y="-81" font-family="Helvetica,sans-Serif" font-size="10.00">modbusPackTCP</text>
</a>
</g>
</g>
<!-- Node1&#45;&gt;Node6 -->
<g id="edge5" class="edge">
<title>Node1&#45;&gt;Node6</title>
<path fill="none" stroke="#63b8ff" d="M132.08,-83.5C144.54,-83.5 157.49,-83.5 169.68,-83.5"/>
<polygon fill="#63b8ff" stroke="#63b8ff" points="169.58,-87 179.58,-83.5 169.58,-80 169.58,-87"/>
</g>
<!-- Node8 -->
<g id="node8" class="node">
<title>Node8</title>
<g id="a_node8"><a xlink:href="slave_8impl_8h.html#aff0a9164a0e37aa619232ae86e3ff97a" target="_top" xlink:title="Parses provided PDU and generates response honorinng pduOffset and padding set in ModbusSlave during ...">
<polygon fill="white" stroke="#666666" points="284.5,-56 171.5,-56 171.5,-37 284.5,-37 284.5,-56"/>
<text text-anchor="middle" x="228" y="-44" font-family="Helvetica,sans-Serif" font-size="10.00">modbusParseRequest</text>
</a>
</g>
</g>
<!-- Node1&#45;&gt;Node8 -->
<g id="edge7" class="edge">
<title>Node1&#45;&gt;Node8</title>
<path fill="none" stroke="#63b8ff" d="M109.88,-73.58C129.25,-69.11 152.35,-63.76 172.89,-59.01"/>
<polygon fill="#63b8ff" stroke="#63b8ff" points="173.58,-62.45 182.53,-56.78 172,-55.63 173.58,-62.45"/>
</g>
<!-- Node13 -->
<g id="node13" class="node">
<title>Node13</title>
<g id="a_node13"><a xlink:href="base_8h.html#a616e5bdb5ebcd57b1604421f6ca22bc9" target="_top" xlink:title="Unpacks data from a Modbus TCP frame.">
<polygon fill="white" stroke="#666666" points="280,-19 176,-19 176,0 280,0 280,-19"/>
<text text-anchor="middle" x="228" y="-7" font-family="Helvetica,sans-Serif" font-size="10.00">modbusUnpackTCP</text>
</a>
</g>
</g>
<!-- Node1&#45;&gt;Node13 -->
<g id="edge12" class="edge">
<title>Node1&#45;&gt;Node13</title>
<path fill="none" stroke="#63b8ff" d="M82.57,-73.51C101.98,-61.38 136.44,-40.89 168,-27.5 171.61,-25.97 175.39,-24.51 179.23,-23.13"/>
<polygon fill="#63b8ff" stroke="#63b8ff" points="180.28,-26.47 188.63,-19.95 178.04,-19.84 180.28,-26.47"/>
</g>
<!-- Node4 -->
<g id="node4" class="node">
<title>Node4</title>
<g id="a_node4"><a xlink:href="base_8h.html#a29d2a7853b328113e4fcddae85fd3ce5" target="_top" xlink:title="Returns ModbusError contained in ModbusErrorInfo.">
<polygon fill="white" stroke="#666666" points="438,-167 328,-167 328,-148 438,-148 438,-167"/>
<text text-anchor="middle" x="383" y="-155" font-family="Helvetica,sans-Serif" font-size="10.00">modbusGetErrorCode</text>
</a>
</g>
</g>
<!-- Node3&#45;&gt;Node4 -->
<g id="edge3" class="edge">
<title>Node3&#45;&gt;Node4</title>
<path fill="none" stroke="#63b8ff" d="M264.49,-129.08C283.88,-133.77 308.27,-139.67 329.79,-144.87"/>
<polygon fill="#63b8ff" stroke="#63b8ff" points="328.73,-148.22 339.28,-147.17 330.38,-141.42 328.73,-148.22"/>
</g>
<!-- Node5 -->
<g id="node5" class="node">
<title>Node5</title>
<g id="a_node5"><a xlink:href="base_8h.html#a9ee4c2e633c7a42f88acc09b95f8171e" target="_top" xlink:title="Returns uint8_t describing error source of ModbusErrorInfo.">
<polygon fill="white" stroke="#666666" points="442,-130 324,-130 324,-111 442,-111 442,-130"/>
<text text-anchor="middle" x="383" y="-118" font-family="Helvetica,sans-Serif" font-size="10.00">modbusGetErrorSource</text>
</a>
</g>
</g>
<!-- Node3&#45;&gt;Node5 -->
<g id="edge4" class="edge">
<title>Node3&#45;&gt;Node5</title>
<path fill="none" stroke="#63b8ff" d="M264.49,-120.5C278.76,-120.5 295.74,-120.5 312.29,-120.5"/>
<polygon fill="#63b8ff" stroke="#63b8ff" points="312.13,-124 322.13,-120.5 312.13,-117 312.13,-124"/>
</g>
<!-- Node7 -->
<g id="node7" class="node">
<title>Node7</title>
<g id="a_node7"><a xlink:href="base_8h.html#a73b9f793bbe67a1968cc8c53a22d4c4b" target="_top" xlink:title="Safely writes a big&#45;endian 16&#45;bit word to provided pointer.">
<polygon fill="white" stroke="#666666" points="419.5,-93 346.5,-93 346.5,-74 419.5,-74 419.5,-93"/>
<text text-anchor="middle" x="383" y="-81" font-family="Helvetica,sans-Serif" font-size="10.00">modbusWBE</text>
</a>
</g>
</g>
<!-- Node6&#45;&gt;Node7 -->
<g id="edge6" class="edge">
<title>Node6&#45;&gt;Node7</title>
<path fill="none" stroke="#63b8ff" d="M274.91,-83.5C293.86,-83.5 315.81,-83.5 334.89,-83.5"/>
<polygon fill="#63b8ff" stroke="#63b8ff" points="334.83,-87 344.83,-83.5 334.83,-80 334.83,-87"/>
</g>
<!-- Node9 -->
<g id="node9" class="node">
<title>Node9</title>
<g id="a_node9"><a xlink:href="slave_8impl_8h.html#a58243ce1e1adaffd0a3260edc2d03603" target="_top" xlink:title="Builds an exception response frame.">
<polygon fill="white" stroke="#666666" points="440.5,-56 325.5,-56 325.5,-37 440.5,-37 440.5,-56"/>
<text text-anchor="middle" x="383" y="-44" font-family="Helvetica,sans-Serif" font-size="10.00">modbusBuildException</text>
</a>
</g>
</g>
<!-- Node8&#45;&gt;Node9 -->
<g id="edge8" class="edge">
<title>Node8&#45;&gt;Node9</title>
<path fill="none" stroke="#63b8ff" d="M284.67,-46.5C294.13,-46.5 304.04,-46.5 313.78,-46.5"/>
<polygon fill="#63b8ff" stroke="#63b8ff" points="313.57,-50 323.57,-46.5 313.57,-43 313.57,-50"/>
</g>
<!-- Node10 -->
<g id="node10" class="node">
<title>Node10</title>
<g id="a_node10"><a xlink:href="slave_8h.html#ad1165bb6d12af1db502a05df5da55aed" target="_top" xlink:title="Allocates memory for slave&#39;s response frame.">
<polygon fill="white" stroke="#666666" points="633,-56 478,-56 478,-37 633,-37 633,-56"/>
<text text-anchor="middle" x="555.5" y="-44" font-family="Helvetica,sans-Serif" font-size="10.00">modbusSlaveAllocateResponse</text>
</a>
</g>
</g>
<!-- Node9&#45;&gt;Node10 -->
<g id="edge9" class="edge">
<title>Node9&#45;&gt;Node10</title>
<path fill="none" stroke="#63b8ff" d="M440.77,-46.5C448.99,-46.5 457.61,-46.5 466.27,-46.5"/>
<polygon fill="#63b8ff" stroke="#63b8ff" points="466.13,-50 476.13,-46.5 466.13,-43 466.13,-50"/>
</g>
<!-- Node11 -->
<g id="node11" class="node">
<title>Node11</title>
<g id="a_node11"><a xlink:href="base_8impl_8h.html#a54f7d1db7f58ffd329b1955ad1a66f37" target="_top" xlink:title="Allocates memory to hold Modbus ADU.">
<polygon fill="white" stroke="#666666" points="807,-75 674,-75 674,-56 807,-56 807,-75"/>
<text text-anchor="middle" x="740.5" y="-63" font-family="Helvetica,sans-Serif" font-size="10.00">modbusBufferAllocateADU</text>
</a>
</g>
</g>
<!-- Node10&#45;&gt;Node11 -->
<g id="edge10" class="edge">
<title>Node10&#45;&gt;Node11</title>
<path fill="none" stroke="#63b8ff" d="M633.31,-54.48C642.94,-55.48 652.8,-56.5 662.43,-57.5"/>
<polygon fill="#63b8ff" stroke="#63b8ff" points="661.8,-60.95 672.11,-58.5 662.53,-53.99 661.8,-60.95"/>
</g>
<!-- Node12 -->
<g id="node12" class="node">
<title>Node12</title>
<g id="a_node12"><a xlink:href="slave_8h.html#a6517cff5567f0f07444d140edc7dfafd" target="_top" xlink:title="Retreieves the custom context pointer.">
<polygon fill="white" stroke="#666666" points="812,-38 669,-38 669,-19 812,-19 812,-38"/>
<text text-anchor="middle" x="740.5" y="-26" font-family="Helvetica,sans-Serif" font-size="10.00">modbusSlaveGetUserPointer</text>
</a>
</g>
</g>
<!-- Node10&#45;&gt;Node12 -->
<g id="edge11" class="edge">
<title>Node10&#45;&gt;Node12</title>
<path fill="none" stroke="#63b8ff" d="M633.31,-38.94C641.29,-38.16 649.42,-37.36 657.45,-36.57"/>
<polygon fill="#63b8ff" stroke="#63b8ff" points="657.6,-40.07 667.21,-35.61 656.92,-33.11 657.6,-40.07"/>
</g>
<!-- Node14 -->
<g id="node14" class="node">
<title>Node14</title>
<g id="a_node14"><a xlink:href="base_8h.html#ace96da9afdf1e1796a6e2d7ac1f6c81a" target="_top" xlink:title="Safely reads a big&#45;endian 16&#45;bit word from provided pointer.">
<polygon fill="white" stroke="#666666" points="418.5,-19 347.5,-19 347.5,0 418.5,0 418.5,-19"/>
<text text-anchor="middle" x="383" y="-7" font-family="Helvetica,sans-Serif" font-size="10.00">modbusRBE</text>
</a>
</g>
</g>
<!-- Node13&#45;&gt;Node14 -->
<g id="edge13" class="edge">
<title>Node13&#45;&gt;Node14</title>
<path fill="none" stroke="#63b8ff" d="M280.37,-9.5C298.37,-9.5 318.47,-9.5 336,-9.5"/>
<polygon fill="#63b8ff" stroke="#63b8ff" points="335.87,-13 345.87,-9.5 335.87,-6 335.87,-13"/>
</g>
</g>
</svg>
