<?xml version="1.0" encoding="UTF-8" standalone="no"?>
<!DOCTYPE svg PUBLIC "-//W3C//DTD SVG 1.1//EN"
 "http://www.w3.org/Graphics/SVG/1.1/DTD/svg11.dtd">
<!-- Generated by graphviz version 7.0.5 (20221223.1930)
 -->
<!-- Title: modbusBuildExceptionTCP Pages: 1 -->
<svg width="663pt" height="156pt"
 viewBox="0.00 0.00 663.00 156.00" xmlns="http://www.w3.org/2000/svg" xmlns:xlink="http://www.w3.org/1999/xlink">
<g id="graph0" class="graph" transform="scale(1 1) rotate(0) translate(4 152)">
<title>modbusBuildExceptionTCP</title>
<!-- Node1 -->
<g id="node1" class="node">
<title>Node1</title>
<g id="a_node1"><a xlink:title="Builds a Modbus TCP exception.">
<polygon fill="#999999" stroke="#666666" points="134,-83 0,-83 0,-64 134,-64 134,-83"/>
<text text-anchor="middle" x="67" y="-71" font-family="Helvetica,sans-Serif" font-size="10.00">modbusBuildExceptionTCP</text>
</a>
</g>
</g>
<!-- Node2 -->
<g id="node2" class="node">
<title>Node2</title>
<g id="a_node2"><a xlink:href="slave_8impl_8h.html#a58243ce1e1adaffd0a3260edc2d03603" target="_top" xlink:title="Builds an exception response frame.">
<polygon fill="white" stroke="#666666" points="285,-125 170,-125 170,-106 285,-106 285,-125"/>
<text text-anchor="middle" x="227.5" y="-113" font-family="Helvetica,sans-Serif" font-size="10.00">modbusBuildException</text>
</a>
</g>
</g>
<!-- Node1&#45;&gt;Node2 -->
<g id="edge1" class="edge">
<title>Node1&#45;&gt;Node2</title>
<path fill="none" stroke="#63b8ff" d="M105.56,-83.45C127.2,-89.19 154.63,-96.45 177.89,-102.62"/>
<polygon fill="#63b8ff" stroke="#63b8ff" points="176.91,-105.98 187.47,-105.16 178.7,-99.21 176.91,-105.98"/>
</g>
<!-- Node6 -->
<g id="node6" class="node">
<title>Node6</title>
<g id="a_node6"><a xlink:href="base_8h.html#a64880e7075f445881485396f3aa869c5" target="_top" xlink:title="Checks if ModbusErrorInfo contains an error.">
<polygon fill="white" stroke="#666666" points="263.5,-83 191.5,-83 191.5,-64 263.5,-64 263.5,-83"/>
<text text-anchor="middle" x="227.5" y="-71" font-family="Helvetica,sans-Serif" font-size="10.00">modbusIsOk</text>
</a>
</g>
</g>
<!-- Node1&#45;&gt;Node6 -->
<g id="edge5" class="edge">
<title>Node1&#45;&gt;Node6</title>
<path fill="none" stroke="#63b8ff" d="M134.3,-73.5C149.54,-73.5 165.44,-73.5 179.66,-73.5"/>
<polygon fill="#63b8ff" stroke="#63b8ff" points="179.64,-77 189.64,-73.5 179.64,-70 179.64,-77"/>
</g>
<!-- Node9 -->
<g id="node9" class="node">
<title>Node9</title>
<g id="a_node9"><a xlink:href="base_8h.html#a39dcd3aad118a779b7e1775fea3e5d77" target="_top" xlink:title="Sets up the MBAP header in a Modbus TCP frame.">
<polygon fill="white" stroke="#666666" points="274,-37 181,-37 181,-18 274,-18 274,-37"/>
<text text-anchor="middle" x="227.5" y="-25" font-family="Helvetica,sans-Serif" font-size="10.00">modbusPackTCP</text>
</a>
</g>
</g>
<!-- Node1&#45;&gt;Node9 -->
<g id="edge8" class="edge">
<title>Node1&#45;&gt;Node9</title>
<path fill="none" stroke="#63b8ff" d="M102.39,-63.52C125.55,-56.8 156.33,-47.86 181.44,-40.58"/>
<polygon fill="#63b8ff" stroke="#63b8ff" points="182.09,-44.03 190.72,-37.88 180.14,-37.31 182.09,-44.03"/>
</g>
<!-- Node3 -->
<g id="node3" class="node">
<title>Node3</title>
<g id="a_node3"><a xlink:href="slave_8h.html#ad1165bb6d12af1db502a05df5da55aed" target="_top" xlink:title="Allocates memory for slave&#39;s response frame.">
<polygon fill="white" stroke="#666666" points="476,-130 321,-130 321,-111 476,-111 476,-130"/>
<text text-anchor="middle" x="398.5" y="-118" font-family="Helvetica,sans-Serif" font-size="10.00">modbusSlaveAllocateResponse</text>
</a>
</g>
</g>
<!-- Node2&#45;&gt;Node3 -->
<g id="edge2" class="edge">
<title>Node2&#45;&gt;Node3</title>
<path fill="none" stroke="#63b8ff" d="M285.24,-117.18C293.09,-117.41 301.29,-117.65 309.54,-117.9"/>
<polygon fill="#63b8ff" stroke="#63b8ff" points="309.18,-121.39 319.27,-118.19 309.38,-114.39 309.18,-121.39"/>
</g>
<!-- Node4 -->
<g id="node4" class="node">
<title>Node4</title>
<g id="a_node4"><a xlink:href="base_8impl_8h.html#a54f7d1db7f58ffd329b1955ad1a66f37" target="_top" xlink:title="Allocates memory to hold Modbus ADU.">
<polygon fill="white" stroke="#666666" points="650,-148 517,-148 517,-129 650,-129 650,-148"/>
<text text-anchor="middle" x="583.5" y="-136" font-family="Helvetica,sans-Serif" font-size="10.00">modbusBufferAllocateADU</text>
</a>
</g>
</g>
<!-- Node3&#45;&gt;Node4 -->
<g id="edge3" class="edge">
<title>Node3&#45;&gt;Node4</title>
<path fill="none" stroke="#63b8ff" d="M476.31,-128.06C485.94,-129 495.8,-129.97 505.43,-130.92"/>
<polygon fill="#63b8ff" stroke="#63b8ff" points="504.82,-134.38 515.11,-131.87 505.5,-127.41 504.82,-134.38"/>
</g>
<!-- Node5 -->
<g id="node5" class="node">
<title>Node5</title>
<g id="a_node5"><a xlink:href="slave_8h.html#a6517cff5567f0f07444d140edc7dfafd" target="_top" xlink:title="Retreieves the custom context pointer.">
<polygon fill="white" stroke="#666666" points="655,-111 512,-111 512,-92 655,-92 655,-111"/>
<text text-anchor="middle" x="583.5" y="-99" font-family="Helvetica,sans-Serif" font-size="10.00">modbusSlaveGetUserPointer</text>
</a>
</g>
</g>
<!-- Node3&#45;&gt;Node5 -->
<g id="edge4" class="edge">
<title>Node3&#45;&gt;Node5</title>
<path fill="none" stroke="#63b8ff" d="M476.31,-112.52C484.29,-111.7 492.42,-110.85 500.45,-110.02"/>
<polygon fill="#63b8ff" stroke="#63b8ff" points="500.63,-113.52 510.21,-109.01 499.91,-106.56 500.63,-113.52"/>
</g>
<!-- Node7 -->
<g id="node7" class="node">
<title>Node7</title>
<g id="a_node7"><a xlink:href="base_8h.html#a29d2a7853b328113e4fcddae85fd3ce5" target="_top" xlink:title="Returns ModbusError contained in ModbusErrorInfo.">
<polygon fill="white" stroke="#666666" points="453.5,-93 343.5,-93 343.5,-74 453.5,-74 453.5,-93"/>
<text text-anchor="middle" x="398.5" y="-81" font-family="Helvetica,sans-Serif" font-size="10.00">modbusGetErrorCode</text>
</a>
</g>
</g>
<!-- Node6&#45;&gt;Node7 -->
<g id="edge6" class="edge">
<title>Node6&#45;&gt;Node7</title>
<path fill="none" stroke="#63b8ff" d="M263.93,-75.6C283.55,-76.76 308.58,-78.24 331.65,-79.6"/>
<polygon fill="#63b8ff" stroke="#63b8ff" points="331.45,-83.1 341.63,-80.19 331.86,-76.11 331.45,-83.1"/>
</g>
<!-- Node8 -->
<g id="node8" class="node">
<title>Node8</title>
<g id="a_node8"><a xlink:href="base_8h.html#a9ee4c2e633c7a42f88acc09b95f8171e" target="_top" xlink:title="Returns uint8_t describing error source of ModbusErrorInfo.">
<polygon fill="white" stroke="#666666" points="457.5,-56 339.5,-56 339.5,-37 457.5,-37 457.5,-56"/>
<text text-anchor="middle" x="398.5" y="-44" font-family="Helvetica,sans-Serif" font-size="10.00">modbusGetErrorSource</text>
</a>
</g>
</g>
<!-- Node6&#45;&gt;Node8 -->
<g id="edge7" class="edge">
<title>Node6&#45;&gt;Node8</title>
<path fill="none" stroke="#63b8ff" d="M263.93,-67.84C282.47,-64.88 305.84,-61.14 327.83,-57.63"/>
<polygon fill="#63b8ff" stroke="#63b8ff" points="328.35,-61.09 337.68,-56.06 327.25,-54.18 328.35,-61.09"/>
</g>
<!-- Node10 -->
<g id="node10" class="node">
<title>Node10</title>
<g id="a_node10"><a xlink:href="base_8h.html#a73b9f793bbe67a1968cc8c53a22d4c4b" target="_top" xlink:title="Safely writes a big&#45;endian 16&#45;bit word to provided pointer.">
<polygon fill="white" stroke="#666666" points="435,-19 362,-19 362,0 435,0 435,-19"/>
<text text-anchor="middle" x="398.5" y="-7" font-family="Helvetica,sans-Serif" font-size="10.00">modbusWBE</text>
</a>
</g>
</g>
<!-- Node9&#45;&gt;Node10 -->
<g id="edge9" class="edge">
<title>Node9&#45;&gt;Node10</title>
<path fill="none" stroke="#63b8ff" d="M274.23,-22.63C297.84,-20.11 326.6,-17.05 350.4,-14.52"/>
<polygon fill="#63b8ff" stroke="#63b8ff" points="350.56,-18.02 360.14,-13.48 349.82,-11.06 350.56,-18.02"/>
</g>
</g>
</svg>
