<?xml version="1.0" encoding="UTF-8" standalone="no"?>
<!DOCTYPE svg PUBLIC "-//W3C//DTD SVG 1.1//EN"
 "http://www.w3.org/Graphics/SVG/1.1/DTD/svg11.dtd">
<!-- Generated by graphviz version 7.0.5 (20221223.1930)
 -->
<!-- Title: include/lightmodbus/slave.h Pages: 1 -->
<svg width="469pt" height="302pt"
 viewBox="0.00 0.00 469.00 302.00" xmlns="http://www.w3.org/2000/svg" xmlns:xlink="http://www.w3.org/1999/xlink">
<g id="graph0" class="graph" transform="scale(1 1) rotate(0) translate(4 298)">
<title>include/lightmodbus/slave.h</title>
<!-- Node1 -->
<g id="node1" class="node">
<title>Node1</title>
<g id="a_node1"><a xlink:title="Slave&#39;s types and basic functions (header)">
<polygon fill="#999999" stroke="#666666" points="301,-294 198,-294 198,-264 301,-264 301,-294"/>
<text text-anchor="start" x="206" y="-282" font-family="Helvetica,sans-Serif" font-size="10.00">include/lightmodbus</text>
<text text-anchor="middle" x="249.5" y="-271" font-family="Helvetica,sans-Serif" font-size="10.00">/slave.h</text>
</a>
</g>
</g>
<!-- Node2 -->
<g id="node2" class="node">
<title>Node2</title>
<g id="a_node2"><a xlink:href="debug_8h.html" target="_top" xlink:title="Debug utilities (header)">
<polygon fill="white" stroke="#666666" points="141,-228 38,-228 38,-198 141,-198 141,-228"/>
<text text-anchor="start" x="46" y="-216" font-family="Helvetica,sans-Serif" font-size="10.00">include/lightmodbus</text>
<text text-anchor="middle" x="89.5" y="-205" font-family="Helvetica,sans-Serif" font-size="10.00">/debug.h</text>
</a>
</g>
</g>
<!-- Node1&#45;&gt;Node2 -->
<g id="edge1" class="edge">
<title>Node1&#45;&gt;Node2</title>
<path fill="none" stroke="#63b8ff" d="M203.02,-259.41C178.34,-249.54 148.47,-237.59 125.56,-228.43"/>
<polygon fill="#63b8ff" stroke="#63b8ff" points="201.6,-262.61 212.19,-263.08 204.2,-256.11 201.6,-262.61"/>
</g>
<!-- Node4 -->
<g id="node4" class="node">
<title>Node4</title>
<g id="a_node4"><a xlink:href="lightmodbus_8h.html" target="_top" xlink:title="The main library header file (include this one)">
<polygon fill="white" stroke="#666666" points="261,-96 158,-96 158,-66 261,-66 261,-96"/>
<text text-anchor="start" x="166" y="-84" font-family="Helvetica,sans-Serif" font-size="10.00">include/lightmodbus</text>
<text text-anchor="middle" x="209.5" y="-73" font-family="Helvetica,sans-Serif" font-size="10.00">/lightmodbus.h</text>
</a>
</g>
</g>
<!-- Node1&#45;&gt;Node4 -->
<g id="edge6" class="edge">
<title>Node1&#45;&gt;Node4</title>
<path fill="none" stroke="#63b8ff" d="M232.8,-254.12C218.11,-231.57 197.82,-196.2 189.5,-162 183.92,-139.05 193.84,-112.45 201.6,-96.44"/>
<polygon fill="#63b8ff" stroke="#63b8ff" points="229.78,-255.91 238.24,-262.27 235.6,-252.02 229.78,-255.91"/>
</g>
<!-- Node6 -->
<g id="node6" class="node">
<title>Node6</title>
<g id="a_node6"><a xlink:href="slave_8impl_8h.html" target="_top" xlink:title="Slave&#39;s types and basic functions (implementation)">
<polygon fill="white" stroke="#666666" points="301,-162 198,-162 198,-132 301,-132 301,-162"/>
<text text-anchor="start" x="206" y="-150" font-family="Helvetica,sans-Serif" font-size="10.00">include/lightmodbus</text>
<text text-anchor="middle" x="249.5" y="-139" font-family="Helvetica,sans-Serif" font-size="10.00">/slave.impl.h</text>
</a>
</g>
</g>
<!-- Node1&#45;&gt;Node6 -->
<g id="edge7" class="edge">
<title>Node1&#45;&gt;Node6</title>
<path fill="none" stroke="#63b8ff" d="M249.5,-252.38C249.5,-225.49 249.5,-184.18 249.5,-162.47"/>
<polygon fill="#63b8ff" stroke="#63b8ff" points="246,-252.08 249.5,-262.08 253,-252.08 246,-252.08"/>
</g>
<!-- Node7 -->
<g id="node7" class="node">
<title>Node7</title>
<g id="a_node7"><a xlink:href="slave__func_8h.html" target="_top" xlink:title="Slave&#39;s functions for parsing requests (header)">
<polygon fill="white" stroke="#666666" points="381,-228 278,-228 278,-198 381,-198 381,-228"/>
<text text-anchor="start" x="286" y="-216" font-family="Helvetica,sans-Serif" font-size="10.00">include/lightmodbus</text>
<text text-anchor="middle" x="329.5" y="-205" font-family="Helvetica,sans-Serif" font-size="10.00">/slave_func.h</text>
</a>
</g>
</g>
<!-- Node1&#45;&gt;Node7 -->
<g id="edge9" class="edge">
<title>Node1&#45;&gt;Node7</title>
<path fill="none" stroke="#63b8ff" d="M276.13,-256.7C287.76,-247.4 301.09,-236.73 311.52,-228.39"/>
<polygon fill="#63b8ff" stroke="#63b8ff" points="274.06,-253.87 268.44,-262.85 278.43,-259.34 274.06,-253.87"/>
</g>
<!-- Node8 -->
<g id="node8" class="node">
<title>Node8</title>
<g id="a_node8"><a xlink:href="slave__func_8impl_8h.html" target="_top" xlink:title="Slave&#39;s functions for parsing requests (implementation)">
<polygon fill="white" stroke="#666666" points="461,-162 358,-162 358,-132 461,-132 461,-162"/>
<text text-anchor="start" x="366" y="-150" font-family="Helvetica,sans-Serif" font-size="10.00">include/lightmodbus</text>
<text text-anchor="middle" x="409.5" y="-139" font-family="Helvetica,sans-Serif" font-size="10.00">/slave_func.impl.h</text>
</a>
</g>
</g>
<!-- Node1&#45;&gt;Node8 -->
<g id="edge14" class="edge">
<title>Node1&#45;&gt;Node8</title>
<path fill="none" stroke="#63b8ff" d="M312.45,-269.46C339.99,-262.6 370.52,-250.25 390.5,-228 406.9,-209.73 409.84,-179.9 410,-162.29"/>
<polygon fill="#63b8ff" stroke="#63b8ff" points="311.72,-266.03 302.74,-271.65 313.27,-272.86 311.72,-266.03"/>
</g>
<!-- Node3 -->
<g id="node3" class="node">
<title>Node3</title>
<g id="a_node3"><a xlink:href="debug_8impl_8h.html" target="_top" xlink:title="Debug utilities (implementation)">
<polygon fill="white" stroke="#666666" points="103,-162 0,-162 0,-132 103,-132 103,-162"/>
<text text-anchor="start" x="8" y="-150" font-family="Helvetica,sans-Serif" font-size="10.00">include/lightmodbus</text>
<text text-anchor="middle" x="51.5" y="-139" font-family="Helvetica,sans-Serif" font-size="10.00">/debug.impl.h</text>
</a>
</g>
</g>
<!-- Node2&#45;&gt;Node3 -->
<g id="edge2" class="edge">
<title>Node2&#45;&gt;Node3</title>
<path fill="none" stroke="#63b8ff" d="M75.32,-188.11C70.13,-179.38 64.43,-169.78 59.91,-162.16"/>
<polygon fill="#63b8ff" stroke="#63b8ff" points="72.18,-189.68 80.29,-196.49 78.2,-186.11 72.18,-189.68"/>
</g>
<!-- Node2&#45;&gt;Node4 -->
<g id="edge5" class="edge">
<title>Node2&#45;&gt;Node4</title>
<path fill="none" stroke="#63b8ff" d="M107.32,-188.76C120.18,-172.41 138.24,-150.27 155.5,-132 167.43,-119.37 181.93,-106.05 192.89,-96.33"/>
<polygon fill="#63b8ff" stroke="#63b8ff" points="104.71,-186.41 101.33,-196.45 110.24,-190.71 104.71,-186.41"/>
</g>
<!-- Node3&#45;&gt;Node4 -->
<g id="edge3" class="edge">
<title>Node3&#45;&gt;Node4</title>
<path fill="none" stroke="#63b8ff" d="M97.4,-127.41C121.77,-117.54 151.27,-105.59 173.89,-96.43"/>
<polygon fill="#63b8ff" stroke="#63b8ff" points="96.32,-124.07 88.36,-131.07 98.94,-130.56 96.32,-124.07"/>
</g>
<!-- Node5 -->
<g id="node5" class="node">
<title>Node5</title>
<g id="a_node5"><a xlink:href="lightmodbus_8hpp.html" target="_top" xlink:title="(Very) experimental liblightmodbus C++ interface">
<polygon fill="white" stroke="#666666" points="261,-30 158,-30 158,0 261,0 261,-30"/>
<text text-anchor="start" x="166" y="-18" font-family="Helvetica,sans-Serif" font-size="10.00">include/lightmodbus</text>
<text text-anchor="middle" x="209.5" y="-7" font-family="Helvetica,sans-Serif" font-size="10.00">/lightmodbus.hpp</text>
</a>
</g>
</g>
<!-- Node4&#45;&gt;Node5 -->
<g id="edge4" class="edge">
<title>Node4&#45;&gt;Node5</title>
<path fill="none" stroke="#63b8ff" d="M209.5,-54.39C209.5,-46.13 209.5,-37.28 209.5,-30.16"/>
<polygon fill="#63b8ff" stroke="#63b8ff" points="206,-54.28 209.5,-64.28 213,-54.28 206,-54.28"/>
</g>
<!-- Node6&#45;&gt;Node4 -->
<g id="edge8" class="edge">
<title>Node6&#45;&gt;Node4</title>
<path fill="none" stroke="#63b8ff" d="M234.57,-122.11C229.11,-113.38 223.11,-103.78 218.35,-96.16"/>
<polygon fill="#63b8ff" stroke="#63b8ff" points="231.55,-123.89 239.82,-130.51 237.49,-120.18 231.55,-123.89"/>
</g>
<!-- Node7&#45;&gt;Node4 -->
<g id="edge10" class="edge">
<title>Node7&#45;&gt;Node4</title>
<path fill="none" stroke="#63b8ff" d="M328.92,-186.36C327.3,-169.33 322.73,-147.37 310.5,-132 297.46,-115.62 277.68,-104.2 259.07,-96.45"/>
<polygon fill="#63b8ff" stroke="#63b8ff" points="325.41,-186.45 329.54,-196.2 332.4,-186 325.41,-186.45"/>
</g>
<!-- Node7&#45;&gt;Node6 -->
<g id="edge11" class="edge">
<title>Node7&#45;&gt;Node6</title>
<path fill="none" stroke="#63b8ff" d="M302.87,-190.7C291.24,-181.4 277.91,-170.73 267.48,-162.39"/>
<polygon fill="#63b8ff" stroke="#63b8ff" points="300.57,-193.34 310.56,-196.85 304.94,-187.87 300.57,-193.34"/>
</g>
<!-- Node7&#45;&gt;Node8 -->
<g id="edge12" class="edge">
<title>Node7&#45;&gt;Node8</title>
<path fill="none" stroke="#63b8ff" d="M356.13,-190.7C367.76,-181.4 381.09,-170.73 391.52,-162.39"/>
<polygon fill="#63b8ff" stroke="#63b8ff" points="354.06,-187.87 348.44,-196.85 358.43,-193.34 354.06,-187.87"/>
</g>
<!-- Node8&#45;&gt;Node4 -->
<g id="edge13" class="edge">
<title>Node8&#45;&gt;Node4</title>
<path fill="none" stroke="#63b8ff" d="M353.87,-128.2C322.57,-118.18 283.98,-105.83 254.58,-96.43"/>
<polygon fill="#63b8ff" stroke="#63b8ff" points="352.58,-131.46 363.17,-131.18 354.72,-124.79 352.58,-131.46"/>
</g>
</g>
</svg>
