<?xml version="1.0" encoding="UTF-8" standalone="no"?>
<!DOCTYPE svg PUBLIC "-//W3C//DTD SVG 1.1//EN"
 "http://www.w3.org/Graphics/SVG/1.1/DTD/svg11.dtd">
<!-- Generated by graphviz version 7.0.5 (20221223.1930)
 -->
<!-- Title: ModbusSlave Pages: 1 -->
<svg width="308pt" height="162pt"
 viewBox="0.00 0.00 308.00 162.00" xmlns="http://www.w3.org/2000/svg" xmlns:xlink="http://www.w3.org/1999/xlink">
<g id="graph0" class="graph" transform="scale(1 1) rotate(0) translate(4 158)">
<title>ModbusSlave</title>
<!-- Node1 -->
<g id="node1" class="node">
<title>Node1</title>
<g id="a_node1"><a xlink:title="Slave device status.">
<polygon fill="#999999" stroke="#666666" points="176.5,-20.5 100.5,-20.5 100.5,-1.5 176.5,-1.5 176.5,-20.5"/>
<text text-anchor="middle" x="138.5" y="-8.5" font-family="Helvetica,sans-Serif" font-size="10.00">ModbusSlave</text>
</a>
</g>
</g>
<!-- Node1&#45;&gt;Node1 -->
<g id="edge1" class="edge">
<title>Node1&#45;&gt;Node1</title>
<path fill="none" stroke="#9a32cd" stroke-dasharray="5,2" d="M188.25,-15.89C192.12,-14.81 194.5,-13.18 194.5,-11 194.5,-7.13 186.97,-4.99 176.98,-4.6"/>
<polygon fill="#9a32cd" stroke="#9a32cd" points="187.92,-12.4 178.48,-17.2 188.85,-19.34 187.92,-12.4"/>
<text text-anchor="middle" x="235.5" y="-14" font-family="Helvetica,sans-Serif" font-size="10.00"> exceptionCallback</text>
<text text-anchor="middle" x="235.5" y="-3" font-family="Helvetica,sans-Serif" font-size="10.00">registerCallback</text>
</g>
<!-- Node2 -->
<g id="node2" class="node">
<title>Node2</title>
<g id="a_node2"><a xlink:href="structModbusSlaveFunctionHandler.html" target="_top" xlink:title="Associates Modbus function ID with a pointer to a parsing function.">
<polygon fill="white" stroke="#666666" points="147,-88 0,-88 0,-69 147,-69 147,-88"/>
<text text-anchor="middle" x="73.5" y="-76" font-family="Helvetica,sans-Serif" font-size="10.00">ModbusSlaveFunctionHandler</text>
</a>
</g>
</g>
<!-- Node2&#45;&gt;Node1 -->
<g id="edge2" class="edge">
<title>Node2&#45;&gt;Node1</title>
<path fill="none" stroke="#9a32cd" stroke-dasharray="5,2" d="M90.23,-60.64C102.9,-47.87 119.8,-30.84 129.87,-20.69"/>
<polygon fill="#9a32cd" stroke="#9a32cd" points="87.89,-58.03 83.33,-67.59 92.86,-62.96 87.89,-58.03"/>
<text text-anchor="middle" x="132" y="-43" font-family="Helvetica,sans-Serif" font-size="10.00"> functions</text>
</g>
<!-- Node3 -->
<g id="node3" class="node">
<title>Node3</title>
<g id="a_node3"><a xlink:href="structModbusErrorInfo.html" target="_top" xlink:title="Richer error represenation &#45; source and type of error.">
<polygon fill="white" stroke="#666666" points="117.5,-154 29.5,-154 29.5,-135 117.5,-135 117.5,-154"/>
<text text-anchor="middle" x="73.5" y="-142" font-family="Helvetica,sans-Serif" font-size="10.00">ModbusErrorInfo</text>
</a>
</g>
</g>
<!-- Node3&#45;&gt;Node2 -->
<g id="edge3" class="edge">
<title>Node3&#45;&gt;Node2</title>
<path fill="none" stroke="#9a32cd" stroke-dasharray="5,2" d="M73.5,-123.18C73.5,-111.44 73.5,-97.27 73.5,-88.32"/>
<polygon fill="#9a32cd" stroke="#9a32cd" points="70,-123.09 73.5,-133.09 77,-123.09 70,-123.09"/>
<text text-anchor="middle" x="80.5" y="-109" font-family="Helvetica,sans-Serif" font-size="10.00"> ptr</text>
</g>
<!-- Node4 -->
<g id="node4" class="node">
<title>Node4</title>
<g id="a_node4"><a xlink:href="structModbusBuffer.html" target="_top" xlink:title="Stores a Modbus frame.">
<polygon fill="white" stroke="#666666" points="242,-88 165,-88 165,-69 242,-69 242,-88"/>
<text text-anchor="middle" x="203.5" y="-76" font-family="Helvetica,sans-Serif" font-size="10.00">ModbusBuffer</text>
</a>
</g>
</g>
<!-- Node4&#45;&gt;Node1 -->
<g id="edge4" class="edge">
<title>Node4&#45;&gt;Node1</title>
<path fill="none" stroke="#9a32cd" stroke-dasharray="5,2" d="M186.77,-60.64C174.1,-47.87 157.2,-30.84 147.13,-20.69"/>
<polygon fill="#9a32cd" stroke="#9a32cd" points="184.14,-62.96 193.67,-67.59 189.11,-58.03 184.14,-62.96"/>
<text text-anchor="middle" x="198" y="-43" font-family="Helvetica,sans-Serif" font-size="10.00"> response</text>
</g>
<!-- Node4&#45;&gt;Node4 -->
<g id="edge5" class="edge">
<title>Node4&#45;&gt;Node4</title>
<path fill="none" stroke="#9a32cd" stroke-dasharray="5,2" d="M253.7,-83.17C257.59,-82.14 260,-80.58 260,-78.5 260,-74.79 252.4,-72.75 242.32,-72.38"/>
<polygon fill="#9a32cd" stroke="#9a32cd" points="253.3,-79.7 243.82,-84.43 254.18,-86.64 253.3,-79.7"/>
<text text-anchor="middle" x="280" y="-76" font-family="Helvetica,sans-Serif" font-size="10.00"> allocator</text>
</g>
</g>
</svg>
