<?xml version="1.0" encoding="UTF-8" standalone="no"?>
<!DOCTYPE svg PUBLIC "-//W3C//DTD SVG 1.1//EN"
 "http://www.w3.org/Graphics/SVG/1.1/DTD/svg11.dtd">
<!-- Generated by graphviz version 7.0.5 (20221223.1930)
 -->
<!-- Title: ModbusMaster Pages: 1 -->
<svg width="314pt" height="162pt"
 viewBox="0.00 0.00 313.50 162.00" xmlns="http://www.w3.org/2000/svg" xmlns:xlink="http://www.w3.org/1999/xlink">
<g id="graph0" class="graph" transform="scale(1 1) rotate(0) translate(4 158)">
<title>ModbusMaster</title>
<!-- Node1 -->
<g id="node1" class="node">
<title>Node1</title>
<g id="a_node1"><a xlink:title="Master device status.">
<polygon fill="#999999" stroke="#666666" points="182.5,-20.5 101.5,-20.5 101.5,-1.5 182.5,-1.5 182.5,-20.5"/>
<text text-anchor="middle" x="142" y="-8.5" font-family="Helvetica,sans-Serif" font-size="10.00">ModbusMaster</text>
</a>
</g>
</g>
<!-- Node1&#45;&gt;Node1 -->
<g id="edge1" class="edge">
<title>Node1&#45;&gt;Node1</title>
<path fill="none" stroke="#9a32cd" stroke-dasharray="5,2" d="M193.85,-15.92C197.96,-14.84 200.5,-13.2 200.5,-11 200.5,-7.19 192.9,-5.07 182.73,-4.62"/>
<polygon fill="#9a32cd" stroke="#9a32cd" points="193.69,-12.41 184.24,-17.18 194.61,-19.35 193.69,-12.41"/>
<text text-anchor="middle" x="240" y="-14" font-family="Helvetica,sans-Serif" font-size="10.00"> dataCallback</text>
<text text-anchor="middle" x="240" y="-3" font-family="Helvetica,sans-Serif" font-size="10.00">exceptionCallback</text>
</g>
<!-- Node2 -->
<g id="node2" class="node">
<title>Node2</title>
<g id="a_node2"><a xlink:href="structModbusMasterFunctionHandler.html" target="_top" xlink:title="Associates Modbus function ID with a pointer to a response parsing function.">
<polygon fill="white" stroke="#666666" points="152,-88 0,-88 0,-69 152,-69 152,-88"/>
<text text-anchor="middle" x="76" y="-76" font-family="Helvetica,sans-Serif" font-size="10.00">ModbusMasterFunctionHandler</text>
</a>
</g>
</g>
<!-- Node2&#45;&gt;Node1 -->
<g id="edge2" class="edge">
<title>Node2&#45;&gt;Node1</title>
<path fill="none" stroke="#9a32cd" stroke-dasharray="5,2" d="M92.99,-60.64C105.86,-47.87 123.01,-30.84 133.24,-20.69"/>
<polygon fill="#9a32cd" stroke="#9a32cd" points="90.61,-58.07 85.98,-67.6 95.54,-63.04 90.61,-58.07"/>
<text text-anchor="middle" x="134.5" y="-43" font-family="Helvetica,sans-Serif" font-size="10.00"> functions</text>
</g>
<!-- Node3 -->
<g id="node3" class="node">
<title>Node3</title>
<g id="a_node3"><a xlink:href="structModbusErrorInfo.html" target="_top" xlink:title="Richer error represenation &#45; source and type of error.">
<polygon fill="white" stroke="#666666" points="120,-154 32,-154 32,-135 120,-135 120,-154"/>
<text text-anchor="middle" x="76" y="-142" font-family="Helvetica,sans-Serif" font-size="10.00">ModbusErrorInfo</text>
</a>
</g>
</g>
<!-- Node3&#45;&gt;Node2 -->
<g id="edge3" class="edge">
<title>Node3&#45;&gt;Node2</title>
<path fill="none" stroke="#9a32cd" stroke-dasharray="5,2" d="M76,-123.18C76,-111.44 76,-97.27 76,-88.32"/>
<polygon fill="#9a32cd" stroke="#9a32cd" points="72.5,-123.09 76,-133.09 79.5,-123.09 72.5,-123.09"/>
<text text-anchor="middle" x="83" y="-109" font-family="Helvetica,sans-Serif" font-size="10.00"> ptr</text>
</g>
<!-- Node4 -->
<g id="node4" class="node">
<title>Node4</title>
<g id="a_node4"><a xlink:href="structModbusBuffer.html" target="_top" xlink:title="Stores a Modbus frame.">
<polygon fill="white" stroke="#666666" points="247.5,-88 170.5,-88 170.5,-69 247.5,-69 247.5,-88"/>
<text text-anchor="middle" x="209" y="-76" font-family="Helvetica,sans-Serif" font-size="10.00">ModbusBuffer</text>
</a>
</g>
</g>
<!-- Node4&#45;&gt;Node1 -->
<g id="edge4" class="edge">
<title>Node4&#45;&gt;Node1</title>
<path fill="none" stroke="#9a32cd" stroke-dasharray="5,2" d="M191.76,-60.64C178.69,-47.87 161.28,-30.84 150.89,-20.69"/>
<polygon fill="#9a32cd" stroke="#9a32cd" points="189.28,-63.12 198.88,-67.61 194.18,-58.11 189.28,-63.12"/>
<text text-anchor="middle" x="198.5" y="-43" font-family="Helvetica,sans-Serif" font-size="10.00"> request</text>
</g>
<!-- Node4&#45;&gt;Node4 -->
<g id="edge5" class="edge">
<title>Node4&#45;&gt;Node4</title>
<path fill="none" stroke="#9a32cd" stroke-dasharray="5,2" d="M259.2,-83.17C263.09,-82.14 265.5,-80.58 265.5,-78.5 265.5,-74.79 257.9,-72.75 247.82,-72.38"/>
<polygon fill="#9a32cd" stroke="#9a32cd" points="258.8,-79.7 249.32,-84.43 259.68,-86.64 258.8,-79.7"/>
<text text-anchor="middle" x="285.5" y="-76" font-family="Helvetica,sans-Serif" font-size="10.00"> allocator</text>
</g>
</g>
</svg>
